<svg width="32" height="32" viewBox="0 0 32 32" fill="none" xmlns="http://www.w3.org/2000/svg">
<path opacity="0.989" fill-rule="evenodd" clip-rule="evenodd" d="M30.9689 11.4688C28.6147 11.4792 26.2605 11.4688 23.9064 11.4375C23.5206 11.3646 23.1664 11.2187 22.8439 11C22.3667 10.5853 21.9083 10.1478 21.4689 9.6875C21.3154 9.58988 21.1487 9.52738 20.9689 9.5C19.6148 9.45831 18.2606 9.45831 16.9064 9.5C16.4504 9.79481 16.3567 10.1803 16.6252 10.6563C16.7334 10.7886 16.8688 10.8823 17.0314 10.9375C18.1771 10.9688 19.3229 10.9792 20.4689 10.9688C20.4689 11.3021 20.4689 11.6354 20.4689 11.9688C16.3647 11.9583 12.2606 11.9688 8.15645 12C7.90739 12.2054 7.90739 12.4137 8.15645 12.625C10.5495 13.2598 12.9453 13.8848 15.3439 14.5C18.0952 15.1231 20.8452 15.1231 23.5939 14.5C26.0522 14.4688 28.5105 14.4583 30.9689 14.4688C30.9689 14.8021 30.9689 15.1354 30.9689 15.4688C28.6355 15.4583 26.3022 15.4688 23.9689 15.5C20.5 16.2294 17.0625 16.1044 13.6564 15.125C11.7398 14.625 9.82314 14.125 7.90645 13.625C6.94614 13.1608 6.70651 12.442 7.1877 11.4688C7.3782 11.2328 7.61776 11.0661 7.90645 10.9688C7.95851 7.98981 7.98976 5.01064 8.0002 2.03125C8.17726 1.52083 8.52101 1.17708 9.03145 1C14.4898 0.958333 19.9481 0.958333 25.4064 1C25.9169 1.17708 26.2606 1.52083 26.4377 2.03125C26.4689 4.82284 26.4794 7.6145 26.4689 10.4063C27.9689 10.4063 29.4689 10.4063 30.9689 10.4063C30.9689 10.7604 30.9689 11.1146 30.9689 11.4688Z" fill="#010101"/>
<path fill-rule="evenodd" clip-rule="evenodd" d="M25.4688 4.71875C24.9929 6.10778 24.2742 7.35775 23.3125 8.46875C23.0566 8.75638 22.7754 9.00638 22.4688 9.21875C22.0999 8.86181 21.6624 8.62225 21.1563 8.5C19.6979 8.45831 18.2396 8.45831 16.7813 8.5C15.6784 8.9245 15.2826 9.70575 15.5938 10.8438C13.3961 10.9061 11.1878 10.927 8.96876 10.9063C8.95832 8.03119 8.96876 5.15618 9.00001 2.28125C9.05207 2.14583 9.14582 2.05208 9.28126 2C10.0101 1.96876 10.7393 1.95834 11.4688 1.96875C11.4688 3.63542 11.4688 5.30208 11.4688 6.96875C12.8021 6.96875 14.1354 6.96875 15.4688 6.96875C15.4688 5.30208 15.4688 3.63542 15.4688 1.96875C18.698 1.95833 21.9271 1.96875 25.1563 2C25.2917 2.05208 25.3854 2.14583 25.4375 2.28125C25.4688 3.09348 25.4792 3.90598 25.4688 4.71875Z" fill="#00B277"/>
<path fill-rule="evenodd" clip-rule="evenodd" d="M12.4688 1.96875C13.1354 1.96875 13.8021 1.96875 14.4688 1.96875C14.4688 3.30208 14.4688 4.63542 14.4688 5.96875C13.8021 5.96875 13.1354 5.96875 12.4688 5.96875C12.4688 4.63542 12.4688 3.30208 12.4688 1.96875Z" fill="#70D6B0"/>
<path fill-rule="evenodd" clip-rule="evenodd" d="M25.4688 4.71875C25.4688 6.63544 25.4688 8.55206 25.4688 10.4688C24.9011 10.4946 24.3386 10.4634 23.7812 10.375C23.276 10.0677 22.8385 9.68237 22.4688 9.21875C22.7754 9.00637 23.0566 8.75637 23.3125 8.46875C24.2742 7.35775 24.9929 6.10777 25.4688 4.71875Z" fill="#009765"/>
<path fill-rule="evenodd" clip-rule="evenodd" d="M6.46877 5.59365C6.53452 5.5843 6.59702 5.59472 6.65627 5.6249C6.85296 5.87372 7.06127 6.1133 7.28127 6.34365C4.01238 9.4509 2.62696 13.2634 3.12502 17.7811C3.34038 19.417 3.87163 20.9378 4.71877 22.3436C4.8063 22.0201 4.88963 21.6972 4.96877 21.3749C5.30205 21.406 5.63538 21.4581 5.96877 21.5311C5.78933 22.5534 5.60183 23.5742 5.40627 24.5936C4.40632 24.3999 3.40632 24.202 2.40627 23.9999C2.37365 23.9648 2.35282 23.9231 2.34377 23.8749C2.4184 23.5746 2.4809 23.2726 2.53127 22.9686C2.97485 23.0198 3.41235 23.1032 3.84377 23.2186C3.8646 23.1978 3.88544 23.177 3.90627 23.1561C1.70218 19.2333 1.35843 15.15 2.87502 10.9061C3.66986 8.85671 4.86778 7.0859 6.46877 5.59365Z" fill="#0A0D0C"/>
<path fill-rule="evenodd" clip-rule="evenodd" d="M30.9685 11.4688C30.9685 12.4688 30.9685 13.4688 30.9685 14.4688C28.5101 14.4583 26.0518 14.4688 23.5935 14.5C20.8448 15.1231 18.0948 15.1231 15.3435 14.5C12.9449 13.8848 10.5491 13.2598 8.15604 12.625C7.90697 12.4137 7.90697 12.2054 8.15604 12C12.2602 11.9688 16.3643 11.9583 20.4685 11.9688C20.4685 11.6355 20.4685 11.3021 20.4685 10.9688C19.3225 10.9792 18.1767 10.9688 17.031 10.9375C16.8684 10.8823 16.733 10.7886 16.6248 10.6563C16.3563 10.1803 16.45 9.79483 16.906 9.50002C18.2602 9.45833 19.6143 9.45833 20.9685 9.50002C21.1483 9.52739 21.315 9.58989 21.4685 9.68752C21.9079 10.1478 22.3663 10.5853 22.8435 11C23.166 11.2187 23.5202 11.3646 23.906 11.4375C26.2601 11.4688 28.6143 11.4792 30.9685 11.4688Z" fill="#F0E4D0"/>
<path fill-rule="evenodd" clip-rule="evenodd" d="M15.5938 10.8438C15.6277 10.8475 15.6485 10.8683 15.6562 10.9062C13.4168 10.9894 11.1876 10.9894 8.96875 10.9062C11.1878 10.927 13.3961 10.9061 15.5938 10.8438Z" fill="#008157"/>
<path fill-rule="evenodd" clip-rule="evenodd" d="M29.5938 16.1563C29.656 16.151 29.7081 16.1718 29.75 16.2188C30.1562 17.2397 30.5625 18.2605 30.9688 19.2813C30.6749 19.4245 30.3727 19.5495 30.0625 19.6563C30.0142 19.6473 29.9726 19.6265 29.9375 19.5938C29.8542 19.3855 29.7708 19.1772 29.6875 18.9688C29.0763 21.6923 27.7846 24.0257 25.8125 25.9688C25.5615 25.7283 25.3219 25.4783 25.0938 25.2188C26.9736 23.2932 28.1819 21.0015 28.7188 18.3438C28.7083 18.3022 28.6979 18.2605 28.6875 18.2188C28.3798 18.4404 28.0777 18.6696 27.7812 18.9063C27.5585 18.6492 27.3502 18.3783 27.1562 18.0938C27.9592 17.4325 28.7717 16.7866 29.5938 16.1563Z" fill="#0F0B0A"/>
<path opacity="0.977" fill-rule="evenodd" clip-rule="evenodd" d="M0.96875 29.4688C3.36468 29.4584 5.76051 29.4688 8.15625 29.5001C10.9274 30.1251 13.6982 30.1251 16.4688 29.5001C18.8854 28.8751 21.3021 28.2501 23.7188 27.6251C23.9958 27.4794 24.0375 27.2815 23.8438 27.0313C19.7213 26.9691 15.5963 26.9482 11.4688 26.9688C11.4688 26.6355 11.4688 26.3022 11.4688 25.9688C12.6147 25.9793 13.7606 25.9688 14.9062 25.9376C15.4616 25.6708 15.597 25.2645 15.3125 24.7188C15.2138 24.6225 15.0992 24.5496 14.9688 24.5001C13.5938 24.4584 12.2188 24.4584 10.8438 24.5001C10.7188 24.5626 10.5938 24.6251 10.4688 24.6876C9.935 25.3262 9.31 25.847 8.59375 26.2501C8.34875 26.3322 8.09875 26.3947 7.84375 26.4376C5.55218 26.4688 3.26051 26.4793 0.96875 26.4688C0.96875 26.1147 0.96875 25.7605 0.96875 25.4063C3.36841 25.4365 5.76424 25.4052 8.15625 25.3126C8.65944 24.9973 9.10731 24.6119 9.5 24.1563C9.141 21.0925 10.3181 18.853 13.0312 17.4376C13.4149 17.275 13.8108 17.15 14.2188 17.0626C15.7582 16.9622 17.2998 16.9413 18.8438 17.0001C21.3073 17.4427 22.9427 18.849 23.75 21.2188C24.1691 22.8218 24.0129 24.3635 23.2812 25.8438C24.7177 25.9353 25.2281 26.6645 24.8125 28.0313C24.6084 28.2973 24.348 28.4952 24.0312 28.6251C21.6146 29.2501 19.1979 29.8751 16.7812 30.5001C13.8442 31.1242 10.9067 31.1242 7.96875 30.5001C5.63551 30.4688 3.30218 30.4584 0.96875 30.4688C0.96875 30.1355 0.96875 29.8022 0.96875 29.4688Z" fill="#030202"/>
<path fill-rule="evenodd" clip-rule="evenodd" d="M20.2188 21.4687C19.5451 23.1592 18.5243 24.6071 17.1563 25.8125C16.8938 25.8979 16.623 25.9292 16.3438 25.9062C16.6742 24.7441 16.2784 23.942 15.1563 23.5C13.6771 23.4583 12.198 23.4583 10.7188 23.5C10.6563 23.5312 10.5938 23.5625 10.5313 23.5937C10.3559 20.8501 11.5643 19.0272 14.1563 18.125C16.8359 17.6264 18.8047 18.5743 20.0626 20.9687C20.1336 21.131 20.1856 21.2977 20.2188 21.4687Z" fill="#FD8561"/>
<path fill-rule="evenodd" clip-rule="evenodd" d="M19.0312 18.1562C20.643 18.4733 21.8097 19.3899 22.5312 20.9062C22.0521 20.9896 21.5729 20.9896 21.0938 20.9062C20.6779 19.7814 19.9904 18.8648 19.0312 18.1562Z" fill="#E96E52"/>
<path fill-rule="evenodd" clip-rule="evenodd" d="M20.2188 21.4688C20.6724 23.0182 20.4537 24.4766 19.5625 25.8438C19.5312 25.875 19.5 25.9062 19.4688 25.9375C18.4164 25.9893 17.3747 25.9789 16.3438 25.9062C16.6229 25.9292 16.8938 25.8979 17.1562 25.8125C18.5243 24.6071 19.5451 23.1593 20.2188 21.4688Z" fill="#D67051"/>
<path fill-rule="evenodd" clip-rule="evenodd" d="M21.4062 21.9688C21.9062 21.9688 22.4062 21.9688 22.9062 21.9688C22.985 22.6351 22.985 23.3018 22.9062 23.9688C22.4062 23.9688 21.9062 23.9688 21.4062 23.9688C21.4871 23.3019 21.4871 22.6353 21.4062 21.9688Z" fill="#EC6F53"/>
<path fill-rule="evenodd" clip-rule="evenodd" d="M0.96875 29.4688C0.96875 28.4688 0.96875 27.4688 0.96875 26.4688C3.26051 26.4792 5.55218 26.4688 7.84375 26.4375C8.09875 26.3946 8.34875 26.3321 8.59375 26.25C9.31 25.847 9.935 25.3261 10.4688 24.6875C10.5938 24.625 10.7188 24.5625 10.8438 24.5C12.2188 24.4583 13.5938 24.4583 14.9688 24.5C15.0992 24.5495 15.2138 24.6225 15.3125 24.7188C15.597 25.2645 15.4616 25.6707 14.9062 25.9375C13.7606 25.9688 12.6147 25.9792 11.4688 25.9688C11.4688 26.3021 11.4688 26.6355 11.4688 26.9688C15.5963 26.9481 19.7213 26.969 23.8438 27.0313C24.0375 27.2814 23.9958 27.4793 23.7188 27.625C21.3021 28.25 18.8854 28.875 16.4688 29.5C13.6982 30.125 10.9274 30.125 8.15625 29.5C5.76051 29.4688 3.36468 29.4583 0.96875 29.4688Z" fill="#F0E4D0"/>
<path fill-rule="evenodd" clip-rule="evenodd" d="M21.0938 24.9687C21.5748 24.948 22.0539 24.9688 22.5312 25.0312C22.3809 25.3581 22.1934 25.6602 21.9688 25.9374C21.5312 25.9791 21.0938 25.9791 20.6562 25.9374C20.8451 25.6327 20.991 25.3097 21.0938 24.9687Z" fill="#E76D51"/>
</svg>
