<svg width="105" height="105" viewBox="0 0 105 105" fill="none" xmlns="http://www.w3.org/2000/svg">
<path opacity="0.977" fill-rule="evenodd" clip-rule="evenodd" d="M51.5771 0.717767C52.7875 0.607435 53.9495 0.778333 55.0635 1.23046C67.2999 6.76757 79.5361 12.3047 91.7725 17.8418C92.8965 18.6882 93.5117 19.8161 93.6182 21.2256C94.0517 21.3351 94.4278 21.5402 94.7461 21.8408C95.1866 23.527 95.4942 25.2359 95.6689 26.9678C96.8637 27.3066 97.7183 28.0586 98.2324 29.2236C98.3692 31.2744 98.3692 33.3252 98.2324 35.376C97.602 37.1454 96.3375 38.0342 94.4385 38.042C93.4508 54.1531 92.4254 70.2518 91.3623 86.3379C97.2177 88.169 99.5078 92.0996 98.2324 98.1299C97.0348 101.242 94.813 103.19 91.5674 103.975C64.292 104.111 37.0166 104.111 9.74121 103.975C7.47009 103.127 6.23962 101.487 6.0498 99.0527C6.30785 96.2323 7.81175 94.5576 10.5615 94.0283C11.34 87.1931 12.1261 80.3572 12.9199 73.5205C13.8704 67.4432 17.3226 63.6493 23.2764 62.1387C22.574 59.5785 23.4628 57.8011 25.9424 56.8066C24.7068 53.3047 23.5104 49.7843 22.3535 46.2451C22.0082 44.0299 22.8627 42.4918 24.917 41.6309C27.3779 41.4941 29.8389 41.4941 32.2998 41.6309C34.5526 42.5463 35.4414 44.2212 34.9658 46.6553C38.033 46.2025 39.8787 47.467 40.5029 50.4492C39.7566 52.7902 38.8678 55.0801 37.8369 57.3193C39.568 58.548 40.1149 60.1886 39.4775 62.2412C41.3577 62.6001 43.0666 63.3521 44.6045 64.4971C44.6728 64.1212 44.7413 63.745 44.8096 63.3691C44.2755 55.2017 43.7629 47.0328 43.2715 38.8623C43.2266 38.5674 43.124 38.294 42.9639 38.042C41.3692 37.7797 40.3097 36.8909 39.7852 35.376C39.6484 33.3252 39.6484 31.2744 39.7852 29.2236C40.4515 27.6351 41.6477 26.8148 43.374 26.7627C43.6677 25.152 44.5223 23.9215 45.9375 23.0713C45.8245 21.0139 45.5852 18.9632 45.2197 16.9189C45.2501 16.2771 45.5237 15.7644 46.04 15.3809C46.9721 14.8125 47.929 14.2998 48.9111 13.8428C49.7593 14.1646 50.5112 14.6431 51.167 15.2783C52.2279 14.7198 53.3217 14.2413 54.4482 13.8428C55.3924 14.1372 56.0417 14.7524 56.3965 15.6885C58.5328 15.7056 60.481 15.0561 62.2412 13.7402C57.2884 11.5029 52.3665 9.21286 47.4756 6.87011C47.015 6.08007 47.1175 5.32811 47.7832 4.61425C48.4774 3.85196 49.0926 3.03164 49.6289 2.15331C50.1475 1.45914 50.797 0.98063 51.5771 0.717767Z" fill="#010202"/>
<path fill-rule="evenodd" clip-rule="evenodd" d="M52.1924 3.17874C52.9202 3.16627 53.6037 3.33716 54.2432 3.69143C66.4685 9.16655 78.6366 14.7378 90.7471 20.4053C90.913 20.7275 90.9815 21.0693 90.9521 21.4307C89.9926 21.3966 89.0357 21.4309 88.0811 21.5332C87.7734 21.7041 87.5341 21.9434 87.3633 22.251C75.0529 16.7281 62.7824 11.1226 50.5518 5.4346C51.0503 4.64027 51.5972 3.88833 52.1924 3.17874Z" fill="#28CCAF"/>
<path fill-rule="evenodd" clip-rule="evenodd" d="M63.8818 15.6885C65.5165 15.5413 67.0886 15.7806 68.5986 16.4063C74.6638 19.1485 80.7136 21.917 86.748 24.712C86.7386 25.3887 86.7046 26.0725 86.6455 26.7627C81.0401 26.7627 75.4345 26.7627 69.8291 26.7627C70.1822 25.6004 70.5584 24.4382 70.957 23.2764C71.1873 22.5677 71.0165 21.9865 70.4443 21.5333C68.7129 20.9789 66.9697 20.4662 65.2148 19.9952C64.8262 20.0187 64.4844 20.1554 64.1895 20.4053C63.1561 22.5063 62.0964 24.5912 61.0107 26.6602C56.0191 26.831 51.0288 26.7968 46.04 26.5577C46.4125 26.0825 46.8226 25.6381 47.2705 25.2247C49.0822 24.5338 50.8596 23.7817 52.6025 22.9688C53.945 21.6581 55.2439 20.2908 56.499 18.8672C57.9001 18.2946 59.3357 17.816 60.8057 17.4317C61.9104 16.9488 62.9358 16.3678 63.8818 15.6885Z" fill="#678C94"/>
<path fill-rule="evenodd" clip-rule="evenodd" d="M48.7061 16.7139C49.3617 17.3012 50.1137 17.7114 50.9619 17.9443C51.9598 17.7189 52.9169 17.3771 53.833 16.9189C54.1406 16.9093 54.3457 17.046 54.4482 17.3291C53.3757 18.3667 52.4188 19.4946 51.5771 20.7129C50.7002 21.3222 49.7433 21.7664 48.7061 22.0459C48.4177 20.5439 48.1443 19.04 47.8857 17.5342C48.1009 17.1823 48.3742 16.9089 48.7061 16.7139Z" fill="#3D6D90"/>
<path fill-rule="evenodd" clip-rule="evenodd" d="M65.7275 22.6611C66.5183 22.9187 67.3046 23.1921 68.0859 23.4814C67.944 24.4564 67.6707 25.4135 67.2656 26.3525C66.7419 26.6132 66.1609 26.75 65.5225 26.7627C64.9755 26.6944 64.4288 26.6259 63.8818 26.5576C64.5553 25.2792 65.1705 23.9804 65.7275 22.6611Z" fill="#3F6F92"/>
<path fill-rule="evenodd" clip-rule="evenodd" d="M93.0029 26.3526C91.7905 26.7537 90.4917 26.8905 89.1064 26.7627C89.1987 25.7985 89.3355 24.8416 89.5166 23.8916C90.5442 23.8576 91.5696 23.8918 92.5928 23.9942C92.8725 24.7495 93.0093 25.5355 93.0029 26.3526Z" fill="#F5D643"/>
<path fill-rule="evenodd" clip-rule="evenodd" d="M93.0029 26.3525C93.1883 26.4979 93.2566 26.703 93.208 26.9678C91.8024 27.0342 90.4351 26.9659 89.1064 26.7627C90.4917 26.8905 91.7905 26.7537 93.0029 26.3525Z" fill="#352F0F"/>
<path fill-rule="evenodd" clip-rule="evenodd" d="M42.9639 29.2237C60.3272 29.1894 77.6906 29.2237 95.0537 29.3262C95.4296 29.4287 95.6689 29.6681 95.7715 30.044C95.9083 31.6163 95.9083 33.1884 95.7715 34.7608C95.6007 34.9316 95.4296 35.1026 95.2588 35.2735C77.7589 35.4103 60.2587 35.4103 42.7588 35.2735C42.588 35.1026 42.4169 34.9316 42.2461 34.7608C42.1093 33.1884 42.1093 31.6163 42.2461 30.044C42.3876 29.6646 42.6267 29.391 42.9639 29.2237Z" fill="#28CEB1"/>
<path fill-rule="evenodd" clip-rule="evenodd" d="M49.7314 85.0049C49.5957 84.1915 49.5274 83.3712 49.5264 82.5439C50.5753 82.0741 50.7804 81.3563 50.1416 80.3906C49.8289 80.1837 49.487 80.0812 49.1162 80.083C49.0863 79.2588 49.018 78.4385 48.9111 77.6221C49.5988 77.4145 49.9406 76.9359 49.9365 76.1865C49.8859 73.2275 49.0996 70.4931 47.5781 67.9834C47.0396 57.9311 46.4586 47.8823 45.835 37.8369C61.1475 37.8369 76.4599 37.8369 91.7725 37.8369C90.85 52.4606 90.0297 67.0895 89.3115 81.7236C86.6348 81.6414 83.9688 81.7439 81.3135 82.0312C78.5794 82.9881 76.8362 84.8681 76.084 87.6709C75.9814 92.3188 75.9472 96.9673 75.9814 101.616C69.2135 101.65 62.4459 101.616 55.6787 101.514C57.2086 97.6352 55.9781 95.14 51.9873 94.0283C51.7107 91.2922 51.403 88.5577 51.0645 85.8252C50.8036 85.267 50.3592 84.9934 49.7314 85.0049Z" fill="#28CFB2"/>
<path fill-rule="evenodd" clip-rule="evenodd" d="M25.7373 43.9893C27.7208 43.9553 29.7033 43.9893 31.6846 44.0919C32.4444 44.8406 32.718 45.7635 32.5049 46.8604C31.7498 46.8266 30.998 46.8606 30.249 46.963C30.0097 47.0655 29.8389 47.2363 29.7363 47.4757C29.6338 50.6195 29.5995 53.764 29.6338 56.9092C29.1691 56.9829 28.7932 56.8461 28.5059 56.4991C27.3437 53.0128 26.1817 49.5264 25.0195 46.0401C24.7285 45.1341 24.9679 44.4505 25.7373 43.9893Z" fill="#3D6D90"/>
<path fill-rule="evenodd" clip-rule="evenodd" d="M32.0947 49.3214C33.8051 49.2873 35.514 49.3214 37.2217 49.4239C37.6025 49.6663 37.8076 50.0082 37.8369 50.4493C37.0689 52.5667 36.2143 54.6517 35.2734 56.7042C34.2333 56.9033 33.1738 56.9718 32.0947 56.9092C32.0947 54.38 32.0947 51.8506 32.0947 49.3214Z" fill="#3F7094"/>
<path fill-rule="evenodd" clip-rule="evenodd" d="M26.3525 59.3701C29.7029 59.3359 33.0524 59.3701 36.4014 59.4727C37.1257 60.1679 37.1942 60.9199 36.6064 61.7285C33.1201 61.8653 29.6338 61.8653 26.1475 61.7285C25.3161 60.8617 25.3846 60.0754 26.3525 59.3701Z" fill="#658A92"/>
<path fill-rule="evenodd" clip-rule="evenodd" d="M25.3271 64.292C26.2157 64.292 27.1046 64.292 27.9932 64.292C27.0484 66.4552 25.9887 68.5742 24.8145 70.6494C23.9816 71.5183 23.2296 71.4498 22.5586 70.4443C22.4218 70.1025 22.4218 69.7608 22.5586 69.4189C23.4839 67.7045 24.4068 65.9954 25.3271 64.292Z" fill="#3D6C8E"/>
<path fill-rule="evenodd" clip-rule="evenodd" d="M48.9111 77.6221C49.018 78.4385 49.0863 79.2588 49.1162 80.083C48.4784 80.2426 48.1368 80.6527 48.0908 81.3135C48.1901 82.1646 48.6685 82.5747 49.5264 82.5439C49.5274 83.3712 49.5957 84.1915 49.7314 85.0049C48.8291 85.2768 48.4872 85.8921 48.7061 86.8506C48.9899 89.8716 49.366 92.8795 49.834 95.874C50.0192 96.1203 50.2583 96.2914 50.5518 96.3867C53.6605 96.5608 54.5834 98.0304 53.3203 100.796C52.9965 101.112 52.6204 101.351 52.1924 101.514C38.3154 101.65 24.4385 101.65 10.5615 101.514C8.88348 100.721 8.37078 99.4565 9.02344 97.7197C9.74755 96.6913 10.7388 96.2471 11.9971 96.3867C12.3633 96.2257 12.671 95.9866 12.9199 95.6689C13.7974 88.0786 14.686 80.4907 15.5859 72.9053C16.4421 69.2797 18.5613 66.682 21.9434 65.1123C21.3997 66.4063 20.7845 67.7053 20.0977 69.0088C19.84 71.6231 21.0021 73.1953 23.584 73.7256C24.8022 73.6395 25.8275 73.161 26.6602 72.29C27.8223 70.1025 28.9843 67.9151 30.1465 65.7275C30.4283 65.1584 30.8042 64.68 31.2744 64.292C31.4676 64.3141 31.6384 64.3824 31.7871 64.4971C33.0176 66.8212 34.2481 69.1456 35.4785 71.4697C37.2953 74.1415 39.4146 74.4149 41.8359 72.29C42.4844 71.2078 42.6895 70.0459 42.4512 68.8037C41.9223 67.6774 41.3413 66.5837 40.708 65.5225C40.7763 65.4542 40.8448 65.3857 40.9131 65.3174C43.6831 66.6859 45.6313 68.8049 46.7578 71.6748C47.1325 73.3663 47.4059 75.0754 47.5781 76.8018C47.7885 77.4566 48.2327 77.7299 48.9111 77.6221Z" fill="#678D95"/>
<path fill-rule="evenodd" clip-rule="evenodd" d="M34.5557 64.292C35.5224 64.2249 36.4793 64.2934 37.4268 64.4971C38.2813 66.0694 39.1357 67.6415 39.9902 69.2139C40.32 70.5815 39.8073 71.231 38.4521 71.1621C36.9149 69.0106 35.6161 66.7207 34.5557 64.292Z" fill="#3D6C8F"/>
<path fill-rule="evenodd" clip-rule="evenodd" d="M49.1162 80.083C49.487 80.0812 49.8289 80.1837 50.1416 80.3906C50.7804 81.3564 50.5753 82.0741 49.5264 82.544C48.6685 82.5747 48.1901 82.1646 48.0908 81.3135C48.1368 80.6527 48.4784 80.2426 49.1162 80.083Z" fill="#050B0B"/>
<path fill-rule="evenodd" clip-rule="evenodd" d="M82.3389 84.1846C84.5264 84.1846 86.7138 84.1846 88.9014 84.1846C88.9014 84.9366 88.9014 85.6884 88.9014 86.4404C84.0164 87.1896 81.3504 90.0266 80.9033 94.9512C80.8717 97.5249 81.7605 99.7123 83.5693 101.514C81.8616 101.616 80.1527 101.65 78.4424 101.616C78.4081 97.1039 78.4424 92.5922 78.5449 88.0811C79.1636 86.1295 80.4284 84.8308 82.3389 84.1846Z" fill="#3F6F93"/>
<path fill-rule="evenodd" clip-rule="evenodd" d="M88.0811 88.9014C93.618 88.5936 96.2497 91.1913 95.9766 96.6944C94.7022 100.356 92.1387 101.963 88.2861 101.514C84.5556 100.176 82.9492 97.5444 83.4668 93.6182C84.2223 91.2565 85.7604 89.6842 88.0811 88.9014Z" fill="#668B93"/>
<path fill-rule="evenodd" clip-rule="evenodd" d="M88.4912 91.5673C91.7087 91.2663 93.3151 92.7018 93.3105 95.874C92.6414 98.1797 91.1033 99.1708 88.6963 98.8476C86.2034 97.6594 85.4856 95.7796 86.543 93.208C87.1114 92.5347 87.7609 91.9878 88.4912 91.5673Z" fill="#020303"/>
<path fill-rule="evenodd" clip-rule="evenodd" d="M89.1064 94.0283C90.7971 93.9725 91.2758 94.6903 90.542 96.1816C89.4188 96.7138 88.735 96.3719 88.4912 95.1562C88.5657 94.7067 88.7707 94.3306 89.1064 94.0283Z" fill="#3E6D90"/>
</svg>
