<svg width="14" height="15" viewBox="0 0 14 15" fill="none" xmlns="http://www.w3.org/2000/svg">
<g clip-path="url(#clip0_57_999)">
<path d="M7.8686 6.5625C7.8686 6.31386 7.95282 6.0754 8.10274 5.89959C8.25265 5.72377 8.45598 5.625 8.66799 5.625H12.6649V7.5H8.66799C8.45598 7.5 8.25265 7.40123 8.10274 7.22541C7.95282 7.0496 7.8686 6.81114 7.8686 6.5625ZM1.47351 8.4375H4.67106C4.88307 8.4375 5.08639 8.53627 5.23631 8.71209C5.38622 8.8879 5.47044 9.12636 5.47044 9.375C5.47044 9.62364 5.38622 9.8621 5.23631 10.0379C5.08639 10.2137 4.88307 10.3125 4.67106 10.3125H1.47351V8.4375Z" fill="#7F7F7F"/>
<path d="M3.47192 0C3.57793 0 3.67959 0.049386 3.75455 0.137294C3.82951 0.225201 3.87162 0.34443 3.87162 0.46875V0.9375H10.2667V0.46875C10.2667 0.34443 10.3088 0.225201 10.3838 0.137294C10.4587 0.049386 10.5604 0 10.6664 0C10.7724 0 10.8741 0.049386 10.949 0.137294C11.024 0.225201 11.0661 0.34443 11.0661 0.46875V0.9375H11.8655C12.2895 0.9375 12.6962 1.13504 12.996 1.48667C13.2958 1.83831 13.4643 2.31522 13.4643 2.8125V13.125C13.4643 13.6223 13.2958 14.0992 12.996 14.4508C12.6962 14.8025 12.2895 15 11.8655 15H2.27284C1.84882 15 1.44217 14.8025 1.14234 14.4508C0.842514 14.0992 0.674072 13.6223 0.674072 13.125V2.8125C0.674072 2.31522 0.842514 1.83831 1.14234 1.48667C1.44217 1.13504 1.84882 0.9375 2.27284 0.9375H3.07223V0.46875C3.07223 0.34443 3.11434 0.225201 3.1893 0.137294C3.26426 0.049386 3.36592 0 3.47192 0ZM1.47346 3.75V13.125C1.47346 13.3736 1.55768 13.6121 1.70759 13.7879C1.85751 13.9637 2.06083 14.0625 2.27284 14.0625H11.8655C12.0775 14.0625 12.2808 13.9637 12.4307 13.7879C12.5806 13.6121 12.6649 13.3736 12.6649 13.125V3.75H1.47346Z" fill="#7F7F7F"/>
</g>
<defs>
<clipPath id="clip0_57_999">
<rect width="12.7902" height="15" fill="white" transform="translate(0.674072)"/>
</clipPath>
</defs>
</svg>
