<svg width="32" height="33" viewBox="0 0 32 33" fill="none" xmlns="http://www.w3.org/2000/svg">
<g clip-path="url(#clip0_835_5184)">
<path opacity="0.986" fill-rule="evenodd" clip-rule="evenodd" d="M13.5311 0.46875C15.1561 0.46875 16.7811 0.46875 18.4061 0.46875C18.6297 0.618876 18.7026 0.827209 18.6248 1.09375C18.2219 2.13617 17.7948 3.16742 17.3436 4.1875C19.1169 4.19012 20.8878 4.23179 22.6561 4.3125C24.4418 4.86889 25.4939 6.06681 25.8123 7.90625C25.8228 10.4482 25.854 12.9898 25.9061 15.5312C26.6636 15.9429 26.9241 16.5679 26.6873 17.4062C26.5288 17.8438 26.2267 18.1146 25.7811 18.2188C25.2495 22.3878 24.6974 26.5544 24.1248 30.7188C23.8671 31.6536 23.2733 32.2369 22.3436 32.4688C18.0936 32.4688 13.8436 32.4688 9.59357 32.4688C8.66382 32.2369 8.07007 31.6536 7.81232 30.7188C7.25976 26.5483 6.68688 22.3817 6.09357 18.2188C5.38729 17.9109 5.0852 17.3693 5.18732 16.5938C5.2901 16.0959 5.57135 15.7417 6.03107 15.5312C6.08315 12.9898 6.1144 10.4482 6.12482 7.90625C6.48894 5.93791 7.64519 4.71916 9.59357 4.25C11.2603 4.22917 12.9269 4.20833 14.5936 4.1875C14.1424 3.16742 13.7153 2.13617 13.3123 1.09375C13.2345 0.827209 13.3074 0.618876 13.5311 0.46875Z" fill="black"/>
<path fill-rule="evenodd" clip-rule="evenodd" d="M14.4688 1.46884C15.458 1.39625 16.458 1.38583 17.4688 1.43759C17.0729 2.33342 16.6771 3.22926 16.2812 4.12509C16.0549 4.25569 15.8362 4.24527 15.625 4.09384C15.2536 3.20588 14.8682 2.33088 14.4688 1.46884Z" fill="#FCD176"/>
<path fill-rule="evenodd" clip-rule="evenodd" d="M23.4688 12.7188C23.4688 13.6354 23.4688 14.5521 23.4688 15.4688C18.4062 15.4583 13.3437 15.4688 8.28125 15.5C8.13631 15.5717 8.053 15.6863 8.03125 15.8438C7.73794 15.96 7.42544 16.0016 7.09375 15.9688C7.09375 13.3438 7.09375 10.7188 7.09375 8.09375C7.346 6.53908 8.24188 5.57033 9.78125 5.1875C11.3229 5.14583 12.8646 5.14583 14.4062 5.1875C14.1146 5.47917 13.8229 5.77083 13.5312 6.0625C12.3438 6.08333 11.1562 6.10417 9.96875 6.125C8.99931 6.32344 8.36388 6.89638 8.0625 7.84375C8.02081 9.38544 8.02081 10.9271 8.0625 12.4688C8.08587 12.526 8.11713 12.5781 8.15625 12.625C13.2553 12.7184 18.3594 12.7496 23.4688 12.7188Z" fill="#6DC38B"/>
<path fill-rule="evenodd" clip-rule="evenodd" d="M21.5938 5.15625C22.0671 5.44195 22.463 5.81695 22.7812 6.28125C22.7735 6.31917 22.7527 6.34 22.7188 6.34375C22.4587 6.23478 22.1879 6.16186 21.9062 6.125C20.7396 6.10417 19.5729 6.08333 18.4062 6.0625C18.1146 5.77083 17.8229 5.47917 17.5312 5.1875C18.8852 5.15625 20.2394 5.14584 21.5938 5.15625Z" fill="#6DC38B"/>
<path fill-rule="evenodd" clip-rule="evenodd" d="M17.4688 6.46875C17.8556 7.15838 18.2826 7.82506 18.75 8.46875C19.3349 9.496 19.6579 10.6001 19.7188 11.7813C16.7604 11.7813 13.8021 11.7813 10.8438 11.7813C10.9231 10.7828 11.2668 9.887 11.875 9.09375C13.1128 7.79344 14.3732 6.51218 15.6562 5.25C15.9009 5.11376 16.1301 5.1346 16.3438 5.3125C16.7314 5.6897 17.1064 6.07512 17.4688 6.46875Z" fill="#FDE5AC"/>
<path fill-rule="evenodd" clip-rule="evenodd" d="M21.5938 5.15625C23.2659 5.25792 24.3388 6.11209 24.8125 7.71875C24.9041 10.2999 24.9354 12.8833 24.9062 15.4688C24.4271 15.4688 23.9479 15.4688 23.4688 15.4688C23.4688 14.5521 23.4688 13.6354 23.4688 12.7188C23.6429 12.7013 23.7783 12.6179 23.875 12.4688C23.9167 10.9688 23.9167 9.46875 23.875 7.96875C23.7187 7.259 23.3333 6.71732 22.7188 6.34375C22.7527 6.34 22.7735 6.31917 22.7812 6.28125C22.463 5.81696 22.0671 5.44196 21.5938 5.15625Z" fill="#50A46D"/>
<path fill-rule="evenodd" clip-rule="evenodd" d="M17.4688 6.46875C18.3642 7.31213 19.2288 8.18712 20.0625 9.09375C20.6707 9.887 21.0144 10.7828 21.0938 11.7812C20.6354 11.7812 20.1771 11.7812 19.7188 11.7812C19.6579 10.6001 19.3349 9.496 18.75 8.46875C18.2826 7.82506 17.8556 7.15838 17.4688 6.46875Z" fill="#FAD076"/>
<path fill-rule="evenodd" clip-rule="evenodd" d="M9.96876 7.03126C10.8232 7.02082 11.6773 7.03126 12.5313 7.06251C11.412 7.97963 10.6099 9.11501 10.125 10.4688C10.0076 10.8996 9.93463 11.3371 9.90626 11.7813C9.57295 11.7813 9.23957 11.7813 8.90626 11.7813C8.89582 10.5936 8.90626 9.40607 8.93751 8.21876C9.07188 7.63676 9.41563 7.24095 9.96876 7.03126Z" fill="#337D57"/>
<path fill-rule="evenodd" clip-rule="evenodd" d="M19.4062 7.09378C20.2287 7.02128 21.0621 7.01084 21.9062 7.06253C22.507 7.22572 22.8716 7.61116 23 8.21878C23.0312 9.40609 23.0417 10.5936 23.0312 11.7813C22.6979 11.7813 22.3646 11.7813 22.0312 11.7813C21.9155 10.4042 21.4051 9.19591 20.5 8.15628C20.1436 7.78941 19.7791 7.43528 19.4062 7.09378Z" fill="#337D57"/>
<path fill-rule="evenodd" clip-rule="evenodd" d="M7.09396 8.09375C7.09396 10.7188 7.09396 13.3438 7.09396 15.9688C7.42564 16.0016 7.73814 15.96 8.03146 15.8438C7.98933 16.0823 8.07264 16.2594 8.28146 16.375C13.6148 16.4062 18.9481 16.4167 24.2815 16.4062C24.4481 16.7188 24.4481 17.0312 24.2815 17.3438C18.3231 17.3542 12.3648 17.3438 6.40646 17.3125C6.14089 17.1014 6.08881 16.8411 6.25021 16.5312C6.39183 16.4403 6.54808 16.3881 6.71896 16.375C6.84346 16.3391 6.93721 16.2662 7.00021 16.1562C7.01064 13.4582 7.04189 10.7707 7.09396 8.09375Z" fill="#53A870"/>
<path fill-rule="evenodd" clip-rule="evenodd" d="M24.2812 16.4062C24.6984 16.3959 25.1151 16.4062 25.5312 16.4375C25.8646 16.7292 25.8646 17.0208 25.5312 17.3125C25.1151 17.3437 24.6984 17.3541 24.2812 17.3437C24.4479 17.0312 24.4479 16.7187 24.2812 16.4062Z" fill="#46945B"/>
<path fill-rule="evenodd" clip-rule="evenodd" d="M7.15625 18.2812C8.21875 18.2812 9.28125 18.2812 10.3438 18.2812C10.3438 18.5938 10.3438 18.9062 10.3438 19.2188C9.30206 19.2188 8.26044 19.2188 7.21875 19.2188C7.21169 18.9051 7.19081 18.5926 7.15625 18.2812Z" fill="#C6E2FE"/>
<path fill-rule="evenodd" clip-rule="evenodd" d="M11.2812 18.2812C11.5937 18.2812 11.9062 18.2812 12.2187 18.2812C12.2291 18.8025 12.2187 19.3233 12.1875 19.8438C12.0484 20.1163 11.8296 20.2101 11.5312 20.125C11.4344 20.0491 11.3615 19.9554 11.3125 19.8438C11.2812 19.3233 11.2709 18.8025 11.2812 18.2812Z" fill="#A1CFFD"/>
<path fill-rule="evenodd" clip-rule="evenodd" d="M13.1562 18.2812C15.0312 18.2812 16.9062 18.2812 18.7812 18.2812C18.7812 18.5938 18.7812 18.9062 18.7812 19.2188C16.9062 19.2188 15.0312 19.2188 13.1562 19.2188C13.1562 18.9062 13.1562 18.5938 13.1562 18.2812Z" fill="#C6E3FE"/>
<path fill-rule="evenodd" clip-rule="evenodd" d="M19.7187 18.2812C20.0312 18.2812 20.3437 18.2812 20.6562 18.2812C20.6666 18.8025 20.6562 19.3233 20.625 19.8438C20.4859 20.1163 20.2671 20.2101 19.9687 20.125C19.8719 20.0491 19.799 19.9554 19.75 19.8438C19.7187 19.3233 19.7084 18.8025 19.7187 18.2812Z" fill="#A1CFFD"/>
<path fill-rule="evenodd" clip-rule="evenodd" d="M23.4062 18.2812C23.3484 18.5914 23.3068 18.9039 23.2812 19.2188C22.7188 19.2188 22.1562 19.2188 21.5938 19.2188C21.5938 18.9062 21.5938 18.5938 21.5938 18.2812C22.1979 18.2812 22.8021 18.2812 23.4062 18.2812Z" fill="#C6E2FF"/>
<path fill-rule="evenodd" clip-rule="evenodd" d="M23.4062 18.2812C23.8646 18.2812 24.3229 18.2812 24.7812 18.2812C24.7467 18.5926 24.7258 18.9051 24.7188 19.2188C24.2396 19.2188 23.7604 19.2188 23.2812 19.2188C23.3067 18.9039 23.3484 18.5914 23.4062 18.2812Z" fill="#A2D0FD"/>
<path fill-rule="evenodd" clip-rule="evenodd" d="M23.1562 20.1562C22.7289 23.5329 22.2811 26.9079 21.8125 30.2812C21.7634 30.7738 21.5656 31.1905 21.2188 31.5312C17.4062 31.5417 13.5937 31.5312 9.78125 31.5C9.14156 31.2769 8.77694 30.8289 8.6875 30.1562C8.248 26.8238 7.82094 23.4904 7.40625 20.1562C8.42706 20.1562 9.44794 20.1562 10.4688 20.1562C10.7479 20.8604 11.2687 21.1625 12.0312 21.0625C12.5365 20.9424 12.8698 20.6402 13.0312 20.1562C14.9896 20.1562 16.9479 20.1562 18.9062 20.1562C19.1854 20.8604 19.7062 21.1625 20.4688 21.0625C20.974 20.9424 21.3073 20.6402 21.4688 20.1562C22.0312 20.1562 22.5938 20.1562 23.1562 20.1562Z" fill="#E4F1FE"/>
<path fill-rule="evenodd" clip-rule="evenodd" d="M23.1562 20.1562C23.6146 20.1562 24.0729 20.1562 24.5312 20.1562C24.1077 23.662 23.639 27.162 23.125 30.6562C22.7109 31.4096 22.0755 31.7013 21.2188 31.5312C21.5656 31.1905 21.7634 30.7738 21.8125 30.2812C22.2811 26.9079 22.7289 23.5329 23.1562 20.1562Z" fill="#C5E1FC"/>
</g>
<defs>
<clipPath id="clip0_835_5184">
<rect width="32" height="32" fill="white" transform="translate(0 0.5)"/>
</clipPath>
</defs>
</svg>
