<svg width="24" height="24" viewBox="0 0 24 24" fill="none" xmlns="http://www.w3.org/2000/svg">
<path opacity="0.98" fill-rule="evenodd" clip-rule="evenodd" d="M14.8828 1.33605C16.6213 1.31646 17.8166 2.11334 18.4688 3.72667C18.7219 4.39105 18.8391 5.07855 18.8203 5.78917C18.8166 6.19942 18.7932 6.60564 18.75 7.00792C19.3789 8.06261 20.0195 9.10951 20.6719 10.1485C20.7715 10.4707 20.7403 10.7831 20.5781 11.086C19.272 14.6137 17.9752 18.145 16.6875 21.6798C16.587 21.8316 16.4463 21.9097 16.2656 21.9142C15.7369 21.7562 15.2135 21.5843 14.6953 21.3985C14.7031 21.7114 14.6953 22.024 14.6719 22.336C14.6172 22.4532 14.5313 22.5392 14.4141 22.5939C10.7578 22.6251 7.10156 22.6251 3.44531 22.5939C3.375 22.5235 3.30469 22.4532 3.23438 22.3829C3.20312 17.8829 3.20312 13.3829 3.23438 8.88292C3.28696 8.78336 3.35727 8.69744 3.44531 8.62511C3.92969 8.2345 4.41407 7.84384 4.89844 7.45323C3.55416 6.11645 3.42135 4.67116 4.5 3.1173C5.5125 2.09252 6.72342 1.75658 8.13281 2.10948C9.60905 2.58566 10.6325 3.5466 11.2031 4.9923C11.3662 5.41905 11.4912 5.85653 11.5781 6.3048C11.6265 6.42353 11.7125 6.50162 11.8359 6.53917C12.3016 6.39447 12.7547 6.22258 13.1953 6.02355C12.5946 4.77587 12.6493 3.55711 13.3594 2.3673C13.7367 1.8251 14.2445 1.48135 14.8828 1.33605ZM15.1172 2.27355C16.0857 2.30861 16.8123 2.74611 17.2969 3.58605C17.6375 4.18314 17.8094 4.82378 17.8125 5.50792C17.7031 5.32042 17.5937 5.13292 17.4844 4.94542C17.3726 4.83873 17.2397 4.77625 17.0859 4.75792C16.1113 5.0672 15.1425 5.39533 14.1797 5.7423C13.7631 5.12734 13.6459 4.45545 13.8281 3.72667C13.9593 2.9634 14.389 2.47903 15.1172 2.27355ZM6.91406 2.9298C8.51967 3.01343 9.62124 3.79468 10.2188 5.27355C9.87141 4.99445 9.51984 4.72103 9.16406 4.45323C8.99902 4.33065 8.82713 4.31502 8.64844 4.40636C7.6552 5.21992 6.65522 6.02462 5.64844 6.82042C4.64567 5.96842 4.48161 4.98405 5.15625 3.8673C5.62425 3.32482 6.21019 3.01232 6.91406 2.9298ZM16.0547 7.85167C16.394 7.85486 16.4955 8.01109 16.3594 8.32042C16.1302 8.45251 15.9661 8.38998 15.8672 8.13292C15.8877 8.00519 15.9502 7.91144 16.0547 7.85167ZM8.83594 8.60167C9.18202 8.68403 9.2445 8.86375 9.02344 9.14073C8.79328 9.19764 8.65266 9.11172 8.60156 8.88292C8.6483 8.75847 8.72644 8.66472 8.83594 8.60167Z" fill="#010101"/>
<path fill-rule="evenodd" clip-rule="evenodd" d="M10.7109 6.86719C11.2693 8.87091 11.3162 10.8865 10.8516 12.9141C10.2763 13.2174 9.6982 13.5221 9.11719 13.8281C8.78424 14.0804 8.51081 14.385 8.29688 14.7422C8.19281 14.624 8.07563 14.5224 7.94531 14.4375C7.38586 14.2047 6.85463 13.9235 6.35156 13.5938C6.15999 13.4336 6.00375 13.2461 5.88281 13.0312C5.65486 12.9221 5.44392 12.9455 5.25 13.1016C4.83253 13.9233 4.73878 14.7827 4.96875 15.6797C5.38097 16.7168 6.12314 17.3964 7.19531 17.7188C7.50178 17.7551 7.80647 17.7473 8.10938 17.6953C8.19136 17.7069 8.23041 17.7538 8.22656 17.8359C8.22698 17.9207 8.20355 17.9988 8.15625 18.0703C6.96966 19.4138 5.6415 20.5857 4.17188 21.5859C4.14844 17.4922 4.14062 13.3985 4.14844 9.30469C4.64735 8.87644 5.15517 8.45456 5.67188 8.03906C6.29639 8.4675 6.96047 8.82689 7.66406 9.11719C7.98277 9.97186 8.57653 10.2609 9.44531 9.98438C10.0177 9.62719 10.213 9.11934 10.0313 8.46094C9.73458 7.83534 9.24239 7.59314 8.55469 7.73438C8.27597 7.83319 8.04159 7.99725 7.85156 8.22656C7.33894 8.01717 6.85453 7.75936 6.39844 7.45312C7.21139 6.76598 8.03953 6.10195 8.88281 5.46094C9.50011 5.9182 10.1095 6.38695 10.7109 6.86719ZM8.83594 8.60156C8.72644 8.66461 8.6483 8.75836 8.60156 8.88281C8.65266 9.11161 8.79328 9.19753 9.02344 9.14062C9.2445 8.86364 9.18202 8.68392 8.83594 8.60156Z" fill="#F1F1F1"/>
<path opacity="0.999" fill-rule="evenodd" clip-rule="evenodd" d="M18.7266 8.83594C18.0807 10.9397 17.1353 12.8929 15.8906 14.6953C15.5334 15.1853 15.135 15.6384 14.6953 16.0547C14.7031 13.6953 14.6953 11.3359 14.6719 8.97656C14.6348 8.87873 14.58 8.79277 14.5078 8.71875C13.8984 8.23439 13.2891 7.74998 12.6797 7.26562C13.058 7.09261 13.4486 6.96764 13.8516 6.89062C14.1914 7.23066 14.5586 7.53534 14.9531 7.80469C14.8726 8.51972 15.1617 9.01191 15.8203 9.28125C16.8983 9.37505 17.4061 8.88286 17.3438 7.80469C17.0939 7.11305 16.6017 6.82397 15.8672 6.9375C15.7335 7.01287 15.5929 7.04409 15.4453 7.03125C15.2131 6.87727 14.9944 6.70538 14.7891 6.51562C15.4783 6.27806 16.1658 6.03586 16.8516 5.78906C17.5122 6.78211 18.1372 7.7977 18.7266 8.83594ZM16.0547 7.85156C15.9502 7.91133 15.8877 8.00508 15.8672 8.13281C15.9661 8.38987 16.1302 8.45241 16.3594 8.32031C16.4955 8.01098 16.394 7.85475 16.0547 7.85156Z" fill="#CBCBCB"/>
<path fill-rule="evenodd" clip-rule="evenodd" d="M10.7109 6.86719C11.7267 7.6875 12.7502 8.49998 13.7812 9.30469C13.8125 13.4297 13.8125 17.5547 13.7812 21.6797C12.1203 21.742 10.4563 21.742 8.78906 21.6797C9.38344 20.4436 9.50845 19.1624 9.16406 17.8359C10.5944 17.7807 11.7116 17.1557 12.5156 15.9609C13.1175 14.7657 13.1644 13.547 12.6562 12.3047C12.518 11.8564 12.2446 11.7392 11.8359 11.9531C11.6062 12.3783 11.278 12.6986 10.8516 12.9141C11.3162 10.8865 11.2693 8.87091 10.7109 6.86719Z" fill="#E3E3E3"/>
<path fill-rule="evenodd" clip-rule="evenodd" d="M18.7266 8.83594C19.0731 9.35625 19.409 9.88748 19.7344 10.4297C19.7618 10.5589 19.7461 10.6839 19.6875 10.8047C18.4595 14.1292 17.2408 17.4573 16.0313 20.7891C16.005 20.8135 15.9737 20.8291 15.9375 20.8359C15.527 20.6809 15.113 20.5402 14.6953 20.4141C14.6953 18.9609 14.6953 17.5078 14.6953 16.0547C15.135 15.6384 15.5334 15.1853 15.8906 14.6953C17.1353 12.8929 18.0807 10.9397 18.7266 8.83594Z" fill="#B2B2B2"/>
<path fill-rule="evenodd" clip-rule="evenodd" d="M10.3359 14.9297C10.3886 14.709 10.4511 14.4903 10.5234 14.2734C10.5119 14.2166 10.4806 14.1853 10.4297 14.1797C10.9856 13.9055 11.5091 13.5774 12 13.1953C12.3589 15.0163 11.6636 16.2428 9.91406 16.875C9.82031 16.9063 9.72656 16.9063 9.63281 16.875C10.4576 16.402 11.0357 15.7223 11.3672 14.8359C11.2586 14.4302 11.0086 14.313 10.6172 14.4844C10.5164 14.6319 10.4227 14.7803 10.3359 14.9297Z" fill="#35A835"/>
<path opacity="0.999" fill-rule="evenodd" clip-rule="evenodd" d="M10.4297 14.1797C10.4806 14.1853 10.5119 14.2166 10.5234 14.2734C10.4511 14.4903 10.3886 14.709 10.3359 14.9297C9.97659 15.5324 9.47658 15.9855 8.83594 16.2891C8.86645 15.2112 9.39769 14.5081 10.4297 14.1797Z" fill="#51CA53"/>
<path opacity="0.999" fill-rule="evenodd" clip-rule="evenodd" d="M6.86739 16.5703C6.00419 16.0939 5.63697 15.3595 5.76583 14.3672C5.78523 14.3458 5.80867 14.3301 5.83614 14.3203C6.38706 14.6895 6.96517 15.0098 7.57051 15.2812C7.70589 15.4323 7.82308 15.5963 7.92208 15.7734C7.95264 15.9185 7.93698 16.0591 7.8752 16.1953C7.43912 15.884 7.10322 15.4856 6.86739 15C6.38101 14.8153 6.13886 14.9794 6.14083 15.4922C6.31384 15.9015 6.55605 16.2608 6.86739 16.5703Z" fill="#4FC651"/>
<path opacity="0.788" fill-rule="evenodd" clip-rule="evenodd" d="M6.86719 16.5704C6.92606 16.5686 6.97294 16.592 7.00781 16.6407C6.93759 16.6681 6.89072 16.6447 6.86719 16.5704Z" fill="#255D26"/>
<path fill-rule="evenodd" clip-rule="evenodd" d="M4.14841 9.30469C4.14059 13.3985 4.14841 17.4922 4.17184 21.5859C5.64147 20.5857 6.96962 19.4138 8.15622 18.0703C8.20351 17.9988 8.22695 17.9207 8.22653 17.8359C8.6529 19.1882 8.49667 20.4773 7.75778 21.7031C6.54344 21.7419 5.33251 21.7341 4.12497 21.6797C4.08595 17.5468 4.09376 13.4218 4.14841 9.30469Z" fill="#DCDCDC"/>
</svg>
