<svg width="13" height="8" viewBox="0 0 13 8" fill="none" xmlns="http://www.w3.org/2000/svg">
<path d="M12.0001 8C12.5524 8 13.0066 7.55056 12.9377 7.00258C12.7984 5.89382 12.4278 4.82268 11.8457 3.86014C11.0905 2.61132 10.008 1.59289 8.71553 0.915098C7.42305 0.237308 5.96978 -0.0740123 4.51306 0.0148438C3.39028 0.0833307 2.29843 0.38754 1.30714 0.903396C0.817222 1.15834 0.705752 1.78749 1.01979 2.2418L3.06683 5.20316C3.38087 5.65747 4.00868 5.74567 4.55122 5.64236C4.65091 5.62338 4.75204 5.61067 4.85402 5.60445C5.29103 5.5778 5.72701 5.67119 6.11476 5.87453C6.5025 6.07787 6.82724 6.3834 7.0538 6.75804C7.10667 6.84547 7.15373 6.93588 7.1948 7.02868C7.41832 7.53371 7.84785 8 8.40014 8H12.0001Z" fill="#616161"/>
</svg>
