<svg width="24" height="25" viewBox="0 0 24 25" fill="none" xmlns="http://www.w3.org/2000/svg">
<g clip-path="url(#clip0_916_10656)">
<path opacity="0.885" fill-rule="evenodd" clip-rule="evenodd" d="M19.8515 1.69531C20.2018 1.73017 20.3424 1.92548 20.2733 2.28125C20.3426 2.58636 20.2254 2.76605 19.9218 2.82031C19.6177 2.76007 19.4848 2.57257 19.5233 2.25781C19.4903 1.97939 19.5997 1.79189 19.8515 1.69531Z" fill="black"/>
<path opacity="0.877" fill-rule="evenodd" clip-rule="evenodd" d="M16.6172 3.52344C16.9152 3.53564 17.173 3.64502 17.3906 3.85156C17.4992 4.04342 17.4758 4.21529 17.3203 4.36719C17.2204 4.443 17.111 4.46644 16.9922 4.4375C16.6812 4.36069 16.4781 4.17319 16.3828 3.875C16.4217 3.72544 16.4999 3.60825 16.6172 3.52344Z" fill="black"/>
<path opacity="0.88" fill-rule="evenodd" clip-rule="evenodd" d="M22.8984 3.52349C23.2808 3.49175 23.4448 3.66362 23.3906 4.03911C23.1991 4.30278 22.9413 4.43559 22.6171 4.43755C22.3957 4.32339 22.3254 4.14371 22.4062 3.89849C22.4237 3.85554 22.4472 3.81647 22.4765 3.7813C22.6252 3.70177 22.7658 3.61583 22.8984 3.52349Z" fill="black"/>
<path opacity="0.951" fill-rule="evenodd" clip-rule="evenodd" d="M19.6639 3.6172C20.9632 3.59651 21.7367 4.22151 21.9843 5.4922C22.018 6.70804 21.4477 7.46587 20.2733 7.76563C19.0071 7.87373 18.2025 7.31906 17.8593 6.10157C17.7524 4.74882 18.3539 3.92069 19.6639 3.6172Z" fill="#010100"/>
<path fill-rule="evenodd" clip-rule="evenodd" d="M19.5235 4.36709C20.362 4.24301 20.9323 4.57113 21.2344 5.35146C21.3694 6.24556 21.0023 6.81588 20.1329 7.0624C19.0551 7.06273 18.5316 6.52366 18.5626 5.44521C18.6964 4.91334 19.0167 4.55396 19.5235 4.36709Z" fill="#FCBF67"/>
<path opacity="0.972" fill-rule="evenodd" clip-rule="evenodd" d="M17.4141 13.2734C17.2014 13.2639 17.0764 13.1545 17.0391 12.9453C17.0547 11.9292 17.0391 10.9136 16.9922 9.89843C16.9637 9.90425 16.9481 9.91986 16.9453 9.94531C16.7021 10.0436 16.4677 10.153 16.2422 10.2734C14.3157 11.1507 12.3938 12.0413 10.4766 12.9453C10.4297 15.5232 10.4141 18.1014 10.4297 20.6797C10.7451 20.7252 11.042 20.8111 11.3203 20.9375C10.888 19.4011 11.4505 18.8073 13.0078 19.1562C13.1848 19.2238 13.3176 19.341 13.4062 19.5078C13.4497 20.0112 13.4341 20.5113 13.3594 21.0078C13.2704 21.1655 13.1376 21.2592 12.9609 21.2891C12.5232 21.2813 12.0856 21.2891 11.6484 21.3125C11.6739 21.3461 11.7052 21.3695 11.7422 21.3828C11.993 21.7137 12.1023 22.0887 12.0703 22.5078C13.4766 22.5078 14.8828 22.5078 16.2891 22.5078C16.539 22.5078 16.7891 22.5078 17.0391 22.5078C17.0468 22.07 17.0391 21.6325 17.0156 21.1953C16.8044 21.0698 16.7028 20.8823 16.7109 20.6328C16.805 20.1784 16.9065 19.7253 17.0156 19.2734C17.0312 17.6484 17.0469 16.0234 17.0625 14.3984C17.08 14.3555 17.1035 14.3164 17.1328 14.2812C17.2318 14.2416 17.3255 14.2026 17.4141 14.1641C17.5629 14.18 17.6644 14.2581 17.7188 14.3984C17.7344 14.9922 17.75 15.5859 17.7656 16.1797C17.8838 16.046 18.0322 15.9757 18.2109 15.9687C19.6172 15.9375 21.0234 15.9375 22.4297 15.9687C22.6168 15.9881 22.7652 16.074 22.875 16.2266C23.2332 17.6281 23.577 19.0344 23.9062 20.4453C23.9955 20.853 23.847 21.1265 23.4609 21.2656C22.7893 21.2891 22.1174 21.2969 21.4453 21.2891C21.4453 21.6953 21.4453 22.1015 21.4453 22.5078C22.2267 22.5 23.008 22.5078 23.7891 22.5312C23.8758 22.5636 23.9383 22.6182 23.9766 22.6953C23.9766 22.8203 23.9766 22.9453 23.9766 23.0703C23.901 23.1533 23.8072 23.2079 23.6953 23.2344C15.8828 23.2656 8.07033 23.2656 0.257812 23.2344C0.145935 23.2079 0.0521845 23.1533 -0.0234375 23.0703C-0.0234375 22.9453 -0.0234375 22.8203 -0.0234375 22.6953C0.0148329 22.6182 0.077333 22.5636 0.164062 22.5312C0.804497 22.5078 1.44512 22.5 2.08594 22.5078C2.06832 22.0984 2.09175 21.6921 2.15625 21.2891C2.23418 21.1758 2.33575 21.0898 2.46094 21.0312C2.64475 21.0217 2.82443 20.9983 3 20.9609C3.13218 18.2931 3.28062 15.6291 3.44531 12.9687C2.55941 13.2144 1.66879 13.4565 0.773438 13.6953C0.403825 13.6751 0.138201 13.5032 -0.0234375 13.1797C-0.0234375 12.9766 -0.0234375 12.7734 -0.0234375 12.5703C0.716208 11.7761 1.49746 11.0183 2.32031 10.2969C2.63788 10.167 2.96601 10.1436 3.30469 10.2266C3.42129 10.1912 3.51504 10.1209 3.58594 10.0156C3.33938 9.72561 3.1675 9.39748 3.07031 9.03125C3.28579 8.06778 3.51236 7.10684 3.75 6.14843C3.95771 5.61111 4.34052 5.43143 4.89844 5.60937C5.11613 5.73317 5.26458 5.91289 5.34375 6.14843C5.5808 7.10431 5.79173 8.06525 5.97656 9.03125C5.93606 9.38576 5.78761 9.69045 5.53125 9.94531C5.54166 10.037 5.5807 10.123 5.64844 10.2031C5.69531 10.2109 5.74219 10.2187 5.78906 10.2266C6.0375 10.187 6.28753 10.1714 6.53906 10.1797C6.53123 9.39828 6.53906 8.61701 6.5625 7.83593C6.60736 7.57217 6.75581 7.3925 7.00781 7.29687C8.99217 7.26561 10.9766 7.26561 12.9609 7.29687C13.1829 7.34693 13.3313 7.47973 13.4062 7.69531C13.4141 8.71128 13.4375 9.72692 13.4766 10.7422C14.6746 10.1822 15.8777 9.63532 17.0859 9.10156C17.3341 9.12007 17.5294 9.22948 17.6719 9.42968C17.7491 10.6444 17.7647 11.8631 17.7188 13.0859C17.6451 13.1995 17.5436 13.262 17.4141 13.2734ZM5.50781 16.6016C5.47547 16.3058 5.45981 16.0089 5.46094 15.7109C5.71509 15.6489 5.82445 15.4849 5.78906 15.2187C5.74711 14.4994 5.70023 13.7806 5.64844 13.0625C5.66405 13.0234 5.6797 12.9844 5.69531 12.9453C5.97173 13.0427 6.25298 13.1208 6.53906 13.1797C6.55467 15.3362 6.53906 17.4924 6.49219 19.6484C6.32316 19.747 6.1747 19.872 6.04688 20.0234C5.97947 18.9769 5.91694 17.93 5.85938 16.8828C5.81892 16.6945 5.70173 16.6007 5.50781 16.6016ZM17.7422 21.2891C18.2109 21.2891 18.6797 21.2891 19.1484 21.2891C19.1484 21.6953 19.1484 22.1015 19.1484 22.5078C18.6797 22.5078 18.2109 22.5078 17.7422 22.5078C17.7422 22.1015 17.7422 21.6953 17.7422 21.2891Z" fill="#010102"/>
<path fill-rule="evenodd" clip-rule="evenodd" d="M4.47656 6.24231C4.55268 6.23575 4.60736 6.26701 4.64062 6.33606C4.85527 7.21811 5.0662 8.10095 5.27344 8.9845C5.16778 9.19956 5.04277 9.40267 4.89844 9.59387C4.66406 9.62514 4.42969 9.62514 4.19531 9.59387C4.04564 9.40351 3.92064 9.20036 3.82031 8.9845C4.02099 8.06467 4.23974 7.15061 4.47656 6.24231Z" fill="#F8BD66"/>
<path opacity="0.891" fill-rule="evenodd" clip-rule="evenodd" d="M16.8984 6.99222C17.2787 6.92757 17.4584 7.08381 17.4375 7.46097C17.2459 7.76382 16.9724 7.89662 16.6172 7.8594C16.4021 7.72989 16.3474 7.55017 16.4531 7.32034C16.5969 7.19926 16.7454 7.0899 16.8984 6.99222Z" fill="black"/>
<path opacity="0.89" fill-rule="evenodd" clip-rule="evenodd" d="M22.5235 6.99219C22.8907 6.9455 23.1797 7.07047 23.3907 7.36719C23.4698 7.6625 23.3604 7.83439 23.0626 7.88281C22.848 7.84194 22.6526 7.75602 22.4766 7.625C22.3444 7.40235 22.36 7.19141 22.5235 6.99219Z" fill="black"/>
<path fill-rule="evenodd" clip-rule="evenodd" d="M7.28907 8.02344C8.85155 8.02344 10.4141 8.02344 11.9766 8.02344C11.9766 9.16405 11.9766 10.3047 11.9766 11.4453C11.7179 11.5817 11.4522 11.7145 11.1797 11.8438C10.2422 11.875 9.30469 11.875 8.36719 11.8438C8.00143 11.5249 7.64987 11.189 7.31251 10.8359C7.28907 9.89858 7.28124 8.96108 7.28907 8.02344Z" fill="#47D158"/>
<path fill-rule="evenodd" clip-rule="evenodd" d="M7.28906 8.0234C9.09356 7.97658 10.9061 7.96097 12.7266 7.97653C12.7344 9.02353 12.7266 10.0704 12.7031 11.1172C12.4746 11.2588 12.2324 11.3682 11.9766 11.4453C11.9766 10.3047 11.9766 9.16401 11.9766 8.0234C10.4141 8.0234 8.85155 8.0234 7.28906 8.0234Z" fill="#2F8B3A"/>
<path opacity="0.883" fill-rule="evenodd" clip-rule="evenodd" d="M19.8047 8.58586C20.006 8.5717 20.1544 8.6498 20.25 8.82023C20.2813 9.05461 20.2813 9.28898 20.25 9.52336C19.9752 9.79026 19.7409 9.759 19.5469 9.42961C19.5156 9.24211 19.5156 9.05461 19.5469 8.86711C19.6106 8.74884 19.6966 8.65509 19.8047 8.58586Z" fill="black"/>
<path fill-rule="evenodd" clip-rule="evenodd" d="M8.36713 9.61719C9.461 9.60937 10.5547 9.61719 11.6484 9.64063C11.8451 9.78037 11.8841 9.96004 11.7656 10.1797C11.7232 10.236 11.6686 10.2751 11.6015 10.2969C10.539 10.3281 9.47652 10.3281 8.414 10.2969C8.19256 10.1827 8.12225 10.003 8.20306 9.75782C8.25674 9.70457 8.31144 9.65769 8.36713 9.61719Z" fill="#060708"/>
<path fill-rule="evenodd" clip-rule="evenodd" d="M16.9453 9.94531C16.9766 10.9453 17.0078 11.9453 17.0391 12.9453C17.0764 13.1545 17.2014 13.2639 17.4141 13.2734C17.4141 13.5703 17.4141 13.8672 17.4141 14.1641C17.3255 14.2026 17.2318 14.2416 17.1328 14.2812C17.1035 14.3164 17.08 14.3555 17.0625 14.3984C17.0469 16.0235 17.0312 17.6484 17.0156 19.2734C16.9065 19.7253 16.805 20.1785 16.7109 20.6328C16.7028 20.8823 16.8044 21.0698 17.0156 21.1953C17.0391 21.6325 17.0468 22.07 17.0391 22.5078C16.7891 22.5078 16.539 22.5078 16.2891 22.5078C16.3047 18.4218 16.289 14.3437 16.2422 10.2734C16.4677 10.153 16.7021 10.0436 16.9453 9.94531Z" fill="#2F8B3A"/>
<path fill-rule="evenodd" clip-rule="evenodd" d="M16.9453 9.94531C16.9481 9.91986 16.9637 9.90425 16.9922 9.89844C17.0391 10.9136 17.0547 11.9292 17.0391 12.9453C17.0078 11.9453 16.9766 10.9453 16.9453 9.94531Z" fill="#4376A8"/>
<path fill-rule="evenodd" clip-rule="evenodd" d="M16.2422 10.2734C16.289 14.3437 16.3047 18.4218 16.2891 22.5078C14.8828 22.5078 13.4766 22.5078 12.0703 22.5078C12.1023 22.0887 11.993 21.7137 11.7422 21.3828C12.1484 21.3515 12.5547 21.3203 12.9609 21.2891C13.1376 21.2592 13.2704 21.1655 13.3594 21.0078C13.4341 20.5113 13.4497 20.0112 13.4062 19.5078C13.3176 19.341 13.1848 19.2238 13.0078 19.1562C11.4505 18.8073 10.888 19.4011 11.3203 20.9375C11.042 20.8111 10.7451 20.7252 10.4297 20.6797C10.4141 18.1014 10.4297 15.5233 10.4766 12.9453C12.3938 12.0413 14.3157 11.1507 16.2422 10.2734Z" fill="#3BAE49"/>
<path fill-rule="evenodd" clip-rule="evenodd" d="M4.33597 10.3202C4.95505 10.2906 5.18165 10.5718 5.01566 11.164C4.8381 11.3821 4.61151 11.4524 4.33597 11.3749C4.03559 11.2192 3.93403 10.977 4.03129 10.6484C4.1107 10.5144 4.21226 10.405 4.33597 10.3202Z" fill="#3BAE49"/>
<path fill-rule="evenodd" clip-rule="evenodd" d="M2.69536 10.9297C2.89848 10.9297 3.10161 10.9297 3.30473 10.9297C3.29713 11.0247 3.30494 11.1185 3.32817 11.2109C3.41793 11.4062 3.51949 11.5937 3.63286 11.7734C3.5893 11.9152 3.52681 12.048 3.44536 12.1719C2.52812 12.4519 1.60624 12.7097 0.679731 12.9453C0.672723 12.896 0.680537 12.8491 0.703169 12.8047C1.37518 12.1843 2.03924 11.5594 2.69536 10.9297Z" fill="#FBBF67"/>
<path fill-rule="evenodd" clip-rule="evenodd" d="M5.78906 10.9297C5.99278 10.9219 6.19589 10.9297 6.39844 10.9531C7.04058 11.5797 7.69683 12.1891 8.36719 12.7812C8.40642 12.8286 8.42203 12.8833 8.41406 12.9453C7.46217 12.7374 6.52467 12.4719 5.60156 12.1484C5.53908 12.0234 5.47655 11.8984 5.41406 11.7734C5.63888 11.5365 5.76389 11.2552 5.78906 10.9297Z" fill="#F9BD66"/>
<path fill-rule="evenodd" clip-rule="evenodd" d="M4.38281 12.1014C4.52017 15.0705 4.66079 18.0392 4.80469 21.0077C4.44531 21.0077 4.08594 21.0077 3.72656 21.0077C3.8734 18.0692 4.03747 15.1317 4.21875 12.1952C4.25201 12.1261 4.3067 12.0949 4.38281 12.1014Z" fill="#DAE8FA"/>
<path fill-rule="evenodd" clip-rule="evenodd" d="M4.38281 12.1015C4.5243 12.0938 4.66493 12.1016 4.80469 12.125C4.83403 12.1601 4.85747 12.1992 4.875 12.2421C4.94405 13.3042 5.00658 14.3667 5.0625 15.4296C5.14073 15.6106 5.27353 15.7044 5.46094 15.7109C5.45981 16.0089 5.47547 16.3057 5.50781 16.6015C5.38336 16.625 5.28178 16.6875 5.20312 16.789C5.1953 16.9765 5.18752 17.164 5.17969 17.3515C5.23031 18.5558 5.28502 19.759 5.34375 20.9609C5.16891 21.0059 4.98923 21.0215 4.80469 21.0078C4.66079 18.0393 4.52017 15.0705 4.38281 12.1015Z" fill="#BBD6F9"/>
<path fill-rule="evenodd" clip-rule="evenodd" d="M9.67969 14.8672C9.67969 15.3828 9.67969 15.8984 9.67969 16.4141C9.24928 16.3987 8.82741 16.4144 8.41406 16.4609C8.24611 16.5041 8.16797 16.6136 8.17969 16.7891C8.16797 16.9646 8.24611 17.074 8.41406 17.1172C8.82741 17.1637 9.24928 17.1794 9.67969 17.1641C9.67969 17.6797 9.67969 18.1953 9.67969 18.7109C9.24192 18.7031 8.80439 18.7109 8.36719 18.7344C8.11819 18.9575 8.11819 19.1763 8.36719 19.3906C8.80439 19.4141 9.24192 19.4218 9.67969 19.4141C9.67969 19.8203 9.67969 20.2265 9.67969 20.6328C9.55467 20.6328 9.4297 20.6328 9.30469 20.6328C9.00553 19.9279 8.4743 19.5216 7.71094 19.4141C7.5803 19.3683 7.43967 19.3526 7.28906 19.3672C7.28906 17.3828 7.28906 15.3984 7.28906 13.4141C7.52681 13.4698 7.76119 13.5401 7.99219 13.625C8.7885 13.7425 9.14789 13.4066 9.07031 12.6172C9.3203 12.5547 9.57033 12.5547 9.82031 12.6172C9.79688 12.6641 9.77344 12.7109 9.75 12.7578C9.72656 13.2263 9.71878 13.695 9.72656 14.1641C9.27319 14.1563 8.82005 14.1641 8.36719 14.1875C8.11819 14.4018 8.11819 14.6206 8.36719 14.8437C8.80439 14.8672 9.24192 14.875 9.67969 14.8672Z" fill="#47D158"/>
<path fill-rule="evenodd" clip-rule="evenodd" d="M7.28903 13.4141C7.28903 15.3984 7.28903 17.3828 7.28903 19.3672C7.43964 19.3527 7.58026 19.3683 7.7109 19.4141C7.55467 19.4141 7.39839 19.4141 7.24215 19.4141C7.22659 17.4061 7.2422 15.4061 7.28903 13.4141Z" fill="#293038"/>
<path fill-rule="evenodd" clip-rule="evenodd" d="M11.6953 13.3672C12.1331 13.3594 12.5706 13.3672 13.0078 13.3906C13.1848 13.4582 13.3176 13.5754 13.4063 13.7422C13.4375 14.1953 13.4375 14.6484 13.4063 15.1015C13.3516 15.3438 13.2032 15.4922 12.9609 15.5469C12.5391 15.5781 12.1172 15.5781 11.6953 15.5469C11.5 15.4765 11.3672 15.3438 11.2969 15.1484C11.2656 14.6797 11.2656 14.2109 11.2969 13.7422C11.3941 13.5745 11.5269 13.4495 11.6953 13.3672Z" fill="#020405"/>
<path fill-rule="evenodd" clip-rule="evenodd" d="M14.4141 13.3672C14.8518 13.3594 15.2894 13.3672 15.7266 13.3906C15.9688 13.4453 16.1172 13.5937 16.1719 13.8359C16.5078 15.3125 15.9375 15.8828 14.4609 15.5469C14.25 15.4609 14.1016 15.3125 14.0156 15.1015C13.9844 14.6641 13.9844 14.2265 14.0156 13.789C14.0948 13.5929 14.2276 13.4523 14.4141 13.3672Z" fill="#030507"/>
<path fill-rule="evenodd" clip-rule="evenodd" d="M15.4453 14.0703C15.4453 14.3203 15.4453 14.5703 15.4453 14.8203C15.1953 14.8203 14.9453 14.8203 14.6953 14.8203C14.6953 14.5703 14.6953 14.3203 14.6953 14.0703C14.9453 14.0703 15.1953 14.0703 15.4453 14.0703Z" fill="#D8E5F7"/>
<path fill-rule="evenodd" clip-rule="evenodd" d="M11.9765 14.0703C11.9765 14.3203 11.9765 14.5703 11.9765 14.8203C12.2265 14.8203 12.4765 14.8203 12.7265 14.8203C12.4699 14.8667 12.2042 14.8823 11.9296 14.8672C11.9145 14.5926 11.9302 14.327 11.9765 14.0703Z" fill="#6D747D"/>
<path fill-rule="evenodd" clip-rule="evenodd" d="M15.4453 14.0703C15.4917 14.327 15.5073 14.5926 15.4922 14.8672C15.2176 14.8823 14.952 14.8667 14.6953 14.8203C14.9453 14.8203 15.1953 14.8203 15.4453 14.8203C15.4453 14.5703 15.4453 14.3203 15.4453 14.0703Z" fill="#878F9B"/>
<path fill-rule="evenodd" clip-rule="evenodd" d="M9.67969 14.8672C9.72633 15.39 9.74194 15.9213 9.72656 16.4609C9.28908 16.4609 8.85155 16.4609 8.41406 16.4609C8.82741 16.4144 9.24928 16.3987 9.67969 16.4141C9.67969 15.8984 9.67969 15.3828 9.67969 14.8672Z" fill="#75869C"/>
<path fill-rule="evenodd" clip-rule="evenodd" d="M11.6015 16.2734C12.0861 16.2656 12.5705 16.2734 13.0546 16.2969C13.2289 16.3561 13.3461 16.4733 13.4062 16.6484C13.4374 17.1016 13.4374 17.5547 13.4062 18.0078C13.3578 18.1503 13.2719 18.2674 13.1484 18.3594C12.6518 18.4341 12.1518 18.4497 11.6484 18.4062C11.5232 18.3476 11.4216 18.2617 11.3437 18.1484C11.2688 17.6362 11.2532 17.1206 11.2968 16.6015C11.3762 16.4676 11.4778 16.3582 11.6015 16.2734Z" fill="#030405"/>
<path fill-rule="evenodd" clip-rule="evenodd" d="M14.3672 16.2734C14.8362 16.2656 15.305 16.2734 15.7734 16.2969C15.9676 16.366 16.1004 16.4988 16.1719 16.6953C16.2032 17.1328 16.2032 17.5703 16.1719 18.0078C16.097 18.2234 15.9485 18.3562 15.7266 18.4062C15.2891 18.4375 14.8516 18.4375 14.4141 18.4062C14.2187 18.3359 14.0859 18.2031 14.0156 18.0078C13.9844 17.5703 13.9844 17.1328 14.0156 16.6953C14.0926 16.5172 14.2098 16.3765 14.3672 16.2734Z" fill="#030506"/>
<path fill-rule="evenodd" clip-rule="evenodd" d="M18.3047 16.6953C18.5859 16.6953 18.8672 16.6953 19.1484 16.6953C19.1543 16.9626 19.1387 17.2283 19.1016 17.4922C18.789 17.4922 18.4766 17.4922 18.1641 17.4922C18.2209 17.228 18.2678 16.9623 18.3047 16.6953Z" fill="#2F8B3A"/>
<path fill-rule="evenodd" clip-rule="evenodd" d="M19.8516 16.6953C20.1484 16.6953 20.4453 16.6953 20.7422 16.6953C20.7671 16.9602 20.7827 17.2259 20.7891 17.4922C20.4765 17.4922 20.1641 17.4922 19.8516 17.4922C19.8516 17.2265 19.8516 16.961 19.8516 16.6953Z" fill="#2F8B3A"/>
<path fill-rule="evenodd" clip-rule="evenodd" d="M21.4453 16.6953C21.7266 16.6953 22.0078 16.6953 22.2891 16.6953C22.3584 16.957 22.4053 17.2226 22.4297 17.4922C22.1172 17.4922 21.8047 17.4922 21.4922 17.4922C21.4907 17.2255 21.475 16.9599 21.4453 16.6953Z" fill="#2F8B3A"/>
<path fill-rule="evenodd" clip-rule="evenodd" d="M11.9766 16.9766C12.2265 16.9766 12.4766 16.9766 12.7266 16.9766C12.7266 17.2265 12.7266 17.4766 12.7266 17.7266C12.4766 17.7266 12.2265 17.7266 11.9766 17.7266C11.9766 17.4766 11.9766 17.2265 11.9766 16.9766Z" fill="#DCEBFC"/>
<path fill-rule="evenodd" clip-rule="evenodd" d="M14.6953 16.9766C14.961 16.9766 15.2265 16.9766 15.4922 16.9766C15.4922 17.2265 15.4922 17.4766 15.4922 17.7266C15.2265 17.7266 14.961 17.7266 14.6953 17.7266C14.6953 17.4766 14.6953 17.2265 14.6953 16.9766Z" fill="#D6E3F5"/>
<path fill-rule="evenodd" clip-rule="evenodd" d="M8.41406 17.1172C8.85155 17.1172 9.28908 17.1172 9.72656 17.1172C9.74194 17.6568 9.72633 18.1881 9.67969 18.7109C9.67969 18.1953 9.67969 17.6797 9.67969 17.1641C9.24928 17.1794 8.82741 17.1637 8.41406 17.1172Z" fill="#718197"/>
<path fill-rule="evenodd" clip-rule="evenodd" d="M17.9766 18.1953C18.336 18.1953 18.6953 18.1953 19.0547 18.1953C19.0169 18.4749 19.0013 18.7561 19.0078 19.0391C18.6015 19.0391 18.1953 19.0391 17.7891 19.0391C17.8456 18.7563 17.9081 18.475 17.9766 18.1953Z" fill="#2F8B3A"/>
<path fill-rule="evenodd" clip-rule="evenodd" d="M19.7578 18.1953C20.1175 18.1875 20.4769 18.1953 20.8359 18.2187C20.8816 18.4878 20.8972 18.7613 20.8828 19.039C20.4922 19.039 20.1015 19.039 19.7109 19.039C19.7074 18.7564 19.7231 18.4752 19.7578 18.1953Z" fill="#2F8B3A"/>
<path fill-rule="evenodd" clip-rule="evenodd" d="M21.5391 18.1953C21.8988 18.1875 22.2582 18.1953 22.6172 18.2187C22.7128 18.4839 22.7752 18.7573 22.8047 19.039C22.3984 19.039 21.9922 19.039 21.5859 19.039C21.5952 18.7557 21.5795 18.4744 21.5391 18.1953Z" fill="#2F8B3A"/>
<path fill-rule="evenodd" clip-rule="evenodd" d="M14.4141 19.1328C14.8518 19.125 15.2894 19.1328 15.7266 19.1562C15.9688 19.2109 16.1172 19.3593 16.1719 19.6015C16.5078 21.0781 15.9375 21.6484 14.4609 21.3125C14.25 21.2266 14.1016 21.0781 14.0156 20.8672C13.9844 20.4297 13.9844 19.9922 14.0156 19.5547C14.0948 19.3585 14.2276 19.2179 14.4141 19.1328Z" fill="#030507"/>
<path fill-rule="evenodd" clip-rule="evenodd" d="M9.67969 19.4141C9.72623 19.8274 9.74189 20.2493 9.72656 20.6797C9.57595 20.6942 9.43533 20.6786 9.30469 20.6328C9.4297 20.6328 9.55467 20.6328 9.67969 20.6328C9.67969 20.2265 9.67969 19.8203 9.67969 19.4141Z" fill="#798AA2"/>
<path fill-rule="evenodd" clip-rule="evenodd" d="M18.8672 20.5391C18.39 20.5544 17.9212 20.5388 17.4609 20.4922C17.4929 20.2394 17.5398 19.9894 17.6016 19.7422C18.039 19.7422 18.4766 19.7422 18.9141 19.7422C18.9019 20.0081 18.8863 20.2737 18.8672 20.5391Z" fill="#2F8B3A"/>
<path fill-rule="evenodd" clip-rule="evenodd" d="M21.0234 20.5391C20.5547 20.5391 20.0859 20.5391 19.6172 20.5391C19.6172 20.414 19.6172 20.2891 19.6172 20.1641C19.6172 20.0234 19.6172 19.8828 19.6172 19.7422C20.0703 19.7422 20.5234 19.7422 20.9766 19.7422C20.9956 20.0075 21.0113 20.2732 21.0234 20.5391Z" fill="#2F8B3A"/>
<path fill-rule="evenodd" clip-rule="evenodd" d="M21.6797 19.7422C22.1175 19.7344 22.555 19.7422 22.9922 19.7656C23.0655 20.0199 23.128 20.2777 23.1797 20.539C22.6953 20.539 22.2109 20.539 21.7266 20.539C21.7202 20.2728 21.7046 20.0071 21.6797 19.7422Z" fill="#2F8B3A"/>
<path fill-rule="evenodd" clip-rule="evenodd" d="M15.4453 19.8359C15.4453 20.0859 15.4453 20.336 15.4453 20.5859C15.1953 20.5859 14.9453 20.5859 14.6953 20.5859C14.6953 20.336 14.6953 20.0859 14.6953 19.8359C14.9453 19.8359 15.1953 19.8359 15.4453 19.8359Z" fill="#D8E5F7"/>
<path fill-rule="evenodd" clip-rule="evenodd" d="M7.28902 20.1171C7.48093 20.0799 7.62938 20.1423 7.73434 20.3046C7.86188 20.5366 7.99468 20.7631 8.13277 20.9843C8.31962 21.0077 8.50712 21.0155 8.69527 21.0078C8.76212 21.184 8.88713 21.2934 9.07027 21.3359C9.46824 21.3748 9.87451 21.3982 10.289 21.4062C10.6064 21.7051 10.7627 22.0722 10.7578 22.5078C8.91404 22.5078 7.07026 22.5078 5.22652 22.5078C5.20716 22.2456 5.27748 22.0113 5.43746 21.8046C5.71023 21.5746 5.99148 21.3558 6.28121 21.1484C6.40768 20.5923 6.74363 20.2485 7.28902 20.1171Z" fill="#9BD068"/>
<path fill-rule="evenodd" clip-rule="evenodd" d="M7.28906 20.1173C7.98862 20.0304 8.45738 20.3273 8.69531 21.0079C8.50716 21.0157 8.31966 21.0079 8.13281 20.9845C7.99472 20.7633 7.86192 20.5367 7.73438 20.3048C7.62942 20.1425 7.48097 20.08 7.28906 20.1173Z" fill="#65AA7B"/>
<path fill-rule="evenodd" clip-rule="evenodd" d="M17.4609 20.4922C17.9212 20.5388 18.39 20.5544 18.8672 20.5391C18.3903 20.6011 17.9059 20.6011 17.4141 20.5391C17.4199 20.5106 17.4355 20.495 17.4609 20.4922Z" fill="#142530"/>
<path fill-rule="evenodd" clip-rule="evenodd" d="M19.6171 20.1641C19.6171 20.2891 19.6171 20.414 19.6171 20.5391C20.0858 20.5391 20.5546 20.5391 21.0233 20.5391C20.5474 20.5857 20.063 20.6013 19.5702 20.5859C19.5557 20.4353 19.5713 20.2947 19.6171 20.1641Z" fill="#172936"/>
<path fill-rule="evenodd" clip-rule="evenodd" d="M11.9765 19.8359C11.9765 20.0859 11.9765 20.336 11.9765 20.5859C12.2265 20.5859 12.4765 20.5859 12.7265 20.5859C12.4699 20.6323 12.2042 20.6479 11.9296 20.6328C11.9145 20.3582 11.9302 20.0926 11.9765 19.8359Z" fill="#6D747D"/>
<path fill-rule="evenodd" clip-rule="evenodd" d="M15.4453 19.8359C15.4917 20.0926 15.5073 20.3582 15.4922 20.6328C15.2176 20.6479 14.952 20.6323 14.6953 20.5859C14.9453 20.5859 15.1953 20.5859 15.4453 20.5859C15.4453 20.336 15.4453 20.0859 15.4453 19.8359Z" fill="#878F9B"/>
<path fill-rule="evenodd" clip-rule="evenodd" d="M12.9609 21.289C12.5547 21.3203 12.1485 21.3515 11.7422 21.3828C11.7052 21.3695 11.6739 21.3461 11.6484 21.3125C12.0856 21.289 12.5232 21.2813 12.9609 21.289Z" fill="#2E526A"/>
<path fill-rule="evenodd" clip-rule="evenodd" d="M19.8984 21.2891C20.1641 21.2891 20.4297 21.2891 20.6953 21.2891C20.6953 21.6953 20.6953 22.1015 20.6953 22.5078C20.4297 22.5078 20.1641 22.5078 19.8984 22.5078C19.8984 22.1015 19.8984 21.6953 19.8984 21.2891Z" fill="#DCEBFC"/>
<path fill-rule="evenodd" clip-rule="evenodd" d="M19.8984 21.289C20.1708 21.2426 20.452 21.227 20.7422 21.2422C20.7575 21.6726 20.7419 22.0944 20.6953 22.5078C20.6953 22.1015 20.6953 21.6953 20.6953 21.289C20.4297 21.289 20.1641 21.289 19.8984 21.289Z" fill="#8C95A1"/>
<path fill-rule="evenodd" clip-rule="evenodd" d="M9.07031 21.336C9.58894 21.317 10.1046 21.3404 10.6172 21.4063C11.1088 21.609 11.3744 21.9762 11.4141 22.5079C11.1953 22.5079 10.9766 22.5079 10.7578 22.5079C10.7627 22.0723 10.6065 21.7052 10.2891 21.4063C9.87455 21.3983 9.46828 21.3749 9.07031 21.336Z" fill="#62A576"/>
<path fill-rule="evenodd" clip-rule="evenodd" d="M2.83594 21.7577C3.437 21.7111 4.04637 21.6954 4.66406 21.7108C4.67519 21.7713 4.65956 21.8182 4.61719 21.8514C4.04113 21.7586 3.44738 21.7274 2.83594 21.7577Z" fill="#4E8AB4"/>
<path fill-rule="evenodd" clip-rule="evenodd" d="M2.83594 21.7578C3.44738 21.7275 4.04113 21.7587 4.61719 21.8515C4.54164 22.0622 4.51039 22.281 4.52344 22.5078C3.96094 22.5078 3.39844 22.5078 2.83594 22.5078C2.83594 22.2578 2.83594 22.0078 2.83594 21.7578Z" fill="#3BAE49"/>
</g>
<defs>
<clipPath id="clip0_916_10656">
<rect width="24" height="24" fill="white" transform="translate(0 0.5)"/>
</clipPath>
</defs>
</svg>
