<svg width="24" height="24" viewBox="0 0 24 24" fill="none" xmlns="http://www.w3.org/2000/svg">
<path d="M20.2354 0.881883L16.317 3.96391L21.3985 2.95455L20.2354 0.881836L20.2354 0.881883ZM14.546 0.924352L13.5396 5.21341L17.2764 0.924352H14.546ZM7.01518 1.13084L6.91267 1.4238C6.29218 3.18429 5.91357 5.12702 5.91357 6.95946C5.91357 9.4811 6.61829 11.3274 7.79889 12.5317C8.68567 13.4364 9.82318 13.9612 11.0698 14.1664C11.8729 16.4227 11.8283 18.9041 10.954 21.1405C9.52098 21.3801 8.12903 21.9979 6.90676 22.9935H17.7437C16.522 21.9983 15.1304 21.3818 13.6979 21.1419C12.8238 18.9067 12.779 16.4264 13.5807 14.1708C14.8361 13.9689 15.9801 13.4433 16.8677 12.5316C17.4933 11.8891 17.9822 11.064 18.3033 10.0516L14.3306 6.69274L11.9121 6.64151L14.3569 12.2489L12.0045 8.79485L8.29403 11.8169L11.2852 7.74157L10.5221 6.62102L7.99811 5.86371L7.53812 5.72599L7.71831 5.27927L9.40581 1.13084H7.01518ZM10.3506 1.13084L8.7115 5.16209L10.9878 5.84618L12.5244 4.26696L11.7071 1.13079H10.3506V1.13084ZM18.5362 4.5483L14.7028 5.8608L18.5421 9.1069C18.669 8.45487 18.7369 7.73979 18.7369 6.95955C18.7369 6.1683 18.6661 5.35709 18.5362 4.5483Z" fill="#616161"/>
</svg>
