<svg width="24" height="25" viewBox="0 0 24 25" fill="none" xmlns="http://www.w3.org/2000/svg">
<path opacity="0.992" fill-rule="evenodd" clip-rule="evenodd" d="M10.1954 2.63281C10.1954 4.33594 10.1954 6.03908 10.1954 7.74219C10.1204 7.72963 10.058 7.74528 10.0079 7.78906C9.87462 7.82056 9.75744 7.88305 9.65633 7.97656C9.52944 8.207 9.39659 8.43355 9.25789 8.65625C9.16766 8.64992 9.07391 8.64209 8.97664 8.63281C9.00898 8.92859 9.02464 9.22545 9.02352 9.52344C9.32197 9.45627 9.59544 9.3313 9.84383 9.14844C9.87509 9.11717 9.87509 9.08595 9.84383 9.05469C9.77412 9.02398 9.71947 8.97711 9.67977 8.91406C9.78626 8.6682 9.92689 8.44948 10.1016 8.25781C10.1329 8.25781 10.1641 8.25781 10.1954 8.25781C10.1954 9.57031 10.1954 10.8828 10.1954 12.1953C10.1954 12.2109 10.1954 12.2266 10.1954 12.2422C8.27352 12.2422 6.35164 12.2422 4.42976 12.2422C4.42976 12.3984 4.42976 12.5547 4.42976 12.7109C6.35164 12.7109 8.27352 12.7109 10.1954 12.7109C10.1954 12.7265 10.1954 12.7422 10.1954 12.7578C10.1798 12.7578 10.1641 12.7578 10.1485 12.7578C8.21867 12.7734 6.2968 12.7578 4.38289 12.7109C4.37817 11.8578 4.58911 11.0609 5.0157 10.3203C5.84637 8.95742 6.85419 7.73084 8.03914 6.64063C8.49922 6.25091 8.95236 5.85247 9.39852 5.44531C9.14061 4.75755 8.90623 4.06223 8.69539 3.35938C8.69652 3.13841 8.80592 3.03685 9.02352 3.05469C9.19869 3.0964 9.37053 3.13546 9.53914 3.17188C9.75195 2.98224 9.97072 2.80256 10.1954 2.63281Z" fill="#169E49"/>
<path fill-rule="evenodd" clip-rule="evenodd" d="M10.1953 2.63281C10.3927 2.81342 10.5958 2.9931 10.8047 3.17188C10.9795 3.12853 11.1592 3.08946 11.3438 3.05469C11.454 3.04554 11.5477 3.07679 11.625 3.14844C11.6563 3.28906 11.6563 3.42969 11.625 3.57031C11.3828 4.20305 11.1796 4.84368 11.0156 5.49219C12.4114 6.65352 13.6614 7.95036 14.7656 9.38281C15.1897 9.99509 15.5334 10.6513 15.7969 11.3516C15.8788 11.6281 15.9334 11.9093 15.9609 12.1953C14.0391 12.1953 12.1172 12.1953 10.1953 12.1953C10.1953 10.8828 10.1953 9.57031 10.1953 8.25781C10.2664 8.25833 10.3211 8.28955 10.3594 8.35156C10.5742 8.73434 10.8007 9.10934 11.0391 9.47656C11.2533 9.56473 11.3783 9.49442 11.4141 9.26562C11.193 8.76092 10.9117 8.29217 10.5703 7.85938C10.4521 7.79652 10.3271 7.75747 10.1953 7.74219C10.1953 6.03908 10.1953 4.33594 10.1953 2.63281Z" fill="#138843"/>
<path fill-rule="evenodd" clip-rule="evenodd" d="M9.86719 5.67969C9.89714 5.70767 9.91275 5.74672 9.91406 5.79688C9.79744 6.38113 9.63338 6.95141 9.42188 7.50781C9.33417 7.72255 9.21699 7.91788 9.07031 8.09375C8.79577 8.23203 8.60049 8.16172 8.48438 7.88281C8.44842 7.69091 8.46403 7.50341 8.53125 7.32031C8.88431 6.69425 9.32963 6.14741 9.86719 5.67969Z" fill="#138843"/>
<path fill-rule="evenodd" clip-rule="evenodd" d="M10.4297 5.63281C10.9689 6.07025 11.4143 6.58587 11.7656 7.17969C12.0064 7.52384 11.983 7.84414 11.6953 8.14062C11.4594 8.21408 11.2797 8.14377 11.1562 7.92969C10.7791 7.20664 10.5369 6.44103 10.4297 5.63281Z" fill="#135A2E"/>
<path fill-rule="evenodd" clip-rule="evenodd" d="M10.0078 7.78906C10.0703 7.78906 10.1328 7.78906 10.1953 7.78906C10.2159 7.96152 10.1847 8.11775 10.1016 8.25781C9.92681 8.44948 9.78619 8.6682 9.67969 8.91406C9.71939 8.97711 9.77405 9.02398 9.84375 9.05469C9.87502 9.08595 9.87502 9.11717 9.84375 9.14844C9.59536 9.3313 9.32189 9.45627 9.02344 9.52344C9.02456 9.22545 9.00891 8.92859 8.97656 8.63281C9.07383 8.64209 9.16758 8.64992 9.25781 8.65625C9.39652 8.43355 9.52936 8.207 9.65625 7.97656C9.75736 7.88305 9.87455 7.82056 10.0078 7.78906Z" fill="#FBFDFB"/>
<path fill-rule="evenodd" clip-rule="evenodd" d="M10.0078 7.78911C10.0579 7.74533 10.1204 7.72967 10.1953 7.74223C10.3271 7.75751 10.4521 7.79656 10.5703 7.85942C10.9117 8.29222 11.193 8.76097 11.4141 9.26567C11.3783 9.49447 11.2533 9.56478 11.0391 9.47661C10.8007 9.10939 10.5742 8.73439 10.3594 8.35161C10.3211 8.28959 10.2664 8.25837 10.1953 8.25786C10.164 8.25786 10.1328 8.25786 10.1016 8.25786C10.1847 8.1178 10.2159 7.96156 10.1953 7.78911C10.1328 7.78911 10.0703 7.78911 10.0078 7.78911Z" fill="#F6E1BA"/>
<path fill-rule="evenodd" clip-rule="evenodd" d="M9.30469 12.0078C9.30469 11.9454 9.30469 11.8828 9.30469 11.8203C9.03905 11.8203 8.77345 11.8203 8.50781 11.8203C8.124 11.7487 7.92089 11.5143 7.89844 11.1172C8.10998 10.5853 8.39123 10.0931 8.74219 9.64066C8.92777 9.607 9.03712 9.68514 9.07031 9.87503C8.8785 10.2663 8.66756 10.6491 8.4375 11.0235C8.3955 11.1418 8.41894 11.2434 8.50781 11.3282C8.77298 11.3515 9.03863 11.3594 9.30469 11.3516C9.30469 11.2578 9.30469 11.1641 9.30469 11.0703C9.59836 11.1861 9.864 11.3501 10.1016 11.5625C9.91458 11.7332 9.71147 11.8894 9.49219 12.0313C9.41878 12.0671 9.3563 12.0593 9.30469 12.0078Z" fill="#F9FCFA"/>
<path fill-rule="evenodd" clip-rule="evenodd" d="M11.3672 9.61719C11.6695 9.72922 11.9508 9.87767 12.211 10.0625C12.1588 10.1278 12.0963 10.1825 12.0235 10.2266C12.2344 10.4998 12.375 10.8045 12.4454 11.1406C12.4365 11.446 12.2959 11.6647 12.0235 11.7969C11.5113 11.8717 10.9956 11.8874 10.4766 11.8438C10.2547 11.7068 10.2391 11.5505 10.4297 11.375C10.9255 11.3666 11.4177 11.3432 11.9063 11.3047C11.9619 11.2323 11.9775 11.1542 11.9532 11.0703C11.8399 10.8593 11.7149 10.6562 11.5782 10.4609C11.4943 10.542 11.3927 10.5732 11.2735 10.5547C11.2635 10.2359 11.2948 9.92338 11.3672 9.61719Z" fill="#F5E0BA"/>
<path fill-rule="evenodd" clip-rule="evenodd" d="M8.50781 11.8203C8.77345 11.8203 9.03905 11.8203 9.30469 11.8203C9.30469 11.8828 9.30469 11.9453 9.30469 12.0078C9.26231 11.9746 9.2467 11.9277 9.25781 11.8672C8.99878 11.8822 8.74875 11.8666 8.50781 11.8203Z" fill="#6DC38E"/>
<path fill-rule="evenodd" clip-rule="evenodd" d="M10.1953 12.2422C10.1953 12.2266 10.1953 12.2109 10.1953 12.1953C12.1172 12.1953 14.0391 12.1953 15.9609 12.1953C15.9609 12.3672 15.9609 12.539 15.9609 12.7109C14.047 12.7578 12.1252 12.7734 10.1953 12.7578C10.1953 12.7422 10.1953 12.7265 10.1953 12.7109C12.1016 12.7109 14.0078 12.7109 15.9141 12.7109C15.9141 12.5547 15.9141 12.3984 15.9141 12.2422C14.0078 12.2422 12.1016 12.2422 10.1953 12.2422Z" fill="#227436"/>
<path fill-rule="evenodd" clip-rule="evenodd" d="M10.1953 12.2422C10.1953 12.3984 10.1953 12.5547 10.1953 12.7109C8.27344 12.7109 6.35156 12.7109 4.42969 12.7109C4.42969 12.5547 4.42969 12.3984 4.42969 12.2422C6.35156 12.2422 8.27344 12.2422 10.1953 12.2422Z" fill="#138742"/>
<path fill-rule="evenodd" clip-rule="evenodd" d="M10.1953 12.2422C12.1016 12.2422 14.0078 12.2422 15.9141 12.2422C15.9141 12.3984 15.9141 12.5547 15.9141 12.7109C14.0078 12.7109 12.1016 12.7109 10.1953 12.7109C10.1953 12.5547 10.1953 12.3984 10.1953 12.2422Z" fill="#135A2D"/>
<path opacity="0.983" fill-rule="evenodd" clip-rule="evenodd" d="M22.8047 17.3047C22.6878 17.2967 22.6019 17.3436 22.5469 17.4453C22.5156 17.7578 22.5156 18.0703 22.5469 18.3828C22.6061 18.4816 22.6921 18.5285 22.8047 18.5234C22.8253 19.1051 22.8018 19.6832 22.7344 20.2578C22.6621 20.3459 22.5761 20.4162 22.4766 20.4688C22.2427 20.4922 22.0083 20.5 21.7734 20.4922C21.7579 18.9998 21.7735 17.5154 21.8203 16.0391C21.9825 16.1739 22.131 16.1583 22.2656 15.9922C22.2969 15.6797 22.2969 15.3672 22.2656 15.0547C22.0766 14.8543 21.9125 14.8699 21.7734 15.1016C21.7347 14.8758 21.7113 14.6414 21.7031 14.3984C21.6016 14.1719 21.4375 14.0078 21.2109 13.9063C20.2291 13.8381 19.2447 13.8147 18.2578 13.8359C18.2578 15.5234 18.2578 17.2109 18.2578 18.8984C17.9141 18.8984 17.5703 18.8984 17.2266 18.8984C17.2266 18.8203 17.2266 18.7422 17.2266 18.6641C17.2266 18.1953 17.2266 17.7266 17.2266 17.2578C17.2187 15.7734 17.2266 14.289 17.25 12.8047C17.3233 12.6534 17.4405 12.5518 17.6016 12.5C18.5235 12.4687 19.4453 12.4687 20.3672 12.5C21.7344 12.6877 22.5391 13.4611 22.7813 14.8203C22.8047 15.6483 22.8125 16.4764 22.8047 17.3047Z" fill="#FAE1BA"/>
<path opacity="0.994" fill-rule="evenodd" clip-rule="evenodd" d="M4.38281 12.7109C6.29672 12.7577 8.2186 12.7734 10.1484 12.7578C10.1484 12.9297 10.1484 13.1015 10.1484 13.2734C9.92967 13.2734 9.71096 13.2734 9.49219 13.2734C9.50775 15.2501 9.49214 17.2189 9.44531 19.1797C9.28585 19.1723 9.12956 19.1879 8.97656 19.2265C8.97656 17.2265 8.97656 15.2266 8.97656 13.2265C8.48372 13.2112 7.99936 13.2268 7.52344 13.2734C7.52344 15.3359 7.52344 17.3984 7.52344 19.4609C7.83596 19.4609 8.14842 19.4609 8.46094 19.4609C8.30152 19.6079 8.17655 19.7798 8.08594 19.9765C7.91405 19.9765 7.74221 19.9765 7.57031 19.9765C7.43649 19.725 7.24899 19.5219 7.00781 19.3672C7.00781 17.3359 7.00781 15.3047 7.00781 13.2734C6.53906 13.2734 6.07031 13.2734 5.60156 13.2734C5.60156 15.3203 5.60156 17.3672 5.60156 19.414C5.42489 19.575 5.28427 19.7625 5.17969 19.9765C4.7422 19.9765 4.30469 19.9765 3.86719 19.9765C3.03466 19.9987 2.20653 19.9753 1.38281 19.9062C1.27452 19.8295 1.20421 19.7279 1.17188 19.6015C1.14062 18.9453 1.14062 18.289 1.17188 17.6328C1.92969 16.0234 2.6875 14.414 3.44531 12.8047C3.46994 12.7722 3.50118 12.7488 3.53906 12.7344C3.81988 12.711 4.10113 12.7031 4.38281 12.7109Z" fill="#FCC210"/>
<path fill-rule="evenodd" clip-rule="evenodd" d="M15.9609 12.7108C16.2789 12.6912 16.5914 12.7146 16.8984 12.7812C17.0302 12.9484 17.0145 13.0968 16.8516 13.2265C16.3377 13.2702 15.8221 13.2858 15.3047 13.2733C15.3047 15.3358 15.3047 17.3983 15.3047 19.4608C15.789 19.4608 16.2735 19.4608 16.7578 19.4608C16.9472 19.5447 16.9941 19.6853 16.8984 19.8827C16.8738 19.9152 16.8426 19.9386 16.8047 19.953C14.6954 19.9765 12.586 19.9843 10.4766 19.9765C10.3741 19.8031 10.2491 19.6468 10.1016 19.5077C10.1016 19.4765 10.1172 19.4608 10.1484 19.4608C10.3984 19.4608 10.6485 19.4608 10.8984 19.4608C10.8984 17.3983 10.8984 15.3358 10.8984 13.2733C10.6485 13.2733 10.3984 13.2733 10.1484 13.2733C10.1484 13.1015 10.1484 12.9296 10.1484 12.7577C10.164 12.7577 10.1797 12.7577 10.1953 12.7577C12.1252 12.7733 14.047 12.7577 15.9609 12.7108Z" fill="#F9A31A"/>
<path fill-rule="evenodd" clip-rule="evenodd" d="M3.63281 13.2734C4.11719 13.2734 4.60156 13.2734 5.08594 13.2734C5.08594 15.3359 5.08594 17.3984 5.08594 19.4609C4.60156 19.4609 4.11719 19.4609 3.63281 19.4609C3.63281 17.3984 3.63281 15.3359 3.63281 13.2734Z" fill="#FED563"/>
<path fill-rule="evenodd" clip-rule="evenodd" d="M7.00781 19.3672C6.86372 19.2827 6.70744 19.2358 6.53906 19.2266C6.20925 19.1681 5.89673 19.2306 5.60156 19.4141C5.60156 17.3672 5.60156 15.3203 5.60156 13.2734C6.07031 13.2734 6.53906 13.2734 7.00781 13.2734C7.00781 15.3047 7.00781 17.336 7.00781 19.3672Z" fill="#FED563"/>
<path fill-rule="evenodd" clip-rule="evenodd" d="M7.52344 13.2734C7.99219 13.2734 8.46094 13.2734 8.92969 13.2734C8.92969 15.2578 8.92969 17.2422 8.92969 19.2266C8.77345 19.3047 8.61717 19.3828 8.46094 19.4609C8.14842 19.4609 7.83595 19.4609 7.52344 19.4609C7.52344 17.3984 7.52344 15.3359 7.52344 13.2734Z" fill="#FED563"/>
<path fill-rule="evenodd" clip-rule="evenodd" d="M7.52344 13.2735C7.99936 13.2269 8.48372 13.2113 8.97656 13.2267C8.97656 15.2267 8.97656 17.2266 8.97656 19.2267C8.96095 19.2267 8.9453 19.2267 8.92969 19.2267C8.92969 17.2423 8.92969 15.2579 8.92969 13.2735C8.46094 13.2735 7.99219 13.2735 7.52344 13.2735Z" fill="#FECC3B"/>
<path fill-rule="evenodd" clip-rule="evenodd" d="M10.1484 13.2734C10.1484 15.3359 10.1484 17.3984 10.1484 19.4609C10.1172 19.4609 10.1016 19.4765 10.1016 19.5078C9.9173 19.3377 9.69858 19.2439 9.44531 19.2266C9.44531 19.211 9.44531 19.1953 9.44531 19.1797C9.49214 17.2189 9.50775 15.2502 9.49219 13.2734C9.71095 13.2734 9.92967 13.2734 10.1484 13.2734Z" fill="#FED563"/>
<path fill-rule="evenodd" clip-rule="evenodd" d="M10.1484 13.2734C10.3984 13.2734 10.6485 13.2734 10.8984 13.2734C10.8984 15.3359 10.8984 17.3984 10.8984 19.4609C10.6485 19.4609 10.3984 19.4609 10.1484 19.4609C10.1484 17.3984 10.1484 15.3359 10.1484 13.2734Z" fill="#FDC214"/>
<path fill-rule="evenodd" clip-rule="evenodd" d="M11.4141 13.2734C11.8828 13.2734 12.3516 13.2734 12.8203 13.2734C12.8203 15.3359 12.8203 17.3984 12.8203 19.4609C12.3516 19.4609 11.8828 19.4609 11.4141 19.4609C11.4141 17.3984 11.4141 15.3359 11.4141 13.2734Z" fill="#FCC20E"/>
<path fill-rule="evenodd" clip-rule="evenodd" d="M13.3359 13.2266C13.8203 13.2266 14.3047 13.2266 14.7891 13.2266C14.7891 15.3047 14.7891 17.3828 14.7891 19.4609C14.3047 19.4609 13.8203 19.4609 13.3359 19.4609C13.3359 17.3828 13.3359 15.3047 13.3359 13.2266Z" fill="#FCC10F"/>
<path fill-rule="evenodd" clip-rule="evenodd" d="M16.8516 13.2266C16.7588 14.5597 16.7275 15.9035 16.7578 17.2578C16.7578 17.7266 16.7578 18.1953 16.7578 18.6641C16.7578 18.7422 16.7578 18.8203 16.7578 18.8984C16.7578 19.0859 16.7578 19.2734 16.7578 19.4609C16.2735 19.4609 15.789 19.4609 15.3047 19.4609C15.3047 17.3984 15.3047 15.3359 15.3047 13.2734C15.8221 13.2859 16.3377 13.2703 16.8516 13.2266Z" fill="#FCC110"/>
<path fill-rule="evenodd" clip-rule="evenodd" d="M21.7734 15.1016C21.7597 15.4182 21.7753 15.7307 21.8203 16.0391C21.7735 17.5155 21.7579 18.9998 21.7734 20.4922C21.4609 20.4922 21.1485 20.4922 20.8359 20.4922C20.7751 20.061 20.6423 19.6548 20.4375 19.2735C20.2771 19.0974 20.0818 18.9802 19.8516 18.9219C19.3206 18.8985 18.7893 18.8906 18.2578 18.8985C18.2578 17.211 18.2578 15.5235 18.2578 13.836C19.2447 13.8147 20.2291 13.8381 21.2109 13.9063C21.4375 14.0079 21.6015 14.1719 21.7031 14.3985C21.7113 14.6415 21.7347 14.8758 21.7734 15.1016Z" fill="#FDCD8E"/>
<path fill-rule="evenodd" clip-rule="evenodd" d="M20.8359 14.2577C20.7891 14.2577 20.7422 14.2577 20.6953 14.2577C20.3672 14.2577 20.0391 14.2577 19.7109 14.2577C19.3828 14.2577 19.0547 14.2577 18.7266 14.2577C18.7266 14.8046 18.7266 15.3515 18.7266 15.8983C19.0616 15.9448 19.4054 15.9605 19.7578 15.9452C20.2734 15.9452 20.7891 15.9452 21.3047 15.9452C20.4378 15.992 19.5629 16.0076 18.6797 15.9921C18.6797 15.3983 18.6797 14.8046 18.6797 14.2108C19.4067 14.1954 20.1254 14.211 20.8359 14.2577Z" fill="#B1CBA9"/>
<path fill-rule="evenodd" clip-rule="evenodd" d="M19.7109 14.2578C19.3939 14.8141 19.0658 15.361 18.7266 15.8984C18.7266 15.3515 18.7266 14.8047 18.7266 14.2578C19.0547 14.2578 19.3828 14.2578 19.7109 14.2578Z" fill="#50C2BC"/>
<path fill-rule="evenodd" clip-rule="evenodd" d="M19.7109 14.2578C20.0391 14.2578 20.3672 14.2578 20.6953 14.2578C20.3828 14.8203 20.0703 15.3828 19.7578 15.9453C19.4054 15.9605 19.0616 15.9449 18.7266 15.8984C19.0658 15.361 19.3939 14.8141 19.7109 14.2578Z" fill="#AFDFE6"/>
<path fill-rule="evenodd" clip-rule="evenodd" d="M20.6953 14.2578C20.7422 14.2578 20.7891 14.2578 20.8359 14.2578C21.0612 14.2874 21.2096 14.4125 21.2812 14.6328C21.3047 15.07 21.3125 15.5075 21.3047 15.9453C20.7891 15.9453 20.2734 15.9453 19.7578 15.9453C20.0703 15.3828 20.3828 14.8203 20.6953 14.2578Z" fill="#52C2BB"/>
<path fill-rule="evenodd" clip-rule="evenodd" d="M21.8203 16.0391C21.7753 15.7308 21.7596 15.4183 21.7734 15.1016C21.9125 14.8699 22.0765 14.8543 22.2656 15.0547C22.2968 15.3673 22.2968 15.6797 22.2656 15.9922C22.1309 16.1584 21.9824 16.174 21.8203 16.0391Z" fill="#935131"/>
<path fill-rule="evenodd" clip-rule="evenodd" d="M18.9141 16.3203C19.1802 16.3125 19.4458 16.3203 19.711 16.3437C19.9413 16.4924 19.9569 16.6642 19.7579 16.8594C19.461 16.8906 19.1641 16.8906 18.8672 16.8594C18.7543 16.8238 18.7074 16.7457 18.7266 16.625C18.7235 16.4803 18.786 16.3787 18.9141 16.3203Z" fill="#FCBB6A"/>
<path opacity="0.973" fill-rule="evenodd" clip-rule="evenodd" d="M16.7578 17.2578C16.914 17.2578 17.0703 17.2578 17.2266 17.2578C17.2266 17.7266 17.2266 18.1953 17.2266 18.6641C17.0703 18.6641 16.914 18.6641 16.7578 18.6641C16.7578 18.1953 16.7578 17.7266 16.7578 17.2578Z" fill="#0E0D0A"/>
<path fill-rule="evenodd" clip-rule="evenodd" d="M17.6016 17.3047C17.7823 17.274 17.9151 17.3365 18 17.4922C18.0313 17.7735 18.0313 18.0547 18 18.336C17.8281 18.5859 17.6563 18.5859 17.4844 18.336C17.4531 18.0391 17.4531 17.7422 17.4844 17.4453C17.5334 17.4044 17.5724 17.3575 17.6016 17.3047Z" fill="#FDC31B"/>
<path fill-rule="evenodd" clip-rule="evenodd" d="M22.8047 17.3046C22.8047 17.7109 22.8047 18.1171 22.8047 18.5233C22.6921 18.5284 22.6061 18.4815 22.5469 18.3827C22.5156 18.0702 22.5156 17.7577 22.5469 17.4452C22.6019 17.3434 22.6878 17.2966 22.8047 17.3046Z" fill="#FCC421"/>
<path opacity="0.993" fill-rule="evenodd" clip-rule="evenodd" d="M16.7578 18.8984C16.914 18.8984 17.0703 18.8984 17.2266 18.8984C17.5703 18.8984 17.9141 18.8984 18.2578 18.8984C18.7893 18.8906 19.3206 18.8984 19.8516 18.9219C20.0818 18.9801 20.2771 19.0973 20.4375 19.2734C20.6423 19.6548 20.7751 20.061 20.8359 20.4922C20.7266 20.4922 20.6172 20.4922 20.5078 20.4922C20.4386 19.8288 20.0792 19.4069 19.4297 19.2266C18.7448 19.1507 18.2526 19.432 17.9531 20.0703C17.9446 20.2201 17.9212 20.3607 17.8828 20.4922C15.4453 20.4922 13.0078 20.4922 10.5703 20.4922C10.5614 20.3159 10.5301 20.144 10.4766 19.9766C12.586 19.9844 14.6954 19.9766 16.8047 19.9531C16.8426 19.9387 16.8738 19.9153 16.8984 19.8828C16.9941 19.6854 16.9472 19.5448 16.7578 19.4609C16.7578 19.2734 16.7578 19.0859 16.7578 18.8984Z" fill="#924F30"/>
<path opacity="0.99" fill-rule="evenodd" clip-rule="evenodd" d="M6.53906 19.2265C6.47658 19.2265 6.41405 19.2265 6.35156 19.2265C6.35156 19.4453 6.35156 19.664 6.35156 19.8828C6.29105 19.8717 6.24417 19.8873 6.21094 19.9297C5.79253 20.0986 5.67534 20.3955 5.85938 20.8203C5.95448 20.9654 6.08728 21.0435 6.25781 21.0547C6.345 21.2746 6.37622 21.509 6.35156 21.7578C6.22655 21.7578 6.10158 21.7578 5.97656 21.7578C5.40394 21.5365 5.09142 21.1146 5.03906 20.4922C5.07295 20.3213 5.11983 20.1495 5.17969 19.9765C5.28427 19.7625 5.42489 19.575 5.60156 19.414C5.89673 19.2306 6.20925 19.168 6.53906 19.2265Z" fill="#653015"/>
<path fill-rule="evenodd" clip-rule="evenodd" d="M6.53906 19.2266C6.70744 19.2358 6.86372 19.2827 7.00781 19.3672C7.24898 19.5219 7.43648 19.725 7.57031 19.9766C7.62108 20.1446 7.6523 20.3165 7.66406 20.4922C7.63242 21.1028 7.33556 21.5247 6.77344 21.7578C6.63281 21.7578 6.49219 21.7578 6.35156 21.7578C6.37622 21.509 6.345 21.2747 6.25781 21.0547C6.28908 21.0547 6.3203 21.0547 6.35156 21.0547C6.70228 21.0322 6.90544 20.8447 6.96094 20.4922C6.9292 20.1167 6.72605 19.9136 6.35156 19.8828C6.35156 19.664 6.35156 19.4453 6.35156 19.2266C6.41405 19.2266 6.47658 19.2266 6.53906 19.2266Z" fill="#130F0C"/>
<path opacity="0.993" fill-rule="evenodd" clip-rule="evenodd" d="M9.44531 19.1798C9.44531 19.1954 9.44531 19.211 9.44531 19.2266C9.38283 19.2266 9.3203 19.2266 9.25781 19.2266C9.25781 19.4454 9.25781 19.6641 9.25781 19.8829C9.1973 19.8718 9.15042 19.8874 9.11719 19.9298C8.67867 20.1224 8.57714 20.4349 8.8125 20.8673C8.90077 20.9856 9.01795 21.0481 9.16406 21.0548C9.25125 21.2747 9.28247 21.5091 9.25781 21.7579C9.1328 21.7579 9.00783 21.7579 8.88281 21.7579C8.31019 21.5366 7.99772 21.1148 7.94531 20.4923C7.9792 20.3215 8.02608 20.1496 8.08594 19.9766C8.17655 19.7799 8.30152 19.608 8.46094 19.461C8.61717 19.3829 8.77345 19.3048 8.92969 19.2266C8.9453 19.2266 8.96095 19.2266 8.97656 19.2266C9.12956 19.188 9.28584 19.1724 9.44531 19.1798Z" fill="#653014"/>
<path fill-rule="evenodd" clip-rule="evenodd" d="M9.44531 19.2266C9.69858 19.2439 9.9173 19.3377 10.1016 19.5078C10.2491 19.6469 10.3741 19.8032 10.4766 19.9766C10.5301 20.144 10.5614 20.3158 10.5703 20.4922C10.5381 21.1046 10.2412 21.5264 9.67969 21.7578C9.53906 21.7578 9.39844 21.7578 9.25781 21.7578C9.28247 21.509 9.25125 21.2747 9.16406 21.0547C9.19533 21.0547 9.22655 21.0547 9.25781 21.0547C9.61936 21.0291 9.82252 20.8338 9.86719 20.4688C9.82523 20.1065 9.62212 19.9112 9.25781 19.8828C9.25781 19.664 9.25781 19.4453 9.25781 19.2266C9.3203 19.2266 9.38283 19.2266 9.44531 19.2266Z" fill="#130F0C"/>
<path opacity="0.986" fill-rule="evenodd" clip-rule="evenodd" d="M19.4297 19.2267C19.3515 19.2267 19.2735 19.2267 19.1953 19.2267C19.1953 19.4454 19.1953 19.6642 19.1953 19.8829C19.1204 19.8704 19.0579 19.886 19.0078 19.9298C18.6887 20.0546 18.5558 20.289 18.6094 20.6329C18.7086 20.9124 18.9039 21.053 19.1953 21.0548C19.1953 21.2892 19.1953 21.5236 19.1953 21.7579C19.0547 21.7579 18.9141 21.7579 18.7734 21.7579C18.2113 21.5248 17.9145 21.1029 17.8828 20.4923C17.9212 20.3608 17.9446 20.2202 17.9531 20.0704C18.2526 19.4321 18.7448 19.1508 19.4297 19.2267Z" fill="#642F14"/>
<path fill-rule="evenodd" clip-rule="evenodd" d="M19.4297 19.2266C20.0792 19.4069 20.4386 19.8288 20.5078 20.4922C20.4554 21.1147 20.1429 21.5366 19.5703 21.7578C19.4453 21.7578 19.3203 21.7578 19.1953 21.7578C19.1953 21.5234 19.1953 21.2891 19.1953 21.0547C19.5655 21.0361 19.753 20.8407 19.7578 20.4688C19.7235 20.1297 19.536 19.9344 19.1953 19.8828C19.1953 19.664 19.1953 19.4453 19.1953 19.2266C19.2735 19.2266 19.3515 19.2266 19.4297 19.2266Z" fill="#120F0C"/>
<path fill-rule="evenodd" clip-rule="evenodd" d="M6.21104 19.9297C6.25791 19.9297 6.30479 19.9297 6.35166 19.9297C6.35166 20.3047 6.35166 20.6797 6.35166 21.0547C6.32039 21.0547 6.28918 21.0547 6.25791 21.0547C6.08738 21.0435 5.95458 20.9654 5.85947 20.8203C5.67544 20.3955 5.79263 20.0986 6.21104 19.9297Z" fill="#AFDDE3"/>
<path fill-rule="evenodd" clip-rule="evenodd" d="M6.21094 19.9297C6.24417 19.8874 6.29105 19.8717 6.35156 19.8829C6.72605 19.9136 6.9292 20.1167 6.96094 20.4922C6.90544 20.8448 6.70228 21.0323 6.35156 21.0547C6.35156 20.6797 6.35156 20.3047 6.35156 19.9297C6.30469 19.9297 6.25781 19.9297 6.21094 19.9297Z" fill="#92CFD2"/>
<path fill-rule="evenodd" clip-rule="evenodd" d="M9.11721 19.9297C9.16409 19.9297 9.21096 19.9297 9.25784 19.9297C9.25784 20.3047 9.25784 20.6797 9.25784 21.0547C9.22657 21.0547 9.19535 21.0547 9.16409 21.0547C9.01798 21.048 8.90079 20.9855 8.81253 20.8672C8.57717 20.4348 8.6787 20.1223 9.11721 19.9297Z" fill="#AFDDE3"/>
<path fill-rule="evenodd" clip-rule="evenodd" d="M9.11719 19.9297C9.15042 19.8874 9.1973 19.8717 9.25781 19.8829C9.62212 19.9113 9.82523 20.1065 9.86719 20.4688C9.82252 20.8339 9.61936 21.0292 9.25781 21.0547C9.25781 20.6797 9.25781 20.3047 9.25781 19.9297C9.21094 19.9297 9.16406 19.9297 9.11719 19.9297Z" fill="#93D0D3"/>
<path fill-rule="evenodd" clip-rule="evenodd" d="M19.0079 19.9298C19.0698 19.9218 19.1245 19.9374 19.1719 19.9766C19.1954 20.3356 19.2032 20.695 19.1954 21.0548C18.9039 21.053 18.7086 20.9123 18.6094 20.6329C18.5559 20.289 18.6887 20.0546 19.0079 19.9298Z" fill="#AEDBE2"/>
<path fill-rule="evenodd" clip-rule="evenodd" d="M19.0078 19.9297C19.0579 19.886 19.1204 19.8703 19.1953 19.8829C19.536 19.9344 19.7235 20.1297 19.7578 20.4688C19.753 20.8408 19.5655 21.0361 19.1953 21.0547C19.2031 20.695 19.1953 20.3356 19.1719 19.9766C19.1245 19.9374 19.0698 19.9218 19.0078 19.9297Z" fill="#94D2D4"/>
<path opacity="0.96" fill-rule="evenodd" clip-rule="evenodd" d="M3.86719 19.9766C4.30469 19.9766 4.7422 19.9766 5.17969 19.9766C5.11983 20.1495 5.07295 20.3214 5.03906 20.4922C4.80417 20.5 4.56979 20.4921 4.33594 20.4687C4.10579 20.3715 3.94954 20.2074 3.86719 19.9766Z" fill="#914E30"/>
<path opacity="0.986" fill-rule="evenodd" clip-rule="evenodd" d="M7.57031 19.9766C7.7422 19.9766 7.91405 19.9766 8.08594 19.9766C8.02608 20.1495 7.9792 20.3214 7.94531 20.4922C7.85156 20.4922 7.75781 20.4922 7.66406 20.4922C7.6523 20.3165 7.62108 20.1446 7.57031 19.9766Z" fill="#914E2F"/>
<path opacity="0.981" fill-rule="evenodd" clip-rule="evenodd" d="M5.97648 21.7578C6.10149 21.7578 6.22646 21.7578 6.35148 21.7578C6.4921 21.7578 6.63273 21.7578 6.77335 21.7578C7.47648 21.7578 8.1796 21.7578 8.88273 21.7578C9.00774 21.7578 9.13271 21.7578 9.25773 21.7578C9.39835 21.7578 9.53898 21.7578 9.6796 21.7578C12.7109 21.7578 15.7421 21.7578 18.7734 21.7578C18.914 21.7578 19.0546 21.7578 19.1952 21.7578C19.3202 21.7578 19.4452 21.7578 19.5702 21.7578C19.9924 21.75 20.4143 21.7578 20.8359 21.7813C20.9286 21.8983 20.952 22.0311 20.9062 22.1797C20.8638 22.236 20.8092 22.2751 20.7421 22.2969C14.8983 22.3281 9.05462 22.3281 3.21085 22.2969C3.03312 22.2006 2.97844 22.0522 3.04679 21.8516C3.07023 21.8281 3.09367 21.8047 3.1171 21.7813C4.0701 21.7578 5.02323 21.75 5.97648 21.7578Z" fill="#149E49"/>
</svg>
