<svg width="105" height="105" viewBox="0 0 105 105" fill="none" xmlns="http://www.w3.org/2000/svg">
<g clip-path="url(#clip0_769_20290)">
<path opacity="0.885" fill-rule="evenodd" clip-rule="evenodd" d="M86.8506 5.22949C88.3833 5.38199 88.9986 6.23649 88.6963 7.79297C88.9994 9.12784 88.4867 9.91399 87.1582 10.1514C85.8276 9.88782 85.2464 9.06751 85.415 7.69043C85.2704 6.47233 85.7489 5.65201 86.8506 5.22949Z" fill="black"/>
<path opacity="0.877" fill-rule="evenodd" clip-rule="evenodd" d="M72.7002 13.2275C74.0039 13.2809 75.1318 13.7595 76.084 14.6631C76.5592 15.5025 76.4566 16.2544 75.7764 16.9189C75.3391 17.2506 74.8607 17.3532 74.3408 17.2266C72.9801 16.8905 72.0915 16.0702 71.6748 14.7656C71.845 14.1113 72.1869 13.5986 72.7002 13.2275Z" fill="black"/>
<path opacity="0.88" fill-rule="evenodd" clip-rule="evenodd" d="M100.181 13.2277C101.854 13.0888 102.571 13.8407 102.334 15.4835C101.496 16.6371 100.368 17.2181 98.9501 17.2267C97.9814 16.7273 97.6737 15.9411 98.0273 14.8683C98.104 14.6804 98.2065 14.5095 98.3349 14.3556C98.9854 14.0077 99.6007 13.6317 100.181 13.2277Z" fill="black"/>
<path opacity="0.951" fill-rule="evenodd" clip-rule="evenodd" d="M86.0303 13.6377C91.7147 13.5472 95.0985 16.2815 96.1817 21.8408C96.3293 27.1601 93.8342 30.4756 88.6963 31.7871C83.1568 32.26 79.6364 29.8333 78.1348 24.5068C77.6672 18.5885 80.299 14.9655 86.0303 13.6377Z" fill="#010100"/>
<path fill-rule="evenodd" clip-rule="evenodd" d="M85.4151 16.9188C89.0835 16.376 91.5785 17.8115 92.9004 21.2255C93.4911 25.1371 91.8847 27.6323 88.0811 28.7108C83.3657 28.7123 81.0756 26.3539 81.211 21.6356C81.7963 19.3087 83.1976 17.7364 85.4151 16.9188Z" fill="#FCBF67"/>
<path opacity="0.972" fill-rule="evenodd" clip-rule="evenodd" d="M76.1865 55.8838C75.2561 55.8419 74.7091 55.3635 74.5459 54.4482C74.6142 50.0027 74.5459 45.5593 74.3408 41.1181C74.2163 41.1436 74.148 41.2119 74.1357 41.3232C73.0716 41.7533 72.0462 42.2317 71.0596 42.7588C62.6313 46.5968 54.2231 50.4933 45.835 54.4482C45.6299 65.7267 45.5616 77.006 45.6299 88.2861C47.0099 88.4852 48.3086 88.8612 49.5264 89.414C47.6349 82.6922 50.0959 80.0945 56.9092 81.6211C57.6833 81.9168 58.2643 82.4295 58.6523 83.1592C58.8427 85.3617 58.7744 87.5493 58.4473 89.7217C58.0578 90.4113 57.4768 90.8215 56.7041 90.9521C54.7889 90.9181 52.8747 90.9521 50.9619 91.0547C51.0735 91.2017 51.2103 91.3042 51.3721 91.3623C52.4692 92.8101 52.9477 94.4508 52.8076 96.2842C58.96 96.2842 65.1123 96.2842 71.2646 96.2842C72.3583 96.2842 73.4522 96.2842 74.5459 96.2842C74.5799 94.3689 74.5459 92.4547 74.4434 90.542C73.5191 89.9928 73.0747 89.1725 73.1104 88.081C73.5217 86.0932 73.9661 84.1107 74.4434 82.1338C74.5117 75.0243 74.5801 67.9151 74.6484 60.8056C74.7251 60.6178 74.8277 60.4468 74.9561 60.2929C75.389 60.1197 75.7991 59.9488 76.1865 59.7803C76.8376 59.85 77.2818 60.1918 77.5195 60.8056C77.5878 63.4034 77.6563 66.0009 77.7246 68.5986C78.2416 68.0137 78.8909 67.7061 79.6729 67.6758C85.8252 67.539 91.9775 67.539 98.1299 67.6758C98.9483 67.7603 99.5978 68.1364 100.078 68.8037C101.645 74.9355 103.149 81.0879 104.59 87.2607C104.98 89.0445 104.331 90.2409 102.642 90.8496C99.703 90.9521 96.7635 90.9864 93.8232 90.9521C93.8232 92.7295 93.8232 94.5067 93.8232 96.2842C97.2419 96.2499 100.66 96.2842 104.077 96.3867C104.457 96.5282 104.73 96.7673 104.897 97.1045C104.897 97.6514 104.897 98.1982 104.897 98.7451C104.567 99.1081 104.157 99.3472 103.667 99.4629C69.4872 99.5997 35.3077 99.5997 1.12793 99.4629C0.638464 99.3472 0.228307 99.1081 -0.102539 98.7451C-0.102539 98.1982 -0.102539 97.6514 -0.102539 97.1045C0.0648939 96.7673 0.338332 96.5282 0.717773 96.3867C3.51967 96.2842 6.32241 96.2499 9.12598 96.2842C9.04889 94.4928 9.15143 92.7154 9.43359 90.9521C9.77456 90.4565 10.2189 90.0805 10.7666 89.8242C11.5708 89.7826 12.3569 89.68 13.125 89.5166C13.7033 77.845 14.3527 66.1898 15.0732 54.5508C11.1974 55.6254 7.30095 56.6848 3.38379 57.7295C1.76674 57.6411 0.604628 56.8891 -0.102539 55.4736C-0.102539 54.585 -0.102539 53.6962 -0.102539 52.8076C3.13341 49.3328 6.55138 46.0175 10.1514 42.8613C11.5407 42.2932 12.9763 42.1907 14.458 42.5537C14.9682 42.3989 15.3783 42.0912 15.6885 41.6308C14.6098 40.362 13.8578 38.9265 13.4326 37.3242C14.3753 33.109 15.3666 28.9049 16.4062 24.7119C17.315 22.3611 18.9898 21.575 21.4307 22.3535C22.383 22.8951 23.0325 23.6814 23.3789 24.7119C24.416 28.8938 25.3388 33.0979 26.1475 37.3242C25.9703 38.8752 25.3208 40.2082 24.1992 41.3232C24.2447 41.7244 24.4156 42.1005 24.7119 42.4512C24.917 42.4854 25.1221 42.5194 25.3271 42.5537C26.4141 42.3806 27.5079 42.3123 28.6084 42.3486C28.5742 38.93 28.6084 35.5119 28.7109 32.0947C28.9072 30.9407 29.5567 30.1547 30.6592 29.7363C39.3408 29.5995 48.0225 29.5995 56.7041 29.7363C57.6751 29.9553 58.3246 30.5363 58.6523 31.4795C58.6866 35.9243 58.7891 40.3678 58.96 44.8096C64.2013 42.3597 69.4649 39.967 74.751 37.6318C75.8367 37.7128 76.6912 38.1915 77.3145 39.0674C77.6524 44.3816 77.7207 49.7136 77.5195 55.0635C77.1974 55.5604 76.7532 55.8337 76.1865 55.8838ZM24.0967 70.4443C23.9552 69.1503 23.8867 67.8515 23.8916 66.5478C25.0035 66.2765 25.482 65.5587 25.3271 64.3945C25.1436 61.2472 24.9385 58.1027 24.7119 54.9609C24.7802 54.7901 24.8487 54.6191 24.917 54.4482C26.1263 54.8744 27.3568 55.216 28.6084 55.4736C28.6767 64.9082 28.6084 74.3418 28.4033 83.7744C27.6638 84.2057 27.0143 84.7524 26.4551 85.415C26.1602 80.8362 25.8866 76.2562 25.6348 71.6748C25.4578 70.8508 24.9451 70.4406 24.0967 70.4443ZM77.6221 90.9521C79.6729 90.9521 81.7236 90.9521 83.7744 90.9521C83.7744 92.7295 83.7744 94.5067 83.7744 96.2842C81.7236 96.2842 79.6729 96.2842 77.6221 96.2842C77.6221 94.5067 77.6221 92.7295 77.6221 90.9521Z" fill="#010102"/>
<path fill-rule="evenodd" clip-rule="evenodd" d="M19.585 25.1221C19.918 25.0934 20.1572 25.2302 20.3027 25.5323C21.2418 29.3913 22.1646 33.2537 23.0713 37.1192C22.609 38.0601 22.0621 38.9487 21.4307 39.7852C20.4053 39.922 19.3799 39.922 18.3545 39.7852C17.6997 38.9524 17.1528 38.0636 16.7139 37.1192C17.5918 33.095 18.5489 29.0959 19.585 25.1221Z" fill="#F8BD66"/>
<path opacity="0.891" fill-rule="evenodd" clip-rule="evenodd" d="M73.9307 28.4034C75.5947 28.1206 76.3808 28.8041 76.2891 30.4542C75.4509 31.7792 74.2545 32.3602 72.7002 32.1973C71.7595 31.6307 71.5202 30.8444 71.9825 29.8389C72.6116 29.3092 73.2611 28.8308 73.9307 28.4034Z" fill="black"/>
<path opacity="0.89" fill-rule="evenodd" clip-rule="evenodd" d="M98.5401 28.4032C100.146 28.199 101.411 28.7457 102.334 30.0439C102.68 31.3359 102.202 32.0879 100.898 32.2997C99.9596 32.1209 99.1051 31.745 98.335 31.1718C97.7565 30.1977 97.825 29.2748 98.5401 28.4032Z" fill="black"/>
<path fill-rule="evenodd" clip-rule="evenodd" d="M31.8897 32.915C38.7255 32.915 45.5616 32.915 52.3975 32.915C52.3975 37.9052 52.3975 42.8956 52.3975 47.8857C51.2657 48.4825 50.1035 49.0635 48.9112 49.6289C44.8096 49.7657 40.708 49.7657 36.6065 49.6289C35.0062 48.234 33.4682 46.7642 31.9922 45.2197C31.8897 41.1188 31.8554 37.0172 31.8897 32.915Z" fill="#47D158"/>
<path fill-rule="evenodd" clip-rule="evenodd" d="M31.8896 32.9151C39.7843 32.7103 47.7141 32.642 55.6787 32.7101C55.713 37.2907 55.6787 41.8707 55.5762 46.4503C54.5762 47.07 53.5166 47.5487 52.3975 47.8858C52.3975 42.8957 52.3975 37.9053 52.3975 32.9151C45.5616 32.9151 38.7255 32.9151 31.8896 32.9151Z" fill="#2F8B3A"/>
<path opacity="0.883" fill-rule="evenodd" clip-rule="evenodd" d="M86.6456 35.376C87.5262 35.3141 88.1756 35.6558 88.5938 36.4014C88.7306 37.4268 88.7306 38.4522 88.5938 39.4776C87.3916 40.6453 86.3662 40.5085 85.5176 39.0674C85.3808 38.2471 85.3808 37.4268 85.5176 36.6065C85.7965 36.0891 86.1724 35.6789 86.6456 35.376Z" fill="black"/>
<path fill-rule="evenodd" clip-rule="evenodd" d="M36.6064 39.8876C41.3921 39.8534 46.1772 39.8876 50.9619 39.9901C51.8224 40.6015 51.9932 41.3875 51.4746 42.3485C51.2894 42.5948 51.0503 42.7659 50.7568 42.8612C46.1083 42.998 41.46 42.998 36.8115 42.8612C35.8427 42.3619 35.5351 41.5756 35.8886 40.5028C36.1234 40.2699 36.3628 40.0648 36.6064 39.8876Z" fill="#060708"/>
<path fill-rule="evenodd" clip-rule="evenodd" d="M74.1357 41.3232C74.2725 45.6982 74.4091 50.0733 74.5459 54.4482C74.7091 55.3635 75.2561 55.842 76.1865 55.8838C76.1865 57.1825 76.1865 58.4815 76.1865 59.7803C75.7991 59.9488 75.389 60.1197 74.9561 60.293C74.8277 60.4468 74.7251 60.6178 74.6484 60.8057C74.5801 67.9151 74.5117 75.0243 74.4434 82.1338C73.9661 84.1107 73.5217 86.0932 73.1104 88.0811C73.0747 89.1725 73.5191 89.9928 74.4434 90.542C74.5459 92.4548 74.5799 94.369 74.5459 96.2842C73.4522 96.2842 72.3583 96.2842 71.2646 96.2842C71.3329 78.4079 71.2644 60.5661 71.0596 42.7588C72.0462 42.2317 73.0716 41.7533 74.1357 41.3232Z" fill="#2F8B3A"/>
<path fill-rule="evenodd" clip-rule="evenodd" d="M74.1357 41.3232C74.148 41.2119 74.2163 41.1436 74.3408 41.1182C74.5459 45.5593 74.6142 50.0028 74.5459 54.4482C74.4091 50.0733 74.2725 45.6982 74.1357 41.3232Z" fill="#4376A8"/>
<path fill-rule="evenodd" clip-rule="evenodd" d="M71.0595 42.7588C71.2644 60.5661 71.3329 78.4079 71.2646 96.2842C65.1123 96.2842 58.9599 96.2842 52.8076 96.2842C52.9477 94.4508 52.4692 92.8102 51.372 91.3623C53.1495 91.2255 54.9267 91.0889 56.7041 90.9521C57.4768 90.8215 58.0578 90.4114 58.4472 89.7217C58.7743 87.5493 58.8426 85.3617 58.6523 83.1592C58.2643 82.4295 57.6833 81.9168 56.9092 81.6211C50.0958 80.0945 47.6349 82.6922 49.5263 89.4141C48.3086 88.8612 47.0098 88.4853 45.6299 88.2861C45.5616 77.006 45.6299 65.7267 45.8349 54.4482C54.223 50.4933 62.6312 46.5968 71.0595 42.7588Z" fill="#3BAE49"/>
<path fill-rule="evenodd" clip-rule="evenodd" d="M18.9697 42.9639C21.6782 42.8341 22.6695 44.0645 21.9433 46.6553C21.1665 47.6095 20.1752 47.9171 18.9697 47.5781C17.6555 46.8967 17.2112 45.8372 17.6367 44.3994C17.9841 43.8133 18.4284 43.3349 18.9697 42.9639Z" fill="#3BAE49"/>
<path fill-rule="evenodd" clip-rule="evenodd" d="M11.792 45.6299C12.6807 45.6299 13.5694 45.6299 14.458 45.6299C14.4248 46.0456 14.4589 46.4557 14.5606 46.8604C14.9533 47.7145 15.3976 48.5348 15.8936 49.3213C15.703 49.9417 15.4296 50.5226 15.0732 51.0645C11.0603 52.2896 7.02711 53.4175 2.97364 54.4482C2.94298 54.2325 2.97717 54.0274 3.07618 53.833C6.01624 51.119 8.9215 48.3847 11.792 45.6299Z" fill="#FBBF67"/>
<path fill-rule="evenodd" clip-rule="evenodd" d="M25.3271 45.6299C26.2184 45.5959 27.107 45.6301 27.9932 45.7325C30.8025 48.4737 33.6736 51.1398 36.6064 53.7305C36.7781 53.9378 36.8464 54.1772 36.8115 54.4483C32.647 53.539 28.5454 52.377 24.5068 50.9619C24.2335 50.415 23.9599 49.8683 23.6865 49.3213C24.6701 48.2847 25.217 47.0542 25.3271 45.6299Z" fill="#F9BD66"/>
<path fill-rule="evenodd" clip-rule="evenodd" d="M19.1748 50.7569C19.7757 63.7464 20.391 76.7348 21.0205 89.7218C19.4482 89.7218 17.876 89.7218 16.3037 89.7218C16.9461 76.866 17.6639 64.0144 18.457 51.1671C18.6026 50.865 18.8418 50.7282 19.1748 50.7569Z" fill="#DAE8FA"/>
<path fill-rule="evenodd" clip-rule="evenodd" d="M19.1748 50.7568C19.7938 50.7229 20.409 50.7572 21.0205 50.8593C21.1489 51.0131 21.2514 51.1841 21.3281 51.372C21.6302 56.0184 21.9038 60.667 22.1484 65.3173C22.4907 66.1091 23.0717 66.5193 23.8916 66.5478C23.8867 67.8515 23.9552 69.1502 24.0967 70.4443C23.5522 70.547 23.1078 70.8204 22.7637 71.2646C22.7294 72.0849 22.6954 72.9052 22.6611 73.7255C22.8826 78.9944 23.1219 84.2581 23.3789 89.5165C22.614 89.7134 21.8279 89.7817 21.0205 89.7216C20.391 76.7346 19.7757 63.7462 19.1748 50.7568Z" fill="#BBD6F9"/>
<path fill-rule="evenodd" clip-rule="evenodd" d="M42.3486 62.8564C42.3486 65.1123 42.3486 67.3681 42.3486 69.624C40.4656 69.5569 38.6199 69.6254 36.8115 69.8291C36.0767 70.0181 35.7349 70.4968 35.7861 71.2646C35.7349 72.0324 36.0767 72.5111 36.8115 72.7001C38.6199 72.9038 40.4656 72.9723 42.3486 72.9052C42.3486 75.1611 42.3486 77.4169 42.3486 79.6728C40.4334 79.6388 38.5192 79.6728 36.6064 79.7753C35.5171 80.7517 35.5171 81.7088 36.6064 82.6464C38.5192 82.749 40.4334 82.783 42.3486 82.749C42.3486 84.5264 42.3486 86.3036 42.3486 88.081C41.8017 88.081 41.255 88.081 40.708 88.081C39.3992 84.997 37.075 83.2196 33.7354 82.749C33.1638 82.5486 32.5486 82.4803 31.8896 82.5439C31.8896 73.8623 31.8896 65.1805 31.8896 56.499C32.9298 56.743 33.9552 57.0506 34.9658 57.4218C38.4497 57.936 40.022 56.4662 39.6826 53.0126C40.7763 52.7393 41.8702 52.7393 42.9639 53.0126C42.8613 53.2177 42.7588 53.4228 42.6562 53.6279C42.5537 55.6774 42.5197 57.7282 42.5537 59.7802C40.5702 59.7462 38.5877 59.7802 36.6064 59.8828C35.5171 60.8204 35.5171 61.7775 36.6064 62.7539C38.5192 62.8564 40.4334 62.8904 42.3486 62.8564Z" fill="#47D158"/>
<path fill-rule="evenodd" clip-rule="evenodd" d="M31.8896 56.499C31.8896 65.1806 31.8896 73.8624 31.8896 82.5439C32.5485 82.4804 33.1638 82.5487 33.7353 82.749C33.0518 82.749 32.3681 82.749 31.6845 82.749C31.6165 73.9641 31.6848 65.2142 31.8896 56.499Z" fill="#293038"/>
<path fill-rule="evenodd" clip-rule="evenodd" d="M51.167 56.294C53.0823 56.26 54.9965 56.294 56.9092 56.3965C57.6834 56.6923 58.2644 57.205 58.6524 57.9346C58.7892 59.9171 58.7892 61.8994 58.6524 63.8819C58.4131 64.9415 57.7638 65.5908 56.7042 65.8301C54.8584 65.9669 53.0127 65.9669 51.167 65.8301C50.3125 65.5225 49.7315 64.9415 49.4239 64.087C49.2871 62.0362 49.2871 59.9854 49.4239 57.9346C49.8492 57.2011 50.4302 56.6541 51.167 56.294Z" fill="#020405"/>
<path fill-rule="evenodd" clip-rule="evenodd" d="M63.0616 56.294C64.9768 56.26 66.891 56.294 68.8038 56.3965C69.8634 56.6359 70.5127 57.2852 70.752 58.3448C72.2218 64.8048 69.7266 67.2999 63.2667 65.8301C62.3438 65.4542 61.6943 64.8048 61.3184 63.8819C61.1816 61.9679 61.1816 60.0537 61.3184 58.1397C61.6646 57.2815 62.2456 56.6662 63.0616 56.294Z" fill="#030507"/>
<path fill-rule="evenodd" clip-rule="evenodd" d="M67.5732 59.3701C67.5732 60.4638 67.5732 61.5577 67.5732 62.6514C66.4796 62.6514 65.3857 62.6514 64.292 62.6514C64.292 61.5577 64.292 60.4638 64.292 59.3701C65.3857 59.3701 66.4796 59.3701 67.5732 59.3701Z" fill="#D8E5F7"/>
<path fill-rule="evenodd" clip-rule="evenodd" d="M52.3975 59.3701C52.3975 60.4638 52.3975 61.5577 52.3975 62.6514C53.4912 62.6514 54.5851 62.6514 55.6788 62.6514C54.556 62.8542 53.3938 62.9225 52.1924 62.8564C52.1264 61.6551 52.1947 60.4929 52.3975 59.3701Z" fill="#6D747D"/>
<path fill-rule="evenodd" clip-rule="evenodd" d="M67.5732 59.3701C67.7761 60.4929 67.8444 61.6551 67.7783 62.8564C66.577 62.9225 65.4148 62.8542 64.292 62.6514C65.3857 62.6514 66.4796 62.6514 67.5732 62.6514C67.5732 61.5577 67.5732 60.4638 67.5732 59.3701Z" fill="#878F9B"/>
<path fill-rule="evenodd" clip-rule="evenodd" d="M42.3486 62.8564C42.5527 65.1439 42.621 67.4682 42.5537 69.8291C40.6397 69.8291 38.7255 69.8291 36.8115 69.8291C38.6199 69.6255 40.4656 69.557 42.3486 69.624C42.3486 67.3682 42.3486 65.1123 42.3486 62.8564Z" fill="#75869C"/>
<path fill-rule="evenodd" clip-rule="evenodd" d="M50.7568 69.0089C52.8771 68.9748 54.9962 69.0089 57.1142 69.1114C57.8769 69.3704 58.3896 69.8831 58.6523 70.6495C58.7891 72.632 58.7891 74.6143 58.6523 76.5967C58.4408 77.22 58.0647 77.7327 57.5244 78.1348C55.352 78.4619 53.1644 78.5302 50.9619 78.3399C50.4141 78.0836 49.9699 77.7077 49.6288 77.212C49.3013 74.9711 49.2328 72.7152 49.4238 70.4444C49.7712 69.8583 50.2156 69.3798 50.7568 69.0089Z" fill="#030405"/>
<path fill-rule="evenodd" clip-rule="evenodd" d="M62.8565 69.0089C64.9085 68.9748 66.9593 69.0089 69.0088 69.1114C69.8581 69.4137 70.4391 69.9947 70.752 70.8546C70.8888 72.7686 70.8888 74.6827 70.752 76.5967C70.4243 77.5399 69.7748 78.1209 68.8038 78.3399C66.8898 78.4767 64.9756 78.4767 63.0616 78.3399C62.207 78.0323 61.626 77.4513 61.3184 76.5967C61.1816 74.6827 61.1816 72.7686 61.3184 70.8546C61.6551 70.0753 62.1678 69.46 62.8565 69.0089Z" fill="#030506"/>
<path fill-rule="evenodd" clip-rule="evenodd" d="M80.083 70.8545C81.3135 70.8545 82.5439 70.8545 83.7744 70.8545C83.8 72.0241 83.7318 73.1862 83.5693 74.3408C82.2021 74.3408 80.835 74.3408 79.4678 74.3408C79.7165 73.1848 79.9216 72.0226 80.083 70.8545Z" fill="#2F8B3A"/>
<path fill-rule="evenodd" clip-rule="evenodd" d="M86.8506 70.8545C88.1493 70.8545 89.4483 70.8545 90.7471 70.8545C90.8562 72.0136 90.9245 73.1758 90.9521 74.3408C89.5849 74.3408 88.2178 74.3408 86.8506 74.3408C86.8506 73.1786 86.8506 72.0167 86.8506 70.8545Z" fill="#2F8B3A"/>
<path fill-rule="evenodd" clip-rule="evenodd" d="M93.8232 70.8545C95.0537 70.8545 96.2842 70.8545 97.5146 70.8545C97.818 71.9992 98.023 73.1612 98.1299 74.3408C96.7626 74.3408 95.3956 74.3408 94.0283 74.3408C94.0218 73.1741 93.9533 72.0122 93.8232 70.8545Z" fill="#2F8B3A"/>
<path fill-rule="evenodd" clip-rule="evenodd" d="M52.3975 72.085C53.4911 72.085 54.585 72.085 55.6787 72.085C55.6787 73.1786 55.6787 74.2725 55.6787 75.3662C54.585 75.3662 53.4911 75.3662 52.3975 75.3662C52.3975 74.2725 52.3975 73.1786 52.3975 72.085Z" fill="#DCEBFC"/>
<path fill-rule="evenodd" clip-rule="evenodd" d="M64.292 72.085C65.4542 72.085 66.6161 72.085 67.7783 72.085C67.7783 73.1786 67.7783 74.2725 67.7783 75.3662C66.6161 75.3662 65.4542 75.3662 64.292 75.3662C64.292 74.2725 64.292 73.1786 64.292 72.085Z" fill="#D6E3F5"/>
<path fill-rule="evenodd" clip-rule="evenodd" d="M36.8115 72.7002C38.7255 72.7002 40.6397 72.7002 42.5537 72.7002C42.621 75.0611 42.5527 77.3854 42.3486 79.6729C42.3486 77.417 42.3486 75.1611 42.3486 72.9053C40.4656 72.9723 38.6199 72.9038 36.8115 72.7002Z" fill="#718197"/>
<path fill-rule="evenodd" clip-rule="evenodd" d="M78.6475 77.417C80.2198 77.417 81.7919 77.417 83.3643 77.417C83.1988 78.6401 83.1305 79.8705 83.1592 81.1084C81.3818 81.1084 79.6046 81.1084 77.8271 81.1084C78.0745 79.8712 78.348 78.6407 78.6475 77.417Z" fill="#2F8B3A"/>
<path fill-rule="evenodd" clip-rule="evenodd" d="M86.4405 77.4171C88.0142 77.383 89.5866 77.4171 91.1573 77.5196C91.3572 78.6969 91.4255 79.8934 91.3623 81.1085C89.6534 81.1085 87.9443 81.1085 86.2354 81.1085C86.22 79.872 86.2885 78.6416 86.4405 77.4171Z" fill="#2F8B3A"/>
<path fill-rule="evenodd" clip-rule="evenodd" d="M94.2334 77.4171C95.8072 77.383 97.3795 77.4171 98.9502 77.5196C99.3683 78.6797 99.6417 79.8759 99.7705 81.1085C97.9931 81.1085 96.2159 81.1085 94.4385 81.1085C94.4789 79.8688 94.4104 78.6383 94.2334 77.4171Z" fill="#2F8B3A"/>
<path fill-rule="evenodd" clip-rule="evenodd" d="M63.0616 81.5186C64.9768 81.4846 66.891 81.5186 68.8038 81.6212C69.8634 81.8605 70.5127 82.5098 70.752 83.5694C72.2218 90.0294 69.7266 92.5245 63.2667 91.0548C62.3438 90.6788 61.6943 90.0294 61.3184 89.1065C61.1816 87.1925 61.1816 85.2783 61.3184 83.3643C61.6646 82.5061 62.2456 81.8908 63.0616 81.5186Z" fill="#030507"/>
<path fill-rule="evenodd" clip-rule="evenodd" d="M42.3486 82.749C42.5523 84.5574 42.6208 86.4031 42.5537 88.2861C41.8948 88.3497 41.2796 88.2814 40.708 88.0811C41.255 88.0811 41.8017 88.0811 42.3486 88.0811C42.3486 86.3036 42.3486 84.5264 42.3486 82.749Z" fill="#798AA2"/>
<path fill-rule="evenodd" clip-rule="evenodd" d="M82.5439 87.6709C80.456 87.738 78.4053 87.6697 76.3916 87.4658C76.5315 86.3598 76.7365 85.2659 77.0068 84.1846C78.9208 84.1846 80.835 84.1846 82.749 84.1846C82.6957 85.3478 82.6274 86.51 82.5439 87.6709Z" fill="#2F8B3A"/>
<path fill-rule="evenodd" clip-rule="evenodd" d="M91.9775 87.6709C89.9268 87.6709 87.876 87.6709 85.8252 87.6709C85.8252 87.124 85.8252 86.5772 85.8252 86.0303C85.8252 85.415 85.8252 84.7998 85.8252 84.1846C87.8077 84.1846 89.79 84.1846 91.7725 84.1846C91.8559 85.3455 91.9242 86.5077 91.9775 87.6709Z" fill="#2F8B3A"/>
<path fill-rule="evenodd" clip-rule="evenodd" d="M94.8486 84.1846C96.7639 84.1506 98.6781 84.1846 100.591 84.2872C100.912 85.3995 101.185 86.5274 101.411 87.671C99.2921 87.671 97.1728 87.671 95.0537 87.671C95.026 86.5059 94.9577 85.3437 94.8486 84.1846Z" fill="#2F8B3A"/>
<path fill-rule="evenodd" clip-rule="evenodd" d="M67.5732 84.5947C67.5732 85.6884 67.5732 86.7823 67.5732 87.876C66.4796 87.876 65.3857 87.876 64.292 87.876C64.292 86.7823 64.292 85.6884 64.292 84.5947C65.3857 84.5947 66.4796 84.5947 67.5732 84.5947Z" fill="#D8E5F7"/>
<path fill-rule="evenodd" clip-rule="evenodd" d="M31.8897 85.8252C32.7293 85.6622 33.3788 85.9356 33.8379 86.6455C34.396 87.6603 34.9769 88.6514 35.5811 89.6192C36.3985 89.7215 37.2189 89.7557 38.042 89.7217C38.3345 90.4928 38.8814 90.9712 39.6827 91.1573C41.4238 91.3275 43.2012 91.43 45.0147 91.4649C46.4033 92.7724 47.087 94.3788 47.0655 96.2842C38.9991 96.2842 30.9326 96.2842 22.8663 96.2842C22.7816 95.1374 23.0892 94.112 23.7891 93.208C24.9825 92.2015 26.2129 91.2444 27.4805 90.3369C28.0338 87.9041 29.5036 86.4001 31.8897 85.8252Z" fill="#9BD068"/>
<path fill-rule="evenodd" clip-rule="evenodd" d="M31.8896 85.8253C34.9502 85.4452 37.001 86.744 38.042 89.7217C37.2188 89.7558 36.3985 89.7215 35.5811 89.6192C34.9769 88.6514 34.3959 87.6603 33.8379 86.6456C33.3787 85.9356 32.7292 85.6622 31.8896 85.8253Z" fill="#65AA7B"/>
<path fill-rule="evenodd" clip-rule="evenodd" d="M76.3916 87.4658C78.4053 87.6697 80.456 87.738 82.5439 87.6709C80.4575 87.9422 78.3384 87.9422 76.1865 87.6709C76.212 87.5464 76.2802 87.4781 76.3916 87.4658Z" fill="#142530"/>
<path fill-rule="evenodd" clip-rule="evenodd" d="M85.8252 86.0303C85.8252 86.5772 85.8252 87.124 85.8252 87.6709C87.876 87.6709 89.9268 87.6709 91.9776 87.6709C89.8954 87.8747 87.7763 87.9432 85.6202 87.876C85.5566 87.2171 85.6249 86.6018 85.8252 86.0303Z" fill="#172936"/>
<path fill-rule="evenodd" clip-rule="evenodd" d="M52.3975 84.5947C52.3975 85.6884 52.3975 86.7823 52.3975 87.876C53.4912 87.876 54.5851 87.876 55.6788 87.876C54.556 88.0788 53.3938 88.1471 52.1924 88.0811C52.1264 86.8797 52.1947 85.7175 52.3975 84.5947Z" fill="#6D747D"/>
<path fill-rule="evenodd" clip-rule="evenodd" d="M67.5732 84.5947C67.7761 85.7175 67.8444 86.8797 67.7783 88.0811C66.577 88.1471 65.4148 88.0788 64.292 87.876C65.3857 87.876 66.4796 87.876 67.5732 87.876C67.5732 86.7823 67.5732 85.6884 67.5732 84.5947Z" fill="#878F9B"/>
<path fill-rule="evenodd" clip-rule="evenodd" d="M56.7041 90.9522C54.9267 91.089 53.1495 91.2256 51.3721 91.3624C51.2103 91.3043 51.0735 91.2018 50.9619 91.0548C52.8747 90.9522 54.7889 90.9182 56.7041 90.9522Z" fill="#2E526A"/>
<path fill-rule="evenodd" clip-rule="evenodd" d="M87.0557 90.9521C88.2178 90.9521 89.3798 90.9521 90.542 90.9521C90.542 92.7296 90.542 94.5068 90.542 96.2842C89.3798 96.2842 88.2178 96.2842 87.0557 96.2842C87.0557 94.5068 87.0557 92.7296 87.0557 90.9521Z" fill="#DCEBFC"/>
<path fill-rule="evenodd" clip-rule="evenodd" d="M87.0557 90.9522C88.2472 90.7492 89.4776 90.6809 90.7471 90.7471C90.8141 92.6301 90.7456 94.4758 90.542 96.2842C90.542 94.5068 90.542 92.7296 90.542 90.9522C89.3798 90.9522 88.2178 90.9522 87.0557 90.9522Z" fill="#8C95A1"/>
<path fill-rule="evenodd" clip-rule="evenodd" d="M39.6826 91.1571C41.9516 91.0739 44.2075 91.1764 46.4502 91.4648C48.6009 92.3515 49.763 93.9579 49.9365 96.2841C48.9794 96.2841 48.0225 96.2841 47.0654 96.2841C47.087 94.3787 46.4032 92.7723 45.0146 91.4648C43.2011 91.4299 41.4237 91.3273 39.6826 91.1571Z" fill="#62A576"/>
<path fill-rule="evenodd" clip-rule="evenodd" d="M12.4072 93.0029C15.0369 92.7988 17.7029 92.7304 20.4053 92.7978C20.4539 93.0626 20.3856 93.2677 20.2002 93.4131C17.6799 93.007 15.0823 92.8702 12.4072 93.0029Z" fill="#4E8AB4"/>
<path fill-rule="evenodd" clip-rule="evenodd" d="M12.4072 93.0029C15.0823 92.8702 17.6799 93.007 20.2002 93.413C19.8697 94.3346 19.733 95.2917 19.79 96.2841C17.3291 96.2841 14.8682 96.2841 12.4072 96.2841C12.4072 95.1904 12.4072 94.0965 12.4072 93.0029Z" fill="#3BAE49"/>
</g>
<defs>
<clipPath id="clip0_769_20290">
<rect width="105" height="105" fill="white"/>
</clipPath>
</defs>
</svg>
