<svg width="24" height="24" viewBox="0 0 24 24" fill="none" xmlns="http://www.w3.org/2000/svg">
<path d="M10 0.5H14M6.5 10H7L8.027 10.171C10.6575 10.6094 13.3425 10.6094 15.973 10.171L17 10H17.5M6.5 17H7L8.027 16.829C10.6575 16.3906 13.3425 16.3906 15.973 16.829L17 17H17.5M13.5 3.5H10.5C9.29806 4.10096 8.28722 5.02475 7.58073 6.16785C6.87424 7.31095 6.50002 8.6282 6.5 9.972V21.5C6.5 22.0304 6.71071 22.5391 7.08579 22.9142C7.46086 23.2893 7.96957 23.5 8.5 23.5H15.5C16.0304 23.5 16.5391 23.2893 16.9142 22.9142C17.2893 22.5391 17.5 22.0304 17.5 21.5V9.972C17.5 8.6282 17.1258 7.31095 16.4193 6.16785C15.7128 5.02475 14.7019 4.10096 13.5 3.5Z" stroke="#616161"/>
</svg>
