<svg width="24" height="24" viewBox="0 0 24 24" fill="none" xmlns="http://www.w3.org/2000/svg">
<path opacity="0.99" fill-rule="evenodd" clip-rule="evenodd" d="M10.9922 1.19519C13.362 1.11797 15.151 2.08671 16.3594 4.10144C17.4503 6.48082 17.1378 8.65268 15.4219 10.6171C13.7165 12.1833 11.7556 12.6129 9.53908 11.9061C7.52326 11.0775 6.34356 9.58535 6.00001 7.42957C5.80379 5.00163 6.73347 3.15008 8.78907 1.87488C9.48653 1.50942 10.2209 1.28286 10.9922 1.19519Z" fill="#138843"/>
<path opacity="0.983" fill-rule="evenodd" clip-rule="evenodd" d="M16.8986 12.2108C19.5129 12.0911 21.3488 13.2161 22.4064 15.5858C23.2106 18.2041 22.5154 20.3213 20.3204 21.9373C18.2021 23.1179 16.1553 23.0085 14.1798 21.6092C12.4915 20.1378 11.8899 18.3019 12.3751 16.1014C13.0852 13.8687 14.593 12.5719 16.8986 12.2108ZM17.4611 14.2264C18.3514 14.4132 18.6248 14.9289 18.2814 15.7733C17.7929 16.2956 17.2773 16.3269 16.7345 15.867C16.4088 15.3448 16.4635 14.8682 16.8986 14.4373C17.0767 14.3241 17.2642 14.2538 17.4611 14.2264ZM17.2736 16.7577C17.7312 16.7012 18.0359 16.8887 18.1876 17.3202C18.2189 18.2577 18.2189 19.1952 18.1876 20.1327C17.9747 20.6649 17.6075 20.8134 17.0861 20.578C16.95 20.473 16.8484 20.3402 16.7814 20.1795C16.7501 19.2108 16.7501 18.242 16.7814 17.2733C16.8761 17.0302 17.0401 16.8583 17.2736 16.7577Z" fill="#138843"/>
<path opacity="0.985" fill-rule="evenodd" clip-rule="evenodd" d="M10.664 13.0547C11.4476 13.0368 12.2288 13.0681 13.0077 13.1484C11.2527 15.1193 10.823 17.3537 11.7187 19.8515C12.0154 20.5456 12.4138 21.1706 12.914 21.7265C9.55475 21.7812 6.19536 21.789 2.83587 21.75C1.9379 21.6489 1.39884 21.1568 1.21868 20.2734C0.846202 18.3908 1.36964 16.8205 2.789 15.5625C3.84843 14.7593 5.02029 14.1655 6.30462 13.7812C7.7375 13.3757 9.19062 13.1335 10.664 13.0547Z" fill="#138843"/>
</svg>
