<svg width="24" height="24" viewBox="0 0 24 24" fill="none" xmlns="http://www.w3.org/2000/svg">
<g clip-path="url(#clip0_903_375)">
<path opacity="0.965" fill-rule="evenodd" clip-rule="evenodd" d="M-0.0234375 21.0234C-0.0234375 19.5078 -0.0234375 17.9921 -0.0234375 16.4765C0.516291 13.8117 2.01629 11.8976 4.47656 10.7343C2.54543 9.28576 1.8345 7.37167 2.34375 4.99216C3.03069 2.83208 4.49163 1.55864 6.72656 1.17184C9.27122 0.978853 11.1072 2.01792 12.2344 4.28903C13.007 6.32509 12.7101 8.18448 11.3438 9.86716C11.0216 10.1738 10.6857 10.4628 10.3359 10.7343C12.1719 11.5703 13.5078 12.9062 14.3438 14.7422C15.6318 12.9619 17.374 12.2119 19.5703 12.4922C21.7737 12.9533 23.1877 14.2658 23.8125 16.4297C24.2691 18.9608 23.4175 20.9061 21.2578 22.2656C19.7987 22.999 18.2987 23.0928 16.7578 22.5468C15.9947 22.2358 15.3384 21.7749 14.7891 21.164C14.4249 22.0986 13.7531 22.6689 12.7734 22.875C9.21094 22.9062 5.64844 22.9062 2.08594 22.875C1.02268 22.663 0.31955 22.0458 -0.0234375 21.0234ZM7.38281 2.55465C9.42516 2.72001 10.683 3.79814 11.1562 5.78903C11.3235 7.65044 10.5813 9.00198 8.92969 9.84372C7.18687 10.4803 5.69466 10.1131 4.45312 8.74215C3.48744 7.39 3.37807 5.96814 4.125 4.47653C4.8795 3.27724 5.96541 2.63662 7.38281 2.55465ZM7.05469 11.6015C9.81061 11.6075 11.7872 12.8418 12.9844 15.3047C13.2588 15.965 13.4151 16.6525 13.4531 17.3672C13.4844 18.3828 13.4844 19.3984 13.4531 20.414C13.3767 20.9345 13.0877 21.2705 12.5859 21.4218C9.1328 21.4531 5.6797 21.4531 2.22656 21.4218C1.69091 21.2294 1.40185 20.8466 1.35938 20.2734C1.32089 19.1632 1.33651 18.0538 1.40625 16.9453C1.81389 14.4598 3.19671 12.7801 5.55469 11.9062C6.05208 11.7585 6.55209 11.6569 7.05469 11.6015ZM18.6797 13.8515C20.7236 14.0173 21.9814 15.0955 22.4531 17.0859C22.6204 18.9473 21.8782 20.2989 20.2266 21.1406C18.4837 21.7772 16.9915 21.4099 15.75 20.039C14.7843 18.6869 14.6749 17.265 15.4219 15.7734C16.1764 14.5741 17.2623 13.9335 18.6797 13.8515Z" fill="#282828"/>
<path opacity="0.959" fill-rule="evenodd" clip-rule="evenodd" d="M18.492 15.4454C18.9439 15.3702 19.2486 15.5421 19.4061 15.961C19.4295 16.2887 19.4373 16.6169 19.4295 16.9454C19.8085 16.9266 20.1835 16.95 20.5545 17.0157C20.9192 17.2665 21.0208 17.6025 20.8592 18.0235C20.7859 18.1748 20.6687 18.2764 20.5076 18.3282C20.1523 18.3936 19.7929 18.4171 19.4295 18.3985C19.4483 18.7775 19.4249 19.1525 19.3592 19.5235C19.0831 19.9103 18.7315 19.9962 18.3045 19.7813C18.1912 19.7033 18.1053 19.6018 18.0467 19.4766C17.9813 19.1213 17.9578 18.7619 17.9764 18.3985C17.613 18.4171 17.2536 18.3936 16.8983 18.3282C16.4432 18.0337 16.3573 17.6509 16.6404 17.1797C16.7065 17.1194 16.7768 17.0647 16.8514 17.0157C17.2224 16.95 17.5974 16.9266 17.9764 16.9454C17.9578 16.5819 17.9813 16.2226 18.0467 15.8672C18.1344 15.6566 18.2828 15.516 18.492 15.4454Z" fill="#282828"/>
</g>
<defs>
<clipPath id="clip0_903_375">
<rect width="24" height="24" fill="white"/>
</clipPath>
</defs>
</svg>
