<svg width="24" height="24" viewBox="0 0 24 24" fill="none" xmlns="http://www.w3.org/2000/svg">
<g clip-path="url(#clip0_903_397)">
<path opacity="0.979" fill-rule="evenodd" clip-rule="evenodd" d="M1.52344 -0.0234375C5.60156 -0.0234375 9.67969 -0.0234375 13.7578 -0.0234375C14.8931 0.275855 15.6196 0.994603 15.9375 2.13281C16.0139 3.88125 16.0295 5.63123 15.9844 7.38281C15.7639 7.96692 15.3655 8.13098 14.7891 7.875C14.6516 7.76888 14.55 7.63603 14.4844 7.47656C14.4688 5.83594 14.4531 4.19531 14.4375 2.55469C14.2891 1.92208 13.8907 1.57051 13.2422 1.5C11.1484 1.46875 9.0547 1.46875 6.96094 1.5C7.6747 1.72229 8.37783 1.97229 9.07031 2.25C9.4912 2.55271 9.78028 2.95115 9.9375 3.44531C10.0072 8.78766 10.0307 14.1314 10.0078 19.4766C11.086 19.4844 12.1642 19.4766 13.2422 19.4531C13.8907 19.3826 14.2891 19.0311 14.4375 18.3984C14.4531 16.7578 14.4688 15.1172 14.4844 13.4766C14.7487 12.952 15.1471 12.8191 15.6797 13.0781C15.8018 13.169 15.8878 13.2862 15.9375 13.4297C15.9913 14.3018 16.0147 15.1768 16.0078 16.0547C16.0139 16.9782 15.9904 17.9001 15.9375 18.8203C15.6281 19.9578 14.9015 20.6688 13.7578 20.9531C12.5079 20.9766 11.2579 20.9844 10.0078 20.9766C10.0156 21.3987 10.0078 21.8206 9.98438 22.2422C9.82575 23.1583 9.3023 23.7364 8.41406 23.9766C8.1172 23.9766 7.8203 23.9766 7.52344 23.9766C5.37052 23.2563 3.21429 22.5298 1.05469 21.7969C0.509016 21.4782 0.14964 21.0172 -0.0234375 20.4141C-0.0234375 14.1172 -0.0234375 7.8203 -0.0234375 1.52344C0.226562 0.742186 0.742186 0.226562 1.52344 -0.0234375ZM1.80469 1.52344C1.93065 1.51575 2.05566 1.52356 2.17969 1.54688C4.2179 2.21586 6.24914 2.90336 8.27344 3.60938C8.34567 3.6834 8.40038 3.76935 8.4375 3.86719C8.46877 9.92967 8.46877 15.9922 8.4375 22.0547C8.33081 22.3946 8.10422 22.5118 7.75781 22.4062C5.71959 21.7372 3.68835 21.0498 1.66406 20.3438C1.63075 20.2849 1.59169 20.2303 1.54688 20.1797C1.46916 14.1188 1.45354 8.05631 1.5 1.99219C1.5204 1.77866 1.62196 1.62241 1.80469 1.52344Z" fill="#282828"/>
<path opacity="0.977" fill-rule="evenodd" clip-rule="evenodd" d="M23.9764 10.1954C23.9764 10.3829 23.9764 10.5704 23.9764 10.7579C22.6603 12.1443 21.3166 13.5115 19.9451 14.8594C19.5363 15.058 19.1691 15.0033 18.8435 14.6954C18.6873 14.3829 18.6873 14.0704 18.8435 13.7579C19.6795 12.922 20.5154 12.086 21.3514 11.2501C18.7107 11.2345 16.0701 11.2188 13.4295 11.2032C12.9827 10.957 12.8499 10.5898 13.031 10.1016C13.1204 9.93573 13.2532 9.81854 13.4295 9.75006C16.0701 9.73445 18.7107 9.71879 21.3514 9.70319C20.5154 8.86726 19.6795 8.03129 18.8435 7.19537C18.6873 6.88286 18.6873 6.57039 18.8435 6.25787C19.1691 5.94995 19.5363 5.89525 19.9451 6.09381C21.3166 7.44179 22.6603 8.80895 23.9764 10.1954Z" fill="#282828"/>
</g>
<defs>
<clipPath id="clip0_903_397">
<rect width="24" height="24" fill="white"/>
</clipPath>
</defs>
</svg>
