<svg width="43" height="43" viewBox="0 0 43 43" fill="none" xmlns="http://www.w3.org/2000/svg">
<g clip-path="url(#clip0_57_539)">
<path fill-rule="evenodd" clip-rule="evenodd" d="M33.5938 16.125C33.5994 18.7163 32.767 21.24 31.2207 23.3194L21.5 36.2812L11.7793 23.3194C10.6412 21.7817 9.88406 19.996 9.57016 18.1089C9.25626 16.2217 9.39453 14.287 9.97362 12.4637C10.5527 10.6404 11.5561 8.98047 12.9013 7.62028C14.2466 6.26008 15.8953 5.23843 17.7121 4.63925C19.529 4.04006 21.462 3.88043 23.3525 4.17347C25.243 4.46651 27.037 5.20385 28.5871 6.32494C30.1373 7.44603 31.3994 8.91888 32.2697 10.6225C33.1401 12.3261 33.5938 14.2119 33.5938 16.125ZM37.625 16.125C37.625 19.7262 36.4452 23.048 34.4538 25.7301L24.0182 39.6406L21.5 43L18.9791 39.6406L8.54625 25.7301C7.02697 23.6807 6.01563 21.3 5.59534 18.7838C5.17504 16.2675 5.35778 13.6874 6.12855 11.2554C6.89931 8.82352 8.2361 6.60918 10.0291 4.79435C11.822 2.97953 14.02 1.61603 16.4425 0.81587C18.8649 0.0157124 21.4426 -0.198261 23.9638 0.19153C26.4849 0.581322 28.8777 1.56375 30.9453 3.0581C33.013 4.55246 34.6966 6.51608 35.8578 8.78763C37.019 11.0592 37.6247 13.5738 37.625 16.125ZM21.5 21.5C22.9255 21.5 24.2927 20.9337 25.3007 19.9257C26.3087 18.9177 26.875 17.5505 26.875 16.125C26.875 14.6995 26.3087 13.3323 25.3007 12.3243C24.2927 11.3163 22.9255 10.75 21.5 10.75C20.0745 10.75 18.7073 11.3163 17.6993 12.3243C16.6913 13.3323 16.125 14.6995 16.125 16.125C16.125 17.5505 16.6913 18.9177 17.6993 19.9257C18.7073 20.9337 20.0745 21.5 21.5 21.5Z" fill="black"/>
</g>
<defs>
<clipPath id="clip0_57_539">
<rect width="43" height="43" fill="white"/>
</clipPath>
</defs>
</svg>
