<svg width="12" height="14" viewBox="0 0 12 14" fill="none" xmlns="http://www.w3.org/2000/svg">
<path d="M6 0.5C4.68983 0.5 3.43332 1.02046 2.50689 1.94689C1.58046 2.87332 1.06 4.12983 1.06 5.44V5.8C1.26 8.50667 3.50666 10.6833 6 13.5C8.60333 10.56 10.94 8.33333 10.94 5.44C10.94 4.12983 10.4195 2.87332 9.49311 1.94689C8.56668 1.02046 7.31017 0.5 6 0.5ZM6 3.06667C6.4702 3.06667 6.92984 3.20614 7.32075 3.46744C7.71166 3.72874 8.01628 4.10012 8.19607 4.53459C8.37585 4.96907 8.42273 5.44711 8.33075 5.90823C8.23878 6.36934 8.01209 6.79282 7.67937 7.12507C7.34666 7.45732 6.92286 7.68341 6.46162 7.77474C6.00037 7.86607 5.52239 7.81852 5.08817 7.63813C4.65395 7.45773 4.283 7.15259 4.02225 6.76131C3.7615 6.37003 3.62267 5.9102 3.62333 5.44C3.62421 4.81025 3.875 4.20659 4.32062 3.7616C4.76623 3.31661 5.37024 3.06667 6 3.06667Z" stroke="white" stroke-width="0.333333" stroke-linecap="round" stroke-linejoin="round"/>
</svg>
