<svg width="24" height="24" viewBox="0 0 24 24" fill="none" xmlns="http://www.w3.org/2000/svg">
<path opacity="0.972" fill-rule="evenodd" clip-rule="evenodd" d="M7.24219 1.66408C9.24535 1.52062 10.675 2.34874 11.5313 4.14846C11.8692 5.22405 11.8692 6.30218 11.5313 7.38283C11.5102 7.47747 11.4711 7.56339 11.4141 7.64064C12.7266 7.65625 14.0391 7.67191 15.3516 7.68752C15.8125 7.83597 16.1172 8.14066 16.2656 8.60158C16.2891 9.28891 16.2969 9.97643 16.2891 10.6641C17.0549 10.6563 17.8205 10.6641 18.5859 10.6875C19.0086 10.8288 19.3133 11.1023 19.5 11.5078C19.8281 12.2891 20.1563 13.0703 20.4844 13.8516C20.9297 14.2344 21.375 14.6172 21.8203 15C22.0461 15.1946 22.1945 15.4368 22.2656 15.7266C22.2969 17.3047 22.2969 18.8828 22.2656 20.461C22.213 20.5605 22.1427 20.6464 22.0547 20.7188C21.6219 20.7788 21.1844 20.81 20.7422 20.8125C20.4027 21.7529 19.7308 22.2607 18.7266 22.336C17.7235 22.2621 17.0516 21.7543 16.7109 20.8125C14.0547 20.7813 11.3985 20.7813 8.74219 20.8125C8.40267 21.7529 7.73081 22.2607 6.72656 22.336C5.72349 22.2621 5.05158 21.7543 4.71094 20.8125C4.00781 20.7969 3.30469 20.7813 2.60156 20.7656C2.14063 20.6172 1.83594 20.3125 1.6875 19.8516C1.65625 16.1016 1.65625 12.3516 1.6875 8.60158C1.81304 8.1948 2.07085 7.90572 2.46094 7.73439C3.06706 7.67453 3.67644 7.64332 4.28906 7.64064C3.91879 6.69443 3.81723 5.71788 3.98438 4.71096C4.46241 3.03739 5.54836 2.02176 7.24219 1.66408ZM7.33594 2.83596C8.81386 2.71486 9.85289 3.32423 10.4531 4.66408C10.6328 5.24889 10.664 5.84266 10.5469 6.44533C10.2714 7.52744 9.81825 8.52742 9.1875 9.44533C8.79127 9.98224 8.37722 10.5057 7.94531 11.0156C7.79114 11.0506 7.67395 10.996 7.59375 10.8516C6.67022 9.78668 5.93583 8.59919 5.39063 7.28908C5.10905 6.57902 5.0153 5.84463 5.10938 5.08596C5.40694 3.88998 6.14911 3.13998 7.33594 2.83596ZM7.66406 5.08596C8.17116 5.05394 8.3977 5.28832 8.34375 5.78908C8.20125 6.07516 7.97466 6.17669 7.66406 6.09377C7.37799 5.95127 7.27645 5.72468 7.35938 5.41408C7.42617 5.26849 7.52775 5.15908 7.66406 5.08596ZM2.97656 8.78908C3.57052 8.78125 4.16427 8.78908 4.75781 8.81252C5.28797 9.78733 5.90513 10.7014 6.60938 11.5547C7.43752 12.4922 8.26561 12.4922 9.09375 11.5547C9.77789 10.7217 10.3794 9.83111 10.8984 8.88283C12.2888 8.82813 13.6794 8.82035 15.0703 8.85939C15.0997 8.89455 15.1231 8.93364 15.1406 8.97658C15.1641 12.539 15.1719 16.1015 15.1641 19.6641C13.0234 19.6719 10.8827 19.6641 8.74219 19.6406C8.20945 18.3587 7.27195 17.9056 5.92969 18.2813C5.30859 18.5429 4.90238 18.9961 4.71094 19.6406C4.0971 19.6857 3.48773 19.6701 2.88281 19.5938C2.85348 19.5586 2.83004 19.5195 2.8125 19.4766C2.78125 15.9766 2.78125 12.4766 2.8125 8.97658C2.84483 8.88986 2.89952 8.82733 2.97656 8.78908ZM16.2891 11.7891C16.9548 11.7746 17.6189 11.7903 18.2813 11.836C18.591 12.4087 18.8644 13.0025 19.1016 13.6172C18.1646 13.6641 17.2271 13.6797 16.2891 13.6641C16.2891 13.0391 16.2891 12.4141 16.2891 11.7891ZM16.2891 14.7891C17.4454 14.7813 18.6017 14.7891 19.7578 14.8125C20.2031 15.1953 20.6484 15.5781 21.0938 15.961C21.1018 17.1909 21.1252 18.4175 21.1641 19.6406C21.0234 19.6719 20.8828 19.6719 20.7422 19.6406C20.2923 18.478 19.4486 17.9936 18.2109 18.1875C17.4487 18.403 16.9486 18.8873 16.7109 19.6406C16.5712 19.664 16.4305 19.6718 16.2891 19.6641C16.2891 18.0391 16.2891 16.4141 16.2891 14.7891ZM6.44531 19.336C7.296 19.2726 7.67883 19.6632 7.59375 20.5078C7.30824 21.0996 6.86292 21.2637 6.25781 21C5.799 20.6332 5.71303 20.1879 6 19.6641C6.13078 19.5251 6.27924 19.4157 6.44531 19.336ZM18.4453 19.336C19.296 19.2726 19.6788 19.6632 19.5938 20.5078C19.3082 21.0996 18.8629 21.2637 18.2578 21C17.799 20.6332 17.713 20.1879 18 19.6641C18.1308 19.5251 18.2792 19.4157 18.4453 19.336Z" fill="#282828"/>
<path opacity="0.952" fill-rule="evenodd" clip-rule="evenodd" d="M7.4295 3.91399C8.47678 3.76917 9.17208 4.19105 9.51544 5.17961C9.68321 6.22755 9.26911 6.92289 8.27325 7.26555C7.22531 7.43331 6.52997 7.01922 6.18731 6.02336C6.0285 4.97336 6.4426 4.27025 7.4295 3.91399ZM7.66388 5.08586C7.52756 5.15899 7.42599 5.26839 7.35919 5.41399C7.27627 5.72458 7.3778 5.95117 7.66388 6.09367C7.97447 6.1766 8.20106 6.07506 8.34356 5.78899C8.39752 5.28822 8.17097 5.05385 7.66388 5.08586Z" fill="#282828"/>
</svg>
