<svg width="20" height="21" viewBox="0 0 20 21" fill="none" xmlns="http://www.w3.org/2000/svg">
<path d="M12.5 14V14.8236C12.5 15.4788 12.2366 16.1072 11.7678 16.5705C11.299 17.0339 10.6631 17.2942 10 17.2942C9.337 17.2942 8.70111 17.0339 8.23227 16.5705C7.76343 16.1072 7.50004 15.4788 7.50004 14.8236V14M12.5 14H7.50004M12.5 14H15.8334C16.0544 14 16.2664 13.9133 16.4226 13.7588C16.5789 13.6044 16.6667 13.3949 16.6667 13.1765V12.6939C16.6667 12.4755 16.5788 12.2661 16.4225 12.1117L15.9975 11.6917C15.9455 11.6404 15.9041 11.5794 15.876 11.5123C15.8478 11.4452 15.8333 11.3732 15.8334 11.3005V8.23534C15.8334 8.09039 15.8284 7.94628 15.8167 7.80381M7.50004 14H4.16671C3.94569 14 3.73373 13.9133 3.57745 13.7588C3.42117 13.6044 3.33337 13.3949 3.33337 13.1765V12.6939C3.33342 12.4755 3.42125 12.2661 3.57754 12.1117L4.00254 11.6909C4.05456 11.6397 4.09584 11.5789 4.12402 11.5119C4.15219 11.4449 4.1667 11.3731 4.16671 11.3005V8.23534C4.16653 7.33413 4.38016 6.44543 4.79045 5.64058C5.20075 4.83574 5.79627 4.13717 6.52922 3.60095C7.26217 3.06473 8.11212 2.70581 9.01085 2.55298C9.90958 2.40016 10.8321 2.4577 11.7042 2.72098M15.8167 7.80381C16.2349 7.56794 16.5963 7.24536 16.8763 6.85826C17.1562 6.47115 17.348 6.02871 17.4384 5.56137C17.5288 5.09403 17.5156 4.61289 17.3999 4.15104C17.2842 3.68919 17.0685 3.2576 16.7679 2.88597C16.4673 2.51433 16.0887 2.21147 15.6583 1.99821C15.2279 1.78495 14.7559 1.66637 14.2747 1.65061C13.7935 1.63485 13.3146 1.7223 12.8708 1.90693C12.4271 2.09157 12.0291 2.36983 11.7042 2.72098M15.8167 7.80381C15.1267 8.19299 14.3188 8.32586 13.5385 8.17846C12.7582 8.03107 12.0568 7.6131 11.5607 6.99988C11.0646 6.38665 10.8065 5.6185 10.8328 4.83383C10.8591 4.04917 11.1681 3.30041 11.7042 2.72098M11.7042 2.72098H11.7059" stroke="white" stroke-width="1.33333" stroke-linecap="round" stroke-linejoin="round"/>
</svg>
