<svg width="274" height="290" viewBox="0 0 274 290" fill="none" xmlns="http://www.w3.org/2000/svg">
<path d="M150.068 236.285H87.105V284.847H150.068V236.285Z" fill="#EBEBEB"/>
<path d="M134.295 284.509C134.211 284.509 134.138 273.681 134.138 260.327C134.138 246.973 134.211 236.145 134.295 236.145C134.38 236.145 134.453 246.973 134.453 260.327C134.453 273.681 134.38 284.509 134.295 284.509Z" fill="#E0E0E0"/>
<path d="M144.73 273.797H139.906V279.256H144.73V273.797Z" fill="#FAFAFA"/>
<path d="M113.469 236.411H106.317V246.773H113.469V236.411Z" fill="#E0E0E0"/>
<path d="M113.469 274.341H106.317V284.703H113.469V274.341Z" fill="#E0E0E0"/>
<path d="M264.32 224.109H184.926V285.343H264.32V224.109Z" fill="#EBEBEB"/>
<path d="M244.425 284.908C244.341 284.908 244.268 271.264 244.268 254.427C244.268 237.591 244.341 223.946 244.425 223.946C244.51 223.946 244.582 237.591 244.582 254.427C244.582 271.264 244.516 284.908 244.425 284.908Z" fill="#E0E0E0"/>
<path d="M257.586 271.402H251.498V278.282H257.586V271.402Z" fill="#FAFAFA"/>
<path d="M218.164 224.266H209.144V237.331H218.164V224.266Z" fill="#E0E0E0"/>
<path d="M218.164 272.092H209.144V285.156H218.164V272.092Z" fill="#E0E0E0"/>
<path d="M35.3861 225.911C38.6023 224.254 42.3868 224.037 45.9536 224.629C47.87 224.944 49.865 225.518 51.1708 226.957C52.4766 228.396 52.7184 230.929 51.2252 232.168C50.3305 232.906 49.0911 233.014 47.9304 233.002C45.1374 232.966 42.0422 232.476 39.8114 234.157C38.5358 235.118 37.6895 236.708 36.1841 237.18C34.6788 237.651 33.0163 236.762 32.2304 235.42C31.5034 234.021 31.3432 232.395 31.7831 230.88C31.9611 229.831 32.3788 228.836 33.0037 227.974C33.6286 227.113 34.4439 226.406 35.3861 225.911Z" fill="#EBEBEB"/>
<path d="M28.0228 211.698C29.9875 214.503 33.8082 213.578 35.5795 211.861C37.3509 210.144 38.1005 207.666 38.7776 205.302C40.3373 199.891 41.9031 194.214 40.7484 188.707C40.4704 187.037 39.736 185.476 38.6264 184.197C38.0647 183.569 37.3486 183.099 36.549 182.832C35.7495 182.566 34.8943 182.514 34.0682 182.68C32.1397 183.188 30.9427 185.098 30.0782 186.869C27.5294 192.165 26.1951 197.962 26.1729 203.839C26.1729 206.577 26.4812 209.443 28.0228 211.698Z" fill="#EBEBEB"/>
<path d="M22.6304 215.724C24.7644 213.191 25.1695 209.503 24.2203 206.33C23.2712 203.156 21.1251 200.459 18.6525 198.253C15.7444 195.666 12.3605 193.67 8.68964 192.377C7.26692 191.802 5.73662 191.542 4.20393 191.615C3.43934 191.659 2.69703 191.889 2.04164 192.285C1.38625 192.681 0.837663 193.231 0.443672 193.888C-0.608233 195.889 0.401353 198.313 1.48953 200.296C3.40582 203.785 5.59291 207.118 8.03069 210.265C9.99545 212.792 12.2625 215.289 15.2308 216.431C18.1991 217.574 21.3306 217.441 22.9145 215.367" fill="#EBEBEB"/>
<path d="M27.8899 254.028C27.9948 253.612 28.0556 253.187 28.0712 252.758C28.1619 251.827 28.2707 250.66 28.4098 249.276C28.5831 247.563 28.8434 245.86 29.1896 244.174C29.6439 242.112 30.2646 240.09 31.0456 238.128C31.8116 236.18 32.8474 234.348 34.1227 232.687C35.1653 231.337 36.4924 230.233 38.0099 229.453C39.0419 228.944 40.1477 228.602 41.2865 228.438C41.7152 228.421 42.1409 228.358 42.5561 228.25C42.1281 228.203 41.6963 228.203 41.2684 228.25C40.0858 228.339 38.9288 228.64 37.8527 229.139C36.2503 229.895 34.8452 231.012 33.7479 232.403C32.4132 234.086 31.3373 235.959 30.5559 237.959C29.7758 239.944 29.169 241.993 28.7423 244.083C28.4134 245.791 28.1853 247.517 28.0591 249.252C27.9503 250.733 27.908 251.93 27.8899 252.758C27.8453 253.18 27.8453 253.606 27.8899 254.028Z" fill="#E0E0E0"/>
<path d="M28.132 251.356C28.1679 251.156 28.1801 250.953 28.1683 250.751C28.1683 250.304 28.1683 249.742 28.1683 249.059C28.1683 247.589 28.1683 245.461 28.2408 242.838C28.3738 237.59 28.8454 231.956 29.6978 223.982C30.526 216.492 31.6323 207.78 32.8051 202.116C33.053 200.828 33.3069 199.667 33.5487 198.652C33.7905 197.636 33.9659 196.754 34.1533 196.046C34.3407 195.339 34.4435 194.837 34.5523 194.402C34.6114 194.205 34.6459 194.002 34.655 193.797C34.564 193.974 34.4949 194.16 34.4495 194.353C34.3165 194.783 34.1533 195.315 33.9538 195.974C33.7543 196.633 33.5125 197.552 33.2586 198.561C33.0046 199.571 32.7145 200.731 32.4424 202.019C30.9901 208.719 29.8984 215.491 29.1718 222.308C28.3013 230.287 27.9083 237.554 27.8721 242.814C27.8721 245.443 27.8721 247.577 27.9628 249.046C28.0051 249.73 28.0413 250.292 28.0655 250.733C28.0626 250.943 28.0849 251.152 28.132 251.356Z" fill="#E0E0E0"/>
<path d="M28.1678 237.342C28.2139 236.753 28.2139 236.161 28.1678 235.571C28.1013 234.435 27.9441 232.796 27.6237 230.783C27.2283 228.43 26.6995 226.1 26.0398 223.807C25.2774 220.984 24.3013 218.223 23.1199 215.549C21.0972 210.62 18.1945 206.101 14.5535 202.213C13.9218 201.545 13.2473 200.919 12.5343 200.338C12.226 200.072 11.9298 199.812 11.6759 199.607L10.9263 199.069C10.4558 198.71 9.95631 198.39 9.43303 198.114C9.3484 198.229 11.5429 199.522 14.3117 202.466C17.8336 206.392 20.6592 210.89 22.6665 215.766C23.8275 218.423 24.8071 221.156 25.5985 223.946C26.2633 226.218 26.8141 228.522 27.2489 230.85C27.6116 232.839 27.8535 234.477 27.9502 235.589C27.976 236.179 28.0488 236.765 28.1678 237.342Z" fill="#E0E0E0"/>
<path d="M13.6831 259.929L15.0856 279.171H39.8054L41.2079 259.929H13.6831Z" fill="#EBEBEB"/>
<path d="M44.1523 252.348H11.2954V259.928H44.1523V252.348Z" fill="#EBEBEB"/>
<path d="M11.2954 278.433V280.531H12.843H43.6143V278.433H11.2954Z" fill="#E0E0E0"/>
<path d="M14.3541 284.001L12.8428 280.302H42.4352L40.6699 284.001H14.3541Z" fill="#E0E0E0"/>
<path d="M40.7484 266.215C40.7175 266.28 40.6789 266.341 40.6335 266.397C40.5368 266.524 40.4098 266.687 40.2647 266.886L38.8259 268.7L38.7594 268.785L38.699 268.7L35.1624 263.809H35.3619L31.8797 268.736L31.7709 268.894L31.65 268.748L27.521 263.834H27.7567L27.533 264.124L23.8393 268.748L23.7123 268.906L23.6035 268.742L20.1153 263.815H20.3208L16.0286 268.7L15.956 268.791L15.8956 268.688L14.5535 266.463C14.4084 266.221 14.2996 266.022 14.2089 265.859C14.1633 265.791 14.1268 265.718 14.1001 265.641C14.1567 265.699 14.2054 265.764 14.2452 265.835L14.626 266.409L16.0346 268.628H15.9016L20.1334 263.682L20.2362 263.555L20.3329 263.688L23.8514 268.597H23.6217L27.3033 263.96C27.3819 263.864 27.4605 263.767 27.527 263.676L27.6479 263.525L27.7688 263.67L31.8858 268.597H31.656L35.1745 263.694L35.2772 263.549L35.374 263.694C36.7705 265.683 37.9554 267.37 38.838 268.64H38.711L40.2103 266.826C40.3735 266.639 40.5065 266.487 40.6093 266.361C40.652 266.309 40.6985 266.26 40.7484 266.215Z" fill="#F5F5F5"/>
<path d="M41.5526 259.801C41.5526 259.886 35.356 259.959 27.7206 259.959C20.0852 259.959 13.8887 259.886 13.8887 259.801C13.8887 259.717 20.0792 259.65 27.7206 259.65C35.362 259.65 41.5526 259.717 41.5526 259.801Z" fill="#F5F5F5"/>
<path d="M267.047 285.011C267.047 285.102 208.939 285.168 137.282 285.168C65.6256 285.168 7.50488 285.102 7.50488 285.011C7.50488 284.92 65.6015 284.854 137.282 284.854C208.963 284.854 267.047 284.926 267.047 285.011Z" fill="#263238"/>
<path d="M256.7 33.6513L255.216 31.2373C242.719 10.903 220.124 -1.3564 196.305 0.120041C193.247 0.313479 190.207 0.727396 187.209 1.35857C165.552 5.93484 146.708 22.1127 138.927 42.8249C134.337 55.0073 133.049 69.03 124.331 78.7003C112.988 91.2955 93.7241 91.6804 76.7905 91.1626C59.8568 90.6448 40.5791 91.0856 29.2854 103.716C22.211 111.63 19.9649 122.882 20.5387 133.476C22.0501 161.528 41.8456 186.613 67.0221 199.083C92.1986 211.552 121.839 212.672 149.395 207.186C187.993 199.489 224.701 178.399 246.763 145.812C268.826 113.225 274.382 68.827 256.7 33.6513Z" fill="#EBEBEB"/>
<path d="M76.3439 63.144C79.1948 66.6329 80.7385 71.0075 80.7087 75.513C80.6785 78.0641 80.2069 80.8753 81.6941 82.9489C82.8186 84.5207 84.874 85.3126 85.7869 87.0174C86.8871 89.0668 85.9501 91.6603 86.6272 93.885C87.5824 97.0407 91.2822 98.3647 93.4767 100.825C94.4121 101.913 95.0666 103.214 95.3828 104.614C95.6989 106.013 95.6672 107.469 95.2903 108.853C94.8905 110.232 94.1674 111.496 93.1812 112.539C92.1949 113.582 90.9739 114.374 89.6197 114.851C88.1737 115.421 86.5608 115.394 85.134 114.778C83.6528 114.04 82.7158 112.523 81.9903 111.042C80.5334 108.128 67.7352 92.3797 67.0098 89.1998" fill="#263238"/>
<path d="M67.0339 59.4325C61.7986 58.5861 56.7567 62.0622 54.5622 66.8865C52.3677 71.7107 52.2952 77.1637 52.144 82.4837C51.9929 87.8036 51.606 93.3171 48.9037 97.8753C47.1868 100.771 44.5268 103.316 44.1097 106.647C43.7349 109.634 45.2825 112.644 44.7686 115.613C44.3213 118.2 42.3505 120.449 42.429 123.067C42.5258 126.222 45.7722 128.598 48.9218 128.683C52.0715 128.767 55.0217 127.117 57.4943 125.158C61.5227 121.96 64.7463 117.862 66.907 113.194" fill="#263238"/>
<path d="M58.4196 71.9099C58.2552 70.593 58.357 69.2565 58.7189 67.9796C59.0809 66.7028 59.6957 65.5117 60.5269 64.477C61.358 63.4423 62.3885 62.5851 63.5573 61.9563C64.726 61.3276 66.0092 60.94 67.3306 60.8166C72.6083 60.3088 77.3056 64.2443 78.0975 69.4918C78.7927 74.0923 79.3852 78.7352 79.367 80.4219C79.3005 85.5061 76.3443 87.483 75.1352 88.0815C74.7003 88.2376 74.2507 88.349 73.7932 88.4139V88.4502L74.9176 94.2901C75.4315 98.1169 73.2974 101.545 69.4767 102.083C65.656 102.621 62.6514 99.7008 62.065 95.874L58.4196 71.9099Z" fill="#FFBE9D"/>
<path d="M77.0574 71.7163C76.9727 71.8372 76.3017 71.4805 75.4433 71.6075C74.5848 71.7345 74.0105 72.2544 73.9017 72.1637C73.7928 72.073 73.9017 71.9219 74.1677 71.68C74.4982 71.358 74.9208 71.1467 75.3768 71.0755C75.8241 71.0065 76.2818 71.0828 76.6826 71.2931C76.9848 71.4866 77.0997 71.668 77.0574 71.7163Z" fill="#263238"/>
<path d="M69.4041 73.5784C69.3194 73.6993 68.6484 73.3366 67.7839 73.4636C66.9194 73.5905 66.3572 74.1165 66.2483 74.0258C66.1395 73.9351 66.2483 73.7779 66.5143 73.5422C66.8449 73.2201 67.2675 73.0088 67.7234 72.9376C68.1714 72.8739 68.6281 72.9521 69.0292 73.1613C69.3255 73.3487 69.4464 73.524 69.4041 73.5784Z" fill="#263238"/>
<path d="M72.5413 78.1914C72.9737 77.9834 73.4307 77.831 73.9015 77.738C74.1191 77.6836 74.3186 77.611 74.3367 77.4538C74.3172 77.233 74.2331 77.0227 74.0949 76.8493L73.1942 75.2412C71.9428 72.9923 71.0057 71.1303 71.0964 71.0759C71.1871 71.0215 72.3055 72.817 73.5146 75.0659C73.8229 75.6221 74.1191 76.1541 74.3851 76.6558C74.5608 76.9017 74.6462 77.2006 74.6269 77.5022C74.607 77.5847 74.5682 77.6614 74.5137 77.7265C74.4592 77.7915 74.3903 77.843 74.3126 77.877C74.1947 77.9286 74.0708 77.9652 73.9438 77.9858C73.4872 78.1152 73.0157 78.1843 72.5413 78.1914Z" fill="#263238"/>
<path d="M73.7446 88.4202C73.7446 88.4202 70.4619 89.1759 65.9399 87.2837C65.9399 87.2837 67.8926 91.4853 74.0529 89.992L73.7446 88.4202Z" fill="#EB996E"/>
<path d="M68.9625 71.3237C68.9141 71.5716 68.0375 71.5837 67.0461 71.8557C66.0546 72.1277 65.2748 72.5147 65.1116 72.3272C65.039 72.2366 65.1478 71.9947 65.4441 71.7227C65.8429 71.3815 66.3142 71.1357 66.8222 71.0037C67.3302 70.8717 67.8616 70.8571 68.3761 70.961C68.7751 71.0517 68.9625 71.2088 68.9625 71.3237Z" fill="#263238"/>
<path d="M76.35 69.8122C76.2291 70.0298 75.6064 69.915 74.893 70.0056C74.1797 70.0963 73.5933 70.3321 73.424 70.1447C73.3514 70.054 73.424 69.8485 73.6537 69.6248C73.9707 69.3437 74.3686 69.1702 74.7903 69.1291C75.2067 69.0789 75.6285 69.1569 75.9993 69.3527C76.2895 69.516 76.4044 69.7034 76.35 69.8122Z" fill="#263238"/>
<path d="M67.5359 74.6906C67.5491 74.7842 67.5809 74.8741 67.6292 74.9553C67.6776 75.0365 67.7416 75.1073 67.8175 75.1635C67.8935 75.2198 67.9798 75.2604 68.0716 75.283C68.1633 75.3056 68.2586 75.3097 68.352 75.2951C68.4428 75.2847 68.5306 75.2563 68.6103 75.2116C68.69 75.1669 68.76 75.1068 68.8162 75.0348C68.8725 74.9628 68.9139 74.8803 68.938 74.7921C68.962 74.704 68.9684 74.6119 68.9565 74.5213C68.9282 74.3331 68.8263 74.1638 68.6734 74.0504C68.5204 73.9371 68.3287 73.8891 68.1404 73.9168C68.0493 73.9264 67.9611 73.9543 67.881 73.9988C67.8009 74.0432 67.7305 74.1034 67.6741 74.1755C67.6177 74.2477 67.5764 74.3305 67.5527 74.419C67.5289 74.5075 67.5232 74.5999 67.5359 74.6906Z" fill="#263238"/>
<path d="M75.1594 73.0402C75.1878 73.2285 75.2896 73.3978 75.4426 73.5111C75.5955 73.6244 75.7872 73.6725 75.9755 73.6448C76.0663 73.6343 76.1541 73.6059 76.2338 73.5612C76.3135 73.5165 76.3835 73.4564 76.4398 73.3844C76.496 73.3124 76.5374 73.2299 76.5615 73.1418C76.5856 73.0536 76.5919 72.9616 76.5801 72.8709C76.5517 72.6827 76.4499 72.5134 76.2969 72.4C76.1439 72.2867 75.9523 72.2387 75.7639 72.2664C75.6728 72.2761 75.5846 72.3039 75.5045 72.3484C75.4244 72.3928 75.354 72.453 75.2976 72.5252C75.2412 72.5974 75.1999 72.6802 75.1762 72.7686C75.1524 72.8571 75.1467 72.9495 75.1594 73.0402Z" fill="#263238"/>
<path d="M73.8956 79.8596C73.6583 79.7857 73.4026 79.7973 73.1729 79.8923C72.9432 79.9872 72.754 80.1596 72.6382 80.3795C72.5275 80.5814 72.4825 80.8128 72.5096 81.0415C72.5367 81.2701 72.6345 81.4846 72.7893 81.6551C72.9541 81.8169 73.171 81.9149 73.4014 81.9315C73.6317 81.9481 73.8605 81.8823 74.0467 81.7458C74.2799 81.5334 74.4209 81.2384 74.4397 80.9236C74.4807 80.6349 74.4117 80.3414 74.2462 80.1014C74.1613 79.984 74.0401 79.8979 73.9013 79.8564C73.7625 79.8149 73.6139 79.8202 73.4785 79.8717" fill="#EB996E"/>
<path d="M77.426 65.3505C76.9515 63.4351 75.7674 61.7713 74.1131 60.6955C72.759 59.7175 71.1506 59.1526 69.4823 59.0693C67.8037 58.997 66.1647 59.5926 64.9241 60.7257C64.0437 61.5983 63.5402 62.7811 63.5215 64.0205L63.6183 63.1741C63.3642 63.8628 63.3642 64.6195 63.6183 65.3082C63.7573 65.677 63.9266 66.0518 64.0717 66.4205C64.5045 67.4862 65.3073 68.3599 66.3326 68.881C66.797 69.1301 67.3171 69.257 67.844 69.2498C68.1078 69.2445 68.3672 69.1817 68.6043 69.0658C68.8413 68.9499 69.0502 68.7837 69.2163 68.5788C69.5917 67.9234 69.7081 67.1514 69.5428 66.4145C69.9395 67.1427 70.5055 67.7647 71.1932 68.2281C71.5443 68.4525 71.9619 68.5491 72.3759 68.5018C72.7899 68.4544 73.1749 68.266 73.4663 67.9682C73.962 67.3636 73.7685 66.4084 73.4663 65.6588C73.934 66.3659 74.5891 66.9289 75.3585 67.285C75.5609 67.4012 75.7853 67.474 76.0173 67.499C76.2494 67.524 76.4841 67.5005 76.7066 67.4301C76.8845 67.3419 77.0401 67.2144 77.1615 67.0574C77.283 66.9003 77.3672 66.7177 77.4079 66.5233C77.4976 66.1382 77.5038 65.7382 77.426 65.3505Z" fill="#263238"/>
<path d="M73.0554 66.9585C73.001 66.9585 73.0131 66.2391 72.7773 65.1449C72.5053 63.6909 71.7743 62.3623 70.6916 61.3544C70.0966 60.8133 69.3786 60.4252 68.5999 60.2239C67.9621 60.0674 67.298 60.0509 66.6533 60.1755C66.059 60.3144 65.4914 60.5493 64.9727 60.8708C64.9727 60.8708 65.0754 60.7196 65.3414 60.5262C65.7232 60.2591 66.1518 60.0664 66.6049 59.9579C67.2829 59.7992 67.9884 59.7992 68.6664 59.9579C69.5018 60.1665 70.2711 60.5823 70.9032 61.167C72.0369 62.2165 72.7771 63.6224 73.001 65.1509C73.0729 65.6028 73.1093 66.0596 73.1098 66.5172C73.1173 66.6663 73.0989 66.8156 73.0554 66.9585Z" fill="#455A64"/>
<path d="M128.734 137.443L105.489 128.223C105.489 128.223 93.5856 112.608 93.8335 112.306L85.4727 121.458L97.624 137.896L125.79 144.498L130.626 143.155C129.562 138.023 128.734 137.443 128.734 137.443Z" fill="#FFBE9D"/>
<path d="M78.0731 92.8937L74.9053 91.6846L61.2305 93.4196V95.8378L60.8376 95.8861C57.8898 96.5129 55.0625 97.6111 52.4647 99.1386C50.0312 100.624 48.0977 102.803 46.9127 105.397C45.7276 107.99 45.3453 110.878 45.8147 113.69C46.3709 117.148 47.447 121.349 49.5266 123.78C53.4984 128.429 57.1257 122.686 57.1257 122.686C57.1257 122.686 59.6164 128.368 59.4713 131.058C59.3504 133.313 58.359 138.005 58.0386 139.468C58.0254 139.526 58.0243 139.587 58.0353 139.646C58.0463 139.704 58.0692 139.76 58.1026 139.81C58.1359 139.86 58.1791 139.903 58.2294 139.935C58.2797 139.968 58.3362 139.99 58.3952 140L87.244 145.338L87.3831 138.283L86.4642 109.265L85.1644 97.996C85.1644 97.996 85.2067 92.6156 78.0731 92.8937Z" fill="#3BAE49"/>
<path d="M84.7231 96.1221L95.7258 112.015L86.8693 122.801L84.7231 96.1221Z" fill="#3BAE49"/>
<path d="M87.0988 129.565C87.0593 129.224 87.0452 128.88 87.0565 128.537C87.0565 127.824 87.0565 126.887 87.0202 125.744C86.9667 122.678 86.7467 119.616 86.3613 116.573C85.9079 113.006 85.2126 109.821 84.6867 107.505L84.0459 104.785C83.953 104.456 83.8843 104.12 83.8403 103.781C83.9778 104.095 84.0871 104.421 84.1668 104.754C84.3542 105.359 84.6081 106.308 84.8983 107.457C85.6788 110.44 86.2725 113.468 86.6756 116.525C87.0643 119.58 87.2541 122.658 87.2439 125.738C87.2439 126.947 87.2137 127.878 87.1774 128.537C87.1805 128.881 87.1542 129.225 87.0988 129.565Z" fill="#263238"/>
<path d="M60.0152 105.402C60.0152 105.45 59.181 105.444 57.8449 105.511C56.1017 105.605 54.3679 105.829 52.6579 106.182C50.9484 106.54 49.2674 107.023 47.6281 107.626C46.3707 108.092 45.615 108.437 45.5908 108.388C45.7458 108.267 45.9166 108.167 46.0986 108.092C46.4311 107.911 46.9269 107.681 47.5495 107.421C50.8117 106.074 54.2979 105.352 57.8268 105.293C58.5039 105.293 59.0359 105.293 59.4288 105.329C59.6269 105.323 59.8247 105.347 60.0152 105.402Z" fill="#FAFAFA"/>
<path d="M85.497 112.674C85.0548 112.835 84.5934 112.936 84.1246 112.976C81.8892 113.303 79.6244 113.38 77.3719 113.206C76.9015 113.198 76.4341 113.129 75.9814 113.001C76.448 112.959 76.9174 112.959 77.384 113.001C78.2424 113.001 79.4334 113.001 80.7452 113.001C82.0571 113.001 83.242 112.868 84.1005 112.789C84.5615 112.708 85.0289 112.67 85.497 112.674Z" fill="#FAFAFA"/>
<path d="M90.545 105.486C89.8786 106.256 89.0802 106.901 88.1872 107.39C87.3443 107.96 86.4037 108.37 85.4124 108.599C85.3761 108.515 86.6215 107.995 88.024 107.1C89.4266 106.205 90.4845 105.413 90.545 105.486Z" fill="#FAFAFA"/>
<path d="M86.1015 98.1172C84.1941 99.8329 81.7639 100.855 79.2036 101.019C79.2036 100.922 80.8661 100.668 82.7765 99.8522C84.6868 99.0361 86.041 98.0386 86.1015 98.1172Z" fill="#FAFAFA"/>
<path d="M86.6996 124.983C86.5218 125.103 86.3312 125.202 86.1314 125.279C85.7505 125.461 85.2004 125.684 84.4991 125.944C82.6772 126.599 80.7964 127.077 78.8829 127.371C76.9695 127.666 75.0317 127.774 73.0974 127.691C72.3538 127.661 71.7553 127.607 71.3442 127.552C71.129 127.538 70.9161 127.5 70.7095 127.437C70.7095 127.383 71.6284 127.437 73.1276 127.474C76.9713 127.51 80.7954 126.922 84.4507 125.733C85.8291 125.279 86.6815 124.935 86.6996 124.983Z" fill="#FAFAFA"/>
<path d="M86.9235 133.174C86.9235 133.174 86.8388 133.235 86.6635 133.325L85.8897 133.664C85.2247 133.978 84.2393 134.389 83.006 134.873C81.7727 135.357 80.2795 135.822 78.5989 136.282C74.9452 137.265 71.1949 137.847 67.4148 138.017C65.6738 138.083 64.108 138.077 62.7901 138.017C61.4722 137.956 60.4142 137.859 59.6827 137.757L58.8424 137.642C58.7434 137.635 58.6459 137.614 58.5522 137.581C58.6504 137.566 58.7503 137.566 58.8485 137.581L59.6948 137.636C60.4263 137.696 61.5085 137.757 62.7961 137.793C64.0838 137.829 65.6738 137.793 67.4028 137.733C69.1317 137.672 71.03 137.454 73.0069 137.128C74.9837 136.802 76.8457 136.409 78.5264 135.985C80.207 135.562 81.6942 135.085 82.9274 134.643C84.1607 134.202 85.1642 133.833 85.8413 133.555L86.6272 133.247C86.7232 133.212 86.8224 133.188 86.9235 133.174Z" fill="#FAFAFA"/>
<path d="M33.8991 261.694L30.6285 276.463L24.6617 287.399C24.5602 287.586 24.4981 287.791 24.4793 288.003C24.4604 288.214 24.4852 288.428 24.552 288.629C24.6189 288.831 24.7264 289.017 24.868 289.176C25.0096 289.334 25.1821 289.462 25.375 289.551C25.599 289.654 25.8443 289.701 26.0904 289.69C26.3366 289.678 26.5764 289.608 26.7897 289.484C29.5585 287.888 39.7208 281.946 39.8962 280.852C40.1078 279.588 44.3819 265.502 44.3819 265.502L33.8991 261.694Z" fill="#3BAE49"/>
<g opacity="0.6">
<path d="M25.375 289.551L40.144 279.879L39.9868 280.483C39.8576 281.023 39.5404 281.499 39.0921 281.825C37.883 282.69 34.5157 285.011 26.838 289.497C26.6176 289.626 26.3686 289.699 26.1133 289.708C25.8581 289.718 25.6044 289.664 25.375 289.551Z" fill="white"/>
</g>
<g opacity="0.6">
<path d="M38.2879 274.383C38.0746 274.472 37.9017 274.637 37.8024 274.845C37.7031 275.054 37.6844 275.292 37.7499 275.514C37.8306 275.729 37.9908 275.906 38.1977 276.007C38.4046 276.108 38.6424 276.127 38.8622 276.058C39.0906 275.963 39.2755 275.787 39.3806 275.563C39.4857 275.34 39.5035 275.085 39.4305 274.849C39.3234 274.635 39.1385 274.47 38.9137 274.388C38.6889 274.306 38.4412 274.313 38.2214 274.407" fill="white"/>
</g>
<path d="M30.3083 283.953C30.0644 283.41 29.7221 282.916 29.2987 282.497C28.811 282.157 28.2633 281.913 27.6846 281.777C27.6846 281.735 27.8962 281.668 28.2528 281.705C28.717 281.764 29.1538 281.958 29.5103 282.261C29.8695 282.552 30.1345 282.943 30.272 283.385C30.3748 283.73 30.3446 283.953 30.3083 283.953Z" fill="#263238"/>
<path d="M28.7783 285.664C28.6937 285.713 28.337 285.12 27.6297 284.715C27.1785 284.506 26.714 284.326 26.2393 284.177C26.5002 284.092 26.7778 284.069 27.0491 284.113C27.3203 284.156 27.5774 284.263 27.799 284.425C28.603 284.89 28.863 285.646 28.7783 285.664Z" fill="#263238"/>
<path d="M32.8714 281.91C32.3574 281.339 31.7995 280.81 31.2029 280.326C30.5456 279.925 29.8584 279.576 29.1475 279.28C29.9651 279.264 30.7621 279.538 31.3964 280.054C32.0957 280.475 32.6195 281.134 32.8714 281.91Z" fill="#263238"/>
<path d="M34.2438 277.503C34.1834 277.581 33.4519 277.043 32.4302 276.747C31.4085 276.451 30.4836 276.499 30.4775 276.396C31.1504 276.222 31.8579 276.233 32.5251 276.428C33.1923 276.622 33.7945 276.994 34.268 277.503H34.2438Z" fill="#263238"/>
<path d="M35.3138 273.192C34.724 272.828 34.0875 272.545 33.4215 272.352C32.7355 272.259 32.04 272.259 31.354 272.352C31.354 272.316 31.5414 272.171 31.9283 272.056C32.4369 271.918 32.9707 271.901 33.4872 272.006C34.0036 272.11 34.4884 272.335 34.9027 272.66C35.211 272.951 35.3379 273.168 35.3138 273.192Z" fill="#263238"/>
<path d="M33.6454 271.536C33.6459 271.344 33.6871 271.154 33.7663 270.98C33.9376 270.481 34.2092 270.022 34.5643 269.631C34.7967 269.322 35.1235 269.097 35.4953 268.991C35.6219 268.97 35.7518 268.988 35.8682 269.041C35.9846 269.095 36.0822 269.183 36.1482 269.293C36.2593 269.518 36.283 269.777 36.2147 270.018C36.0597 270.503 35.741 270.919 35.3131 271.195C34.8852 271.471 34.3747 271.589 33.8691 271.53C33.3705 271.459 32.9041 271.242 32.5287 270.906C32.1532 270.57 31.8855 270.131 31.7593 269.644C31.7302 269.52 31.7276 269.391 31.7516 269.266C31.7755 269.141 31.8255 269.022 31.8983 268.918C31.9818 268.821 32.0942 268.752 32.2192 268.723C32.3442 268.694 32.4753 268.705 32.5935 268.755C32.9352 268.925 33.2269 269.182 33.4399 269.498C33.7603 269.918 34.0039 270.391 34.1593 270.895C34.2329 271.075 34.2679 271.269 34.2621 271.463C34.0183 270.811 33.678 270.2 33.2525 269.65C33.0543 269.391 32.7973 269.184 32.5028 269.045C32.4381 269.017 32.366 269.011 32.2973 269.027C32.2286 269.043 32.1671 269.081 32.122 269.136C32.0797 269.207 32.0526 269.286 32.0422 269.368C32.0318 269.45 32.0384 269.534 32.0615 269.613C32.1876 270.024 32.427 270.39 32.7522 270.67C33.0773 270.95 33.4749 271.133 33.8993 271.197C34.3269 271.247 34.7587 271.15 35.1243 270.923C35.4899 270.696 35.7677 270.351 35.9125 269.946C35.971 269.782 35.971 269.602 35.9125 269.438C35.8782 269.376 35.8253 269.326 35.7614 269.296C35.6974 269.266 35.6255 269.256 35.5558 269.269C35.2407 269.355 34.96 269.537 34.7517 269.789C34.288 270.305 33.914 270.896 33.6454 271.536Z" fill="#263238"/>
<g opacity="0.3">
<path d="M33.4998 263.296L32.7925 266.682L43.4868 268.459L44.3816 265.503L33.8807 261.694L33.4998 263.296Z" fill="black"/>
</g>
<path d="M81.6581 267.159L80.7755 278.96C80.7755 278.96 92.4794 283.796 92.5278 286.021L69.5552 285.132L70.1597 266.681L81.6581 267.159Z" fill="#3BAE49"/>
<g opacity="0.6">
<path d="M73.7326 277.69C73.5096 277.75 73.3163 277.889 73.1893 278.082C73.0623 278.275 73.0104 278.507 73.0434 278.736C73.0943 278.961 73.2288 279.158 73.4197 279.287C73.6106 279.416 73.8435 279.468 74.0711 279.431C74.3082 279.368 74.5136 279.22 74.6476 279.014C74.7816 278.809 74.8347 278.561 74.7966 278.319C74.7202 278.089 74.558 277.898 74.3439 277.785C74.1298 277.673 73.8804 277.647 73.6479 277.714" fill="white"/>
</g>
<g opacity="0.6">
<path d="M69.5669 285.132L69.6999 283.27L91.675 284.8C91.675 284.8 92.6846 285.283 92.5395 286.009L69.5669 285.132Z" fill="white"/>
</g>
<path d="M81.1625 278.857C81.1625 278.972 80.5942 279.002 80.032 279.34C79.4698 279.679 79.1554 280.138 79.0526 280.09C78.9499 280.042 79.1433 279.401 79.8325 279.002C80.5217 278.603 81.1927 278.754 81.1625 278.857Z" fill="#263238"/>
<path d="M83.5322 279.963C83.5322 280.078 83.0606 280.248 82.6616 280.707C82.2626 281.166 82.1357 281.662 82.0208 281.656C81.906 281.65 81.8636 281.009 82.3715 280.447C82.8793 279.885 83.5322 279.842 83.5322 279.963Z" fill="#263238"/>
<path d="M84.7896 282.883C84.6868 282.883 84.5538 282.333 84.8621 281.735C85.1705 281.136 85.7085 280.906 85.7508 281.003C85.7931 281.1 85.4606 281.414 85.2128 281.91C84.9649 282.406 84.8984 282.877 84.7896 282.883Z" fill="#263238"/>
<path d="M81.0535 276.149C81.0051 276.245 80.4973 276.07 79.8444 276.088C79.1915 276.106 78.7078 276.288 78.6353 276.191C78.5628 276.094 79.0706 275.713 79.8444 275.701C80.6182 275.689 81.126 276.064 81.0535 276.149Z" fill="#263238"/>
<g opacity="0.3">
<path d="M81.4949 269.499L81.3377 271.603L70.063 271.059L70.1416 268.629L81.4949 269.499Z" fill="black"/>
</g>
<path d="M81.2047 273.761C80.8249 273.853 80.4269 273.836 80.0561 273.713C79.637 273.625 79.2307 273.485 78.847 273.295C78.6232 273.185 78.4071 273.06 78.2001 272.921C78.0739 272.843 77.9599 272.747 77.8616 272.636C77.7949 272.55 77.7588 272.444 77.7588 272.334C77.7588 272.225 77.7949 272.119 77.8616 272.032C77.9204 271.955 77.9966 271.894 78.0839 271.853C78.1712 271.812 78.267 271.793 78.3634 271.796C78.509 271.802 78.6532 271.826 78.7926 271.869C79.0345 271.939 79.2693 272.032 79.4939 272.147C79.8756 272.333 80.2247 272.58 80.5276 272.878C81.0415 273.392 81.2047 273.821 81.1685 273.839C81.1322 273.858 80.8722 273.513 80.3463 273.084C80.0375 272.842 79.7005 272.639 79.3427 272.479C79.1294 272.391 78.9115 272.314 78.6898 272.25C78.448 272.177 78.2425 272.171 78.176 272.25C78.1095 272.328 78.176 272.31 78.176 272.383C78.2485 272.462 78.3319 272.532 78.4238 272.588C78.6178 272.723 78.8196 272.846 79.0284 272.957C79.377 273.149 79.7435 273.307 80.1226 273.428C80.4908 273.513 80.8524 273.624 81.2047 273.761Z" fill="#263238"/>
<path d="M81.0533 273.918C80.8524 273.579 80.7616 273.186 80.7933 272.793C80.7957 272.368 80.8651 271.946 80.9988 271.542C81.0856 271.305 81.1928 271.077 81.3193 270.859C81.3872 270.709 81.4923 270.58 81.6246 270.482C81.7569 270.385 81.9119 270.323 82.0749 270.303C82.1782 270.309 82.2773 270.345 82.3609 270.406C82.4444 270.467 82.5088 270.551 82.5465 270.647C82.599 270.783 82.6316 270.925 82.6432 271.07C82.6829 271.327 82.6829 271.588 82.6432 271.844C82.5624 272.271 82.3776 272.672 82.1052 273.011C81.6336 273.615 81.1621 273.706 81.15 273.67C81.1379 273.634 81.5127 273.41 81.8815 272.848C82.0931 272.527 82.2314 272.164 82.2865 271.784C82.3171 271.563 82.3171 271.339 82.2865 271.119C82.2563 270.877 82.1717 270.671 82.081 270.696C81.9903 270.72 81.7666 270.865 81.6638 271.058C81.5458 271.252 81.4428 271.454 81.3555 271.663C81.2156 272.028 81.1261 272.41 81.0895 272.799C81.0109 273.476 81.1137 273.918 81.0533 273.918Z" fill="#263238"/>
<path d="M57.9117 139.89C57.9117 139.89 54.2845 140.054 51.8663 152.459C49.4481 164.864 31.0156 265.381 31.0156 265.381L44.3821 265.502L69.5673 169.936L67.8927 268.477L81.4708 269.516C81.4708 269.516 91.6573 160.523 91.748 154.182C91.8689 146.274 87.3288 138.276 87.3288 138.276L57.9117 139.89Z" fill="#263238"/>
<path d="M76.2835 138.832C76.3681 138.832 74.9776 145.936 73.1822 154.659C71.3867 163.383 69.8632 170.444 69.7786 170.426C69.6939 170.408 71.0783 163.323 72.8738 154.599C74.6693 145.875 76.217 138.814 76.2835 138.832Z" fill="#455A64"/>
<path d="M78.3634 140.604C78.3634 140.568 78.7261 140.459 79.1432 140.828C79.2617 140.935 79.3555 141.067 79.4181 141.214C79.4807 141.362 79.5107 141.521 79.506 141.68C79.4908 141.883 79.4186 142.076 79.2976 142.239C79.1767 142.402 79.012 142.527 78.8228 142.599C78.6382 142.683 78.4338 142.713 78.2329 142.687C78.032 142.66 77.8426 142.577 77.6863 142.448C77.5694 142.339 77.4771 142.205 77.4156 142.057C77.3541 141.909 77.3248 141.75 77.3296 141.59C77.3296 141.034 77.7044 140.84 77.7105 140.876C77.6085 141.098 77.555 141.339 77.5533 141.584C77.5614 141.706 77.5939 141.826 77.6489 141.936C77.7039 142.046 77.7804 142.144 77.8737 142.224C77.993 142.307 78.131 142.358 78.2751 142.373C78.4192 142.388 78.5647 142.366 78.6984 142.31C78.832 142.254 78.9494 142.165 79.0398 142.052C79.1302 141.939 79.1907 141.805 79.2158 141.662C79.2247 141.54 79.2089 141.417 79.1695 141.3C79.13 141.184 79.0677 141.077 78.9861 140.985C78.6898 140.641 78.3573 140.653 78.3634 140.604Z" fill="#455A64"/>
<path d="M77.7886 145.513C77.7886 145.477 78.1635 145.513 78.3932 146.015C78.4516 146.158 78.4781 146.312 78.4708 146.467C78.4635 146.621 78.4225 146.773 78.3509 146.91C78.2469 147.073 78.1005 147.204 77.9274 147.29C77.7543 147.376 77.561 147.413 77.3684 147.398C77.1757 147.382 76.9909 147.315 76.8338 147.202C76.6767 147.089 76.5533 146.936 76.4768 146.759C76.4285 146.613 76.4126 146.458 76.4304 146.306C76.4482 146.153 76.4991 146.007 76.5796 145.876C76.8637 145.422 77.2506 145.435 77.2385 145.471C77.2264 145.507 76.9483 145.592 76.773 145.979C76.6843 146.196 76.6843 146.439 76.773 146.656C76.8361 146.776 76.9286 146.878 77.0417 146.952C77.1548 147.027 77.285 147.072 77.4202 147.083C77.5553 147.094 77.691 147.07 77.8146 147.015C77.9382 146.959 78.0457 146.873 78.1272 146.765C78.2411 146.558 78.2693 146.315 78.2058 146.087C78.0305 145.676 77.7584 145.555 77.7886 145.513Z" fill="#455A64"/>
<path d="M64.9789 140.725C64.954 140.932 64.9012 141.136 64.8217 141.329C64.6329 141.883 64.3962 142.419 64.1144 142.931C63.192 144.642 61.8598 146.096 60.2371 147.165C58.6144 148.234 56.7519 148.883 54.8165 149.055C54.2352 149.106 53.6507 149.106 53.0694 149.055C52.8646 149.049 52.6614 149.016 52.4648 148.959C52.4648 148.898 53.3777 149.001 54.8226 148.82C56.7057 148.591 58.5101 147.929 60.094 146.885C61.678 145.841 62.9983 144.445 63.9512 142.804C64.6585 141.583 64.9245 140.707 64.9789 140.725Z" fill="#455A64"/>
<path d="M90.9858 149.546C90.9858 149.546 90.8286 149.473 90.5807 149.304C90.2344 149.055 89.9108 148.776 89.6135 148.47C88.6193 147.463 87.8435 146.262 87.3348 144.942C86.8261 143.622 86.5955 142.211 86.6573 140.798C86.6711 140.372 86.7258 139.949 86.8205 139.534C86.887 139.238 86.9293 139.081 86.9535 139.087C86.9777 139.093 86.8809 139.746 86.8809 140.804C86.8819 143.581 87.9139 146.259 89.7767 148.318C90.484 149.098 91.016 149.497 90.9858 149.546Z" fill="#455A64"/>
<path d="M137.881 149.896C138.08 149.412 138.026 149.606 134.822 147.478C134.822 147.478 139.416 150.501 138.939 149.062C138.525 148.517 138.02 148.048 137.445 147.677C138.654 148.391 139.356 148.469 139.567 148.179C139.93 147.677 137.3 145.761 136.049 144.897C137.193 145.715 138.393 146.452 139.64 147.103C140.383 147.333 140.027 146.462 139.525 145.828C139.023 145.193 135.13 141.445 134.084 140.326C133.985 140.241 133.905 140.135 133.85 140.016C133.795 139.897 133.767 139.768 133.767 139.637C133.767 139.506 133.795 139.377 133.85 139.258C133.905 139.139 133.985 139.033 134.084 138.948C135.958 137.739 136.78 135.81 136.756 135.175C136.735 135.033 136.67 134.9 136.569 134.797C136.468 134.693 136.337 134.625 136.195 134.6C136.052 134.576 135.906 134.598 135.776 134.662C135.647 134.726 135.541 134.83 135.475 134.958C135.001 135.546 134.45 136.067 133.836 136.505C133.36 136.877 132.825 137.165 132.252 137.358C131.587 137.576 128.317 137.394 127.616 137.037L125.385 144.6C125.385 144.6 133.48 148.385 135.015 149.122C136.901 150.017 137.742 150.265 137.881 149.896Z" fill="#FFBE9D"/>
<path d="M133.365 146.359C133.298 146.45 134.35 147.218 135.71 148.082C137.071 148.947 138.213 149.569 138.268 149.479C138.322 149.388 137.27 148.614 135.916 147.756C134.562 146.897 133.425 146.244 133.365 146.359Z" fill="#EB996E"/>
<path d="M134.126 144.879C134.066 144.969 135.142 145.852 136.545 146.855C137.947 147.859 139.108 148.603 139.168 148.518C139.229 148.433 138.159 147.545 136.75 146.541C135.342 145.538 134.193 144.794 134.126 144.879Z" fill="#EB996E"/>
<path d="M134.93 143.379C134.87 143.463 135.873 144.322 137.173 145.289C138.473 146.256 139.591 146.97 139.64 146.885C139.688 146.801 138.703 145.942 137.403 144.975C136.103 144.008 134.997 143.294 134.93 143.379Z" fill="#EB996E"/>
<path d="M52.5978 115.987L58.5344 116.313C58.9549 117.971 59.5172 119.589 60.215 121.15C64.997 112.855 68.6786 101.738 69.6217 97.2703C69.4887 96.831 69.3255 96.3353 69.132 95.7832C68.9872 94.9485 69.0119 94.0932 69.2046 93.2683C69.3678 92.2768 69.6459 90.9347 69.7245 90.3181C69.9844 88.4319 70.2867 88.1297 70.9336 88.3473C71.8283 88.6375 70.5648 93.6491 71.2963 93.758C71.6953 93.8124 72.1729 92.0955 72.318 90.6869C72.4631 89.2783 73.0918 84.9498 73.5573 84.6415C74.2404 84.2183 74.8329 84.8893 74.6636 86.2919C74.4943 87.6944 74.2707 91.9443 75.0142 91.9987C75.7578 92.0531 76.3624 84.8712 76.3624 84.8712C76.3624 84.8712 76.2475 83.3115 77.106 83.3477C78.6596 83.4142 77.4506 90.9892 77.3176 91.7086C77.2208 92.2043 78.0309 92.3131 78.1035 91.7569C78.176 91.2007 78.5508 84.5689 80.1287 84.6233C81.3378 84.6656 79.1916 90.8622 79.8748 92.301C80.5579 93.7398 81.0295 87.4223 82.1902 87.507C82.6194 87.5433 82.9398 87.6279 82.1479 91.2007C81.375 94.0418 80.4486 96.8389 79.373 99.5797C77.5594 109.494 69.4645 141.208 56.8175 135.405C49.7444 132.158 46.4375 116.06 46.4375 116.06L52.5978 115.987Z" fill="#FFBE9D"/>
<path d="M79.3849 99.6341C79.3953 99.5592 79.4156 99.486 79.4453 99.4165C79.4997 99.2593 79.5662 99.0537 79.6569 98.8119C79.8564 98.2376 80.1285 97.4396 80.4851 96.3938C80.8418 95.3479 81.271 94.0783 81.6942 92.5791C81.9119 91.8355 82.0932 91.0254 82.2565 90.1609C82.3411 89.7256 82.4197 89.2783 82.4741 88.8188C82.4892 88.5914 82.4892 88.3632 82.4741 88.1357C82.4741 87.8999 82.4197 87.7065 82.2323 87.7004C82.0449 87.6944 81.9119 87.8092 81.7789 88.0087C81.6585 88.2222 81.5592 88.447 81.4826 88.6798C81.3134 89.1574 81.1804 89.6652 81.0474 90.1791C80.9144 90.6929 80.7935 91.231 80.6363 91.7751C80.5677 92.0731 80.4448 92.3559 80.2736 92.6093C80.2305 92.6589 80.1737 92.6947 80.1103 92.7121C80.0704 92.7209 80.029 92.7205 79.9893 92.7111C79.9495 92.7017 79.9123 92.6834 79.8806 92.6577C79.8111 92.594 79.7538 92.5182 79.7113 92.434C79.6475 92.2855 79.6047 92.1288 79.5844 91.9685C79.5568 90.7491 79.6786 89.531 79.9471 88.3412C80.0499 87.7367 80.1587 87.1322 80.2373 86.5276C80.2735 86.2193 80.3098 85.9231 80.3159 85.5966C80.3219 85.2702 80.2736 84.9256 80.1466 84.8712C80.0196 84.8168 79.7113 84.986 79.5421 85.2399C79.3749 85.5081 79.2429 85.7966 79.1491 86.0984C78.943 86.7299 78.7873 87.3768 78.6836 88.0329C78.5687 88.6979 78.4781 89.375 78.3995 90.0642C78.3692 90.4088 78.333 90.7534 78.3027 91.104L78.2544 91.63C78.2608 91.7423 78.2425 91.8547 78.2007 91.9591C78.1589 92.0636 78.0947 92.1576 78.0126 92.2345C77.909 92.3102 77.7841 92.3509 77.6559 92.3509C77.5277 92.3509 77.4027 92.3102 77.2992 92.2345C77.2406 92.1958 77.1909 92.145 77.1533 92.0856C77.1158 92.0262 77.0913 91.9595 77.0816 91.8899C77.0724 91.8257 77.0724 91.7606 77.0816 91.6965V91.5695L77.2448 90.5116C77.3476 89.7982 77.4322 89.0848 77.4987 88.3594C77.5652 87.6339 77.6196 86.9024 77.6317 86.1709C77.6671 85.4467 77.5938 84.7212 77.4141 84.0188C77.3724 83.8405 77.2643 83.6848 77.1118 83.5835C77.0389 83.5601 76.9604 83.5603 76.8877 83.5842C76.8149 83.6081 76.7516 83.6544 76.7067 83.7165C76.511 84.0744 76.4308 84.484 76.477 84.8893C76.344 86.31 76.1929 87.7065 75.9873 89.0788C75.8846 89.7619 75.7697 90.4451 75.6004 91.1161C75.5521 91.2793 75.5037 91.4486 75.4433 91.6179C75.3858 91.823 75.2652 92.0049 75.0987 92.1378C75.025 92.1739 74.9413 92.1841 74.8611 92.1665C74.781 92.1489 74.7091 92.1047 74.6573 92.041C74.5835 91.9635 74.5278 91.8706 74.4941 91.769C74.4289 91.6013 74.3823 91.427 74.3551 91.2491C74.2134 89.9335 74.2012 88.6073 74.3188 87.2893C74.4081 86.675 74.4425 86.0539 74.4216 85.4334C74.402 85.1686 74.2807 84.9216 74.083 84.7442C74.0366 84.7154 73.9848 84.6962 73.9308 84.6879C73.8768 84.6796 73.8216 84.6823 73.7687 84.6959C73.7121 84.7149 73.6575 84.7392 73.6054 84.7684C73.551 84.8168 73.5571 84.7684 73.5208 84.8712C73.3022 85.4148 73.1421 85.9803 73.0432 86.5578C72.9223 87.1624 72.8195 87.7125 72.7289 88.2808C72.6382 88.8491 72.5535 89.4052 72.481 89.9614C72.4085 90.5176 72.3722 91.0617 72.2634 91.6058C72.1694 92.1373 72.0278 92.6593 71.8402 93.1655C71.7904 93.2943 71.7318 93.4195 71.6649 93.5403C71.5802 93.6552 71.5319 93.8003 71.3021 93.8728C71.2433 93.8836 71.1827 93.8767 71.1278 93.8531C71.0729 93.8294 71.0263 93.79 70.9938 93.7398C70.9515 93.67 70.919 93.5948 70.8971 93.5161C70.8699 93.3847 70.8537 93.2512 70.8487 93.1171C70.8487 92.0834 70.9878 91.1403 71.0422 90.2274C71.0816 89.791 71.0816 89.352 71.0422 88.9156C71.0422 88.7221 70.9515 88.4924 70.8427 88.4501C70.7665 88.4127 70.6827 88.3933 70.5978 88.3933C70.513 88.3933 70.4292 88.4127 70.353 88.4501C70.0992 88.7226 69.9421 89.0709 69.9056 89.4415C69.815 89.8103 69.7787 90.1851 69.7122 90.5418C69.4583 91.9685 69.1923 93.2018 69.0653 94.2053C69.0057 94.6466 69.0057 95.094 69.0653 95.5353C69.15 95.898 69.2769 96.2245 69.3434 96.4784C69.4099 96.7323 69.4764 96.9137 69.5187 97.0829C69.5412 97.1477 69.5574 97.2145 69.5671 97.2824C69.5309 97.2239 69.5024 97.1609 69.4825 97.095L69.2769 96.4905C69.1923 96.2305 69.0653 95.9403 68.9626 95.5413C68.8979 95.0882 68.8979 94.6282 68.9626 94.1751C69.0774 93.1534 69.3192 91.9322 69.5671 90.4995C69.6336 90.1428 69.6699 89.768 69.7485 89.3811C69.7918 89.1767 69.8462 88.9749 69.9117 88.7765C69.9721 88.5566 70.104 88.3631 70.2865 88.2264C70.3964 88.1682 70.5188 88.1377 70.6432 88.1377C70.7675 88.1377 70.89 88.1682 70.9999 88.2264C71.1181 88.3009 71.2152 88.4045 71.2819 88.5273C71.3485 88.6501 71.3826 88.7879 71.3807 88.9277C71.4231 89.3821 71.4231 89.8395 71.3807 90.2939C71.3384 91.2128 71.1933 92.174 71.2175 93.1534C71.2219 93.2693 71.2361 93.3845 71.2598 93.498C71.2598 93.6129 71.3445 93.6612 71.3324 93.637C71.3203 93.6129 71.4472 93.5403 71.4956 93.4436C71.5552 93.3363 71.6077 93.2252 71.6528 93.1111C71.8318 92.621 71.9634 92.1149 72.0457 91.5997C72.1485 91.0738 72.1848 90.5297 72.2573 89.9675C72.3299 89.4052 72.4024 88.8491 72.4931 88.2747C72.5838 87.7004 72.6865 87.1261 72.8014 86.5397C72.8997 85.9273 73.0702 85.3287 73.3092 84.7563C73.3575 84.6603 73.4306 84.5789 73.5208 84.5205C73.6011 84.4765 73.6864 84.442 73.7747 84.4178C73.8761 84.3888 73.9825 84.3819 74.0868 84.3975C74.1911 84.4132 74.2908 84.451 74.3793 84.5084C74.5195 84.6198 74.6354 84.7589 74.7196 84.917C74.8039 85.0751 74.8547 85.2488 74.8689 85.4274C74.9143 85.7563 74.9143 86.0899 74.8689 86.4188C74.8387 86.7271 74.8085 87.0233 74.7903 87.3619C74.6725 88.6495 74.6847 89.9458 74.8266 91.231C74.8525 91.3836 74.893 91.5334 74.9475 91.6783C74.9657 91.7368 74.9967 91.7905 75.0382 91.8355C75.0382 91.8355 75.0382 91.8355 75.0684 91.8355C75.0684 91.9745 75.0684 91.8355 75.0684 91.8899C75.0684 91.9443 75.0684 91.8899 75.0684 91.8416C75.1439 91.7405 75.203 91.6283 75.2438 91.5091C75.3002 91.3599 75.3485 91.2028 75.3888 91.0375C75.5521 90.3967 75.6609 89.7196 75.7637 89.0425C75.9692 87.6823 76.1203 86.2858 76.2473 84.8712V84.9014C76.1935 84.4031 76.3016 83.9007 76.5556 83.4686C76.6526 83.3451 76.7856 83.2549 76.9362 83.2105C77.0868 83.1661 77.2475 83.1697 77.3959 83.2208C77.5227 83.2911 77.6341 83.3863 77.7234 83.5005C77.8127 83.6147 77.8781 83.7457 77.9158 83.8858C78.1094 84.6291 78.1889 85.3976 78.1516 86.1649C78.1516 86.9145 78.0851 87.6521 78.0186 88.3836C77.9521 89.1151 77.8614 89.8345 77.7587 90.5478C77.7042 90.9105 77.6498 91.2612 77.5954 91.6179C77.5471 91.8415 77.5592 91.8476 77.5954 91.9141C77.6374 91.9424 77.6869 91.9576 77.7375 91.9576C77.7881 91.9576 77.8376 91.9424 77.8796 91.9141C77.9521 91.8597 77.9642 91.7569 77.9823 91.5574L78.0247 91.0315L78.1335 89.9856C78.206 89.2964 78.3027 88.6072 78.4176 87.9362C78.5295 87.2622 78.6911 86.5974 78.9012 85.9473C79.011 85.6187 79.1591 85.3041 79.3426 85.0102C79.4424 84.8518 79.5742 84.7159 79.7295 84.6112C79.8156 84.5489 79.9155 84.5081 80.0207 84.4923C80.1259 84.4765 80.2333 84.4862 80.334 84.5205C80.4266 84.5777 80.5048 84.6554 80.5625 84.7477C80.6201 84.8399 80.6557 84.9443 80.6665 85.0525C80.6914 85.2226 80.7016 85.3946 80.6967 85.5664C80.6967 85.8989 80.6544 86.2193 80.6181 86.5397C80.5335 87.1443 80.4186 87.7851 80.3098 88.3957C80.0502 89.544 79.9244 90.7186 79.935 91.896C79.952 92.0224 79.9845 92.1462 80.0317 92.2647C80.0537 92.3076 80.08 92.3482 80.1103 92.3856C80.1103 92.3856 80.1103 92.3856 80.1103 92.3433C80.2461 92.1248 80.3461 91.886 80.4065 91.636C80.5637 91.11 80.6907 90.5781 80.8297 90.0581C80.9544 89.5408 81.1058 89.0303 81.2831 88.5287C81.3669 88.2802 81.4763 88.0411 81.6096 87.8153C81.6817 87.6922 81.776 87.5836 81.8877 87.4949C81.9485 87.4422 82.021 87.4049 82.0993 87.3861C82.1774 87.3738 82.2569 87.3738 82.335 87.3861C82.4175 87.3943 82.4963 87.4244 82.5633 87.4733C82.6303 87.5222 82.6829 87.5881 82.7159 87.6642C82.7664 87.7912 82.793 87.9265 82.7945 88.0632C82.7992 88.3077 82.785 88.5523 82.7522 88.7947C82.6978 89.2662 82.6071 89.7136 82.5224 90.1549C82.3471 91.0194 82.1537 91.8415 81.9179 92.573C81.4645 94.0723 81.0111 95.3419 80.6423 96.3756C80.2736 97.4094 79.9592 98.1892 79.7476 98.7454C79.6448 98.9993 79.5602 99.1988 79.4997 99.35C79.4727 99.4488 79.4341 99.5442 79.3849 99.6341Z" fill="#EB996E"/>
<path d="M46.3828 116.671C47.5314 120.727 49.7803 126.984 52.1925 133.598C52.2685 133.811 52.4061 133.997 52.5878 134.131C52.7694 134.266 52.987 134.344 53.213 134.355C53.439 134.366 53.6631 134.31 53.8571 134.193C54.051 134.077 54.2059 133.905 54.3023 133.701L60.2148 121.193C60.2148 121.193 58.788 110.915 58.9089 111.284C59.0299 111.653 46.7093 112.614 46.7093 112.614L46.3828 116.671Z" fill="#3BAE49"/>
<path d="M59.7072 114.657C59.7072 114.706 58.9697 114.923 57.8029 115.371C56.278 115.95 54.809 116.666 53.4139 117.511C52.0207 118.36 50.7056 119.331 49.4844 120.413C48.5473 121.241 48.0093 121.809 47.973 121.773C47.9367 121.737 48.0758 121.604 48.3055 121.332C48.6294 120.954 48.9724 120.592 49.3332 120.249C50.5249 119.102 51.8385 118.088 53.2507 117.227C54.6633 116.376 56.163 115.678 57.7243 115.147C58.1962 114.985 58.6765 114.847 59.1631 114.736C59.3391 114.681 59.5228 114.654 59.7072 114.657Z" fill="#FAFAFA"/>
<path d="M62.0526 117.777C61.6684 117.389 61.3353 116.955 61.0611 116.483C60.3551 115.382 59.7482 114.221 59.2475 113.013C58.7465 111.801 58.356 110.547 58.0807 109.265C57.9398 108.74 57.8687 108.2 57.8691 107.657C58.0494 108.164 58.1929 108.683 58.2984 109.21C58.6222 110.462 59.0261 111.692 59.5075 112.892C60.0104 114.086 60.5878 115.247 61.2364 116.368C61.5383 116.82 61.811 117.29 62.0526 117.777Z" fill="#263238"/>
<path d="M65.9943 62.3883C64.9687 64.0787 64.3328 65.9765 64.1331 67.9436C63.9334 69.9107 64.1747 71.8976 64.8396 73.7597C65.4442 75.4222 66.4114 77.0605 66.2361 78.8258C66.0608 80.5911 64.6824 82.3382 65.1661 84.0793C65.4563 85.113 66.3389 85.8929 66.6835 86.8964C67.0764 88.1055 66.6835 89.3811 66.4719 90.6204C65.9883 93.7882 67.0039 96.9741 67.2517 100.166C67.4996 103.358 66.6472 107.1 63.7938 108.491C62.9293 108.914 61.7988 109.035 61.0794 108.388C60.1605 107.572 60.4144 106.097 60.6683 104.888C63.1711 92.7968 55.439 80.9961 57.2042 68.7602C57.4884 66.8014 58.5826 63.4765 59.9912 62.1102C61.3998 60.7439 65.3112 60.9011 66.6412 62.352" fill="#263238"/>
<path d="M54.085 97.4637C54.085 97.4637 54.4537 97.0285 54.9978 96.17C55.7614 94.9576 56.2961 93.6155 56.5757 92.2102C56.7581 91.2422 56.821 90.2555 56.7631 89.2722C56.6573 88.1288 56.615 86.9804 56.6361 85.8323C56.6722 85.2036 56.788 84.582 56.9807 83.9824C57.2017 83.3648 57.481 82.7696 57.815 82.2051C58.4921 81.0625 59.3445 79.9985 60.1304 78.862C60.9374 77.7878 61.4988 76.5496 61.7747 75.2347C61.9088 73.9962 61.8373 72.7441 61.5632 71.5289C61.3344 70.3994 61.2451 69.2462 61.2972 68.0951C61.3691 67.0895 61.5723 66.0977 61.9017 65.1449C62.3635 63.7623 63.0904 62.483 64.0418 61.3786C64.2945 61.0783 64.5693 60.7975 64.864 60.5383C64.9574 60.4387 65.063 60.3514 65.1783 60.2783C65.1783 60.2783 64.7733 60.6713 64.1325 61.4874C62.6062 63.3819 61.7138 65.7081 61.5813 68.1374C61.5408 69.2697 61.6403 70.4027 61.8775 71.5107C62.1659 72.7586 62.2435 74.0459 62.1072 75.3193C61.8207 76.6709 61.243 77.9437 60.4145 79.0494C59.6226 80.204 58.7702 81.262 58.1052 82.3743C57.7781 82.9179 57.5067 83.4932 57.2951 84.0912C57.1038 84.6663 56.988 85.2637 56.9505 85.8686C56.9237 87.004 56.956 88.1401 57.0472 89.2722C57.0952 90.2753 57.0181 91.2806 56.8175 92.2647C56.5146 93.6891 55.9398 95.0418 55.1248 96.2486C54.9041 96.5748 54.6617 96.8859 54.3993 97.1796C54.3053 97.2855 54.1998 97.3808 54.085 97.4637Z" fill="#455A64"/>
<path d="M48.3535 98.365C48.4022 98.224 48.465 98.0883 48.5409 97.96C48.6921 97.6758 48.8855 97.301 49.1455 96.8295C49.6533 95.8441 50.409 94.4113 51.1525 92.5977C52.0621 90.4794 52.5666 88.2095 52.6397 85.9054C52.6401 85.2415 52.5895 84.5786 52.4886 83.9225C52.3858 83.2454 52.2286 82.5623 52.1259 81.8489C52.0001 81.111 52.0166 80.3559 52.1742 79.6242C52.3787 78.8729 52.7991 78.1982 53.3833 77.6836C54.5199 76.6498 55.8922 75.9727 56.6055 74.7576C57.2236 73.5527 57.5878 72.2338 57.6756 70.8825C57.8035 69.6437 58.0837 68.4254 58.5098 67.2552C59.4681 64.7431 61.1754 62.5862 63.4006 61.0768C63.7553 60.838 64.1248 60.622 64.5069 60.43C64.6359 60.3527 64.774 60.2918 64.918 60.2486C64.918 60.2486 64.3739 60.5388 63.4731 61.1796C62.2035 62.0856 61.1044 63.2092 60.2267 64.4985C59.618 65.3823 59.1225 66.3389 58.7517 67.3459C58.3443 68.5189 58.0804 69.7368 57.9657 70.9732C57.7844 72.2609 57.6393 73.6997 56.8655 74.9752C56.0917 76.2508 54.677 76.9763 53.5949 77.998C53.0434 78.4765 52.6459 79.1075 52.4523 79.8116C52.3054 80.5039 52.291 81.2178 52.41 81.9154C52.5067 82.6106 52.6579 83.2998 52.7606 83.9829C52.8652 84.6548 52.9137 85.3343 52.9057 86.0142C52.8236 88.3605 52.2921 90.6693 51.34 92.8153C50.7215 94.2656 50.0191 95.6786 49.2361 97.0471L48.5953 97.9962C48.528 98.1273 48.4469 98.251 48.3535 98.365Z" fill="#455A64"/>
<path d="M248.373 269.19C248.401 269.102 248.437 269.017 248.482 268.936C248.566 268.755 248.681 268.513 248.82 268.205C249.241 267.26 249.578 266.281 249.83 265.279C250.495 262.679 250.73 258.707 249.745 253.992C249.21 251.42 248.509 248.886 247.647 246.405C246.765 243.715 245.731 240.861 244.891 237.772C243.942 234.55 243.483 231.204 243.53 227.846C243.657 224.333 244.697 220.833 245.84 217.339C246.982 213.844 248.161 210.441 248.512 206.995C248.902 203.69 248.237 200.347 246.613 197.443C245.102 194.656 243.198 192.268 241.777 189.802C240.447 187.51 239.467 185.032 238.869 182.45C238.011 178.713 237.948 174.837 238.682 171.073C238.949 169.696 239.354 168.349 239.891 167.053C239.875 167.143 239.85 167.232 239.818 167.319L239.577 168.086C239.371 168.764 239.099 169.779 238.839 171.109C238.163 174.856 238.264 178.702 239.135 182.408C239.742 184.958 240.726 187.403 242.055 189.663C243.476 192.081 245.386 194.499 246.934 197.298C248.597 200.261 249.281 203.674 248.887 207.049C248.53 210.544 247.345 213.983 246.202 217.472C245.06 220.96 244.032 224.424 243.905 227.876C243.851 231.201 244.299 234.515 245.235 237.706C246.063 240.777 247.079 243.63 247.956 246.332C248.809 248.827 249.496 251.376 250.011 253.962C250.972 258.713 250.7 262.728 250.011 265.333C249.741 266.338 249.379 267.315 248.929 268.253L248.554 268.973C248.502 269.052 248.441 269.125 248.373 269.19Z" fill="#263238"/>
<path d="M243.712 192.238C243.712 192.238 240.822 182.982 246.009 177.565C246.049 177.522 246.101 177.49 246.158 177.474C246.215 177.458 246.275 177.458 246.332 177.475C246.39 177.491 246.441 177.523 246.481 177.567C246.521 177.61 246.548 177.664 246.559 177.723C246.837 179.252 247.182 183.907 243.712 192.238Z" fill="#3BAE49"/>
<path d="M245.447 180.649C245.437 181.222 245.373 181.793 245.253 182.354C245.06 183.533 244.836 184.911 244.594 186.434C244.352 187.958 244.129 189.342 243.941 190.515C243.888 191.087 243.787 191.653 243.639 192.208C243.582 191.636 243.594 191.06 243.675 190.491C243.772 189.433 243.959 187.982 244.219 186.386C244.479 184.79 244.764 183.363 244.987 182.317C245.075 181.745 245.23 181.186 245.447 180.649Z" fill="#263238"/>
<path d="M247.109 214.068C247.109 214.068 248.88 204.534 256.002 202.177C256.058 202.157 256.118 202.153 256.176 202.166C256.234 202.179 256.288 202.208 256.33 202.249C256.373 202.291 256.403 202.343 256.418 202.401C256.432 202.458 256.431 202.519 256.413 202.576C255.941 204.045 254.073 208.319 247.109 214.068Z" fill="#3BAE49"/>
<path d="M254.061 204.625C253.785 205.128 253.461 205.604 253.094 206.046L250.597 209.34L248.118 212.647C247.806 213.127 247.452 213.578 247.061 213.995C247.281 213.463 247.565 212.96 247.907 212.496C248.511 211.607 249.334 210.41 250.325 209.123C251.317 207.835 252.217 206.705 252.9 205.882C253.24 205.422 253.629 205 254.061 204.625Z" fill="#263238"/>
<path d="M245.186 237.966C245.186 237.966 244.11 228.33 250.24 224.007C250.288 223.97 250.344 223.948 250.404 223.942C250.464 223.936 250.524 223.948 250.577 223.975C250.631 224.002 250.675 224.044 250.705 224.096C250.736 224.148 250.751 224.207 250.748 224.267C250.73 225.821 250.18 230.452 245.186 237.966Z" fill="#3BAE49"/>
<path d="M249.116 226.921C249.004 227.484 248.831 228.033 248.602 228.559L247.175 232.44C246.643 233.891 246.166 235.203 245.761 236.321C245.606 236.872 245.403 237.408 245.156 237.923C245.212 237.35 245.338 236.786 245.531 236.243C245.827 235.227 246.287 233.825 246.849 232.313C247.411 230.802 247.961 229.442 248.378 228.468C248.571 227.929 248.818 227.41 249.116 226.921Z" fill="#263238"/>
<path d="M250.549 262.014C250.549 262.014 249.824 252.342 256.099 248.243C256.148 248.209 256.205 248.19 256.265 248.187C256.324 248.184 256.384 248.198 256.436 248.227C256.488 248.256 256.531 248.298 256.56 248.35C256.589 248.402 256.603 248.461 256.601 248.521C256.528 250.075 255.815 254.687 250.549 262.014Z" fill="#3BAE49"/>
<path d="M254.853 251.121C254.718 251.679 254.525 252.222 254.279 252.741C253.832 253.841 253.3 255.159 252.713 256.567C252.127 257.976 251.613 259.288 251.166 260.394C250.986 260.94 250.758 261.468 250.482 261.972C250.563 261.4 250.711 260.84 250.924 260.304C251.256 259.3 251.764 257.922 252.381 256.428C252.997 254.935 253.59 253.593 254.043 252.638C254.258 252.105 254.53 251.596 254.853 251.121Z" fill="#263238"/>
<path d="M239.552 184.107C239.552 184.107 230.98 179.609 230.792 172.119C230.792 172.06 230.807 172.003 230.837 171.952C230.867 171.901 230.909 171.859 230.961 171.831C231.012 171.802 231.07 171.788 231.129 171.79C231.188 171.792 231.245 171.81 231.294 171.841C232.57 172.724 236.112 175.771 239.552 184.107Z" fill="#3BAE49"/>
<path d="M232.576 174.694C232.978 175.105 233.337 175.557 233.646 176.042C234.347 177.004 235.163 178.14 236.064 179.392L238.482 182.729C238.85 183.168 239.178 183.639 239.461 184.137C239.019 183.769 238.623 183.349 238.283 182.886C237.599 182.076 236.705 180.915 235.762 179.603C234.819 178.291 233.99 177.076 233.422 176.187C233.089 175.721 232.805 175.22 232.576 174.694Z" fill="#263238"/>
<path d="M248.783 203.978C248.783 203.978 239.933 200.018 239.31 192.54C239.305 192.481 239.317 192.422 239.343 192.37C239.369 192.317 239.41 192.272 239.46 192.241C239.51 192.21 239.567 192.193 239.626 192.192C239.685 192.192 239.743 192.208 239.794 192.238C241.118 193.042 244.836 195.859 248.783 203.978Z" fill="#3BAE49"/>
<path d="M241.257 195.007C241.684 195.391 242.069 195.818 242.406 196.282L245.03 199.48L247.659 202.666C248.053 203.083 248.409 203.534 248.723 204.015C248.26 203.672 247.838 203.276 247.466 202.836C246.741 202.062 245.773 200.962 244.752 199.71C243.73 198.459 242.835 197.292 242.206 196.44C241.838 195.999 241.52 195.518 241.257 195.007Z" fill="#263238"/>
<path d="M243.675 226.159C243.675 226.159 237.63 218.602 240.453 211.65C240.476 211.595 240.513 211.548 240.56 211.513C240.608 211.478 240.664 211.457 240.723 211.452C240.781 211.447 240.84 211.458 240.893 211.485C240.946 211.511 240.99 211.551 241.021 211.601C241.862 212.913 243.875 217.121 243.675 226.159Z" fill="#3BAE49"/>
<path d="M241.063 214.721C241.27 215.258 241.42 215.815 241.511 216.383C241.765 217.544 242.061 218.91 242.387 220.421C242.714 221.933 243.022 223.293 243.276 224.454C243.438 225.005 243.549 225.569 243.609 226.14C243.343 225.626 243.14 225.083 243.004 224.52C242.708 223.499 242.345 222.102 242.007 220.494C241.668 218.886 241.402 217.471 241.233 216.432C241.114 215.869 241.057 215.295 241.063 214.721Z" fill="#263238"/>
<path d="M249.721 252.221C249.721 252.221 240.937 248.116 240.441 240.632C240.435 240.572 240.446 240.512 240.473 240.458C240.499 240.405 240.541 240.359 240.592 240.328C240.643 240.296 240.701 240.28 240.761 240.28C240.821 240.28 240.88 240.298 240.931 240.329C242.23 241.158 245.9 244.041 249.721 252.221Z" fill="#3BAE49"/>
<path d="M242.327 243.122C242.743 243.519 243.119 243.954 243.452 244.422L246.021 247.657L248.596 250.891C248.983 251.314 249.332 251.771 249.636 252.257C249.186 251.904 248.78 251.498 248.427 251.048C247.708 250.262 246.765 249.144 245.761 247.874C244.757 246.605 243.887 245.426 243.27 244.561C242.901 244.12 242.584 243.637 242.327 243.122Z" fill="#263238"/>
<path d="M267.198 214.11C267.198 214.11 267.198 214.183 267.198 214.322C267.198 214.461 267.198 214.691 267.198 214.926C267.198 215.531 267.138 216.299 267.095 217.278C266.987 219.346 266.823 222.229 266.636 225.675C266.031 229.182 264.218 233.069 261.8 236.847C260.04 239.628 258.172 242.155 256.6 244.507C255.166 246.571 253.877 248.732 252.743 250.975C251.993 252.491 251.386 254.074 250.93 255.703C250.779 256.277 250.658 256.731 250.591 257.039C250.563 257.199 250.52 257.357 250.464 257.51C250.466 257.347 250.487 257.185 250.525 257.027C250.567 256.712 250.658 256.253 250.797 255.667C251.204 254.009 251.781 252.399 252.52 250.86C253.643 248.599 254.93 246.423 256.371 244.35C257.955 241.98 259.786 239.447 261.54 236.684C263.928 232.924 265.705 229.097 266.376 225.645C266.618 222.205 266.817 219.328 266.98 217.26C267.059 216.281 267.126 215.501 267.174 214.914C267.174 214.673 267.216 214.467 267.234 214.31C267.214 214.245 267.202 214.178 267.198 214.11Z" fill="#263238"/>
<path d="M261.969 236.152C261.969 236.152 265.687 227.205 261.014 221.335C260.977 221.288 260.929 221.252 260.873 221.231C260.818 221.21 260.757 221.204 260.699 221.216C260.641 221.227 260.587 221.254 260.543 221.295C260.499 221.335 260.467 221.386 260.451 221.444C260.034 222.943 259.266 227.543 261.969 236.152Z" fill="#3BAE49"/>
<path d="M261.292 224.46C261.452 225.012 261.551 225.579 261.588 226.153C261.721 227.205 261.866 228.661 261.981 230.276C262.096 231.89 262.15 233.353 262.15 234.417C262.187 234.991 262.152 235.568 262.048 236.134C261.943 235.569 261.893 234.997 261.896 234.423C261.818 233.214 261.721 231.841 261.618 230.3C261.515 228.758 261.419 227.362 261.334 226.177C261.264 225.607 261.25 225.032 261.292 224.46Z" fill="#263238"/>
<g opacity="0.3">
<path d="M261.969 236.152C261.969 236.152 265.687 227.205 261.014 221.335C260.977 221.288 260.929 221.252 260.873 221.231C260.818 221.21 260.757 221.204 260.699 221.216C260.641 221.227 260.587 221.254 260.543 221.294C260.499 221.335 260.467 221.386 260.451 221.443C260.034 222.943 259.266 227.543 261.969 236.152Z" fill="black"/>
</g>
<path d="M250.452 257.728C250.452 257.728 253.433 248.503 248.294 243.038C248.254 242.994 248.203 242.963 248.147 242.946C248.09 242.93 248.03 242.929 247.973 242.945C247.916 242.961 247.864 242.992 247.824 243.035C247.784 243.078 247.756 243.131 247.744 243.189C247.454 244.712 247.061 249.367 250.452 257.728Z" fill="#3BAE49"/>
<path d="M248.826 246.109C249.036 246.646 249.182 247.206 249.261 247.777C249.479 248.811 249.739 250.256 249.987 251.852C250.235 253.448 250.404 254.905 250.495 255.963C250.573 256.534 250.583 257.112 250.525 257.686C250.381 257.131 250.284 256.564 250.235 255.993C250.059 254.814 249.854 253.436 249.63 251.906C249.407 250.377 249.189 248.998 249.026 247.82C248.903 247.257 248.836 246.684 248.826 246.109Z" fill="#263238"/>
<g opacity="0.3">
<path d="M250.452 257.728C250.452 257.728 253.433 248.503 248.294 243.038C248.254 242.994 248.203 242.962 248.147 242.946C248.09 242.93 248.03 242.929 247.973 242.945C247.916 242.96 247.864 242.992 247.824 243.035C247.784 243.078 247.756 243.131 247.744 243.189C247.454 244.712 247.061 249.367 250.452 257.728Z" fill="black"/>
</g>
<path d="M266.708 225.216C266.708 225.216 274.646 219.654 273.848 212.194C273.842 212.135 273.82 212.08 273.784 212.033C273.748 211.986 273.7 211.95 273.645 211.929C273.59 211.907 273.53 211.902 273.472 211.912C273.414 211.923 273.36 211.949 273.316 211.989C272.161 213.028 269.066 216.486 266.708 225.216Z" fill="#3BAE49"/>
<g opacity="0.3">
<path d="M266.708 225.216C266.708 225.216 274.646 219.654 273.848 212.194C273.842 212.135 273.82 212.08 273.784 212.033C273.748 211.986 273.7 211.95 273.645 211.929C273.59 211.907 273.53 211.902 273.472 211.912C273.414 211.923 273.36 211.949 273.316 211.988C272.161 213.028 269.066 216.486 266.708 225.216Z" fill="black"/>
</g>
<path d="M272.409 214.981C272.252 215.535 272.031 216.068 271.75 216.571C271.297 217.526 270.638 218.832 269.87 220.259C269.102 221.685 268.365 222.949 267.797 223.844C267.517 224.346 267.178 224.813 266.787 225.234C266.999 224.702 267.263 224.192 267.573 223.711C268.141 222.665 268.812 221.444 269.55 220.083L271.521 216.456C271.768 215.937 272.066 215.443 272.409 214.981Z" fill="#263238"/>
<path d="M253.656 248.581C253.656 248.581 263.232 247.088 265.795 240.039C265.816 239.984 265.821 239.924 265.811 239.867C265.8 239.809 265.773 239.755 265.734 239.711C265.695 239.668 265.644 239.636 265.588 239.619C265.531 239.602 265.471 239.601 265.415 239.616C263.921 240.063 259.593 241.786 253.656 248.581Z" fill="#3BAE49"/>
<g opacity="0.3">
<path d="M253.656 248.581C253.656 248.581 263.232 247.088 265.795 240.039C265.816 239.984 265.821 239.924 265.811 239.867C265.8 239.809 265.773 239.755 265.734 239.711C265.695 239.668 265.644 239.636 265.588 239.619C265.531 239.602 265.471 239.601 265.415 239.616C263.921 240.063 259.593 241.786 253.656 248.581Z" fill="black"/>
</g>
<path d="M263.28 241.907C262.892 242.331 262.458 242.71 261.987 243.038C261.158 243.703 259.992 244.585 258.68 245.528C257.368 246.471 256.141 247.276 255.234 247.832C254.761 248.161 254.249 248.432 253.71 248.636C254.139 248.253 254.603 247.911 255.095 247.614L258.468 245.232L261.836 242.814C262.284 242.461 262.768 242.157 263.28 241.907Z" fill="#263238"/>
<path d="M244.516 266.21L241.723 285.011H259.134L256.879 266.21H244.516Z" fill="#455A64"/>
<path d="M257.58 272.032C257.58 272.135 254.436 272.213 250.561 272.213C246.686 272.213 243.536 272.135 243.536 272.032C245.873 271.853 248.218 271.792 250.561 271.85C252.902 271.792 255.245 271.853 257.58 272.032Z" fill="#263238"/>
<path d="M257.918 273.531C257.918 273.634 254.672 273.712 250.664 273.712C246.656 273.712 243.409 273.634 243.409 273.531C243.409 273.428 246.656 273.349 250.664 273.349C254.672 273.349 257.918 273.428 257.918 273.531Z" fill="#263238"/>
<path d="M190.216 83.8125C190.216 83.8125 190.053 83.8125 189.738 83.8125C189.279 83.7853 188.819 83.7853 188.36 83.8125C186.584 83.9165 184.84 84.3255 183.203 85.0216C180.609 86.1091 178.351 87.8682 176.662 90.1179C175.621 91.5226 174.846 93.1066 174.377 94.791C173.319 98.8035 173.89 103.072 175.967 106.664C176.533 107.659 177.224 108.577 178.022 109.397C178.828 110.265 179.767 111 180.803 111.573C181.867 112.172 183.071 112.474 184.291 112.45C185.549 112.435 186.756 111.947 187.671 111.083C188.113 110.62 188.46 110.074 188.691 109.476C188.922 108.879 189.034 108.242 189.019 107.601C189.01 106.271 188.587 104.976 187.81 103.895C186.244 101.689 183.705 100.208 181.003 99.4097C178.2 98.6227 175.241 98.5811 172.418 99.2888C170.977 99.6637 169.588 100.216 168.283 100.933C166.966 101.677 165.769 102.616 164.734 103.72C164.487 104.004 164.202 104.264 163.979 104.579L163.296 105.497C162.88 106.145 162.509 106.82 162.183 107.517C161.537 108.932 161.095 110.432 160.871 111.972C160.433 115.049 160.851 118.186 162.08 121.04C163.256 123.829 165.302 126.162 167.914 127.69C169.181 128.414 170.594 128.842 172.049 128.942C173.476 129.021 174.895 128.681 176.13 127.962C177.356 127.285 178.325 126.223 178.887 124.94C179.417 123.675 179.454 122.258 178.99 120.968C178.512 119.723 177.73 118.617 176.716 117.752C175.733 116.902 174.599 116.243 173.373 115.811C170.983 115.057 168.425 115.013 166.01 115.684C163.75 116.296 161.675 117.452 159.965 119.051C158.407 120.544 157.22 122.38 156.501 124.414C155.241 127.942 155.299 131.806 156.664 135.295C157.728 137.9 159.441 140.189 161.639 141.945C163.024 143.056 164.566 143.955 166.216 144.611C166.784 144.823 167.225 144.98 167.527 145.065L167.975 145.21C167.975 145.21 167.818 145.18 167.515 145.095C167.069 144.975 166.629 144.832 166.197 144.666C164.527 144.038 162.964 143.153 161.567 142.042C159.331 140.287 157.584 137.987 156.494 135.362C155.106 131.84 155.035 127.935 156.295 124.365C157.016 122.301 158.216 120.437 159.795 118.924C161.53 117.293 163.636 116.11 165.931 115.478C168.397 114.791 171.01 114.833 173.452 115.599C174.714 116.039 175.881 116.714 176.892 117.588C177.946 118.483 178.756 119.628 179.249 120.919C179.747 122.267 179.725 123.752 179.189 125.085C178.593 126.418 177.581 127.523 176.305 128.234C175.025 128.981 173.554 129.338 172.074 129.262C170.583 129.158 169.136 128.716 167.842 127.968C165.17 126.419 163.072 124.045 161.863 121.203C160.607 118.297 160.176 115.101 160.617 111.966C160.848 110.395 161.3 108.864 161.96 107.42C162.292 106.708 162.671 106.019 163.096 105.358L163.797 104.421C164.021 104.101 164.311 103.817 164.565 103.539C165.624 102.414 166.847 101.456 168.192 100.697C169.528 99.9666 170.949 99.406 172.424 99.0289C175.301 98.3079 178.317 98.3516 181.172 99.1558C183.929 99.978 186.51 101.483 188.136 103.768C188.954 104.894 189.398 106.247 189.406 107.638C189.435 109.006 188.92 110.33 187.973 111.319C187.006 112.227 185.733 112.739 184.406 112.752C183.137 112.781 181.883 112.465 180.779 111.839C179.718 111.254 178.758 110.5 177.938 109.608C177.128 108.77 176.428 107.834 175.852 106.821C173.738 103.162 173.164 98.8131 174.256 94.7306C174.74 93.0267 175.533 91.4262 176.596 90.0091C178.316 87.7423 180.612 85.9783 183.246 84.9007C184.896 84.218 186.654 83.8332 188.439 83.7642C188.902 83.7336 189.366 83.7336 189.829 83.7642L190.216 83.8125Z" fill="#263238"/>
<path d="M210.402 144.303H125.639V209.678H210.402V144.303Z" fill="#3BAE49"/>
<path d="M125.639 144.303L141.296 158.909H224.621L210.402 144.303H125.639Z" fill="#3BAE49"/>
<path d="M125.639 144.303L210.426 144.152H210.492L210.541 144.194L224.614 158.649L224.76 158.8L225.02 159.066H224.645L141.321 158.999H141.284L125.639 144.303L141.357 158.812H141.29L224.614 158.752L224.506 159.018L224.355 158.866L210.287 144.412L210.396 144.46L125.639 144.303Z" fill="#263238"/>
<path d="M151.102 174.452C150.643 174.468 150.208 174.665 149.892 174.998C149.576 175.332 149.404 175.776 149.412 176.235C149.421 176.695 149.609 177.133 149.937 177.455C150.265 177.776 150.706 177.957 151.165 177.957C151.625 177.957 152.066 177.776 152.394 177.455C152.722 177.133 152.91 176.695 152.918 176.235C152.926 175.776 152.754 175.332 152.438 174.998C152.122 174.665 151.688 174.468 151.229 174.452" fill="#263238"/>
<path d="M171.13 174.452C170.673 174.469 170.241 174.665 169.927 174.998C169.612 175.331 169.441 175.773 169.45 176.231C169.459 176.688 169.647 177.124 169.973 177.445C170.3 177.765 170.739 177.945 171.197 177.945C171.654 177.945 172.094 177.765 172.42 177.445C172.747 177.124 172.935 176.688 172.944 176.231C172.952 175.773 172.781 175.331 172.467 174.998C172.153 174.665 171.721 174.469 171.263 174.452" fill="#263238"/>
<path d="M171.245 190.097C170.896 188.762 170.328 187.493 169.565 186.343C168.716 185.113 167.626 184.068 166.361 183.272C164.834 182.259 163.054 181.695 161.223 181.645C159.392 181.595 157.584 182.06 156.005 182.988C154.7 183.716 153.555 184.699 152.637 185.877C151.811 186.985 151.175 188.223 150.757 189.541C150.762 189.443 150.778 189.345 150.806 189.251C150.864 188.978 150.938 188.71 151.029 188.447C151.361 187.476 151.844 186.563 152.462 185.744C153.373 184.51 154.533 183.481 155.866 182.722C157.486 181.754 159.348 181.268 161.234 181.32C163.12 181.371 164.953 181.958 166.518 183.012C167.805 183.839 168.904 184.926 169.746 186.204C170.32 187.056 170.755 187.995 171.034 188.985C171.108 189.253 171.167 189.526 171.209 189.801C171.23 189.898 171.242 189.997 171.245 190.097Z" fill="#263238"/>
<path opacity="0.5" d="M125.832 145.022L140.825 164.029H210.402V158.909H141.296L125.832 145.022Z" fill="black"/>
<path d="M193.686 209.533C193.601 209.533 193.529 198.162 193.529 184.142C193.529 170.123 193.601 158.751 193.686 158.751C193.771 158.751 193.849 170.117 193.849 184.142C193.849 198.168 193.777 209.533 193.686 209.533Z" fill="#263238"/>
<path d="M206.998 194.71H199.526V203.155H206.998V194.71Z" fill="#F5F5F5"/>
<path d="M125.638 144.303L108.24 158.909H125.638V144.303Z" fill="#3BAE49"/>
<g opacity="0.4">
<path d="M125.638 144.303L108.24 158.909H125.638V144.303Z" fill="black"/>
</g>
<path d="M212.904 209.678H115.446V284.847H212.904V209.678Z" fill="#3BAE49"/>
<path opacity="0.3" d="M212.904 209.678H115.446V284.847H212.904V209.678Z" fill="black"/>
<path d="M188.487 284.315C188.402 284.315 188.33 267.563 188.33 246.9C188.33 226.237 188.402 209.479 188.487 209.479C188.571 209.479 188.644 226.231 188.644 246.9C188.644 267.569 188.571 284.315 188.487 284.315Z" fill="#263238"/>
<path d="M204.64 267.739H197.168V276.184H204.64V267.739Z" fill="#F5F5F5"/>
<path d="M156.246 209.878H145.177V225.916H156.246V209.878Z" fill="#263238"/>
<path d="M156.246 268.585H145.177V284.624H156.246V268.585Z" fill="#263238"/>
<path d="M212.058 209.678H211.804H211.072L208.261 209.708L197.905 209.757L163.755 209.835L129.592 209.793L119.242 209.745L116.431 209.714L119.242 209.684L129.592 209.636L163.755 209.587L197.905 209.636L208.261 209.684L211.072 209.714H211.804L212.058 209.678Z" fill="#263238"/>
<path d="M45.0344 79.5392L34.4186 76.9275H34.4972C31.7562 78.6711 28.5865 79.623 25.3384 79.6782C23.4155 79.687 21.502 79.4078 19.6618 78.85C16.4263 77.8111 13.5559 75.8678 11.3898 73.2495C9.22365 70.6313 7.85233 67.4477 7.43789 64.075C7.1124 61.5242 7.35201 58.933 8.13975 56.4852C8.92749 54.0373 10.2441 51.7928 11.9961 49.9105C12.9172 48.8989 13.9494 47.9944 15.0733 47.2143C15.6415 46.8576 16.2098 46.4888 16.8023 46.1805L17.703 45.7453L18.1504 45.5276L18.6219 45.3583C21.0494 44.4174 23.6535 44.0191 26.2513 44.1916C29.7328 44.4176 33.0695 45.6692 35.8409 47.7886C38.6122 49.908 40.6941 52.8003 41.8243 56.1011C42.4522 57.9475 42.7828 59.882 42.8037 61.8321C42.8188 65.0731 41.938 68.2553 40.2585 71.0272V70.9305C43.2087 76.2565 44.6959 78.9467 45.0284 79.5392C44.6838 78.9346 43.1422 76.2928 40.0893 71.0212V70.9728V70.9244C41.7084 68.1793 42.5447 65.0431 42.5074 61.8563C42.4794 59.9374 42.1447 58.0352 41.516 56.222C40.3981 52.9887 38.3512 50.1571 35.6317 48.0817C32.9121 46.0063 29.6407 44.7793 26.2271 44.5543C23.6805 44.3883 21.1283 44.7803 18.7489 45.7029L18.2894 45.8662L17.8481 46.0838L16.9655 46.507C16.361 46.8153 15.829 47.172 15.2667 47.5226C14.1645 48.2818 13.1507 49.1619 12.244 50.1463C10.524 51.9941 9.23113 54.1973 8.45701 56.6001C7.68289 59.0029 7.44643 61.5465 7.76435 64.0508C8.32482 68.6388 10.6787 72.8184 14.3115 75.6761C15.9357 76.9631 17.7789 77.9461 19.7524 78.5779C21.5597 79.1366 23.4408 79.4199 25.3324 79.4183C28.5416 79.3839 31.6792 78.4656 34.4005 76.7643H34.4368H34.5033L45.0344 79.5392Z" fill="#263238"/>
<path d="M23.6214 54.0455L24.1595 62.9323C24.181 63.2828 24.3299 63.6134 24.5782 63.8617C24.8265 64.11 25.1571 64.259 25.5076 64.2804C25.8764 64.3013 26.2392 64.1801 26.5215 63.9417C26.8037 63.7033 26.9839 63.3659 27.025 62.9988L28.0104 54.0939C28.0276 53.9346 28.0107 53.7734 27.9608 53.6212C27.911 53.4689 27.8293 53.3289 27.7213 53.2106C27.6132 53.0922 27.4813 52.9982 27.3341 52.9348C27.187 52.8713 27.0281 52.8399 26.8678 52.8425H24.7096C24.5582 52.847 24.4092 52.8821 24.2717 52.9456C24.1341 53.0091 24.0108 53.0998 23.9092 53.2122C23.8075 53.3245 23.7297 53.4563 23.6802 53.5995C23.6308 53.7427 23.6108 53.8944 23.6214 54.0455Z" fill="#3BAE49"/>
<path d="M27.8533 69.2441C27.718 69.65 27.4654 70.0068 27.1274 70.2692C26.7895 70.5317 26.3813 70.688 25.9545 70.7186C25.5277 70.7491 25.1014 70.6524 24.7295 70.4408C24.3576 70.2291 24.0568 69.912 23.8651 69.5294C23.6734 69.1469 23.5994 68.7161 23.6524 68.2915C23.7055 67.8669 23.8832 67.4675 24.1632 67.1439C24.4431 66.8203 24.8127 66.5869 25.2253 66.4733C25.6378 66.3596 26.0748 66.3709 26.481 66.5055C26.751 66.595 27.0008 66.7369 27.2159 66.923C27.4311 67.1091 27.6075 67.3359 27.7349 67.5902C27.8624 67.8446 27.9384 68.1216 27.9588 68.4054C27.9791 68.6891 27.9432 68.9741 27.8533 69.2441Z" fill="#3BAE49"/>
</svg>
