<svg width="46" height="40" viewBox="0 0 46 40" fill="none" xmlns="http://www.w3.org/2000/svg">
<path d="M7.25232 33.037L38.7071 33.2444C40.3666 33.2553 41.7117 31.8915 41.7114 30.1983L41.7078 9.16482C41.7076 7.47158 40.362 6.09006 38.7025 6.07912L7.24773 5.87179C5.58821 5.86085 4.24314 7.22463 4.24343 8.91788L4.24698 29.9513C4.24727 31.6446 5.5928 33.0261 7.25232 33.037Z" fill="#262626"/>
<path d="M12.7628 9.68878L8.83526 9.66289C8.15633 9.65841 7.60605 10.2163 7.60617 10.9091L7.60656 13.2429C7.60668 13.9356 8.15715 14.5008 8.83608 14.5053L12.7636 14.5312C13.4425 14.5357 13.9928 13.9777 13.9927 13.285L13.9923 10.9512C13.9922 10.2584 13.4417 9.69325 12.7628 9.68878Z" fill="white"/>
<path d="M13.9924 10.2357L13.9925 11.3721L11.829 11.3578L11.4799 10.9993L11.4796 9.68185L13.4659 9.69506C13.535 9.69551 13.6035 9.70985 13.6674 9.73727C13.7313 9.76468 13.7893 9.80464 13.8382 9.85485C13.8871 9.90506 13.9259 9.96454 13.9523 10.0299C13.9788 10.0952 13.9924 10.1652 13.9924 10.2357Z" fill="#6DC74B"/>
<path d="M13.992 12.8679L13.9922 14.0043C13.9922 14.0749 13.9786 14.1447 13.9521 14.2098C13.9256 14.2749 13.8867 14.3339 13.8378 14.3835C13.7888 14.433 13.7306 14.4722 13.6667 14.4987C13.6027 14.5252 13.5341 14.5386 13.4649 14.538L11.4787 14.525L11.4785 13.1717L11.8274 12.8537L13.992 12.8679Z" fill="#6DC74B"/>
<path d="M10.0835 9.6729L10.0836 10.9904L9.76954 11.3444L7.60601 11.3301L7.60586 10.1937C7.60582 10.1232 7.6194 10.0534 7.64583 9.98839C7.67225 9.92339 7.711 9.86442 7.75986 9.81485C7.80872 9.76529 7.86674 9.72609 7.93059 9.69951C7.99445 9.67292 8.06289 9.65947 8.13202 9.65992L10.0835 9.6729Z" fill="#6DC74B"/>
<path d="M10.0842 13.1624L10.0845 14.5154L8.13309 14.5026C8.06389 14.5021 7.99536 14.4877 7.93143 14.4602C7.86751 14.4327 7.80944 14.3927 7.76053 14.3424C7.71163 14.2921 7.67286 14.2326 7.64642 14.1671C7.61999 14.1017 7.60643 14.0317 7.60649 13.9611L7.60634 12.8247L9.76979 12.8399L10.0842 13.1624Z" fill="#6DC74B"/>
<path d="M38.8002 27.8497C38.8003 28.6052 38.5062 29.3278 37.9827 29.8586C37.4592 30.3893 36.7492 30.6847 36.0087 30.6798C35.2683 30.6749 34.5581 30.3701 34.0345 29.8324C33.5108 29.2948 33.2166 28.5683 33.2165 27.8128C33.2169 27.3882 33.3112 26.9698 33.4924 26.5887C33.6736 26.2077 33.937 25.8739 34.2631 25.6122C34.6708 25.2742 35.1652 25.0622 35.6885 25.001C36.2117 24.9398 36.7422 25.0319 37.218 25.2665C37.6938 25.5012 38.0952 25.8687 38.3754 26.3261C38.6555 26.7835 38.8029 27.312 38.8002 27.8497Z" fill="white"/>
<path d="M33.2168 30.0205C32.8076 30.3583 32.3121 30.5701 31.7878 30.6314C31.2635 30.6926 30.732 30.6008 30.2549 30.3665C29.7778 30.1322 29.3747 29.7651 29.0925 29.3078C28.8102 28.8504 28.6603 28.3216 28.6602 27.7828C28.6601 27.244 28.8099 26.7172 29.092 26.2636C29.3741 25.8099 29.777 25.4481 30.2541 25.2201C30.7311 24.9921 31.2626 24.9073 31.7869 24.9755C32.3112 25.0436 32.8067 25.262 33.2161 25.6053C32.5882 26.1352 32.3075 26.9167 32.3075 27.8067C32.3076 28.6967 32.5888 29.5178 33.2168 30.0205Z" fill="#6DC74B"/>
<path d="M13.6882 18.4454L8.12098 18.4087C7.83735 18.4068 7.60746 18.6399 7.60751 18.9293C7.60756 19.2187 7.83753 19.4548 8.12116 19.4567L13.6884 19.4934C13.972 19.4952 14.2019 19.2621 14.2019 18.9727C14.2018 18.6833 13.9718 18.4472 13.6882 18.4454Z" fill="white"/>
<path d="M21.8869 18.4993L16.3197 18.4626C16.0361 18.4607 15.8062 18.6938 15.8062 18.9832C15.8063 19.2726 16.0363 19.5087 16.3199 19.5106L21.8871 19.5473C22.1707 19.5492 22.4006 19.3161 22.4006 19.0267C22.4005 18.7373 22.1706 18.5012 21.8869 18.4993Z" fill="white"/>
<path d="M30.0862 18.5535L24.5189 18.5168C24.2353 18.5149 24.0054 18.748 24.0055 19.0374C24.0055 19.3268 24.2355 19.5629 24.5191 19.5648L30.0863 19.6015C30.37 19.6034 30.5999 19.3703 30.5998 19.0809C30.5998 18.7915 30.3698 18.5554 30.0862 18.5535Z" fill="white"/>
<path d="M38.2854 18.6075L32.7182 18.5708C32.4345 18.5689 32.2046 18.802 32.2047 19.0914C32.2047 19.3808 32.4347 19.6169 32.7183 19.6188L38.2856 19.6555C38.5692 19.6573 38.7991 19.4242 38.799 19.1348C38.799 18.8455 38.569 18.6093 38.2854 18.6075Z" fill="white"/>
</svg>
