<svg width="24" height="24" viewBox="0 0 24 24" fill="none" xmlns="http://www.w3.org/2000/svg">
<g clip-path="url(#clip0_775_16490)">
<path opacity="0.921" fill-rule="evenodd" clip-rule="evenodd" d="M11.0859 -0.0234375C11.6797 -0.0234375 12.2734 -0.0234375 12.8672 -0.0234375C15.9618 0.417872 18.1884 2.04287 19.5469 4.85156C20.4756 7.46217 20.2881 9.99342 18.9844 12.4453C18.7578 12.8672 18.5079 13.2735 18.2344 13.6641C17.2957 14.8448 16.3661 16.0323 15.4453 17.2266C16.7 17.4755 17.8876 17.9052 19.0078 18.5156C19.5899 18.8476 20.0039 19.3242 20.25 19.9453C20.4225 20.5651 20.3131 21.1276 19.9219 21.6328C19.251 22.3475 18.4463 22.8553 17.5078 23.1562C16.1447 23.602 14.754 23.8755 13.3359 23.9766C12.4297 23.9766 11.5234 23.9766 10.6172 23.9766C9.02421 23.8782 7.47733 23.5423 5.97654 22.9688C5.21969 22.6803 4.57127 22.235 4.03123 21.6328C3.40687 20.6411 3.52406 19.7427 4.38279 18.9375C5.20798 18.2984 6.12987 17.8453 7.14841 17.5781C7.60526 17.4678 8.05835 17.3506 8.50779 17.2266C7.58702 16.0323 6.65735 14.8448 5.71873 13.6641C4.24935 11.599 3.63997 9.30216 3.8906 6.77344C4.52014 3.4765 6.43418 1.31244 9.63279 0.28125C10.1179 0.151462 10.6023 0.0498998 11.0859 -0.0234375ZM11.1797 0.679688C13.7807 0.492642 15.9604 1.35202 17.7187 3.25781C19.234 5.1315 19.7496 7.25653 19.2656 9.63281C18.9253 11.1257 18.2846 12.4695 17.3437 13.6641C15.5457 15.923 13.7567 18.1886 11.9765 20.4609C9.94188 17.9029 7.93404 15.3248 5.9531 12.7266C4.89002 11.0523 4.42125 9.2242 4.54685 7.24219C4.91158 4.47179 6.35688 2.49522 8.88279 1.3125C9.62655 0.999131 10.3922 0.788194 11.1797 0.679688ZM10.4765 5.27344C11.4767 5.26561 12.4766 5.27344 13.4765 5.29688C13.8783 5.433 14.1361 5.70642 14.25 6.11719C14.2812 7.83595 14.2812 9.55467 14.25 11.2734C14.1463 11.4693 13.9979 11.524 13.8047 11.4375C13.2006 10.9113 12.5834 10.4035 11.9531 9.91406C11.3246 10.386 10.723 10.8938 10.1484 11.4375C10.0048 11.5155 9.87204 11.4921 9.74997 11.3672C9.67244 9.62114 9.65683 7.87116 9.7031 6.11719C9.82587 5.70558 10.0837 5.42433 10.4765 5.27344ZM8.92966 17.8828C9.03354 17.9158 9.11946 17.9783 9.18748 18.0703C10.0375 19.2012 10.9204 20.3028 11.8359 21.375C12.0371 21.4313 12.2012 21.3766 12.3281 21.2109C13.1856 20.0802 14.0684 18.9708 14.9765 17.8828C16.2335 18.0804 17.421 18.4789 18.539 19.0781C19.022 19.3423 19.3736 19.7251 19.5937 20.2266C19.6714 20.6183 19.5776 20.9621 19.3125 21.2578C18.5995 21.9309 17.7635 22.3919 16.8047 22.6406C13.7018 23.4807 10.5925 23.5119 7.47654 22.7344C6.53524 22.4902 5.67583 22.0839 4.89841 21.5156C4.13683 20.798 4.15245 20.0949 4.94529 19.4062C5.65376 18.8884 6.43502 18.5134 7.28904 18.2812C7.83822 18.1326 8.38512 17.9998 8.92966 17.8828Z" fill="black"/>
<path opacity="0.991" fill-rule="evenodd" clip-rule="evenodd" d="M11.5078 2.74239C14.446 2.70653 16.4069 4.06591 17.3906 6.82052C17.9403 9.17102 17.3231 11.1476 15.5391 12.7502C13.5627 14.1908 11.469 14.3783 9.25781 13.3127C7.20829 12.0814 6.24735 10.2611 6.37499 7.85177C6.70607 5.4467 8.01074 3.82953 10.2891 3.0002C10.6963 2.88834 11.1026 2.8024 11.5078 2.74239ZM10.4766 5.27364C10.0837 5.42453 9.82589 5.70578 9.70312 6.11739C9.65685 7.87136 9.67246 9.62134 9.74999 11.3674C9.87206 11.4923 10.0049 11.5157 10.1484 11.4377C10.723 10.894 11.3246 10.3862 11.9531 9.91427C12.5834 10.4037 13.2006 10.9115 13.8047 11.4377C13.9979 11.5242 14.1464 11.4695 14.25 11.2736C14.2813 9.55487 14.2813 7.83616 14.25 6.11739C14.1361 5.70662 13.8783 5.4332 13.4766 5.29708C12.4767 5.27364 11.4767 5.26581 10.4766 5.27364Z" fill="#138843"/>
<path opacity="0.915" fill-rule="evenodd" clip-rule="evenodd" d="M10.5703 5.88282C11.5079 5.87499 12.4454 5.88282 13.3828 5.90626C13.6058 6.03465 13.6995 6.22998 13.664 6.49219C12.539 6.49219 11.414 6.49219 10.289 6.49219C10.2579 6.22449 10.3516 6.02138 10.5703 5.88282Z" fill="#325831"/>
<path opacity="0.994" fill-rule="evenodd" clip-rule="evenodd" d="M10.2891 7.10156C11.4141 7.10156 12.5391 7.10156 13.6641 7.10156C13.6719 8.24231 13.6641 9.38292 13.6406 10.5234C13.0905 10.0436 12.5203 9.59044 11.9297 9.16406C11.8515 9.20311 11.7734 9.2422 11.6953 9.28125C11.2597 9.70177 10.8066 10.1002 10.3359 10.4766C10.2891 9.35198 10.2734 8.22698 10.2891 7.10156Z" fill="#325831"/>
</g>
<defs>
<clipPath id="clip0_775_16490">
<rect width="24" height="24" fill="white"/>
</clipPath>
</defs>
</svg>
