<svg width="24" height="24" viewBox="0 0 24 24" fill="none" xmlns="http://www.w3.org/2000/svg">
<g clip-path="url(#clip0_775_16612)">
<path d="M1.75898 -0.0064052C1.80153 -0.00664307 1.84409 -0.00688094 1.88794 -0.00712602C1.9578 -0.00716102 1.9578 -0.00716102 2.02908 -0.00719672C2.10352 -0.00750485 2.10352 -0.00750485 2.17946 -0.00781921C2.34631 -0.00844689 2.51316 -0.00873644 2.68001 -0.00902349C2.79943 -0.00939385 2.91885 -0.00978145 3.03827 -0.0101851C3.39714 -0.0113083 3.75601 -0.0120203 4.11488 -0.0126254C4.21633 -0.0127995 4.31779 -0.0129857 4.41924 -0.0131763C5.04992 -0.0143597 5.68059 -0.0153929 6.31126 -0.015976C6.45731 -0.0161134 6.60336 -0.0162522 6.74941 -0.0163935C6.78571 -0.0164285 6.82201 -0.0164634 6.8594 -0.0164995C7.44652 -0.0170917 8.03362 -0.0186479 8.62073 -0.0206029C9.22422 -0.0225959 9.8277 -0.0236967 10.4312 -0.0239411C10.7697 -0.0241006 11.1083 -0.0246458 11.4468 -0.0261959C11.7657 -0.0276534 12.0845 -0.0279004 12.4033 -0.0273498C12.52 -0.0273395 12.6366 -0.0277261 12.7532 -0.0285523C13.737 -0.0351377 14.4933 0.0812719 15.2431 0.776385C16.0086 1.58328 16.0604 2.52906 16.0561 3.58449C16.0562 3.69392 16.0564 3.80335 16.0566 3.91278C16.0569 4.14065 16.0565 4.36851 16.0556 4.59638C16.0545 4.88786 16.0552 5.17931 16.0563 5.47079C16.057 5.69615 16.0568 5.9215 16.0563 6.14686C16.0561 6.25436 16.0563 6.36186 16.0567 6.46935C16.0572 6.61941 16.0565 6.76942 16.0554 6.91948C16.0558 6.96342 16.0562 7.00735 16.0566 7.05262C16.053 7.33325 16.0034 7.54708 15.8437 7.78127C15.6149 7.99891 15.4233 8.03239 15.1173 8.02883C14.8851 8.00274 14.759 7.87394 14.6103 7.7051C14.5054 7.55756 14.4784 7.48271 14.4778 7.30473C14.4776 7.2638 14.4773 7.22286 14.4771 7.18069C14.477 7.13567 14.477 7.09064 14.4769 7.04426C14.4767 6.99691 14.4764 6.94957 14.4762 6.9008C14.4757 6.79769 14.4753 6.69459 14.475 6.59149C14.4744 6.42813 14.4735 6.26478 14.4725 6.10142C14.4696 5.63684 14.4671 5.17226 14.4655 4.70767C14.4645 4.42368 14.4628 4.13971 14.4608 3.85573C14.4601 3.74762 14.4597 3.6395 14.4595 3.53139C14.4593 3.3797 14.4582 3.22804 14.4569 3.07636C14.4571 3.032 14.4572 2.98764 14.4574 2.94194C14.4521 2.51717 14.3585 2.1751 14.0637 1.8622C13.7592 1.60285 13.3888 1.54088 12.9986 1.54126C12.9466 1.54119 12.8945 1.54113 12.8409 1.54106C12.7845 1.54123 12.728 1.5414 12.6699 1.54157C12.61 1.54156 12.5501 1.54156 12.4883 1.54155C12.3246 1.54154 12.1608 1.54181 11.9971 1.54214C11.8257 1.54243 11.6544 1.54246 11.483 1.54252C11.1588 1.54266 10.8346 1.54305 10.5104 1.54352C10.1411 1.54404 9.77193 1.5443 9.40271 1.54453C8.64345 1.54502 7.88419 1.54585 7.12493 1.54689C7.17668 1.56388 7.22843 1.58087 7.28174 1.59837C7.47564 1.6622 7.66925 1.72688 7.86278 1.7918C7.94622 1.81966 8.02973 1.84729 8.11332 1.8747C8.85147 2.11696 9.4546 2.37216 9.83782 3.09377C10.0453 3.51157 10.0445 3.94287 10.0424 4.39868C10.0425 4.46401 10.0426 4.52934 10.0427 4.59467C10.0429 4.77329 10.0425 4.95191 10.0421 5.13053C10.0416 5.32349 10.0418 5.51645 10.0419 5.70941C10.0419 6.04343 10.0416 6.37744 10.0411 6.71146C10.0403 7.19439 10.0401 7.67731 10.04 8.16024C10.0398 8.94382 10.0391 9.72739 10.0382 10.511C10.0374 11.272 10.0367 12.033 10.0363 12.7941C10.0363 12.841 10.0363 12.8879 10.0363 12.9363C10.0361 13.1718 10.036 13.4072 10.0359 13.6427C10.0349 15.5951 10.0333 17.5476 10.0312 19.5C10.4456 19.496 10.86 19.4916 11.2744 19.4865C11.4669 19.4842 11.6594 19.482 11.8518 19.4802C12.0379 19.4785 12.2239 19.4763 12.4099 19.4739C12.4806 19.473 12.5513 19.4723 12.622 19.4717C13.393 19.4706 13.393 19.4706 14.0624 19.125C14.4026 18.766 14.4515 18.4147 14.4494 17.9373C14.4496 17.8897 14.4497 17.8421 14.4499 17.793C14.4502 17.6901 14.4503 17.5872 14.4503 17.4843C14.4502 17.3213 14.4508 17.1584 14.4516 16.9955C14.4538 16.5323 14.455 16.0692 14.4553 15.6061C14.4555 15.3224 14.4566 15.0388 14.4583 14.7551C14.4588 14.6472 14.4589 14.5392 14.4587 14.4312C14.4583 14.2803 14.4591 14.1295 14.4602 13.9786C14.4596 13.9118 14.4596 13.9118 14.459 13.8437C14.4623 13.5804 14.4947 13.4269 14.6718 13.2188C14.9075 13.0111 15.0413 12.9703 15.3497 12.9743C15.5732 12.9932 15.7037 13.0762 15.8554 13.2363C16.039 13.5117 16.0451 13.7421 16.0448 14.0646C16.0451 14.1119 16.0454 14.1592 16.0457 14.2079C16.0466 14.3643 16.0468 14.5208 16.0469 14.6772C16.0472 14.7865 16.0475 14.8957 16.0479 15.005C16.0484 15.2344 16.0486 15.4638 16.0485 15.6931C16.0485 15.9853 16.0498 16.2774 16.0514 16.5695C16.0525 16.7955 16.0527 17.0215 16.0526 17.2475C16.0527 17.355 16.0531 17.4626 16.0539 17.5702C16.06 18.5687 15.9738 19.4291 15.2535 20.1867C14.7387 20.6889 14.1346 21.018 13.3997 21.0107C13.3631 21.0107 13.3264 21.0107 13.2887 21.0107C13.1687 21.0106 13.0488 21.0099 12.9288 21.0092C12.8452 21.009 12.7616 21.0089 12.678 21.0088C12.4588 21.0084 12.2395 21.0075 12.0203 21.0065C11.7962 21.0055 11.5722 21.0051 11.3482 21.0046C10.9092 21.0036 10.4702 21.002 10.0312 21C10.0316 21.0365 10.032 21.073 10.0324 21.1106C10.034 21.2773 10.035 21.444 10.0359 21.6107C10.0366 21.6681 10.0372 21.7255 10.0379 21.7846C10.0396 22.1825 10.0203 22.5124 9.84367 22.875C9.81304 22.9386 9.81304 22.9386 9.78179 23.0034C9.51766 23.4905 9.12663 23.7396 8.62492 23.9531C7.94069 24.1493 7.26516 23.9465 6.6212 23.7175C6.53395 23.6876 6.44665 23.6579 6.3593 23.6283C6.17608 23.566 5.99311 23.5031 5.81029 23.4398C5.53448 23.3444 5.25764 23.2525 4.98037 23.1616C4.93482 23.1466 4.88926 23.1317 4.84233 23.1163C4.75023 23.0861 4.65812 23.0559 4.56601 23.0257C4.29045 22.9351 4.01523 22.8435 3.73997 22.752C3.50655 22.6745 3.27309 22.597 3.03951 22.52C2.807 22.4432 2.57462 22.3662 2.34231 22.2888C2.25547 22.26 2.16859 22.2313 2.08167 22.2027C1.26145 21.9326 0.606843 21.6949 0.159777 20.9075C0.0353381 20.6404 -0.011793 20.3973 -0.0121335 20.1036C-0.0122978 20.0714 -0.0124621 20.0393 -0.0126315 20.0062C-0.0130665 19.8989 -0.0128376 19.7917 -0.0126095 19.6844C-0.0127847 19.6065 -0.0130005 19.5287 -0.0132532 19.4509C-0.0138264 19.2372 -0.0138142 19.0236 -0.0137036 18.8099C-0.0136845 18.5794 -0.014202 18.3489 -0.0146465 18.1184C-0.0154251 17.6668 -0.0156829 17.2153 -0.0157351 16.7638C-0.0157797 16.3967 -0.0159724 16.0296 -0.0162696 15.6626C-0.0170952 14.6218 -0.0175278 13.581 -0.0174575 12.5402C-0.0174537 12.4841 -0.0174499 12.4279 -0.017446 12.3701C-0.0174422 12.314 -0.0174384 12.2578 -0.0174344 12.1999C-0.0173963 11.2896 -0.0182934 10.3792 -0.0196152 9.46887C-0.0209619 8.534 -0.0216093 7.59913 -0.0215284 6.66426C-0.0214972 6.13946 -0.0217546 5.61465 -0.0227638 5.08985C-0.0236175 4.64301 -0.0238213 4.19618 -0.0231849 3.74934C-0.0228788 3.52143 -0.0228731 3.29352 -0.0236866 3.06561C-0.0244244 2.85678 -0.0242895 2.64797 -0.0234726 2.43914C-0.0233288 2.36379 -0.0234985 2.28843 -0.0240219 2.21307C-0.0279765 1.60304 0.0579113 1.12372 0.468676 0.656267C0.492181 0.627868 0.515687 0.599468 0.539904 0.570208C0.844488 0.230793 1.29931 -0.00503735 1.75898 -0.0064052ZM1.59368 1.73439C1.51024 1.93825 1.48819 2.11053 1.48813 2.32984C1.48799 2.3604 1.48786 2.39095 1.48772 2.42243C1.48737 2.52467 1.4877 2.6269 1.48802 2.72914C1.48791 2.80324 1.48776 2.87733 1.48758 2.95143C1.48719 3.15494 1.48738 3.35846 1.48767 3.56197C1.48788 3.78149 1.48756 4.00101 1.4873 4.22053C1.48688 4.65053 1.48697 5.08054 1.48724 5.51054C1.48745 5.85997 1.48748 6.2094 1.48738 6.55883C1.48737 6.60854 1.48735 6.65824 1.48734 6.70946C1.48731 6.81043 1.48728 6.91141 1.48725 7.01238C1.48698 7.95952 1.48729 8.90666 1.48779 9.85381C1.48821 10.6667 1.48814 11.4797 1.4877 12.2926C1.4872 13.2363 1.487 14.18 1.48729 15.1238C1.48732 15.2244 1.48735 15.325 1.48738 15.4256C1.4874 15.4751 1.48741 15.5246 1.48742 15.5756C1.48751 15.9247 1.48737 16.2737 1.48715 16.6228C1.48689 17.0481 1.48696 17.4734 1.48746 17.8987C1.4877 18.1158 1.4878 18.3328 1.48749 18.5499C1.48721 18.7485 1.48736 18.9472 1.48786 19.1458C1.48797 19.2177 1.48791 19.2896 1.48769 19.3616C1.4874 19.4592 1.48769 19.5569 1.48813 19.6546C1.48814 19.7088 1.48816 19.7631 1.48817 19.819C1.50419 20.0231 1.54735 20.1881 1.67055 20.3528C1.81683 20.4648 1.97179 20.518 2.14491 20.574C2.18147 20.5864 2.21803 20.5987 2.2557 20.6114C2.37714 20.6522 2.49883 20.6923 2.62053 20.7323C2.70675 20.7611 2.79295 20.79 2.87913 20.8189C3.06099 20.8799 3.24295 20.9406 3.42498 21.0011C3.69583 21.0912 3.9662 21.1827 4.23644 21.2746C4.63536 21.4103 5.03455 21.5452 5.434 21.6793C5.66031 21.7553 5.88652 21.8316 6.11256 21.9084C6.33737 21.9848 6.56238 22.0606 6.78755 22.1359C6.8718 22.1642 6.95597 22.1927 7.04006 22.2215C7.15632 22.2612 7.27283 22.3001 7.38942 22.3388C7.43982 22.3563 7.43982 22.3563 7.49123 22.3742C7.72452 22.4504 7.95788 22.492 8.20305 22.4531C8.35688 22.3346 8.42301 22.262 8.4843 22.0781C8.48882 21.978 8.49044 21.8778 8.49059 21.7776C8.4907 21.7468 8.49081 21.716 8.49093 21.6843C8.49124 21.5804 8.49122 21.4765 8.4912 21.3727C8.49135 21.2977 8.49153 21.2228 8.49172 21.1478C8.49219 20.9413 8.49236 20.7348 8.49249 20.5283C8.49267 20.3058 8.49312 20.0833 8.49353 19.8608C8.49446 19.3233 8.49493 18.7857 8.49535 18.2482C8.49555 17.9952 8.4958 17.7422 8.49605 17.4892C8.49685 16.6485 8.49753 15.8078 8.49786 14.9671C8.49795 14.7489 8.49804 14.5307 8.49814 14.3124C8.49816 14.2582 8.49818 14.204 8.4982 14.1481C8.49859 13.2689 8.49978 12.3898 8.5013 11.5106C8.50285 10.6086 8.5037 9.7065 8.50385 8.80442C8.50395 8.29772 8.50436 7.79103 8.50556 7.28433C8.50657 6.85292 8.50695 6.42152 8.5065 5.99011C8.50628 5.76992 8.50638 5.54973 8.50728 5.32954C8.5081 5.12803 8.50806 4.92654 8.50733 4.72503C8.50722 4.65207 8.50743 4.57911 8.50798 4.50615C8.50869 4.40704 8.50824 4.308 8.5075 4.2089C8.50757 4.1263 8.50757 4.1263 8.50764 4.04203C8.47901 3.8563 8.41394 3.75482 8.2968 3.60939C8.15604 3.52935 8.15604 3.52935 7.98689 3.47726C7.95462 3.46604 7.92234 3.45481 7.88909 3.44325C7.81593 3.418 7.7426 3.39321 7.66915 3.36881C7.53766 3.3251 7.40664 3.28011 7.27563 3.23496C6.95685 3.1255 6.63737 3.01815 6.3178 2.91103C6.26 2.89163 6.2022 2.87224 6.14265 2.85226C5.86889 2.76041 5.59508 2.6687 5.32123 2.57715C5.00702 2.47211 4.69297 2.3666 4.37905 2.2607C4.1052 2.16836 3.83115 2.07664 3.55702 1.98514C3.44109 1.94634 3.32522 1.90736 3.20942 1.86818C3.04787 1.81357 2.8861 1.75967 2.72426 1.70594C2.67682 1.68973 2.62938 1.67351 2.5805 1.65681C2.051 1.48196 2.051 1.48196 1.59368 1.73439Z" fill="#3BAE49"/>
<path d="M19.7812 6C20.0395 6.14845 20.2367 6.34844 20.4458 6.55865C20.4832 6.59587 20.5205 6.63309 20.5591 6.67143C20.6821 6.79406 20.8048 6.91704 20.9275 7.04004C21.013 7.12551 21.0986 7.21097 21.1841 7.29642C21.3632 7.47532 21.5421 7.65438 21.7208 7.83357C21.9273 8.04058 22.1341 8.24726 22.3412 8.45376C22.5406 8.65277 22.7399 8.85205 22.939 9.05143C23.0236 9.13613 23.1083 9.22075 23.1931 9.30531C23.3114 9.42334 23.4293 9.54168 23.5472 9.66009C23.5824 9.69507 23.6176 9.73004 23.6538 9.76607C23.6858 9.7984 23.7179 9.83073 23.7509 9.86404C23.7928 9.90593 23.7928 9.90593 23.8355 9.94867C23.9847 10.1228 24.0147 10.267 24.0176 10.4941C24.0189 10.5414 24.0202 10.5886 24.0216 10.6373C23.9705 10.9778 23.6748 11.2136 23.4413 11.4458C23.4041 11.4832 23.3669 11.5205 23.3286 11.5591C23.2059 11.6821 23.083 11.8048 22.96 11.9275C22.8745 12.013 22.789 12.0986 22.7036 12.1841C22.5247 12.3632 22.3456 12.542 22.1664 12.7208C21.9594 12.9273 21.7527 13.1341 21.5462 13.3412C21.3472 13.5406 21.148 13.7399 20.9486 13.939C20.8639 14.0236 20.7792 14.1083 20.6947 14.1931C20.5767 14.3114 20.4583 14.4293 20.3399 14.5472C20.3049 14.5824 20.27 14.6175 20.2339 14.6538C20.2016 14.6858 20.1693 14.7179 20.136 14.7509C20.0941 14.7928 20.0941 14.7928 20.0513 14.8355C19.8344 15.0214 19.6322 15.02 19.3553 15.0146C19.1068 14.988 18.9919 14.8697 18.8262 14.6953C18.7161 14.4582 18.7045 14.2258 18.75 13.9687C18.8718 13.7658 19.0109 13.6027 19.1782 13.4361C19.2016 13.4128 19.2249 13.3894 19.249 13.3653C19.3254 13.289 19.4021 13.2131 19.4788 13.1371C19.5321 13.0839 19.5854 13.0307 19.6388 12.9775C19.7785 12.8381 19.9185 12.699 20.0586 12.56C20.2017 12.4178 20.3446 12.2754 20.4875 12.1329C20.7674 11.854 21.0477 11.5753 21.3281 11.2969C21.2878 11.2968 21.2476 11.2968 21.2061 11.2968C20.2256 11.2961 19.2452 11.2941 18.2648 11.2907C17.7907 11.2891 17.3166 11.2879 16.8424 11.2877C16.4292 11.2876 16.0159 11.2866 15.6026 11.2847C15.3838 11.2837 15.165 11.2831 14.9462 11.2835C14.7402 11.2838 14.5342 11.2831 14.3281 11.2815C14.2526 11.2811 14.1771 11.2811 14.1016 11.2816C13.46 11.285 13.46 11.285 13.2472 11.1388C13.0493 10.9394 12.9774 10.7813 12.9639 10.5029C12.9722 10.2614 13.0256 10.13 13.1719 9.9375C13.381 9.77024 13.5197 9.72647 13.7859 9.72567C13.8183 9.72532 13.8507 9.72497 13.8841 9.7246C13.9921 9.72366 14.1 9.72403 14.208 9.72441C14.2856 9.724 14.3632 9.72351 14.4408 9.72294C14.6512 9.72163 14.8615 9.72147 15.0718 9.72152C15.2918 9.72137 15.5118 9.72017 15.7317 9.71908C16.1481 9.71718 16.5644 9.71623 16.9808 9.71562C17.4548 9.71487 17.9289 9.71307 18.403 9.71118C19.378 9.70732 20.3531 9.70478 21.3281 9.70312C21.2972 9.67241 21.2663 9.64171 21.2344 9.61007C20.9431 9.32064 20.652 9.03098 20.3612 8.74107C20.2117 8.59203 20.0621 8.44308 19.9123 8.29433C19.7677 8.15078 19.6233 8.00699 19.4792 7.86305C19.4241 7.80817 19.369 7.75338 19.3138 7.69867C19.2364 7.62203 19.1594 7.5451 19.0825 7.46809C19.0596 7.44553 19.0367 7.42298 19.0131 7.39974C18.8054 7.19081 18.7362 7.04986 18.7324 6.75586C18.7372 6.51175 18.7641 6.37004 18.9375 6.1875C19.1778 5.9592 19.4651 5.94401 19.7812 6Z" fill="#3BAE49"/>
</g>
<defs>
<clipPath id="clip0_775_16612">
<rect width="24" height="24" fill="white"/>
</clipPath>
</defs>
</svg>
