<svg width="24" height="24" viewBox="0 0 24 24" fill="none" xmlns="http://www.w3.org/2000/svg">
<g clip-path="url(#clip0_903_384)">
<path opacity="0.933" fill-rule="evenodd" clip-rule="evenodd" d="M11.6953 -0.0234375C11.8828 -0.0234375 12.0703 -0.0234375 12.2578 -0.0234375C12.4222 0.0558117 12.5707 0.165187 12.7031 0.304688C12.8984 0.695311 13.0937 1.08594 13.289 1.47656C13.8095 1.58937 14.3251 1.72218 14.8359 1.875C15.2376 2.24931 15.308 2.67899 15.0469 3.16406C14.7671 3.49074 14.4703 3.80325 14.1562 4.10156C14.1886 4.56306 14.2433 5.02402 14.3203 5.48438C14.2038 6.22237 13.7819 6.50362 13.0547 6.32812C12.6936 6.14761 12.3342 5.96789 11.9765 5.78906C11.5777 5.9963 11.1715 6.19158 10.7578 6.375C10.0929 6.44447 9.71788 6.14756 9.6328 5.48438C9.70977 5.02402 9.76447 4.56306 9.79686 4.10156C9.41633 3.7682 9.08821 3.3932 8.81249 2.97656C8.64758 2.43968 8.81164 2.04124 9.30467 1.78125C9.74178 1.69019 10.1793 1.60425 10.6172 1.52344C10.8401 1.12455 11.051 0.718303 11.25 0.304688C11.3824 0.165187 11.5309 0.0558117 11.6953 -0.0234375ZM11.9297 0.820312C11.9707 0.814177 12.002 0.829805 12.0234 0.867188C12.2344 1.28906 12.4453 1.71094 12.6562 2.13281C12.7109 2.1875 12.7656 2.24219 12.8203 2.29688C13.3447 2.38151 13.8603 2.49089 14.3672 2.625C14.064 2.97513 13.7436 3.31107 13.4062 3.63281C13.3594 3.71094 13.3125 3.78906 13.2656 3.86719C13.3029 4.4016 13.3732 4.93284 13.4765 5.46094C13.4621 5.49881 13.4387 5.53008 13.4062 5.55469C12.951 5.2763 12.4745 5.04192 11.9765 4.85156C11.4786 5.04192 11.0021 5.2763 10.5469 5.55469C10.5144 5.53008 10.491 5.49881 10.4765 5.46094C10.5799 4.93284 10.6502 4.4016 10.6875 3.86719C10.6406 3.78906 10.5937 3.71094 10.5469 3.63281C10.2095 3.31107 9.88911 2.97513 9.58592 2.625C10.0928 2.49089 10.6084 2.38151 11.1328 2.29688C11.4532 1.83579 11.7189 1.3436 11.9297 0.820312Z" fill="#282828"/>
<path opacity="0.935" fill-rule="evenodd" clip-rule="evenodd" d="M4.52362 3.16397C4.98642 3.08088 5.33798 3.23713 5.57831 3.63272C5.75798 3.99209 5.9377 4.35146 6.11737 4.71084C6.55354 4.80178 6.99107 4.8877 7.42987 4.96865C8.00896 5.31581 8.14176 5.79234 7.82831 6.39834C7.50182 6.70861 7.19713 7.03673 6.91424 7.38272C7.03045 7.89234 7.08515 8.40797 7.07831 8.92959C6.85031 9.50836 6.43621 9.70368 5.83612 9.51553C5.48015 9.34148 5.12859 9.16176 4.78143 8.97647C4.39309 9.19017 3.99465 9.3855 3.58612 9.5624C3.06266 9.6562 2.69547 9.46087 2.48456 8.97647C2.48937 8.41186 2.52062 7.84936 2.57831 7.28897C2.27992 7.00626 1.99867 6.7094 1.73456 6.39834C1.41027 5.78817 1.54309 5.31159 2.13299 4.96865C2.57193 4.8877 3.00943 4.80178 3.44549 4.71084C3.64081 4.32022 3.83612 3.92959 4.03143 3.53897C4.16527 3.36503 4.32933 3.24003 4.52362 3.16397ZM4.75799 4.00772C5.03202 4.50079 5.31327 4.99298 5.60174 5.48428C6.09904 5.58998 6.59906 5.68373 7.10174 5.76553C7.12317 5.78493 7.13882 5.80837 7.14862 5.83584C6.80573 6.23348 6.45417 6.62409 6.09393 7.00772C6.09557 7.55086 6.15027 8.08992 6.25799 8.6249C6.24238 8.66395 6.22673 8.70304 6.21112 8.74209C5.7381 8.49445 5.26157 8.26008 4.78143 8.03897C4.29021 8.24161 3.81365 8.47598 3.35174 8.74209C3.33612 8.68739 3.32049 8.63273 3.30487 8.57803C3.4082 8.05828 3.46288 7.53483 3.46893 7.00772C3.10869 6.62409 2.75713 6.23348 2.41424 5.83584C2.42405 5.80837 2.43968 5.78493 2.46112 5.76553C2.98647 5.69109 3.50209 5.58173 4.00799 5.4374C4.27652 4.97067 4.52652 4.49411 4.75799 4.00772Z" fill="#282828"/>
<path opacity="0.935" fill-rule="evenodd" clip-rule="evenodd" d="M18.9142 3.16415C19.3272 3.09078 19.6631 3.21578 19.922 3.53915C20.115 3.94872 20.3259 4.34716 20.5548 4.73446C20.9777 4.80754 21.3996 4.88568 21.8204 4.96884C22.4103 5.31178 22.5431 5.78835 22.2188 6.39853C21.9547 6.70959 21.6735 7.00645 21.3751 7.28915C21.4328 7.84954 21.464 8.41204 21.4688 8.97665C21.216 9.52092 20.802 9.70059 20.2267 9.51571C19.8854 9.31771 19.5338 9.13804 19.172 8.97665C18.7836 9.19035 18.3852 9.38568 17.9767 9.56259C17.2825 9.66506 16.9075 9.3682 16.8517 8.67196C16.8946 8.23865 16.9571 7.80899 17.0392 7.3829C16.7563 7.03692 16.4516 6.70879 16.1251 6.39853C15.8116 5.79253 15.9444 5.31599 16.5235 4.96884C16.9632 4.89182 17.4007 4.8059 17.836 4.71103C18.035 4.29741 18.2459 3.89116 18.4688 3.49228C18.6013 3.35278 18.7497 3.2434 18.9142 3.16415ZM19.1485 4.0079C19.4188 4.47776 19.6844 4.95431 19.9454 5.43759C20.0079 5.46885 20.0704 5.50007 20.1329 5.53134C20.5869 5.60442 21.0401 5.68251 21.4923 5.76571C21.5137 5.78512 21.5294 5.80856 21.5392 5.83603C21.1963 6.23367 20.8447 6.62428 20.4845 7.0079C20.4993 7.53389 20.554 8.05729 20.6485 8.57821C20.6329 8.63292 20.6173 8.68757 20.6017 8.74228C20.1397 8.47617 19.6632 8.24179 19.172 8.03915C18.6952 8.26579 18.2186 8.50017 17.7423 8.74228C17.7267 8.70323 17.711 8.66414 17.6954 8.62509C17.8031 8.0901 17.8578 7.55104 17.8595 7.0079C17.4992 6.62428 17.1477 6.23367 16.8048 5.83603C16.8146 5.80856 16.8302 5.78512 16.8517 5.76571C17.3543 5.68392 17.8544 5.59017 18.3517 5.48446C18.6477 5.00971 18.9133 4.51751 19.1485 4.0079Z" fill="#282828"/>
<path opacity="0.938" fill-rule="evenodd" clip-rule="evenodd" d="M23.9766 20.5079C23.9766 20.961 23.9766 21.4141 23.9766 21.8673C23.8604 22.0849 23.6885 22.249 23.4609 22.3594C21.6797 22.3907 19.8984 22.3907 18.1172 22.3594C17.8794 22.2935 17.7153 22.1451 17.625 21.9141C17.5739 21.5392 17.5192 21.1642 17.4609 20.7891C16.2638 21.4782 15.0607 22.1579 13.8516 22.8282C13.5227 23.4137 13.0383 23.7965 12.3984 23.9766C12.1172 23.9766 11.8359 23.9766 11.5547 23.9766C10.2435 23.5266 9.75127 22.6204 10.0781 21.2579C10.5914 20.216 11.4273 19.7863 12.5859 19.9688C13.86 19.4816 15.1412 19.0128 16.4297 18.5626C16.4958 18.5453 16.5427 18.5063 16.5703 18.4454C15.0183 16.3731 12.9715 15.6309 10.4297 16.2188C8.35017 16.9163 7.04545 18.3303 6.51562 20.461C6.43791 20.895 6.39103 21.3325 6.375 21.7735C6.32733 22.0178 6.19448 22.1975 5.97656 22.3126C4.15124 22.3899 2.32311 22.4055 0.492188 22.3594C0.264632 22.249 0.0927577 22.0849 -0.0234375 21.8673C-0.0234375 21.4141 -0.0234375 20.961 -0.0234375 20.5079C0.46059 16.499 2.39809 13.4131 5.78906 11.2501C9.16744 9.34652 12.6831 9.04961 16.3359 10.3594C20.7972 12.2977 23.3441 15.6805 23.9766 20.5079ZM10.9453 10.4298C11.1484 10.4298 11.3516 10.4298 11.5547 10.4298C11.5547 12.0079 11.5547 13.586 11.5547 15.1641C10.1205 15.28 8.85492 15.7957 7.75781 16.711C6.63281 15.6173 5.52342 14.5079 4.42969 13.3829C6.2722 11.6848 8.44406 10.7005 10.9453 10.4298ZM12.3984 10.4298C15.1477 10.5396 17.5227 11.524 19.5234 13.3829C18.4297 14.5079 17.3203 15.6173 16.1953 16.711C15.0976 15.7953 13.832 15.2797 12.3984 15.1641C12.3984 13.586 12.3984 12.0079 12.3984 10.4298ZM3.77344 13.9923C4.90462 15.1 6.02962 16.2172 7.14844 17.3438C6.11498 18.5448 5.58375 19.9433 5.55469 21.5391C3.97656 21.5391 2.39844 21.5391 0.820312 21.5391C0.858525 18.6416 1.8429 16.126 3.77344 13.9923ZM20.1328 13.9923C22.1033 16.1075 23.1033 18.6231 23.1328 21.5391C21.5547 21.5391 19.9766 21.5391 18.3984 21.5391C18.3995 21.1266 18.3526 20.7204 18.2578 20.3204C19.1797 19.7657 20.1015 19.211 21.0234 18.6563C21.4121 18.2021 21.3965 17.7646 20.9766 17.3438C20.8236 17.2567 20.6595 17.202 20.4844 17.1798C19.4587 17.4956 18.4431 17.8394 17.4375 18.211C17.2552 17.9012 17.0443 17.6121 16.8047 17.3438C17.9235 16.2328 19.0329 15.1156 20.1328 13.9923ZM19.9453 18.211C20.0334 18.206 20.049 18.2294 19.9922 18.2813C18.0122 19.4641 16.02 20.6282 14.0156 21.7735C13.9387 21.315 13.7434 20.9165 13.4297 20.5782C15.5936 19.7554 17.7655 18.9663 19.9453 18.211ZM11.8359 20.7891C12.4958 20.7848 12.9254 21.0973 13.125 21.7266C13.1564 22.7109 12.6798 23.1718 11.6953 23.1094C11.0322 22.8851 10.7432 22.4242 10.8281 21.7266C10.9952 21.2234 11.3311 20.9109 11.8359 20.7891Z" fill="#282828"/>
</g>
<defs>
<clipPath id="clip0_903_384">
<rect width="24" height="24" fill="white"/>
</clipPath>
</defs>
</svg>
