<svg width="32" height="33" viewBox="0 0 32 33" fill="none" xmlns="http://www.w3.org/2000/svg">
<g clip-path="url(#clip0_835_4996)">
<path opacity="0.979" fill-rule="evenodd" clip-rule="evenodd" d="M31.9688 20.2812C31.9688 21.0729 31.9688 21.8645 31.9688 22.6562C31.8365 22.9523 31.6073 23.1294 31.2812 23.1875C30.4062 23.2292 29.5312 23.2292 28.6562 23.1875C28.5349 23.1011 28.4516 22.9865 28.4062 22.8437C28.2756 21.7407 27.6714 20.9802 26.5938 20.5625C25.1241 20.1572 23.9678 20.5844 23.125 21.8437C22.9409 22.174 22.8471 22.5074 22.8438 22.8437C22.7952 23.007 22.691 23.1215 22.5312 23.1875C19.5311 23.2127 16.5311 23.1919 13.5312 23.125C13.4352 23.0556 13.3936 22.9619 13.4062 22.8437C13.0614 21.3115 12.103 20.499 10.5312 20.4062C8.99413 20.5276 8.07744 21.3401 7.78125 22.8437C7.76988 23.0439 7.66575 23.1585 7.46875 23.1875C6.88581 23.2187 6.30244 23.2291 5.71875 23.2187C5.71405 23.4748 5.60988 23.6727 5.40625 23.8125C4.34375 23.8542 3.28125 23.8542 2.21875 23.8125C1.70812 23.7076 1.33312 23.4264 1.09375 22.9687C0.707869 22.9394 0.332866 22.8769 -0.03125 22.7812C-0.03125 21.9479 -0.03125 21.1145 -0.03125 20.2812C0.266934 20.1676 0.579434 20.1259 0.90625 20.1562C0.878194 18.9653 0.909444 17.7778 1 16.5937C2.39583 13.6354 3.79167 10.677 5.1875 7.71873C5.39467 7.44885 5.65509 7.25092 5.96875 7.12498C7.73656 7.02292 9.50737 7.0021 11.2812 7.06248C11.5089 7.3106 11.5297 7.58148 11.3438 7.87498C14.6771 7.89579 18.0104 7.91667 21.3438 7.93748C22.3109 8.1756 22.8629 8.79017 23 9.78123C23.0312 10.1557 23.0416 10.5307 23.0312 10.9062C24.2814 10.8958 25.5314 10.9062 26.7812 10.9375C27.4697 11.0265 28.0218 11.3495 28.4375 11.9062C29.1701 12.8679 29.8784 13.8471 30.5625 14.8437C30.9801 15.7335 31.178 16.671 31.1562 17.6562C31.4536 17.7134 31.6724 17.88 31.8125 18.1562C31.8542 18.677 31.8542 19.1979 31.8125 19.7187C31.7812 19.7812 31.75 19.8437 31.7188 19.9062C31.8323 20.0181 31.9156 20.1431 31.9688 20.2812Z" fill="#424143"/>
<path fill-rule="evenodd" clip-rule="evenodd" d="M6.34375 7.78129C7.77106 7.69823 9.20856 7.69823 10.6562 7.78129C10.6485 7.81923 10.6277 7.84004 10.5938 7.84379C9.95919 7.78167 9.31337 7.76079 8.65625 7.78129C7.88544 7.78129 7.11456 7.78129 6.34375 7.78129Z" fill="#808081"/>
<path fill-rule="evenodd" clip-rule="evenodd" d="M6.34375 7.78125C7.11456 7.78125 7.88544 7.78125 8.65625 7.78125C8.28988 8.75531 7.93569 9.7345 7.59375 10.7188C7.13581 10.6456 6.93788 10.8331 7 11.2812C7.06938 11.3773 7.16313 11.4189 7.28125 11.4062C6.88544 12.5729 6.48956 13.7396 6.09375 14.9062C5.83729 14.8606 5.61854 14.9231 5.4375 15.0938C5.38349 15.3008 5.4564 15.4466 5.65625 15.5312C5.69316 15.5719 5.73483 15.6136 5.78125 15.6562C5.36356 16.7828 4.9469 17.9078 4.53125 19.0312C4.30053 18.9982 4.10261 19.0607 3.9375 19.2188C3.86741 19.5131 3.982 19.6798 4.28125 19.7188C3.8645 20.8649 3.44783 22.0107 3.03125 23.1562C2.35833 23.3145 1.88958 23.0854 1.625 22.4688C1.58333 20.6146 1.58333 18.7604 1.625 16.9062C3 13.9896 4.375 11.0729 5.75 8.15625C5.8936 7.93875 6.09151 7.81375 6.34375 7.78125Z" fill="#DFDFDF"/>
<path fill-rule="evenodd" clip-rule="evenodd" d="M8.65625 7.7813C9.31337 7.7608 9.95919 7.78168 10.5938 7.8438C10.2479 8.79818 9.9145 9.75649 9.59375 10.7188C8.92706 10.7188 8.26044 10.7188 7.59375 10.7188C7.93569 9.73455 8.28988 8.75536 8.65625 7.7813Z" fill="#A5A5A5"/>
<path fill-rule="evenodd" clip-rule="evenodd" d="M14.7188 20.0313C13.8021 20.0313 12.8854 20.0313 11.9688 20.0313C11.0315 19.7001 10.094 19.7001 9.15625 20.0313C8.39512 20.0518 7.64512 20.031 6.90625 19.9688C8.256 16.1906 9.631 12.4198 11.0312 8.65633C14.4269 8.58339 17.8228 8.57302 21.2188 8.62508C21.79 8.7797 22.1546 9.14427 22.3125 9.71883C22.3438 13.0521 22.3542 16.3855 22.3438 19.7188C19.8645 19.7084 17.3853 19.7188 14.9062 19.7501C14.789 19.8075 14.7265 19.9012 14.7188 20.0313Z" fill="#5BDE60"/>
<path fill-rule="evenodd" clip-rule="evenodd" d="M14.6562 9.90626C15.5315 9.89582 16.4065 9.90626 17.2812 9.93751C17.1094 10.0077 16.9532 10.1014 16.8125 10.2188C16.3697 10.917 15.9113 11.6045 15.4375 12.2813C15.3958 12.3438 15.3958 12.4063 15.4375 12.4688C15.5625 12.5521 15.6875 12.6354 15.8125 12.7188C15.8427 12.778 15.8531 12.8405 15.8438 12.9063C15.1967 12.9031 14.5509 12.8719 13.9062 12.8125C13.5509 12.2163 13.2384 11.6018 12.9688 10.9688C13.1876 11.0268 13.3959 11.0998 13.5938 11.1875C13.8357 10.8808 14.0544 10.5579 14.25 10.2188C14.3728 10.0906 14.5082 9.98645 14.6562 9.90626Z" fill="#747474"/>
<path fill-rule="evenodd" clip-rule="evenodd" d="M17.3438 10.1562C17.5946 10.1458 17.8446 10.1563 18.0938 10.1875C18.5048 10.8323 18.8589 11.5095 19.1562 12.2187C19.1328 12.3364 19.0703 12.4302 18.9688 12.5C18.483 12.748 17.9934 12.9877 17.5 13.2187C17.4079 13.1935 17.3246 13.1518 17.25 13.0937C16.9516 12.5177 16.6703 11.9343 16.4062 11.3437C16.6159 10.8592 16.9284 10.4633 17.3438 10.1562Z" fill="#747474"/>
<path fill-rule="evenodd" clip-rule="evenodd" d="M7.28125 11.4062C7.94794 11.4062 8.61456 11.4062 9.28125 11.4062C8.88188 12.5523 8.47563 13.6981 8.0625 14.8438C7.41138 14.9054 6.75512 14.9262 6.09375 14.9062C6.48956 13.7396 6.88544 12.5729 7.28125 11.4062Z" fill="#A4A4A4"/>
<path fill-rule="evenodd" clip-rule="evenodd" d="M22.1562 22.4688C19.4226 22.4893 16.6934 22.4684 13.9688 22.4063C13.6846 21.289 13.0179 20.4973 11.9688 20.0313C12.8854 20.0313 13.8021 20.0313 14.7188 20.0313C14.7121 20.1815 14.7746 20.296 14.9062 20.375C17.5312 20.4167 20.1562 20.4167 22.7812 20.375C22.8333 20.323 22.8854 20.2708 22.9375 20.2188C22.9583 17.3855 22.9792 14.5521 23 11.7188C23.0312 11.6875 23.0625 11.6563 23.0938 11.625C24.3229 11.5833 25.5521 11.5833 26.7812 11.625C27.0764 11.6998 27.3473 11.8248 27.5938 12C28.3991 13.0345 29.1803 14.0866 29.9375 15.1563C30.3493 15.939 30.5263 16.7724 30.4688 17.6563C30.2171 17.6673 30.0401 17.7923 29.9375 18.0313C29.9062 18.5934 29.8959 19.1559 29.9062 19.7188C29.4266 19.7084 28.9474 19.7188 28.4688 19.75C28.2911 19.9762 28.3119 20.1845 28.5312 20.375C29.4477 20.4063 30.3644 20.4167 31.2812 20.4063C31.3013 21.1093 31.2804 21.8072 31.2188 22.5C30.4899 22.5313 29.7607 22.5417 29.0312 22.5313C28.5493 20.759 27.3827 19.8423 25.5312 19.7813C23.7894 19.9022 22.6644 20.7981 22.1562 22.4688Z" fill="#3BAE49"/>
<path fill-rule="evenodd" clip-rule="evenodd" d="M24.2188 12.0313C25.094 12.0208 25.969 12.0313 26.8438 12.0625C26.9998 12.13 27.1456 12.2134 27.2813 12.3125C27.955 13.1704 28.5904 14.0558 29.1875 14.9688C29.297 15.6774 29.0158 16.1461 28.3438 16.375C26.9896 16.4167 25.6355 16.4167 24.2813 16.375C23.8864 16.2223 23.626 15.9411 23.5 15.5313C23.4583 14.6563 23.4583 13.7813 23.5 12.9063C23.6171 12.5085 23.8566 12.2168 24.2188 12.0313Z" fill="#444445"/>
<path fill-rule="evenodd" clip-rule="evenodd" d="M24.4063 12.6562C25.2026 12.6286 25.9943 12.6599 26.7813 12.7499C27.3314 13.5271 27.9043 14.2875 28.5 15.0312C28.5767 15.2869 28.5246 15.5056 28.3438 15.6874C26.9841 15.7485 25.6299 15.7277 24.2813 15.6249C24.2421 15.578 24.2109 15.5259 24.1875 15.4687C24.1458 14.6145 24.1458 13.7604 24.1875 12.9062C24.2735 12.8309 24.3464 12.7475 24.4063 12.6562Z" fill="#C7E8E4"/>
<path fill-rule="evenodd" clip-rule="evenodd" d="M12.7812 12.7188C12.9368 12.7062 13.0827 12.7374 13.2187 12.8125C13.6511 13.0651 14.0781 13.3255 14.5 13.5938C14.5417 13.7188 14.5417 13.8438 14.5 13.9688C14.1979 14.4896 13.8958 15.0105 13.5937 15.5313C13.1786 15.604 12.762 15.6145 12.3437 15.5625C12.0594 15.3824 11.8406 15.1428 11.6875 14.8438C11.653 14.6614 11.6947 14.4947 11.8125 14.3438C12.1496 13.8092 12.4725 13.2675 12.7812 12.7188Z" fill="#747474"/>
<path fill-rule="evenodd" clip-rule="evenodd" d="M18.406 12.9688C19.0727 12.9688 19.7393 12.9688 20.406 12.9688C20.4153 13.0345 20.4049 13.097 20.3748 13.1562C20.2063 13.2241 20.0708 13.3282 19.9685 13.4688C20.1514 13.8501 20.3493 14.2251 20.5623 14.5938C20.6039 14.7396 20.6039 14.8854 20.5623 15.0312C20.2043 15.8098 19.8293 16.5806 19.4373 17.3438C19.4228 17.0885 19.3811 16.8385 19.3123 16.5938C18.9156 15.883 18.4885 15.1955 18.031 14.5312C17.8469 14.6339 17.6594 14.7172 17.4685 14.7812C17.4605 14.6466 17.4918 14.5216 17.5623 14.4062C17.8443 13.9254 18.1255 13.4462 18.406 12.9688Z" fill="#747474"/>
<path fill-rule="evenodd" clip-rule="evenodd" d="M15.0938 15.1563C15.156 15.151 15.2081 15.1718 15.25 15.2188C15.5531 15.7715 15.8552 16.3237 16.1562 16.8751C15.8447 17.437 15.5322 17.9995 15.2188 18.5626C15.1594 18.6012 15.1074 18.5908 15.0625 18.5313C15.0314 18.345 15.0209 18.1575 15.0312 17.9688C14.5724 17.9792 14.1141 17.9688 13.6562 17.9376C13.5729 17.8959 13.4896 17.8543 13.4062 17.8126C12.8482 17.0973 12.3691 16.3577 11.9688 15.5938C12.0438 15.6583 12.1271 15.7104 12.2188 15.7501C13.156 15.7813 14.0935 15.7918 15.0312 15.7813C15.0158 15.5664 15.0366 15.3581 15.0938 15.1563Z" fill="#747474"/>
<path fill-rule="evenodd" clip-rule="evenodd" d="M5.65625 15.5312C6.36581 15.5105 7.07413 15.5313 7.78125 15.5937C7.37687 16.7235 6.96019 17.8485 6.53125 18.9687C5.86588 19.0311 5.19921 19.052 4.53125 19.0312C4.9469 17.9078 5.36356 16.7828 5.78125 15.6562C5.73483 15.6136 5.69316 15.5719 5.65625 15.5312Z" fill="#A4A4A4"/>
<path fill-rule="evenodd" clip-rule="evenodd" d="M16.5938 15.8438C17.2608 15.8333 17.9275 15.8438 18.5938 15.875C18.7996 16.2136 18.9975 16.5574 19.1875 16.9063C19.2236 17.2979 19.109 17.6417 18.8438 17.9375C18.073 17.9792 17.3021 17.9792 16.5313 17.9375C16.4921 17.8906 16.4609 17.8385 16.4375 17.7813C16.3958 17.1979 16.3958 16.6146 16.4375 16.0313C16.5028 15.9767 16.5549 15.9142 16.5938 15.8438Z" fill="#747474"/>
<path fill-rule="evenodd" clip-rule="evenodd" d="M24.4689 16.8437C24.8652 16.8334 25.261 16.8437 25.6564 16.875C25.823 17.0625 25.823 17.25 25.6564 17.4375C25.2605 17.4792 24.8647 17.4792 24.4689 17.4375C24.2239 17.24 24.2239 17.042 24.4689 16.8437Z" fill="#424143"/>
<path fill-rule="evenodd" clip-rule="evenodd" d="M30.5938 18.2813C31.1146 18.2197 31.3021 18.4488 31.1562 18.9688C31.3059 19.4955 31.1184 19.7038 30.5938 19.5938C30.5938 19.1563 30.5938 18.7188 30.5938 18.2813Z" fill="#FBE67E"/>
<path fill-rule="evenodd" clip-rule="evenodd" d="M4.28125 19.7188C4.94824 19.7083 5.61491 19.7188 6.28125 19.75C5.84646 20.8563 5.42979 21.9709 5.03125 23.0938C4.36588 23.1562 3.69921 23.177 3.03125 23.1563C3.44783 22.0108 3.86449 20.8649 4.28125 19.7188Z" fill="#A4A4A4"/>
<path fill-rule="evenodd" clip-rule="evenodd" d="M6.90625 19.9688C7.64512 20.0309 8.39512 20.0518 9.15625 20.0312C8.09137 20.5143 7.42469 21.3268 7.15625 22.4688C6.75462 22.5075 6.37962 22.4658 6.03125 22.3438C6.29081 21.5343 6.5825 20.7426 6.90625 19.9688Z" fill="#3BAE49"/>
<path fill-rule="evenodd" clip-rule="evenodd" d="M13.4062 22.8438C13.3229 22.8438 13.2396 22.8438 13.1562 22.8438C12.5934 21.1349 11.4268 20.4786 9.65625 20.875C8.75894 21.2408 8.21725 21.8971 8.03125 22.8438C7.94794 22.8438 7.86456 22.8438 7.78125 22.8438C8.07744 21.3401 8.99413 20.5276 10.5312 20.4062C12.103 20.4991 13.0614 21.3116 13.4062 22.8438Z" fill="#9F9F9F"/>
<path fill-rule="evenodd" clip-rule="evenodd" d="M28.4062 22.8438C28.3229 22.8438 28.2396 22.8438 28.1562 22.8438C27.813 21.484 26.938 20.7757 25.5312 20.7188C24.2162 20.8676 23.3829 21.576 23.0312 22.8438C22.9688 22.8438 22.9062 22.8438 22.8438 22.8438C22.8471 22.5074 22.9409 22.1741 23.125 21.8438C23.9678 20.5844 25.1241 20.1573 26.5938 20.5625C27.6714 20.9803 28.2756 21.7407 28.4062 22.8438Z" fill="#9E9E9E"/>
<path opacity="0.971" fill-rule="evenodd" clip-rule="evenodd" d="M13.1563 22.8436C13.2364 24.6281 12.3926 25.6489 10.625 25.9061C8.77427 25.7121 7.90964 24.6913 8.03127 22.8436C8.21727 21.8969 8.75896 21.2407 9.65627 20.8749C11.4268 20.4785 12.5935 21.1348 13.1563 22.8436Z" fill="#424042"/>
<path opacity="0.972" fill-rule="evenodd" clip-rule="evenodd" d="M28.1562 22.8438C28.2914 24.6467 27.458 25.6675 25.6562 25.9062C23.8059 25.7286 22.9309 24.7077 23.0312 22.8438C23.3828 21.5759 24.2161 20.8676 25.5312 20.7188C26.9379 20.7756 27.8129 21.484 28.1562 22.8438Z" fill="#414042"/>
<path fill-rule="evenodd" clip-rule="evenodd" d="M0.906445 22.2188C0.906445 21.7812 0.906445 21.3438 0.906445 20.9062C0.823114 20.9062 0.739777 20.9062 0.656445 20.9062C0.656445 21.3438 0.656445 21.7812 0.656445 22.2188C0.594469 21.772 0.573635 21.3137 0.593945 20.8438C0.718945 20.8438 0.843945 20.8438 0.968945 20.8438C0.989258 21.3137 0.96842 21.772 0.906445 22.2188Z" fill="#B06875"/>
<path fill-rule="evenodd" clip-rule="evenodd" d="M0.90625 22.2188C0.822919 22.2188 0.739581 22.2188 0.65625 22.2188C0.65625 21.7812 0.65625 21.3438 0.65625 20.9062C0.739581 20.9062 0.822919 20.9062 0.90625 20.9062C0.90625 21.3438 0.90625 21.7812 0.90625 22.2188Z" fill="#FE8599"/>
<path fill-rule="evenodd" clip-rule="evenodd" d="M10.1564 21.4063C11.2988 21.2895 12.0592 21.7687 12.4377 22.8438C12.5955 24.1015 12.0643 24.8827 10.8439 25.1876C9.65873 25.2458 8.93998 24.6936 8.68767 23.5313C8.63685 22.4444 9.12648 21.7361 10.1564 21.4063Z" fill="#747474"/>
<path fill-rule="evenodd" clip-rule="evenodd" d="M25.0935 21.4062C26.7179 21.2913 27.52 22.0413 27.4998 23.6562C27.1623 24.747 26.4227 25.2574 25.281 25.1875C23.8665 24.702 23.4186 23.7542 23.9373 22.3437C24.2243 21.8996 24.6096 21.5871 25.0935 21.4062Z" fill="#747474"/>
<path fill-rule="evenodd" clip-rule="evenodd" d="M10.1561 22.0939C11.2924 21.9701 11.8236 22.4701 11.7498 23.5939C11.4995 24.2814 11.0099 24.5836 10.2811 24.5001C9.56333 24.2398 9.26127 23.7294 9.37483 22.9689C9.50758 22.5537 9.76802 22.262 10.1561 22.0939Z" fill="#424143"/>
<path fill-rule="evenodd" clip-rule="evenodd" d="M25.2188 22.0937C25.992 21.9541 26.5232 22.2458 26.8125 22.9687C26.8667 24.1438 26.3146 24.6334 25.1563 24.4375C24.5396 24.11 24.3 23.5997 24.4375 22.9062C24.5846 22.5197 24.845 22.2488 25.2188 22.0937Z" fill="#424143"/>
<path fill-rule="evenodd" clip-rule="evenodd" d="M6.03148 22.3438C6.37986 22.4658 6.75486 22.5075 7.15648 22.4688C6.77242 22.5306 6.37661 22.5514 5.96898 22.5312C5.95415 22.4506 5.97498 22.3881 6.03148 22.3438Z" fill="#7A956F"/>
<path fill-rule="evenodd" clip-rule="evenodd" d="M13.9688 22.4062C16.6934 22.4684 19.4226 22.4893 22.1562 22.4688C20.8022 22.5104 19.4377 22.5312 18.0625 22.5312C16.6764 22.5312 15.3119 22.4896 13.9688 22.4062Z" fill="#7C9670"/>
<path fill-rule="evenodd" clip-rule="evenodd" d="M10.4064 22.7188C11.006 22.7316 11.2248 23.0233 11.0627 23.5938C10.872 23.8206 10.6325 23.8936 10.3439 23.8125C10.053 23.6314 9.95923 23.3711 10.0627 23.0312C10.1708 22.9124 10.2854 22.8082 10.4064 22.7188Z" fill="#9B9B9B"/>
<path fill-rule="evenodd" clip-rule="evenodd" d="M25.4061 22.7187C25.9705 22.7098 26.2101 22.9807 26.1249 23.5312C25.9661 23.8168 25.7264 23.9105 25.4061 23.8125C24.9096 23.4481 24.9096 23.0835 25.4061 22.7187Z" fill="#9A9A9A"/>
</g>
<defs>
<clipPath id="clip0_835_4996">
<rect width="32" height="32" fill="white" transform="translate(0 0.5)"/>
</clipPath>
</defs>
</svg>
