<svg width="24" height="24" viewBox="0 0 24 24" fill="none" xmlns="http://www.w3.org/2000/svg">
<g clip-path="url(#clip0_769_15318)">
<path opacity="0.982" fill-rule="evenodd" clip-rule="evenodd" d="M6.3047 -0.0234375C7.0547 -0.0234375 7.8047 -0.0234375 8.5547 -0.0234375C8.84715 0.121046 9.02687 0.355421 9.09376 0.679688C9.12503 1.03906 9.12503 1.39844 9.09376 1.75781C9.03001 1.94998 8.89721 2.05936 8.69532 2.08594C7.85157 2.02344 7.00782 2.02344 6.16407 2.08594C5.96218 2.05936 5.82939 1.94998 5.76564 1.75781C5.73437 1.36719 5.73437 0.976561 5.76564 0.585938C5.87218 0.315485 6.05186 0.11236 6.3047 -0.0234375Z" fill="#E64B3B"/>
<path opacity="0.99" fill-rule="evenodd" clip-rule="evenodd" d="M19.6174 -0.0234375C19.883 -0.0234375 20.1486 -0.0234375 20.4142 -0.0234375C20.7042 0.0748345 20.9699 0.223272 21.2111 0.421875C21.7807 0.886308 22.3589 1.33943 22.9455 1.78125C23.846 2.6652 23.8773 3.57926 23.0392 4.52344C22.2509 3.93364 21.4697 3.33207 20.6955 2.71875C20.2217 2.58287 20.0264 2.76256 20.1096 3.25781C20.8943 3.92702 21.699 4.56765 22.5236 5.17969C22.3147 5.44345 22.096 5.70127 21.8674 5.95312C21.7069 5.98814 21.5506 5.98031 21.3986 5.92969C20.1206 4.85334 18.8081 3.82208 17.4611 2.83594C17.3336 2.68697 17.2945 2.5151 17.3439 2.32031C17.5332 2.03435 17.7441 1.76873 17.9767 1.52344C17.9936 1.61114 18.0404 1.68145 18.1174 1.73438C18.3986 1.95313 18.6799 2.17187 18.9611 2.39062C19.4928 2.46109 19.6647 2.25015 19.4767 1.75781C19.1711 1.49115 18.8586 1.23334 18.5392 0.984375C18.4948 0.961744 18.4479 0.95393 18.3986 0.960938C18.6813 0.476325 19.0876 0.148201 19.6174 -0.0234375Z" fill="#8596CA"/>
<path fill-rule="evenodd" clip-rule="evenodd" d="M18.3984 0.960981C18.4478 0.953973 18.4946 0.961787 18.5391 0.984419C18.8584 1.23338 19.1709 1.49119 19.4766 1.75786C19.6645 2.25019 19.4926 2.46113 18.9609 2.39067C18.6797 2.17192 18.3984 1.95317 18.1172 1.73442C18.0403 1.6815 17.9934 1.61118 17.9766 1.52348C18.0949 1.31741 18.2355 1.12991 18.3984 0.960981Z" fill="#566181"/>
<path opacity="0.993" fill-rule="evenodd" clip-rule="evenodd" d="M8.69531 2.08594C8.68753 2.36762 8.69536 2.64887 8.71875 2.92969C8.78264 3.25307 8.9467 3.51088 9.21094 3.70312C9.86151 4.09588 10.3771 4.61931 10.7578 5.27344C10.748 5.34009 10.7246 5.40258 10.6875 5.46094C9.83986 6.51633 9.00394 7.57884 8.17969 8.64844C6.67969 8.64844 5.17969 8.64844 3.67969 8.64844C3.67188 7.992 3.67969 7.33575 3.70312 6.67969C3.89838 5.31319 4.59369 4.28977 5.78906 3.60937C6.13645 3.16201 6.26147 2.6542 6.16406 2.08594C7.00781 2.02344 7.85156 2.02344 8.69531 2.08594Z" fill="#805333"/>
<path fill-rule="evenodd" clip-rule="evenodd" d="M23.0391 4.52337C22.8658 4.74326 22.6939 4.96203 22.5235 5.17962C21.6989 4.56758 20.8942 3.92696 20.1094 3.25775C20.0263 2.76249 20.2216 2.58281 20.6954 2.71868C21.4696 3.33201 22.2508 3.93357 23.0391 4.52337Z" fill="#556081"/>
<path opacity="0.997" fill-rule="evenodd" clip-rule="evenodd" d="M17.4609 2.83594C18.8079 3.82208 20.1204 4.85334 21.3984 5.92969C20.8322 6.76486 20.6916 7.67109 20.9766 8.64844C17.6016 8.64844 14.2266 8.64844 10.8516 8.64844C11.4431 7.87697 12.0446 7.11136 12.6562 6.35156C12.7845 5.88366 12.6048 5.68833 12.1172 5.76562C11.324 6.70294 10.5584 7.66388 9.82031 8.64844C9.27342 8.64844 8.72658 8.64844 8.17969 8.64844C9.00394 7.57884 9.83986 6.51633 10.6875 5.46094C10.7246 5.40258 10.748 5.34009 10.7578 5.27344C11.2537 4.61112 11.9099 4.19706 12.7266 4.03125C13.6477 3.95903 14.5695 3.89653 15.4922 3.84375C16.2857 3.76734 16.9419 3.43141 17.4609 2.83594Z" fill="#3B97D2"/>
<path fill-rule="evenodd" clip-rule="evenodd" d="M6.25757 4.8047C6.6539 4.75599 6.84923 4.92788 6.84351 5.32032C6.59606 5.56777 6.34603 5.8178 6.09351 6.07032C5.84465 6.45737 5.71964 6.87924 5.71851 7.33595C5.44472 7.6591 5.19468 7.64349 4.96851 7.28907C4.9274 6.21498 5.35711 5.38684 6.25757 4.8047Z" fill="#FCFBFA"/>
<path fill-rule="evenodd" clip-rule="evenodd" d="M10.8516 8.64852C10.5078 8.64852 10.164 8.64852 9.82031 8.64852C10.5584 7.66395 11.324 6.70302 12.1172 5.7657C12.6048 5.68841 12.7845 5.88374 12.6563 6.35164C12.0446 7.11144 11.4431 7.87705 10.8516 8.64852Z" fill="#FCFDFE"/>
<path opacity="0.997" fill-rule="evenodd" clip-rule="evenodd" d="M3.67969 8.64844C5.17969 8.64844 6.67969 8.64844 8.17969 8.64844C8.72658 8.64844 9.27342 8.64844 9.82031 8.64844C10.164 8.64844 10.5078 8.64844 10.8516 8.64844C14.2266 8.64844 17.6016 8.64844 20.9766 8.64844C21.7736 8.64062 22.5705 8.64844 23.3672 8.67188C23.6692 8.74768 23.8723 8.92735 23.9766 9.21094C23.9766 9.82032 23.9766 10.4297 23.9766 11.0391C23.7072 11.5016 23.301 11.6891 22.7578 11.6016C15.5703 11.5391 8.3828 11.5391 1.19531 11.6016C0.652167 11.6891 0.245918 11.5016 -0.0234375 11.0391C-0.0234375 10.4297 -0.0234375 9.82032 -0.0234375 9.21094C0.0808364 8.92735 0.283961 8.74768 0.585938 8.67188C1.61707 8.64844 2.64832 8.64062 3.67969 8.64844Z" fill="#4FB96F"/>
<path opacity="0.999" fill-rule="evenodd" clip-rule="evenodd" d="M22.7578 11.6016C22.1559 15.26 21.5387 18.9163 20.9062 22.5703C20.6344 23.3263 20.111 23.795 19.3359 23.9766C14.4297 23.9766 9.52345 23.9766 4.61719 23.9766C3.84217 23.795 3.31873 23.3263 3.04688 22.5703C2.41443 18.9163 1.79724 15.26 1.19531 11.6016C8.3828 11.5391 15.5703 11.5391 22.7578 11.6016Z" fill="#24AE5F"/>
<path fill-rule="evenodd" clip-rule="evenodd" d="M11.6953 14.3203C12.1516 14.2682 12.5501 14.3933 12.8906 14.6953C13.2268 15.2111 13.5393 15.7424 13.8281 16.2891C13.8106 16.7474 13.5841 16.8958 13.1484 16.7344C12.8573 16.285 12.5839 15.8241 12.3281 15.3516C12.0938 15.1016 11.8594 15.1016 11.625 15.3516C11.3693 15.8241 11.0958 16.285 10.8047 16.7344C10.367 16.895 10.1405 16.7465 10.125 16.2891C10.3906 15.8203 10.6562 15.3516 10.9219 14.8828C11.1225 14.6112 11.3804 14.4237 11.6953 14.3203Z" fill="#FCFEFC"/>
<path fill-rule="evenodd" clip-rule="evenodd" d="M9.07035 18.3047C9.52007 18.3143 9.68413 18.5331 9.56253 18.9609C9.34377 19.3359 9.12505 19.7109 8.90628 20.0859C8.83274 20.3262 8.90305 20.5059 9.11722 20.625C9.63285 20.6406 10.1485 20.6563 10.6641 20.6719C10.9817 20.8676 11.0285 21.1176 10.8047 21.4219C10.1998 21.4982 9.59042 21.5138 8.9766 21.4688C8.25828 21.2122 7.9536 20.7043 8.06253 19.9453C8.28796 19.4632 8.53799 18.9944 8.81253 18.5391C8.89363 18.4499 8.97955 18.3718 9.07035 18.3047Z" fill="#FCFEFD"/>
<path fill-rule="evenodd" clip-rule="evenodd" d="M14.6482 18.3047C14.8568 18.2879 15.0209 18.366 15.1404 18.5391C15.4149 18.9944 15.665 19.4632 15.8904 19.9453C15.9967 20.6314 15.7388 21.1235 15.1169 21.4219C14.4946 21.4965 13.8696 21.5121 13.2419 21.4688C13.0237 21.333 12.9534 21.1377 13.031 20.8828C13.0857 20.8281 13.1404 20.7735 13.1951 20.7188C13.7374 20.6582 14.2843 20.627 14.8357 20.625C15.0499 20.5059 15.1202 20.3262 15.0466 20.086C14.7791 19.6445 14.5369 19.1914 14.3201 18.7266C14.3523 18.5195 14.4617 18.3789 14.6482 18.3047Z" fill="#FCFEFD"/>
</g>
<defs>
<clipPath id="clip0_769_15318">
<rect width="24" height="24" fill="white"/>
</clipPath>
</defs>
</svg>
