<svg width="24" height="24" viewBox="0 0 24 24" fill="none" xmlns="http://www.w3.org/2000/svg">
<path opacity="0.954" fill-rule="evenodd" clip-rule="evenodd" d="M18.0705 0.726534C18.4401 0.634017 18.6979 0.759019 18.844 1.10153C19.3817 2.9099 19.9051 4.72239 20.4143 6.53903C20.3578 6.88455 20.1547 7.07983 19.8049 7.12497C18.1459 7.59986 16.4896 8.08422 14.8362 8.5781C14.5912 8.63266 14.3647 8.59361 14.1565 8.46091C13.5815 6.65786 13.0347 4.84535 12.5159 3.02341C12.4278 2.71397 12.5137 2.47178 12.7737 2.29685C14.5488 1.78568 16.3144 1.26225 18.0705 0.726534Z" fill="#030100"/>
<path fill-rule="evenodd" clip-rule="evenodd" d="M18.2109 1.24219C18.2578 1.24219 18.3047 1.24219 18.3516 1.24219C18.8369 2.98735 19.3369 4.72955 19.8516 6.46875C19.7962 6.55008 19.718 6.59695 19.6172 6.60938C17.9394 7.08797 16.2675 7.58016 14.6016 8.08594C14.0561 6.33225 13.5248 4.57446 13.0078 2.8125C13.5637 2.61943 14.1262 2.43974 14.6953 2.27344C14.9071 2.83877 15.0868 3.4169 15.2344 4.00781C15.3136 4.18185 15.4465 4.23653 15.6328 4.17188C15.7973 3.96842 15.9692 3.7731 16.1484 3.58594C16.4204 3.71078 16.7017 3.7811 16.9922 3.79688C17.0792 3.74145 17.1261 3.66333 17.1328 3.5625C16.9562 2.94665 16.7843 2.32946 16.6172 1.71094C17.1612 1.58151 17.6925 1.42526 18.2109 1.24219Z" fill="#A45520"/>
<path opacity="0.938" fill-rule="evenodd" clip-rule="evenodd" d="M8.74235 1.66406C9.44566 1.65625 10.1488 1.66407 10.8517 1.6875C10.9111 1.70201 10.9658 1.72544 11.0158 1.75781C11.0849 2.65971 11.1084 3.56596 11.0861 4.47656C11.3873 4.45924 11.6841 4.48267 11.9767 4.54687C12.0603 4.65202 12.0837 4.7692 12.047 4.89844C11.3908 5.83594 10.7345 6.77344 10.0783 7.71094C9.92289 7.87992 9.751 7.89558 9.56266 7.75781C8.90641 6.82031 8.25016 5.88281 7.59391 4.94531C7.52556 4.74464 7.58022 4.59622 7.75797 4.5C8.02314 4.47659 8.28878 4.46877 8.55485 4.47656C8.54702 3.5858 8.55485 2.69517 8.57828 1.80469C8.63196 1.75142 8.68666 1.70454 8.74235 1.66406Z" fill="#020200"/>
<path fill-rule="evenodd" clip-rule="evenodd" d="M15.9609 1.89844C16.0234 1.89844 16.086 1.89844 16.1484 1.89844C16.2393 2.30084 16.3487 2.69928 16.4766 3.09375C16.461 3.11719 16.4453 3.14062 16.4297 3.16406C16.2703 3.06128 16.0985 3.02221 15.9141 3.04688C15.795 3.15022 15.6934 3.26741 15.6094 3.39844C15.4914 2.98983 15.3586 2.58359 15.2109 2.17969C15.4588 2.07121 15.7088 1.97746 15.9609 1.89844Z" fill="#F29C2E"/>
<path fill-rule="evenodd" clip-rule="evenodd" d="M9.07031 2.22656C9.55467 2.22656 10.0391 2.22656 10.5234 2.22656C10.5156 3.1017 10.5234 3.9767 10.5469 4.85156C10.5703 4.93748 10.625 4.99219 10.7109 5.01562C10.8984 5.03123 11.0859 5.04689 11.2734 5.0625C10.7833 5.73806 10.299 6.41775 9.82031 7.10156C9.31927 6.44386 8.83491 5.772 8.36719 5.08594C8.53697 5.04727 8.70886 5.02383 8.88281 5.01562C8.94989 4.99383 9.00455 4.95473 9.04688 4.89844C9.07031 4.00795 9.07814 3.11732 9.07031 2.22656Z" fill="#3BAE49"/>
<path opacity="0.94" fill-rule="evenodd" clip-rule="evenodd" d="M2.92949 5.13281C3.32189 5.14116 3.68127 5.25834 4.00762 5.48438C4.44512 5.73436 4.88264 5.98439 5.32012 6.23438C5.64515 6.48637 5.87174 6.80667 5.99981 7.19531C6.1221 7.81988 6.23929 8.44486 6.35137 9.07031C11.2264 9.06248 16.1014 9.07031 20.9764 9.09375C21.5202 9.26705 21.7311 9.63422 21.6092 10.1953C21.1042 12.8663 20.6041 15.5381 20.1092 18.2109C20.0176 18.6307 19.7598 18.8729 19.3357 18.9375C15.3982 18.9531 11.4607 18.9688 7.52324 18.9844C7.39823 19.1094 7.39823 19.2344 7.52324 19.3594C8.1951 19.3906 8.86701 19.3906 9.53887 19.3594C9.69159 19.3494 9.83999 19.326 9.98418 19.2891C10.1284 19.326 10.2768 19.3494 10.4295 19.3594C12.3826 19.3906 14.3357 19.3906 16.2889 19.3594C16.4416 19.3494 16.59 19.326 16.7342 19.2891C17.5364 19.3549 18.341 19.4095 19.1482 19.4531C19.5978 19.6951 19.7462 20.0623 19.5936 20.5547C19.4039 20.9194 19.0992 21.0991 18.6795 21.0938C18.7311 22.0369 18.3248 22.7087 17.4607 23.1094C16.3015 23.4396 15.4499 23.0724 14.9061 22.0078C14.8063 21.7035 14.7673 21.391 14.7889 21.0703C13.8358 21.0703 12.8826 21.0703 11.9295 21.0703C11.9374 22.3995 11.2812 23.1182 9.96074 23.2266C8.66985 23.0918 8.0136 22.373 7.99199 21.0703C6.43804 21.0867 5.71148 20.3211 5.81231 18.7734C5.90821 18.402 6.07228 18.066 6.30449 17.7656C5.66568 14.3998 5.03287 11.0326 4.40606 7.66406C3.83158 7.31034 3.24564 6.97439 2.64824 6.65625C2.33959 6.40514 2.23802 6.0848 2.34356 5.69531C2.47335 5.43258 2.66866 5.24508 2.92949 5.13281Z" fill="#010101"/>
<path fill-rule="evenodd" clip-rule="evenodd" d="M5.88278 9.53907C10.8669 9.63273 15.8669 9.664 20.8828 9.63282C21.0286 9.66929 21.1067 9.76304 21.1172 9.91407C20.6125 12.6172 20.1047 15.3204 19.5937 18.0234C19.583 18.1621 19.5283 18.2793 19.4297 18.375C15.4297 18.3906 11.4296 18.4063 7.42966 18.4219C6.89983 18.681 6.76703 19.0794 7.03122 19.6172C7.13622 19.7532 7.26901 19.8548 7.42966 19.9219C7.80466 19.9375 8.17966 19.9532 8.55466 19.9688C8.40672 20.124 8.2817 20.2959 8.17966 20.4844C7.23836 20.6822 6.6212 20.3306 6.32809 19.4297C6.25037 18.882 6.42222 18.4289 6.84372 18.0703C6.25122 14.533 5.61062 11.0018 4.92184 7.47657C4.8573 7.37092 4.78698 7.26939 4.71091 7.17189C4.11715 6.84376 3.52341 6.51564 2.92966 6.18751C2.79987 6.01843 2.81549 5.8622 2.97653 5.71876C3.07028 5.6875 3.16403 5.6875 3.25778 5.71876C3.81214 6.00371 4.35902 6.30057 4.89841 6.60939C5.21922 6.83668 5.43016 7.14137 5.53122 7.52345C5.6687 8.19226 5.78589 8.86412 5.88278 9.53907Z" fill="#A4A4A4"/>
<path fill-rule="evenodd" clip-rule="evenodd" d="M15.6797 5.78909C16.0427 5.76791 16.1521 5.91636 16.0078 6.23441C15.5752 6.38164 15.1377 6.51448 14.6953 6.63284C14.4308 6.56502 14.3683 6.41656 14.5078 6.18753C14.9013 6.04667 15.2919 5.91383 15.6797 5.78909Z" fill="#070301"/>
<path fill-rule="evenodd" clip-rule="evenodd" d="M15.914 6.49216C16.2919 6.47959 16.3856 6.63587 16.1952 6.96091C15.7671 7.09061 15.3374 7.21558 14.9062 7.33591C14.6863 7.30277 14.6082 7.17775 14.6718 6.96091C14.7109 6.92186 14.7499 6.88277 14.789 6.84372C15.1739 6.73998 15.5489 6.6228 15.914 6.49216Z" fill="#070301"/>
<path fill-rule="evenodd" clip-rule="evenodd" d="M5.88281 9.53906C10.8874 9.57023 15.8874 9.60145 20.8828 9.63281C15.867 9.66398 10.8669 9.63272 5.88281 9.53906Z" fill="#212121"/>
<path fill-rule="evenodd" clip-rule="evenodd" d="M20.4607 10.2422C15.6639 10.2422 10.867 10.2422 6.07011 10.2422C6.07011 10.289 6.07011 10.3359 6.07011 10.3828C6.02633 10.3327 6.01068 10.2703 6.02324 10.1953C10.8436 10.1797 15.6561 10.1953 20.4607 10.2422Z" fill="#161616"/>
<path fill-rule="evenodd" clip-rule="evenodd" d="M20.4609 10.2422C19.9721 12.7688 19.5034 15.3 19.0547 17.8359C15.1797 17.8359 11.3047 17.8359 7.42969 17.8359C6.98259 15.3505 6.52945 12.8661 6.07031 10.3828C6.07031 10.3359 6.07031 10.2891 6.07031 10.2422C10.8672 10.2422 15.6641 10.2422 20.4609 10.2422Z" fill="#030303"/>
<path fill-rule="evenodd" clip-rule="evenodd" d="M16.8983 10.8047C15.7814 10.7579 14.6564 10.7423 13.5233 10.7578C13.5233 11.3516 13.5233 11.9453 13.5233 12.5391C13.4767 11.938 13.461 11.3286 13.4764 10.7109C14.6331 10.6953 15.7894 10.7109 16.9452 10.7578C16.9394 10.7863 16.9238 10.8019 16.8983 10.8047Z" fill="#C7C7C7"/>
<path fill-rule="evenodd" clip-rule="evenodd" d="M6.63281 10.7109C7.42969 10.7109 8.22656 10.7109 9.02344 10.7109C9.14255 11.3163 9.2363 11.9257 9.30469 12.5391C8.52342 12.5391 7.7422 12.5391 6.96094 12.5391C6.87328 11.9255 6.76392 11.3161 6.63281 10.7109Z" fill="#FBFBFB"/>
<path fill-rule="evenodd" clip-rule="evenodd" d="M9.53906 10.7109C10.6797 10.7109 11.8203 10.7109 12.9609 10.7109C12.9609 11.3203 12.9609 11.9297 12.9609 12.5391C11.9141 12.5391 10.8672 12.5391 9.82031 12.5391C9.7417 11.9269 9.64795 11.3175 9.53906 10.7109Z" fill="#FDFDFD"/>
<path fill-rule="evenodd" clip-rule="evenodd" d="M16.8984 10.8046C16.8142 11.3821 16.7361 11.9602 16.6641 12.539C15.6172 12.539 14.5703 12.539 13.5234 12.539C13.5234 11.9452 13.5234 11.3515 13.5234 10.7578C14.6565 10.7422 15.7815 10.7578 16.8984 10.8046Z" fill="#FEFEFE"/>
<path fill-rule="evenodd" clip-rule="evenodd" d="M17.4609 10.7109C18.2578 10.7109 19.0547 10.7109 19.8516 10.7109C19.7348 11.3186 19.6254 11.928 19.5234 12.5391C18.7422 12.5391 17.961 12.5391 17.1797 12.5391C17.2382 11.9226 17.3319 11.3132 17.4609 10.7109Z" fill="#FBFBFB"/>
<path fill-rule="evenodd" clip-rule="evenodd" d="M7.10156 13.0547C7.86736 13.0469 8.63297 13.0547 9.39844 13.0781C9.56353 13.8753 9.68855 14.68 9.77344 15.4922C9.02344 15.4922 8.27344 15.4922 7.52344 15.4922C7.36542 14.6828 7.2248 13.8703 7.10156 13.0547Z" fill="#FCFCFC"/>
<path fill-rule="evenodd" clip-rule="evenodd" d="M12.9609 13.0547C12.9609 13.8516 12.9609 14.6484 12.9609 15.4453C12.0593 15.475 11.1687 15.4438 10.2891 15.3516C10.1943 14.5964 10.0693 13.8464 9.91406 13.1016C10.9292 13.0547 11.9448 13.0391 12.9609 13.0547Z" fill="#FEFEFE"/>
<path fill-rule="evenodd" clip-rule="evenodd" d="M13.5234 13.0547C14.5234 13.0547 15.5235 13.0547 16.5234 13.0547C16.4126 13.8598 16.2876 14.6567 16.1484 15.4453C15.2734 15.4453 14.3985 15.4453 13.5234 15.4453C13.5234 14.6484 13.5234 13.8516 13.5234 13.0547Z" fill="#FEFEFE"/>
<path fill-rule="evenodd" clip-rule="evenodd" d="M17.0391 13.0547C17.8203 13.0547 18.6015 13.0547 19.3828 13.0547C19.2596 13.8703 19.119 14.6827 18.9609 15.4922C18.2109 15.4922 17.4609 15.4922 16.7109 15.4922C16.8101 14.6785 16.9194 13.866 17.0391 13.0547Z" fill="#FCFCFC"/>
<path fill-rule="evenodd" clip-rule="evenodd" d="M12.9609 13.0547C13.0077 13.859 13.0233 14.6715 13.0078 15.4922C12.1016 15.4922 11.1953 15.4922 10.2891 15.4922C10.2891 15.4453 10.2891 15.3984 10.2891 15.3516C11.1687 15.4438 12.0593 15.475 12.9609 15.4453C12.9609 14.6484 12.9609 13.8516 12.9609 13.0547Z" fill="#ABABAB"/>
<path fill-rule="evenodd" clip-rule="evenodd" d="M13.5234 13.0547C13.5234 13.8516 13.5234 14.6484 13.5234 15.4453C14.3984 15.4453 15.2733 15.4453 16.1484 15.4453C15.2659 15.492 14.3753 15.5077 13.4765 15.4922C13.461 14.6715 13.4766 13.859 13.5234 13.0547Z" fill="#B8B8B8"/>
<path fill-rule="evenodd" clip-rule="evenodd" d="M12.961 16.0077C12.1002 15.9771 11.2564 16.0083 10.4297 16.1015C10.3874 16.0682 10.3717 16.0214 10.3829 15.9609C11.2504 15.9454 12.1098 15.961 12.961 16.0077Z" fill="#343434"/>
<path fill-rule="evenodd" clip-rule="evenodd" d="M10.0547 17.1328C10.0547 17.1797 10.0547 17.2266 10.0547 17.2734C9.3203 17.2734 8.58595 17.2734 7.85156 17.2734C7.78425 16.8561 7.70616 16.442 7.61719 16.0313C8.38266 16.0078 9.14827 16 9.91406 16.0078C9.96089 16.3827 10.0078 16.7577 10.0547 17.1328Z" fill="#FDFDFD"/>
<path fill-rule="evenodd" clip-rule="evenodd" d="M12.9609 16.0077C12.9609 16.4296 12.9609 16.8515 12.9609 17.2733C12.1797 17.2733 11.3985 17.2733 10.6172 17.2733C10.5509 16.8837 10.4884 16.4931 10.4297 16.1015C11.2564 16.0083 12.1001 15.9771 12.9609 16.0077Z" fill="#FEFEFE"/>
<path fill-rule="evenodd" clip-rule="evenodd" d="M13.5234 16.0078C14.3672 16.0078 15.2109 16.0078 16.0547 16.0078C16.0074 16.4321 15.9449 16.854 15.8672 17.2734C15.0859 17.2734 14.3047 17.2734 13.5234 17.2734C13.5234 16.8516 13.5234 16.4297 13.5234 16.0078Z" fill="#FEFEFE"/>
<path fill-rule="evenodd" clip-rule="evenodd" d="M18.6328 17.2734C17.8984 17.2734 17.1641 17.2734 16.4297 17.2734C16.4297 17.2109 16.4297 17.1484 16.4297 17.0859C16.4715 16.7259 16.5183 16.3665 16.5703 16.0078C17.3366 15.9922 18.1022 16.0078 18.8672 16.0547C18.763 16.456 18.6848 16.8622 18.6328 17.2734Z" fill="#FDFDFD"/>
<path fill-rule="evenodd" clip-rule="evenodd" d="M10.0547 17.1328C10.0985 17.1829 10.1141 17.2454 10.1016 17.3203C9.34336 17.3358 8.59336 17.3201 7.85156 17.2734C8.58595 17.2734 9.3203 17.2734 10.0547 17.2734C10.0547 17.2266 10.0547 17.1797 10.0547 17.1328Z" fill="#C6C6C6"/>
<path fill-rule="evenodd" clip-rule="evenodd" d="M12.9609 16.0078C13.0075 16.4368 13.0231 16.8743 13.0078 17.3203C12.2027 17.3358 11.4059 17.3202 10.6172 17.2734C11.3985 17.2734 12.1797 17.2734 12.9609 17.2734C12.9609 16.8516 12.9609 16.4297 12.9609 16.0078Z" fill="#B2B2B2"/>
<path fill-rule="evenodd" clip-rule="evenodd" d="M13.5233 16.0078C13.5233 16.4297 13.5233 16.8516 13.5233 17.2734C14.3045 17.2734 15.0858 17.2734 15.867 17.2734C15.0784 17.3202 14.2815 17.3358 13.4764 17.3203C13.4611 16.8743 13.4767 16.4368 13.5233 16.0078Z" fill="#BBBBBB"/>
<path fill-rule="evenodd" clip-rule="evenodd" d="M16.4299 17.0859C16.4299 17.1484 16.4299 17.211 16.4299 17.2734C17.1643 17.2734 17.8986 17.2734 18.633 17.2734C17.8912 17.3201 17.1412 17.3358 16.383 17.3203C16.3697 17.2305 16.3853 17.1525 16.4299 17.0859Z" fill="#C6C6C6"/>
<path fill-rule="evenodd" clip-rule="evenodd" d="M9.63303 19.8515C10.5407 19.7696 11.1266 20.1602 11.3908 21.0233C11.4666 21.8954 11.0838 22.4501 10.2424 22.6874C9.0478 22.7114 8.49308 22.1255 8.57834 20.9296C8.75103 20.3898 9.10259 20.0304 9.63303 19.8515Z" fill="#777778"/>
<path fill-rule="evenodd" clip-rule="evenodd" d="M16.4297 19.8515C17.602 19.8129 18.1723 20.3754 18.1406 21.539C17.9466 22.2849 17.4622 22.6756 16.6875 22.7108C15.8178 22.6058 15.3569 22.1137 15.3047 21.2343C15.398 20.5378 15.773 20.0769 16.4297 19.8515Z" fill="#777778"/>
<path fill-rule="evenodd" clip-rule="evenodd" d="M11.4141 19.9921C12.703 19.9375 13.9999 19.9297 15.3047 19.9686C15.1677 20.1136 15.0584 20.2776 14.9766 20.4608C13.8984 20.5233 12.8203 20.5233 11.7422 20.4608C11.6549 20.2851 11.5455 20.1288 11.4141 19.9921Z" fill="#A5A5A5"/>
<path fill-rule="evenodd" clip-rule="evenodd" d="M18.1641 19.9922C18.4212 19.9382 18.6868 19.9304 18.9609 19.9687C19.1484 20.1406 19.1484 20.3125 18.9609 20.4843C18.8024 20.523 18.6461 20.5151 18.4922 20.4609C18.4166 20.2767 18.3072 20.1205 18.1641 19.9922Z" fill="#A1A1A1"/>
<path fill-rule="evenodd" clip-rule="evenodd" d="M9.77364 20.5078C10.5986 20.5491 10.872 20.9554 10.594 21.7266C10.2717 22.0901 9.90447 22.1448 9.49239 21.8906C9.11777 21.4825 9.11777 21.0762 9.49239 20.6719C9.59679 20.6278 9.69054 20.5731 9.77364 20.5078Z" fill="#040404"/>
<path fill-rule="evenodd" clip-rule="evenodd" d="M16.5235 20.5079C17.2189 20.4767 17.5392 20.8048 17.4844 21.4923C17.279 21.966 16.9274 22.1301 16.4297 21.9845C15.7833 21.449 15.8146 20.9568 16.5235 20.5079Z" fill="#040404"/>
<path fill-rule="evenodd" clip-rule="evenodd" d="M9.86738 21.0234C10.1964 21.0339 10.2901 21.1823 10.1486 21.4688C9.85519 21.5818 9.72239 21.4802 9.75019 21.1641C9.79917 21.1231 9.83822 21.0763 9.86738 21.0234Z" fill="#EBEBEB"/>
<path fill-rule="evenodd" clip-rule="evenodd" d="M16.6173 21.0234C17.0052 21.0435 17.0833 21.2076 16.8517 21.5156C16.6033 21.564 16.4861 21.4625 16.5001 21.2109C16.5312 21.1414 16.5703 21.0789 16.6173 21.0234Z" fill="#EAEAEA"/>
</svg>
