<svg width="32" height="24" viewBox="0 0 32 24" fill="none" xmlns="http://www.w3.org/2000/svg">
<path opacity="0.98" fill-rule="evenodd" clip-rule="evenodd" d="M22.8828 1.33605C24.6213 1.31646 25.8166 2.11334 26.4688 3.72667C26.7219 4.39105 26.8391 5.07855 26.8203 5.78917C26.8166 6.19942 26.7932 6.60564 26.75 7.00792C27.3789 8.06261 28.0195 9.10951 28.6719 10.1485C28.7715 10.4707 28.7403 10.7831 28.5781 11.086C27.272 14.6137 25.9752 18.145 24.6875 21.6798C24.587 21.8316 24.4463 21.9097 24.2656 21.9142C23.7369 21.7562 23.2135 21.5843 22.6953 21.3985C22.7031 21.7114 22.6953 22.024 22.6719 22.336C22.6172 22.4532 22.5313 22.5392 22.4141 22.5939C18.7578 22.6251 15.1016 22.6251 11.4453 22.5939C11.375 22.5235 11.3047 22.4532 11.2344 22.3829C11.2031 17.8829 11.2031 13.3829 11.2344 8.88292C11.287 8.78336 11.3573 8.69744 11.4453 8.62511C11.9297 8.2345 12.4141 7.84384 12.8984 7.45323C11.5542 6.11645 11.4214 4.67116 12.5 3.1173C13.5125 2.09252 14.7234 1.75658 16.1328 2.10948C17.609 2.58566 18.6325 3.5466 19.2031 4.9923C19.3662 5.41905 19.4912 5.85653 19.5781 6.3048C19.6265 6.42353 19.7125 6.50162 19.8359 6.53917C20.3016 6.39447 20.7547 6.22258 21.1953 6.02355C20.5946 4.77587 20.6493 3.55711 21.3594 2.3673C21.7367 1.8251 22.2445 1.48135 22.8828 1.33605ZM23.1172 2.27355C24.0857 2.30861 24.8123 2.74611 25.2969 3.58605C25.6375 4.18314 25.8094 4.82378 25.8125 5.50792C25.7031 5.32042 25.5937 5.13292 25.4844 4.94542C25.3726 4.83873 25.2397 4.77625 25.0859 4.75792C24.1113 5.0672 23.1425 5.39533 22.1797 5.7423C21.7631 5.12734 21.6459 4.45545 21.8281 3.72667C21.9593 2.9634 22.389 2.47903 23.1172 2.27355ZM14.9141 2.9298C16.5197 3.01343 17.6212 3.79468 18.2188 5.27355C17.8714 4.99445 17.5198 4.72103 17.1641 4.45323C16.999 4.33065 16.8271 4.31502 16.6484 4.40636C15.6552 5.21992 14.6552 6.02462 13.6484 6.82042C12.6457 5.96842 12.4816 4.98405 13.1563 3.8673C13.6243 3.32482 14.2102 3.01232 14.9141 2.9298ZM24.0547 7.85167C24.394 7.85486 24.4955 8.01109 24.3594 8.32042C24.1302 8.45251 23.9661 8.38998 23.8672 8.13292C23.8877 8.00519 23.9502 7.91144 24.0547 7.85167ZM16.8359 8.60167C17.182 8.68403 17.2445 8.86375 17.0234 9.14073C16.7933 9.19764 16.6527 9.11172 16.6016 8.88292C16.6483 8.75847 16.7264 8.66472 16.8359 8.60167Z" fill="#010101"/>
<path fill-rule="evenodd" clip-rule="evenodd" d="M18.7109 6.86719C19.2693 8.87091 19.3162 10.8865 18.8516 12.9141C18.2763 13.2174 17.6982 13.5221 17.1172 13.8281C16.7842 14.0804 16.5108 14.385 16.2969 14.7422C16.1928 14.624 16.0756 14.5224 15.9453 14.4375C15.3859 14.2047 14.8546 13.9235 14.3516 13.5938C14.16 13.4336 14.0038 13.2461 13.8828 13.0312C13.6549 12.9221 13.4439 12.9455 13.25 13.1016C12.8325 13.9233 12.7388 14.7827 12.9688 15.6797C13.381 16.7168 14.1231 17.3964 15.1953 17.7188C15.5018 17.7551 15.8065 17.7473 16.1094 17.6953C16.1914 17.7069 16.2304 17.7538 16.2266 17.8359C16.227 17.9207 16.2035 17.9988 16.1563 18.0703C14.9697 19.4138 13.6415 20.5857 12.1719 21.5859C12.1484 17.4922 12.1406 13.3985 12.1484 9.30469C12.6473 8.87644 13.1552 8.45456 13.6719 8.03906C14.2964 8.4675 14.9605 8.82689 15.6641 9.11719C15.9828 9.97186 16.5765 10.2609 17.4453 9.98438C18.0177 9.62719 18.213 9.11934 18.0313 8.46094C17.7346 7.83534 17.2424 7.59314 16.5547 7.73438C16.276 7.83319 16.0416 7.99725 15.8516 8.22656C15.3389 8.01717 14.8545 7.75936 14.3984 7.45312C15.2114 6.76598 16.0395 6.10195 16.8828 5.46094C17.5001 5.9182 18.1095 6.38695 18.7109 6.86719ZM16.8359 8.60156C16.7264 8.66461 16.6483 8.75836 16.6016 8.88281C16.6527 9.11161 16.7933 9.19753 17.0234 9.14062C17.2445 8.86364 17.182 8.68392 16.8359 8.60156Z" fill="#F1F1F1"/>
<path opacity="0.999" fill-rule="evenodd" clip-rule="evenodd" d="M26.7266 8.83594C26.0807 10.9397 25.1353 12.8929 23.8906 14.6953C23.5334 15.1853 23.135 15.6384 22.6953 16.0547C22.7031 13.6953 22.6953 11.3359 22.6719 8.97656C22.6348 8.87873 22.58 8.79277 22.5078 8.71875C21.8984 8.23439 21.2891 7.74998 20.6797 7.26562C21.058 7.09261 21.4486 6.96764 21.8516 6.89062C22.1914 7.23066 22.5586 7.53534 22.9531 7.80469C22.8726 8.51972 23.1617 9.01191 23.8203 9.28125C24.8983 9.37505 25.4061 8.88286 25.3438 7.80469C25.0939 7.11305 24.6017 6.82397 23.8672 6.9375C23.7335 7.01287 23.5929 7.04409 23.4453 7.03125C23.2131 6.87727 22.9944 6.70538 22.7891 6.51562C23.4783 6.27806 24.1658 6.03586 24.8516 5.78906C25.5122 6.78211 26.1372 7.7977 26.7266 8.83594ZM24.0547 7.85156C23.9502 7.91133 23.8877 8.00508 23.8672 8.13281C23.9661 8.38987 24.1302 8.45241 24.3594 8.32031C24.4955 8.01098 24.394 7.85475 24.0547 7.85156Z" fill="#CBCBCB"/>
<path fill-rule="evenodd" clip-rule="evenodd" d="M18.7109 6.86719C19.7267 7.6875 20.7502 8.49998 21.7812 9.30469C21.8125 13.4297 21.8125 17.5547 21.7812 21.6797C20.1203 21.742 18.4563 21.742 16.7891 21.6797C17.3834 20.4436 17.5085 19.1624 17.1641 17.8359C18.5944 17.7807 19.7116 17.1557 20.5156 15.9609C21.1175 14.7657 21.1644 13.547 20.6562 12.3047C20.518 11.8564 20.2446 11.7392 19.8359 11.9531C19.6062 12.3783 19.278 12.6986 18.8516 12.9141C19.3162 10.8865 19.2693 8.87091 18.7109 6.86719Z" fill="#E3E3E3"/>
<path fill-rule="evenodd" clip-rule="evenodd" d="M26.7266 8.83594C27.0731 9.35625 27.409 9.88748 27.7344 10.4297C27.7618 10.5589 27.7461 10.6839 27.6875 10.8047C26.4595 14.1292 25.2408 17.4573 24.0313 20.7891C24.005 20.8135 23.9737 20.8291 23.9375 20.8359C23.527 20.6809 23.113 20.5402 22.6953 20.4141C22.6953 18.9609 22.6953 17.5078 22.6953 16.0547C23.135 15.6384 23.5334 15.1853 23.8906 14.6953C25.1353 12.8929 26.0807 10.9397 26.7266 8.83594Z" fill="#B2B2B2"/>
<path fill-rule="evenodd" clip-rule="evenodd" d="M18.3359 14.9297C18.3886 14.709 18.4511 14.4903 18.5234 14.2734C18.5119 14.2166 18.4806 14.1853 18.4297 14.1797C18.9856 13.9055 19.5091 13.5774 20 13.1953C20.3589 15.0163 19.6636 16.2428 17.9141 16.875C17.8203 16.9063 17.7266 16.9063 17.6328 16.875C18.4576 16.402 19.0357 15.7223 19.3672 14.8359C19.2586 14.4302 19.0086 14.313 18.6172 14.4844C18.5164 14.6319 18.4227 14.7803 18.3359 14.9297Z" fill="#35A835"/>
<path opacity="0.999" fill-rule="evenodd" clip-rule="evenodd" d="M18.4297 14.1797C18.4806 14.1853 18.5119 14.2166 18.5234 14.2734C18.4511 14.4903 18.3886 14.709 18.3359 14.9297C17.9766 15.5324 17.4766 15.9855 16.8359 16.2891C16.8665 15.2112 17.3977 14.5081 18.4297 14.1797Z" fill="#51CA53"/>
<path opacity="0.999" fill-rule="evenodd" clip-rule="evenodd" d="M14.8674 16.5703C14.0042 16.0939 13.637 15.3595 13.7658 14.3672C13.7852 14.3458 13.8087 14.3301 13.8361 14.3203C14.3871 14.6895 14.9652 15.0098 15.5705 15.2812C15.7059 15.4323 15.8231 15.5963 15.9221 15.7734C15.9526 15.9185 15.937 16.0591 15.8752 16.1953C15.4391 15.884 15.1032 15.4856 14.8674 15C14.381 14.8153 14.1389 14.9794 14.1408 15.4922C14.3138 15.9015 14.556 16.2608 14.8674 16.5703Z" fill="#4FC651"/>
<path opacity="0.788" fill-rule="evenodd" clip-rule="evenodd" d="M14.8672 16.5704C14.9261 16.5686 14.9729 16.592 15.0078 16.6407C14.9376 16.6681 14.8907 16.6447 14.8672 16.5704Z" fill="#255D26"/>
<path fill-rule="evenodd" clip-rule="evenodd" d="M12.1484 9.30469C12.1406 13.3985 12.1484 17.4922 12.1718 21.5859C13.6415 20.5857 14.9696 19.4138 16.1562 18.0703C16.2035 17.9988 16.227 17.9207 16.2265 17.8359C16.6529 19.1882 16.4967 20.4773 15.7578 21.7031C14.5434 21.7419 13.3325 21.7341 12.125 21.6797C12.0859 17.5468 12.0938 13.4218 12.1484 9.30469Z" fill="#DCDCDC"/>
<circle cx="4" cy="4" r="4" fill="#E64646"/>
</svg>
