<svg width="24" height="24" viewBox="0 0 24 24" fill="none" xmlns="http://www.w3.org/2000/svg">
<path opacity="0.977" fill-rule="evenodd" clip-rule="evenodd" d="M11.7891 0.164037C12.0657 0.138818 12.3313 0.17788 12.5859 0.281224C15.3828 1.54685 18.1797 2.81247 20.9766 4.0781C21.2335 4.27156 21.3741 4.52937 21.3984 4.85154C21.4975 4.87657 21.5835 4.92344 21.6562 4.99216C21.7569 5.37757 21.8272 5.76818 21.8672 6.16404C22.1403 6.24147 22.3356 6.41336 22.4531 6.67966C22.4844 7.14841 22.4844 7.61716 22.4531 8.08591C22.309 8.49035 22.02 8.69351 21.5859 8.69529C21.3602 12.3778 21.1258 16.0575 20.8828 19.7343C22.2212 20.1529 22.7446 21.0513 22.4531 22.4297C22.1794 23.1409 21.6715 23.5862 20.9297 23.7656C14.6953 23.7969 8.46094 23.7969 2.22656 23.7656C1.70745 23.5719 1.4262 23.1969 1.38281 22.6406C1.4418 21.9959 1.78554 21.6131 2.41406 21.4922C2.592 19.9298 2.77168 18.3673 2.95312 16.8047C3.17039 15.4156 3.95945 14.5484 5.32031 14.2031C5.15977 13.6179 5.36292 13.2116 5.92969 12.9843C5.64727 12.1839 5.3738 11.3793 5.10938 10.5703C5.03044 10.0639 5.22577 9.71238 5.69531 9.5156C6.25781 9.48433 6.82031 9.48433 7.38281 9.5156C7.89773 9.72485 8.10089 10.1077 7.99219 10.664C8.69325 10.5605 9.11513 10.8496 9.25781 11.5312C9.08723 12.0663 8.88408 12.5897 8.64844 13.1015C9.04411 13.3824 9.16913 13.7574 9.02344 14.2265C9.45319 14.3086 9.8438 14.4805 10.1953 14.7422C10.2109 14.6562 10.2266 14.5703 10.2422 14.4843C10.1201 12.6175 10.0029 10.7503 9.89062 8.88279C9.88036 8.81538 9.85692 8.7529 9.82031 8.69529C9.45581 8.63533 9.21366 8.43218 9.09375 8.08591C9.06248 7.61716 9.06248 7.14841 9.09375 6.67966C9.24605 6.31657 9.51947 6.12907 9.91406 6.11716C9.98119 5.74901 10.1765 5.46776 10.5 5.27341C10.4742 4.80316 10.4195 4.33441 10.3359 3.86716C10.3429 3.72046 10.4054 3.60327 10.5234 3.5156C10.7365 3.38568 10.9552 3.26849 11.1797 3.16404C11.3736 3.23761 11.5454 3.34698 11.6953 3.49216C11.9378 3.3645 12.1878 3.25512 12.4453 3.16404C12.6611 3.23134 12.8095 3.37196 12.8906 3.58591C13.3789 3.58982 13.8242 3.44138 14.2266 3.1406C13.0945 2.62921 11.9695 2.10577 10.8516 1.57029C10.7463 1.38971 10.7697 1.21783 10.9219 1.05466C11.0805 0.880422 11.2212 0.692922 11.3438 0.492162C11.4623 0.333494 11.6108 0.22412 11.7891 0.164037Z" fill="#010202"/>
<path fill-rule="evenodd" clip-rule="evenodd" d="M11.9297 0.726586C12.096 0.723736 12.2523 0.762797 12.3984 0.843773C15.1928 2.09523 17.9741 3.36867 20.7422 4.66409C20.7801 4.73773 20.7958 4.81587 20.7891 4.89846C20.5697 4.89068 20.351 4.89851 20.1328 4.9219C20.0625 4.96094 20.0078 5.01565 19.9688 5.08596C17.1549 3.82358 14.3503 2.54233 11.5547 1.24221C11.6686 1.06065 11.7937 0.888778 11.9297 0.726586Z" fill="#28CCAF"/>
<path fill-rule="evenodd" clip-rule="evenodd" d="M14.6016 3.5859C14.9752 3.55226 15.3345 3.60695 15.6797 3.74997C17.066 4.37675 18.4488 5.00954 19.8281 5.6484C19.826 5.80309 19.8182 5.95937 19.8047 6.11715C18.5235 6.11715 17.2422 6.11715 15.9609 6.11715C16.0417 5.85147 16.1276 5.58583 16.2188 5.32028C16.2714 5.15828 16.2323 5.02543 16.1016 4.92184C15.7058 4.79514 15.3074 4.67793 14.9062 4.57028C14.8174 4.57566 14.7393 4.60691 14.6719 4.66403C14.4357 5.14426 14.1935 5.62079 13.9453 6.09372C12.8044 6.13276 11.6637 6.12493 10.5234 6.07028C10.6086 5.96167 10.7023 5.86009 10.8047 5.76559C11.2188 5.60767 11.625 5.43578 12.0234 5.24997C12.3303 4.95039 12.6272 4.63786 12.9141 4.31247C13.2343 4.18157 13.5624 4.07219 13.8984 3.98434C14.151 3.87397 14.3853 3.74116 14.6016 3.5859Z" fill="#678C94"/>
<path fill-rule="evenodd" clip-rule="evenodd" d="M11.1328 3.82031C11.2827 3.95457 11.4546 4.04832 11.6484 4.10156C11.8765 4.05003 12.0953 3.97191 12.3047 3.86719C12.375 3.86498 12.4219 3.89623 12.4453 3.96094C12.2002 4.19811 11.9814 4.45592 11.7891 4.73438C11.5886 4.87364 11.3699 4.97517 11.1328 5.03906C11.0669 4.69575 11.0044 4.35201 10.9453 4.00781C10.9945 3.92739 11.057 3.8649 11.1328 3.82031Z" fill="#3D6D90"/>
<path fill-rule="evenodd" clip-rule="evenodd" d="M15.0234 5.17969C15.2042 5.23856 15.3839 5.30105 15.5625 5.36719C15.5301 5.59003 15.4676 5.8088 15.375 6.02344C15.2553 6.08302 15.1225 6.11428 14.9766 6.11719C14.8515 6.10158 14.7266 6.08592 14.6016 6.07031C14.7555 5.77809 14.8961 5.48123 15.0234 5.17969Z" fill="#3F6F92"/>
<path fill-rule="evenodd" clip-rule="evenodd" d="M21.2578 6.02342C20.9807 6.11511 20.6838 6.14637 20.3672 6.11717C20.3883 5.89676 20.4195 5.67804 20.4609 5.46092C20.6958 5.45314 20.9302 5.46096 21.1641 5.48436C21.228 5.657 21.2593 5.83667 21.2578 6.02342Z" fill="#F5D643"/>
<path fill-rule="evenodd" clip-rule="evenodd" d="M21.2578 6.02344C21.3002 6.05667 21.3158 6.10355 21.3047 6.16406C20.9834 6.17925 20.6709 6.16364 20.3672 6.11719C20.6838 6.14639 20.9807 6.11513 21.2578 6.02344Z" fill="#352F0F"/>
<path fill-rule="evenodd" clip-rule="evenodd" d="M9.82032 6.67969C13.7891 6.67187 17.7579 6.67969 21.7266 6.70313C21.8125 6.72657 21.8672 6.78127 21.8906 6.86719C21.9219 7.22658 21.9219 7.58593 21.8906 7.94532C21.8516 7.98437 21.8125 8.02346 21.7734 8.06251C17.7735 8.09377 13.7734 8.09377 9.77345 8.06251C9.7344 8.02346 9.69531 7.98437 9.65626 7.94532C9.625 7.58593 9.625 7.22658 9.65626 6.86719C9.68861 6.78048 9.74326 6.71794 9.82032 6.67969Z" fill="#28CEB1"/>
<path fill-rule="evenodd" clip-rule="evenodd" d="M11.3672 19.4297C11.3362 19.2438 11.3205 19.0563 11.3203 18.8672C11.5601 18.7598 11.607 18.5957 11.4609 18.375C11.3895 18.3277 11.3113 18.3043 11.2266 18.3047C11.2197 18.1163 11.2041 17.9288 11.1797 17.7422C11.3369 17.6947 11.415 17.5853 11.4141 17.4141C11.4025 16.7377 11.2228 16.1127 10.875 15.5391C10.7519 13.2414 10.6191 10.9445 10.4766 8.64844C13.9766 8.64844 17.4765 8.64844 20.9766 8.64844C20.7657 11.991 20.5782 15.3347 20.4141 18.6797C19.8022 18.6609 19.1929 18.6843 18.5859 18.75C17.961 18.9687 17.5626 19.3984 17.3906 20.0391C17.3672 21.1014 17.3594 22.164 17.3672 23.2266C15.8202 23.2344 14.2733 23.2266 12.7266 23.2031C13.0763 22.3166 12.795 21.7463 11.8828 21.4922C11.8196 20.8668 11.7493 20.2417 11.6719 19.6172C11.6122 19.4896 11.5107 19.4271 11.3672 19.4297Z" fill="#28CFB2"/>
<path fill-rule="evenodd" clip-rule="evenodd" d="M5.88278 10.0547C6.33616 10.0469 6.7893 10.0547 7.24216 10.0781C7.41583 10.2493 7.47836 10.4602 7.42966 10.7109C7.25706 10.7032 7.08522 10.711 6.91403 10.7344C6.85933 10.7578 6.82028 10.7968 6.79685 10.8515C6.77341 11.5701 6.76558 12.2889 6.77341 13.0078C6.66719 13.0246 6.58127 12.9934 6.5156 12.914C6.24995 12.1172 5.98436 11.3203 5.71872 10.5234C5.6522 10.3163 5.70691 10.1601 5.88278 10.0547Z" fill="#3D6D90"/>
<path fill-rule="evenodd" clip-rule="evenodd" d="M7.33594 11.2734C7.72688 11.2656 8.11748 11.2734 8.50781 11.2969C8.59486 11.3523 8.64173 11.4304 8.64844 11.5312C8.47289 12.0152 8.27756 12.4918 8.0625 12.9609C7.82475 13.0064 7.58259 13.0221 7.33594 13.0078C7.33594 12.4297 7.33594 11.8515 7.33594 11.2734Z" fill="#3F7094"/>
<path fill-rule="evenodd" clip-rule="evenodd" d="M6.02341 13.5703C6.7892 13.5625 7.55481 13.5703 8.32028 13.5938C8.48585 13.7527 8.5015 13.9246 8.36716 14.1094C7.57028 14.1406 6.77341 14.1406 5.97653 14.1094C5.7865 13.9112 5.80216 13.7315 6.02341 13.5703Z" fill="#658A92"/>
<path fill-rule="evenodd" clip-rule="evenodd" d="M5.78907 14.6953C5.99218 14.6953 6.19534 14.6953 6.39845 14.6953C6.1825 15.1898 5.94029 15.6741 5.67189 16.1484C5.48153 16.347 5.30964 16.3314 5.15626 16.1016C5.125 16.0234 5.125 15.9453 5.15626 15.8672C5.36776 15.4753 5.5787 15.0847 5.78907 14.6953Z" fill="#3D6C8E"/>
<path fill-rule="evenodd" clip-rule="evenodd" d="M11.1797 17.7422C11.2041 17.9288 11.2197 18.1163 11.2265 18.3047C11.0808 18.3412 11.0027 18.4349 10.9922 18.5859C11.0149 18.7805 11.1242 18.8742 11.3203 18.8672C11.3205 19.0563 11.3361 19.2438 11.3672 19.4297C11.1609 19.4918 11.0828 19.6325 11.1328 19.8516C11.1977 20.5421 11.2836 21.2296 11.3906 21.9141C11.4329 21.9704 11.4876 22.0095 11.5547 22.0312C12.2652 22.071 12.4762 22.407 12.1875 23.0391C12.1135 23.1113 12.0275 23.166 11.9297 23.2031C8.75778 23.2344 5.58593 23.2344 2.41404 23.2031C2.03049 23.022 1.9133 22.7329 2.06248 22.3359C2.22799 22.1009 2.45455 21.9993 2.74217 22.0312C2.82588 21.9945 2.8962 21.9398 2.9531 21.8672C3.15366 20.1322 3.35679 18.3979 3.56248 16.6641C3.75818 15.8354 4.24255 15.2416 5.0156 14.8828C4.89134 15.1786 4.75071 15.4755 4.59373 15.7734C4.53483 16.371 4.80045 16.7303 5.3906 16.8516C5.66904 16.8319 5.90342 16.7225 6.09373 16.5234C6.35937 16.0234 6.62496 15.5235 6.8906 15.0234C6.95501 14.8934 7.04093 14.784 7.14842 14.6953C7.19257 14.7004 7.23162 14.716 7.2656 14.7422C7.54685 15.2734 7.8281 15.8047 8.10935 16.3359C8.52462 16.9466 9.00903 17.0091 9.56248 16.5234C9.7107 16.2761 9.75757 16.0105 9.7031 15.7266C9.58221 15.4691 9.44942 15.2191 9.30467 14.9766C9.32028 14.961 9.33593 14.9453 9.35154 14.9297C9.98468 15.2425 10.43 15.7268 10.6875 16.3828C10.7731 16.7694 10.8356 17.1601 10.875 17.5547C10.9231 17.7044 11.0246 17.7668 11.1797 17.7422Z" fill="#678D95"/>
<path fill-rule="evenodd" clip-rule="evenodd" d="M7.89844 14.6953C8.11941 14.6799 8.33812 14.6956 8.55469 14.7421C8.75002 15.1015 8.9453 15.4609 9.14062 15.8203C9.216 16.1329 9.09881 16.2813 8.78906 16.2656C8.43769 15.7738 8.14083 15.2504 7.89844 14.6953Z" fill="#3D6C8F"/>
<path fill-rule="evenodd" clip-rule="evenodd" d="M11.2266 18.3047C11.3113 18.3043 11.3895 18.3277 11.4609 18.375C11.607 18.5957 11.5601 18.7598 11.3203 18.8672C11.1242 18.8742 11.0149 18.7805 10.9922 18.5859C11.0027 18.4349 11.0808 18.3412 11.2266 18.3047Z" fill="#050B0B"/>
<path fill-rule="evenodd" clip-rule="evenodd" d="M18.8203 19.2422C19.3203 19.2422 19.8203 19.2422 20.3203 19.2422C20.3203 19.4141 20.3203 19.5859 20.3203 19.7578C19.2038 19.929 18.5944 20.5775 18.4922 21.7031C18.485 22.2914 18.6881 22.7914 19.1016 23.2031C18.7112 23.2266 18.3206 23.2343 17.9297 23.2266C17.9219 22.1952 17.9297 21.1639 17.9531 20.1328C18.0946 19.6867 18.3836 19.3899 18.8203 19.2422Z" fill="#3F6F93"/>
<path fill-rule="evenodd" clip-rule="evenodd" d="M20.1328 20.3203C21.3984 20.2499 22 20.8437 21.9375 22.1015C21.6462 22.9386 21.0603 23.3058 20.1797 23.2031C19.327 22.8974 18.9598 22.2958 19.0781 21.3984C19.2508 20.8586 19.6024 20.4992 20.1328 20.3203Z" fill="#668B93"/>
<path fill-rule="evenodd" clip-rule="evenodd" d="M20.2266 20.9297C20.962 20.8609 21.3292 21.189 21.3281 21.9141C21.1752 22.4411 20.8236 22.6677 20.2734 22.5938C19.7036 22.3222 19.5396 21.8925 19.7813 21.3047C19.9112 21.1508 20.0596 21.0258 20.2266 20.9297Z" fill="#020303"/>
<path fill-rule="evenodd" clip-rule="evenodd" d="M20.3672 21.4921C20.7536 21.4794 20.863 21.6435 20.6953 21.9843C20.4386 22.106 20.2823 22.0278 20.2266 21.75C20.2436 21.6472 20.2905 21.5612 20.3672 21.4921Z" fill="#3E6D90"/>
</svg>
