<svg width="30" height="30" viewBox="0 0 30 30" fill="none" xmlns="http://www.w3.org/2000/svg">
<path d="M15 10C12.2375 10 10 12.2375 10 15C10 17.7625 12.2375 20 15 20C17.7625 20 20 17.7625 20 15C20 12.2375 17.7625 10 15 10ZM26.175 13.75C25.8919 11.2152 24.7552 8.85192 22.9516 7.04837C21.1481 5.24481 18.7848 4.10814 16.25 3.825V2.5C16.25 1.8125 15.6875 1.25 15 1.25C14.3125 1.25 13.75 1.8125 13.75 2.5V3.825C11.2152 4.10814 8.85192 5.24481 7.04837 7.04837C5.24481 8.85192 4.10814 11.2152 3.825 13.75H2.5C1.8125 13.75 1.25 14.3125 1.25 15C1.25 15.6875 1.8125 16.25 2.5 16.25H3.825C4.10814 18.7848 5.24481 21.1481 7.04837 22.9516C8.85192 24.7552 11.2152 25.8919 13.75 26.175V27.5C13.75 28.1875 14.3125 28.75 15 28.75C15.6875 28.75 16.25 28.1875 16.25 27.5V26.175C18.7848 25.8919 21.1481 24.7552 22.9516 22.9516C24.7552 21.1481 25.8919 18.7848 26.175 16.25H27.5C28.1875 16.25 28.75 15.6875 28.75 15C28.75 14.3125 28.1875 13.75 27.5 13.75H26.175ZM15 23.75C10.1625 23.75 6.25 19.8375 6.25 15C6.25 10.1625 10.1625 6.25 15 6.25C19.8375 6.25 23.75 10.1625 23.75 15C23.75 19.8375 19.8375 23.75 15 23.75Z" fill="#313131"/>
</svg>
