<svg width="20" height="20" viewBox="0 0 20 20" fill="none" xmlns="http://www.w3.org/2000/svg">
<path d="M18 4.75C18 4.55109 17.921 4.36032 17.7803 4.21967C17.6397 4.07902 17.4489 4 17.25 4H6.75C6.55109 4 6.36032 4.07902 6.21967 4.21967C6.07902 4.36032 6 4.55109 6 4.75C6 4.94891 6.07902 5.13968 6.21967 5.28033C6.36032 5.42098 6.55109 5.5 6.75 5.5H17.25C17.4489 5.5 17.6397 5.42098 17.7803 5.28033C17.921 5.13968 18 4.94891 18 4.75ZM18 14.75C18 14.5511 17.921 14.3603 17.7803 14.2197C17.6397 14.079 17.4489 14 17.25 14H7.75C7.55109 14 7.36032 14.079 7.21967 14.2197C7.07902 14.3603 7 14.5511 7 14.75C7 14.9489 7.07902 15.1397 7.21967 15.2803C7.36032 15.421 7.55109 15.5 7.75 15.5H17.25C17.4489 15.5 17.6397 15.421 17.7803 15.2803C17.921 15.1397 18 14.9489 18 14.75ZM17.25 9C17.4489 9 17.6397 9.07902 17.7803 9.21967C17.921 9.36032 18 9.55109 18 9.75C18 9.94891 17.921 10.1397 17.7803 10.2803C17.6397 10.421 17.4489 10.5 17.25 10.5H2.75C2.55109 10.5 2.36032 10.421 2.21967 10.2803C2.07902 10.1397 2 9.94891 2 9.75C2 9.55109 2.07902 9.36032 2.21967 9.21967C2.36032 9.07902 2.55109 9 2.75 9H17.25Z" fill="white"/>
</svg>
