<svg width="24" height="25" viewBox="0 0 24 25" fill="none" xmlns="http://www.w3.org/2000/svg">
<g clip-path="url(#clip0_769_19063)">
<path opacity="0.986" fill-rule="evenodd" clip-rule="evenodd" d="M10.1484 0.134277C11.3672 0.134277 12.5859 0.134277 13.8047 0.134277C13.9724 0.246872 14.0271 0.403121 13.9687 0.603027C13.6665 1.38484 13.3462 2.15828 13.0078 2.92334C14.3378 2.9253 15.6659 2.95656 16.9922 3.01709C18.3315 3.43439 19.1205 4.33282 19.3594 5.7124C19.3672 7.61886 19.3906 9.52507 19.4297 11.4312C19.9978 11.7399 20.1932 12.2086 20.0156 12.8374C19.8967 13.1655 19.6701 13.3687 19.3359 13.4468C18.9373 16.5736 18.5232 19.6985 18.0937 22.8218C17.9004 23.5229 17.4551 23.9604 16.7578 24.1343C13.5703 24.1343 10.3828 24.1343 7.1953 24.1343C6.49799 23.9604 6.05267 23.5229 5.85936 22.8218C5.44494 19.6939 5.01528 16.569 4.5703 13.4468C4.04059 13.2159 3.81402 12.8097 3.89061 12.228C3.9677 11.8546 4.17863 11.589 4.52342 11.4312C4.56248 9.52507 4.58592 7.61886 4.59374 5.7124C4.86683 4.23615 5.73402 3.32209 7.1953 2.97021C8.44531 2.95459 9.69528 2.93896 10.9453 2.92334C10.6069 2.15828 10.2866 1.38484 9.98436 0.603027C9.926 0.403121 9.9807 0.246872 10.1484 0.134277Z" fill="black"/>
<path fill-rule="evenodd" clip-rule="evenodd" d="M10.8516 0.884342C11.5935 0.829902 12.3435 0.822087 13.1016 0.860905C12.8047 1.53278 12.5078 2.20466 12.2109 2.87653C12.0412 2.97448 11.8771 2.96667 11.7188 2.85309C11.4402 2.18712 11.1511 1.53087 10.8516 0.884342Z" fill="#FCD176"/>
<path fill-rule="evenodd" clip-rule="evenodd" d="M17.6016 9.32178C17.6016 10.0093 17.6016 10.6968 17.6016 11.3843C13.8046 11.3765 10.0078 11.3843 6.21094 11.4077C6.10223 11.4615 6.03975 11.5475 6.02344 11.6655C5.80345 11.7527 5.56908 11.7839 5.32031 11.7593C5.32031 9.79053 5.32031 7.82178 5.32031 5.85303C5.5095 4.68703 6.18141 3.96046 7.33594 3.67334C8.4922 3.64209 9.64842 3.64209 10.8047 3.67334C10.5859 3.89209 10.3672 4.11084 10.1484 4.32959C9.25781 4.34521 8.36719 4.36084 7.47656 4.37647C6.74948 4.52529 6.27291 4.955 6.04688 5.66553C6.01561 6.82179 6.01561 7.97801 6.04688 9.13428C6.06441 9.17722 6.08784 9.21631 6.11719 9.25147C9.94148 9.3215 13.7696 9.34493 17.6016 9.32178Z" fill="#6DC38B"/>
<path fill-rule="evenodd" clip-rule="evenodd" d="M16.1953 3.6499C16.5503 3.86418 16.8472 4.14543 17.0859 4.49365C17.0801 4.52209 17.0645 4.53771 17.0391 4.54053C16.844 4.4588 16.6409 4.40411 16.4297 4.37646C15.5547 4.36084 14.6797 4.34521 13.8047 4.32959C13.5859 4.11084 13.3672 3.89209 13.1484 3.67334C14.1639 3.6499 15.1796 3.64209 16.1953 3.6499Z" fill="#6DC38B"/>
<path fill-rule="evenodd" clip-rule="evenodd" d="M13.1016 4.63434C13.3917 5.15156 13.712 5.65157 14.0625 6.13434C14.5012 6.90478 14.7434 7.73287 14.7891 8.61871C12.5703 8.61871 10.3515 8.61871 8.13281 8.61871C8.1923 7.86989 8.45011 7.19803 8.90625 6.60309C9.83461 5.62785 10.7799 4.66691 11.7422 3.72028C11.9257 3.6181 12.0975 3.63373 12.2578 3.76715C12.5486 4.05005 12.8298 4.33912 13.1016 4.63434Z" fill="#FDE5AC"/>
<path fill-rule="evenodd" clip-rule="evenodd" d="M16.1953 3.6499C17.4494 3.72616 18.2541 4.36678 18.6094 5.57178C18.6781 7.50767 18.7015 9.4452 18.6797 11.3843C18.3203 11.3843 17.961 11.3843 17.6016 11.3843C17.6016 10.6968 17.6016 10.0093 17.6016 9.32178C17.7322 9.30865 17.8337 9.24617 17.9062 9.13428C17.9375 8.00928 17.9375 6.88428 17.9062 5.75928C17.789 5.22696 17.4999 4.8207 17.0391 4.54053C17.0645 4.53771 17.0801 4.52209 17.0859 4.49365C16.8472 4.14543 16.5503 3.86418 16.1953 3.6499Z" fill="#50A46D"/>
<path fill-rule="evenodd" clip-rule="evenodd" d="M13.1016 4.63428C13.7731 5.26681 14.4216 5.92306 15.0469 6.60303C15.503 7.19796 15.7608 7.86982 15.8203 8.61865C15.4766 8.61865 15.1328 8.61865 14.7891 8.61865C14.7434 7.73281 14.5012 6.90471 14.0625 6.13428C13.712 5.65151 13.3917 5.1515 13.1016 4.63428Z" fill="#FAD076"/>
<path fill-rule="evenodd" clip-rule="evenodd" d="M7.47657 5.05616C8.1174 5.04833 8.75799 5.05616 9.39844 5.0796C8.55901 5.76744 7.95746 6.61897 7.59376 7.63428C7.50568 7.95739 7.45098 8.28552 7.42969 8.61866C7.17971 8.61866 6.92968 8.61866 6.67969 8.61866C6.67187 7.72789 6.67969 6.83727 6.70313 5.94678C6.80391 5.51028 7.06173 5.21342 7.47657 5.05616Z" fill="#337D57"/>
<path fill-rule="evenodd" clip-rule="evenodd" d="M14.5547 5.10305C15.1716 5.04868 15.7966 5.04085 16.4297 5.07961C16.8802 5.202 17.1537 5.49108 17.25 5.9468C17.2734 6.83728 17.2813 7.72791 17.2734 8.61868C17.0235 8.61868 16.7734 8.61868 16.5234 8.61868C16.4366 7.58588 16.0538 6.67964 15.375 5.89993C15.1077 5.62477 14.8343 5.35918 14.5547 5.10305Z" fill="#337D57"/>
<path fill-rule="evenodd" clip-rule="evenodd" d="M5.32031 5.85303C5.32031 7.82178 5.32031 9.79053 5.32031 11.7593C5.56908 11.7839 5.80345 11.7527 6.02344 11.6655C5.99184 11.8444 6.05433 11.9772 6.21094 12.064C10.2109 12.0874 14.2109 12.0952 18.2109 12.0874C18.336 12.3218 18.336 12.5562 18.2109 12.7905C13.7422 12.7984 9.27342 12.7905 4.80469 12.7671C4.60552 12.6088 4.56646 12.4135 4.6875 12.1812C4.79372 12.1129 4.91091 12.0738 5.03906 12.064C5.13244 12.0371 5.20275 11.9824 5.25 11.8999C5.25783 9.87636 5.28127 7.86073 5.32031 5.85303Z" fill="#53A870"/>
<path fill-rule="evenodd" clip-rule="evenodd" d="M18.2109 12.0874C18.5238 12.0796 18.8363 12.0874 19.1484 12.1108C19.3984 12.3296 19.3984 12.5483 19.1484 12.7671C18.8363 12.7905 18.5238 12.7983 18.2109 12.7905C18.336 12.5561 18.336 12.3218 18.2109 12.0874Z" fill="#46945B"/>
<path fill-rule="evenodd" clip-rule="evenodd" d="M5.36719 13.4937C6.16406 13.4937 6.96094 13.4937 7.75781 13.4937C7.75781 13.728 7.75781 13.9624 7.75781 14.1968C6.97655 14.1968 6.19533 14.1968 5.41406 14.1968C5.40877 13.9616 5.39311 13.7272 5.36719 13.4937Z" fill="#C6E2FE"/>
<path fill-rule="evenodd" clip-rule="evenodd" d="M8.46092 13.4937C8.6953 13.4937 8.92967 13.4937 9.16405 13.4937C9.17183 13.8846 9.16405 14.2752 9.14061 14.6655C9.03627 14.8699 8.87221 14.9403 8.64842 14.8765C8.57581 14.8196 8.52116 14.7492 8.48436 14.6655C8.46092 14.2752 8.45314 13.8846 8.46092 13.4937Z" fill="#A1CFFD"/>
<path fill-rule="evenodd" clip-rule="evenodd" d="M9.86719 13.4937C11.2734 13.4937 12.6797 13.4937 14.0859 13.4937C14.0859 13.728 14.0859 13.9624 14.0859 14.1968C12.6797 14.1968 11.2734 14.1968 9.86719 14.1968C9.86719 13.9624 9.86719 13.728 9.86719 13.4937Z" fill="#C6E3FE"/>
<path fill-rule="evenodd" clip-rule="evenodd" d="M14.789 13.4937C15.0234 13.4937 15.2578 13.4937 15.4922 13.4937C15.5 13.8846 15.4922 14.2752 15.4687 14.6655C15.3644 14.8699 15.2003 14.9403 14.9765 14.8765C14.9039 14.8196 14.8493 14.7492 14.8125 14.6655C14.789 14.2752 14.7813 13.8846 14.789 13.4937Z" fill="#A1CFFD"/>
<path fill-rule="evenodd" clip-rule="evenodd" d="M17.5547 13.4937C17.5113 13.7263 17.4801 13.9607 17.4609 14.1968C17.0391 14.1968 16.6172 14.1968 16.1953 14.1968C16.1953 13.9624 16.1953 13.728 16.1953 13.4937C16.6485 13.4937 17.1015 13.4937 17.5547 13.4937Z" fill="#C6E2FF"/>
<path fill-rule="evenodd" clip-rule="evenodd" d="M17.5547 13.4937C17.8984 13.4937 18.2422 13.4937 18.5859 13.4937C18.56 13.7272 18.5444 13.9616 18.5391 14.1968C18.1797 14.1968 17.8203 14.1968 17.4609 14.1968C17.4801 13.9607 17.5113 13.7263 17.5547 13.4937Z" fill="#A2D0FD"/>
<path fill-rule="evenodd" clip-rule="evenodd" d="M17.3672 14.8999C17.0467 17.4324 16.7108 19.9636 16.3594 22.4937C16.3226 22.8631 16.1742 23.1756 15.9141 23.4312C13.0546 23.439 10.1953 23.4312 7.33594 23.4077C6.85617 23.2404 6.5827 22.9044 6.51562 22.3999C6.186 19.9005 5.8657 17.4005 5.55469 14.8999C6.3203 14.8999 7.08595 14.8999 7.85156 14.8999C8.06091 15.428 8.45152 15.6546 9.02344 15.5796C9.40237 15.4895 9.65236 15.2629 9.77344 14.8999C11.2422 14.8999 12.711 14.8999 14.1797 14.8999C14.389 15.428 14.7796 15.6546 15.3516 15.5796C15.7305 15.4895 15.9805 15.2629 16.1016 14.8999C16.5234 14.8999 16.9453 14.8999 17.3672 14.8999Z" fill="#E4F1FE"/>
<path fill-rule="evenodd" clip-rule="evenodd" d="M17.3672 14.8999C17.7109 14.8999 18.0547 14.8999 18.3984 14.8999C18.0808 17.5292 17.7292 20.1542 17.3438 22.7749C17.0332 23.3399 16.5566 23.5587 15.9141 23.4312C16.1742 23.1756 16.3226 22.8631 16.3594 22.4937C16.7108 19.9636 17.0467 17.4324 17.3672 14.8999Z" fill="#C5E1FC"/>
</g>
<defs>
<clipPath id="clip0_769_19063">
<rect width="24" height="24" fill="white" transform="translate(0 0.157715)"/>
</clipPath>
</defs>
</svg>
