<svg width="60" height="71" viewBox="0 0 60 71" fill="none" xmlns="http://www.w3.org/2000/svg">
<rect y="0.5" width="60" height="70" rx="10" fill="#D8EFDB"/>
<path opacity="0.966" fill-rule="evenodd" clip-rule="evenodd" d="M29.5605 16.7011C29.9843 16.6372 30.3587 16.7349 30.6836 16.994C30.8789 17.8404 30.8789 18.6867 30.6836 19.5331C30.1605 19.9517 29.6722 19.9192 29.2188 19.4354C29.1536 18.6542 29.1536 17.8729 29.2188 17.0917C29.3531 16.974 29.467 16.8438 29.5605 16.7011Z" fill="#2F8B3A"/>
<path opacity="0.95" fill-rule="evenodd" clip-rule="evenodd" d="M24.0918 18.2636C24.4314 18.2328 24.757 18.2816 25.0684 18.4101C25.4753 18.817 25.8821 19.2239 26.2891 19.6308C26.5893 20.5136 26.28 20.953 25.3613 20.9491C24.8317 20.6153 24.3598 20.2084 23.9453 19.7284C23.5851 19.1933 23.6339 18.7051 24.0918 18.2636Z" fill="#02A0C9"/>
<path opacity="0.961" fill-rule="evenodd" clip-rule="evenodd" d="M35.0293 18.2637C36.1107 18.1831 36.4525 18.6388 36.0547 19.6309C35.6478 20.0378 35.2409 20.4447 34.834 20.8516C34.1172 21.1443 33.6614 20.9164 33.4668 20.168C33.5156 20.0215 33.5645 19.8751 33.6133 19.7286C34.0395 19.1886 34.5115 18.7003 35.0293 18.2637Z" fill="#FAB300"/>
<path opacity="0.999" fill-rule="evenodd" clip-rule="evenodd" d="M49.9707 34.6699C41.8978 34.6699 33.8249 34.6699 25.752 34.6699C20.1854 34.6863 14.619 34.6699 9.05273 34.6211C8.39573 34.3337 8.03766 33.8291 7.97852 33.1074C8.48013 31.6677 9.00096 30.2354 9.54102 28.8106C9.04669 27.4743 8.54214 26.1398 8.02734 24.8067C7.95094 23.9666 8.29273 23.3644 9.05273 23C22.9851 22.9349 36.9173 22.9349 50.8496 23C51.4027 23.2278 51.7445 23.6347 51.875 24.2207C51.9401 27.2806 51.9401 30.3406 51.875 33.4004C51.6087 34.372 50.9739 34.7952 49.9707 34.6699Z" fill="#3BAE49"/>
<path fill-rule="evenodd" clip-rule="evenodd" d="M17.0605 27.3457C16.8748 27.4444 16.6795 27.4607 16.4746 27.3945C16.3521 27.0209 16.1893 26.6628 15.9863 26.3203C15.5698 26.1289 15.1304 26.0475 14.668 26.0762C14.0013 25.9376 13.5131 26.1655 13.2031 26.7598C13.1261 26.9758 13.1423 27.1711 13.252 27.3457C13.2852 27.5585 13.3828 27.7375 13.5449 27.8828C14.4564 28.2734 15.3679 28.6641 16.2793 29.0547C16.9659 29.6035 17.1937 30.3034 16.9629 31.1543C16.5109 32.0805 15.7622 32.4711 14.7168 32.3262C13.6714 32.4711 12.9227 32.0805 12.4707 31.1543C12.3962 30.8964 12.3799 30.6359 12.4219 30.373C12.6245 30.1633 12.8524 30.1307 13.1055 30.2754C13.0973 30.8399 13.3414 31.2468 13.8379 31.4961C14.4238 31.5612 15.0098 31.5612 15.5957 31.4961C15.968 31.3859 16.1959 31.1418 16.2793 30.7637C16.3438 30.2903 16.181 29.9159 15.791 29.6406C14.901 29.3096 14.0221 28.9515 13.1543 28.5664C12.7911 28.3113 12.5633 27.9695 12.4707 27.541C12.2715 26.612 12.597 25.9121 13.4473 25.4414C14.1882 25.2888 14.9369 25.2562 15.6934 25.3437C16.6693 25.6509 17.1251 26.3182 17.0605 27.3457Z" fill="#EEEAEB"/>
<path fill-rule="evenodd" clip-rule="evenodd" d="M22.4316 27.834C22.2667 28.4062 21.9086 28.8131 21.3574 29.0547C20.4865 29.1928 19.6076 29.2416 18.7207 29.2012C18.6534 30.2007 18.5884 31.2098 18.5254 32.2285C18.2731 32.369 18.0452 32.3364 17.8418 32.1309C17.8255 29.9171 17.8418 27.7035 17.8906 25.4903C17.9395 25.4414 17.9883 25.3926 18.0371 25.3438C18.9812 25.2786 19.9251 25.2786 20.8691 25.3438C22.1687 25.6834 22.6896 26.5135 22.4316 27.834Z" fill="#EEEBEC"/>
<path fill-rule="evenodd" clip-rule="evenodd" d="M27.8027 26.0762C26.5983 26.0762 25.3938 26.0762 24.1895 26.0762C24.0926 26.8395 24.06 27.6207 24.0918 28.4199C25.3292 28.4036 26.5662 28.4199 27.8027 28.4688C28.0553 28.7123 28.0553 28.9565 27.8027 29.2012C26.5983 29.2012 25.3938 29.2012 24.1895 29.2012C24.0926 29.9645 24.06 30.7457 24.0918 31.5449C25.3292 31.5286 26.5662 31.5449 27.8027 31.5938C28.0553 31.8373 28.0553 32.0815 27.8027 32.3262C26.3701 32.3425 24.9378 32.3262 23.5059 32.2774C23.4527 32.2073 23.3876 32.1585 23.3105 32.1309C23.2942 29.9171 23.3105 27.7035 23.3594 25.4903C23.4082 25.4414 23.457 25.3926 23.5059 25.3438C24.9382 25.2786 26.3704 25.2786 27.8027 25.3438C28.0553 25.5873 28.0553 25.8315 27.8027 26.0762Z" fill="#EFEDED"/>
<path fill-rule="evenodd" clip-rule="evenodd" d="M33.3691 27.9315C33.1313 28.0797 32.9197 28.0472 32.7344 27.8339C32.5806 26.4091 31.8156 25.872 30.4395 26.2225C30.0079 26.4415 29.7475 26.7833 29.6582 27.2479C29.545 28.2399 29.5288 29.2491 29.6094 30.2753C30.034 31.4697 30.8315 31.8115 32.002 31.3007C32.4884 30.9167 32.7325 30.4121 32.7344 29.787C32.9622 29.5265 33.1901 29.5265 33.418 29.787C33.4898 30.089 33.4735 30.3819 33.3691 30.6659C32.8731 31.9563 31.9291 32.4934 30.5371 32.2772C29.699 31.9764 29.1456 31.4066 28.877 30.5682C28.7692 29.4322 28.753 28.2929 28.8281 27.1503C29.507 25.4518 30.6952 24.9473 32.3926 25.6366C33.2181 26.1963 33.5436 26.9613 33.3691 27.9315Z" fill="#EEE9EB"/>
<path fill-rule="evenodd" clip-rule="evenodd" d="M38.7402 26.0762C38.1868 26.0762 37.6335 26.0762 37.0801 26.0762C36.9827 27.8822 36.9502 29.705 36.9824 31.5449C37.5692 31.5287 38.1552 31.545 38.7402 31.5938C38.9928 31.8373 38.9928 32.0815 38.7402 32.3262C37.3079 32.3262 35.8757 32.3262 34.4434 32.3262C34.1908 32.0815 34.1908 31.8373 34.4434 31.5938C35.0284 31.545 35.6144 31.5287 36.2012 31.5449C36.2012 29.9824 36.2012 28.4199 36.2012 26.8574C36.2012 26.597 36.2012 26.3366 36.2012 26.0762C35.6152 26.0762 35.0293 26.0762 34.4434 26.0762C34.1908 25.8315 34.1908 25.5873 34.4434 25.3438C35.8757 25.2786 37.3079 25.2786 38.7402 25.3438C38.9928 25.5873 38.9928 25.8315 38.7402 26.0762Z" fill="#EFECED"/>
<path fill-rule="evenodd" clip-rule="evenodd" d="M44.3066 32.2284C44.0544 32.3688 43.8265 32.3362 43.623 32.1308C43.623 31.6099 43.623 31.0891 43.623 30.5683C43.623 30.3078 43.623 30.0474 43.623 29.787C42.614 29.787 41.6048 29.787 40.5957 29.787C40.5279 30.5911 40.4628 31.4049 40.4004 32.2284C40.1481 32.3688 39.9202 32.3362 39.7168 32.1308C39.6719 30.3662 39.7207 28.6084 39.8633 26.8573C40.632 25.3641 41.7876 24.9571 43.3301 25.6366C43.8196 25.9968 44.1614 26.4688 44.3555 27.0526C44.4354 28.785 44.4191 30.5103 44.3066 32.2284Z" fill="#EEEBEC"/>
<path fill-rule="evenodd" clip-rule="evenodd" d="M49.6777 32.3262C48.2451 32.3425 46.8128 32.3262 45.3809 32.2774C45.3277 32.2073 45.2626 32.1585 45.1855 32.1309C45.1692 29.9171 45.1855 27.7035 45.2344 25.4903C45.4622 25.2298 45.6901 25.2298 45.918 25.4903C45.9668 27.5082 45.9831 29.5265 45.9668 31.5449C47.2042 31.5286 48.4412 31.5449 49.6777 31.5938C49.9303 31.8373 49.9303 32.0815 49.6777 32.3262Z" fill="#EFEBEC"/>
<path fill-rule="evenodd" clip-rule="evenodd" d="M17.0605 27.3457C17.0766 27.6081 17.0603 27.8685 17.0117 28.1269C16.7586 28.2717 16.5308 28.2391 16.3281 28.0293C16.3227 27.4469 16.046 27.0725 15.498 26.9062C14.9446 26.8411 14.3913 26.8411 13.8379 26.9062C13.627 27.0363 13.4316 27.1828 13.252 27.3457C13.1423 27.1711 13.1261 26.9758 13.2031 26.7598C13.5131 26.1655 14.0013 25.9376 14.668 26.0762C15.1304 26.0475 15.5698 26.1289 15.9863 26.3203C16.1893 26.6628 16.3521 27.0209 16.4746 27.3945C16.6795 27.4607 16.8748 27.4444 17.0605 27.3457Z" fill="#325831"/>
<path fill-rule="evenodd" clip-rule="evenodd" d="M18.7207 26.0761C19.4701 26.0599 20.2188 26.0761 20.9668 26.125C21.5685 26.4001 21.8289 26.872 21.748 27.541C21.5254 27.2376 21.2324 27.026 20.8691 26.9062C20.1537 26.8574 19.4376 26.8412 18.7207 26.8574C18.7207 26.5969 18.7207 26.3366 18.7207 26.0761Z" fill="#325831"/>
<path fill-rule="evenodd" clip-rule="evenodd" d="M24.1895 26.0762C25.3938 26.0762 26.5983 26.0762 27.8027 26.0762C28.0553 26.3209 28.0553 26.565 27.8027 26.8086C26.5987 26.8574 25.3943 26.8737 24.1895 26.8574C24.1895 26.597 24.1895 26.3366 24.1895 26.0762Z" fill="#325831"/>
<path fill-rule="evenodd" clip-rule="evenodd" d="M33.3691 27.9317C33.4794 28.1395 33.4957 28.3674 33.418 28.6153C33.1901 28.8758 32.9622 28.8758 32.7344 28.6153C32.5823 27.1928 31.8174 26.6557 30.4395 27.004C30.092 27.1888 29.8478 27.4654 29.707 27.8341C29.6587 27.6414 29.6424 27.4461 29.6582 27.2481C29.7475 26.7835 30.0079 26.4417 30.4395 26.2227C31.8156 25.8722 32.5806 26.4093 32.7344 27.8341C32.9197 28.0474 33.1312 28.0799 33.3691 27.9317Z" fill="#325831"/>
<path fill-rule="evenodd" clip-rule="evenodd" d="M34.4434 26.0762C35.0293 26.0762 35.6152 26.0762 36.2012 26.0762C36.2012 26.3366 36.2012 26.597 36.2012 26.8574C35.6144 26.8736 35.0284 26.8573 34.4434 26.8086C34.1908 26.565 34.1908 26.3209 34.4434 26.0762Z" fill="#325831"/>
<path fill-rule="evenodd" clip-rule="evenodd" d="M37.0801 26.0762C37.6335 26.0762 38.1868 26.0762 38.7402 26.0762C38.9928 26.3209 38.9928 26.565 38.7402 26.8086C38.1878 26.8573 37.6344 26.8736 37.0801 26.8574C37.0801 26.597 37.0801 26.3366 37.0801 26.0762Z" fill="#325831"/>
<path fill-rule="evenodd" clip-rule="evenodd" d="M43.6231 27.9317C42.8847 26.7013 41.9569 26.5385 40.8398 27.4435C40.631 27.9219 40.5495 27.8567 40.5957 27.2481C40.9186 26.3262 41.5696 25.9519 42.5488 26.1251C43.346 26.4663 43.7041 27.0685 43.6231 27.9317Z" fill="#325831"/>
<path fill-rule="evenodd" clip-rule="evenodd" d="M18.7207 26.0762C18.7207 26.3366 18.7207 26.597 18.7207 26.8574C19.4376 26.8412 20.1537 26.8574 20.8691 26.9062C21.2324 27.0261 21.5254 27.2376 21.748 27.541C21.6398 27.9586 21.3794 28.2353 20.9668 28.3711C20.1862 28.4199 19.405 28.4361 18.623 28.4199C18.5912 27.6207 18.6238 26.8395 18.7207 26.0762Z" fill="#3BAE49"/>
<path fill-rule="evenodd" clip-rule="evenodd" d="M43.623 27.9317C43.623 28.2898 43.623 28.6478 43.623 29.0059C42.5813 29.0059 41.5397 29.0059 40.498 29.0059C40.4665 28.4014 40.499 27.8155 40.5957 27.2481C40.5495 27.8567 40.631 27.9218 40.8398 27.4434C41.9569 26.5384 42.8847 26.7012 43.623 27.9317Z" fill="#3BAE49"/>
<path fill-rule="evenodd" clip-rule="evenodd" d="M12.4707 27.541C12.5633 27.9695 12.7911 28.3113 13.1543 28.5664C14.0221 28.9515 14.901 29.3096 15.791 29.6406C16.181 29.9159 16.3437 30.2903 16.2793 30.7637C15.2591 30.2653 14.2174 29.7933 13.1543 29.3477C12.5452 28.8663 12.3174 28.2641 12.4707 27.541Z" fill="#325831"/>
<path fill-rule="evenodd" clip-rule="evenodd" d="M22.4316 27.834C22.588 28.8998 22.1323 29.5997 21.0645 29.9336C20.2839 29.9824 19.5026 29.9986 18.7207 29.9824C18.7207 29.722 18.7207 29.4616 18.7207 29.2012C19.6076 29.2416 20.4865 29.1928 21.3574 29.0547C21.9086 28.8131 22.2667 28.4062 22.4316 27.834Z" fill="#325831"/>
<path fill-rule="evenodd" clip-rule="evenodd" d="M24.1895 29.2012C25.3938 29.2012 26.5983 29.2012 27.8027 29.2012C28.0553 29.4459 28.0553 29.69 27.8027 29.9336C26.5987 29.9824 25.3943 29.9987 24.1895 29.9824C24.1895 29.722 24.1895 29.4616 24.1895 29.2012Z" fill="#325831"/>
<path fill-rule="evenodd" clip-rule="evenodd" d="M40.5957 29.7871C41.6048 29.7871 42.614 29.7871 43.623 29.7871C43.623 30.0476 43.623 30.3079 43.623 30.5684C42.614 30.5684 41.6048 30.5684 40.5957 30.5684C40.5957 30.3079 40.5957 30.0476 40.5957 29.7871Z" fill="#325831"/>
<path fill-rule="evenodd" clip-rule="evenodd" d="M28.877 30.5684C29.1456 31.4067 29.699 31.9765 30.5371 32.2773C31.9291 32.4936 32.8731 31.9564 33.3691 30.666C33.425 32.1742 32.6763 32.988 31.123 33.1074C29.5913 32.9123 28.8426 32.066 28.877 30.5684Z" fill="#325831"/>
<path fill-rule="evenodd" clip-rule="evenodd" d="M12.4707 31.1543C12.9227 32.0805 13.6714 32.4711 14.7168 32.3262C15.7622 32.4711 16.5109 32.0805 16.9629 31.1543C17.0982 32.132 16.6751 32.7668 15.6934 33.0586C15.0098 33.1237 14.3262 33.1237 13.6426 33.0586C12.7631 32.6911 12.3724 32.0563 12.4707 31.1543Z" fill="#325831"/>
<path fill-rule="evenodd" clip-rule="evenodd" d="M17.8418 32.1309C18.0452 32.3363 18.2731 32.3689 18.5254 32.2285C18.6356 32.4363 18.652 32.6642 18.5742 32.9121C18.3464 33.1726 18.1185 33.1726 17.8906 32.9121C17.8421 32.6537 17.8258 32.3933 17.8418 32.1309Z" fill="#325831"/>
<path fill-rule="evenodd" clip-rule="evenodd" d="M39.7168 32.1309C39.9202 32.3363 40.1481 32.3689 40.4004 32.2285C40.5106 32.4363 40.527 32.6642 40.4492 32.9121C40.2214 33.1726 39.9935 33.1726 39.7656 32.9121C39.7171 32.6537 39.7008 32.3933 39.7168 32.1309Z" fill="#325831"/>
<path fill-rule="evenodd" clip-rule="evenodd" d="M43.623 32.1309C43.8265 32.3363 44.0544 32.3689 44.3066 32.2285C44.4169 32.4363 44.4332 32.6642 44.3555 32.9121C44.1276 33.1726 43.8997 33.1726 43.6719 32.9121C43.6233 32.6537 43.607 32.3933 43.623 32.1309Z" fill="#325831"/>
<path fill-rule="evenodd" clip-rule="evenodd" d="M23.3105 32.1309C23.3876 32.1585 23.4527 32.2073 23.5059 32.2773C24.9378 32.3262 26.3701 32.3425 27.8027 32.3262C28.0553 32.5709 28.0553 32.815 27.8027 33.0586C26.3704 33.1237 24.9382 33.1237 23.5059 33.0586C23.3262 32.7826 23.2611 32.4733 23.3105 32.1309Z" fill="#325831"/>
<path fill-rule="evenodd" clip-rule="evenodd" d="M34.4434 32.3262C35.8757 32.3262 37.3079 32.3262 38.7402 32.3262C38.9928 32.5709 38.9928 32.815 38.7402 33.0586C37.3079 33.1237 35.8757 33.1237 34.4434 33.0586C34.1908 32.815 34.1908 32.5709 34.4434 32.3262Z" fill="#325831"/>
<path fill-rule="evenodd" clip-rule="evenodd" d="M45.1855 32.1309C45.2626 32.1585 45.3277 32.2073 45.3809 32.2773C46.8128 32.3262 48.2451 32.3425 49.6777 32.3262C49.9303 32.5709 49.9303 32.815 49.6777 33.0586C48.2454 33.1237 46.8132 33.1237 45.3809 33.0586C45.2012 32.7826 45.1361 32.4733 45.1855 32.1309Z" fill="#325831"/>
<path opacity="0.996" fill-rule="evenodd" clip-rule="evenodd" d="M25.752 34.6699C33.8249 34.6699 41.8978 34.6699 49.9707 34.6699C48.1258 34.9708 46.2703 35.2638 44.4043 35.5488C36.6082 35.4513 28.7957 35.4187 20.9668 35.4512C22.5618 35.1907 24.1569 34.9304 25.752 34.6699Z" fill="#254025"/>
<path opacity="0.982" fill-rule="evenodd" clip-rule="evenodd" d="M20.9668 35.4511C28.7957 35.4186 36.6082 35.4512 44.4043 35.5488C42.8211 35.7238 41.2586 35.9516 39.7168 36.2324C31.6438 36.2324 23.571 36.2324 15.498 36.2324C17.2991 35.91 19.1221 35.6496 20.9668 35.4511Z" fill="#183917"/>
<path opacity="0.998" fill-rule="evenodd" clip-rule="evenodd" d="M15.498 36.2324C23.571 36.2324 31.6438 36.2324 39.7168 36.2324C42.3862 36.2161 45.0556 36.2324 47.7246 36.2813C48.5907 36.6622 48.9325 37.3295 48.75 38.2832C48.2357 39.5494 47.7312 40.819 47.2363 42.0918C47.7312 43.3647 48.2357 44.6342 48.75 45.9004C48.9325 46.8541 48.5907 47.5214 47.7246 47.9024C36.9173 47.9675 26.1101 47.9675 15.3027 47.9024C14.8215 47.7142 14.5123 47.3724 14.375 46.877C14.3099 43.6868 14.3099 40.4968 14.375 37.3067C14.5432 36.7316 14.9175 36.3735 15.498 36.2324Z" fill="#3BAE49"/>
<path fill-rule="evenodd" clip-rule="evenodd" d="M21.6504 43.9474C21.1544 45.2378 20.2104 45.7749 18.8184 45.5587C17.9803 45.2578 17.4269 44.6881 17.1582 43.8497C17.0118 42.609 17.0281 41.3721 17.207 40.1388C18.1845 38.4134 19.4865 38.1204 21.1133 39.2599C21.3146 39.4944 21.4774 39.7547 21.6016 40.0411C21.7771 41.3437 21.7933 42.6458 21.6504 43.9474Z" fill="#EEEAEB"/>
<path fill-rule="evenodd" clip-rule="evenodd" d="M27.0215 39.3574C25.8171 39.3574 24.6126 39.3574 23.4082 39.3574C23.3113 40.1207 23.2787 40.902 23.3105 41.7012C24.5479 41.6849 25.785 41.7012 27.0215 41.75C27.274 41.9936 27.274 42.2377 27.0215 42.4824C25.8171 42.4824 24.6126 42.4824 23.4082 42.4824C23.3409 43.482 23.2759 44.491 23.2129 45.5098C22.9606 45.6502 22.7327 45.6176 22.5293 45.4121C22.513 43.1984 22.5293 40.9848 22.5781 38.7715C22.627 38.7227 22.6758 38.6739 22.7246 38.625C24.1569 38.5599 25.5892 38.5599 27.0215 38.625C27.274 38.8686 27.274 39.1127 27.0215 39.3574Z" fill="#EFECED"/>
<path fill-rule="evenodd" clip-rule="evenodd" d="M32.4902 39.3574C31.2858 39.3574 30.0813 39.3574 28.877 39.3574C28.7801 40.1207 28.7475 40.902 28.7793 41.7012C30.0167 41.6849 31.2537 41.7012 32.4902 41.75C32.7428 41.9936 32.7428 42.2377 32.4902 42.4824C31.2858 42.4824 30.0813 42.4824 28.877 42.4824C28.8097 43.482 28.7446 44.491 28.6816 45.5098C28.4294 45.6502 28.2015 45.6176 27.998 45.4121C27.9817 43.1984 27.998 40.9848 28.0469 38.7715C28.0957 38.7227 28.1445 38.6739 28.1934 38.625C29.6257 38.5599 31.0579 38.5599 32.4902 38.625C32.7428 38.8686 32.7428 39.1127 32.4902 39.3574Z" fill="#EFECED"/>
<path fill-rule="evenodd" clip-rule="evenodd" d="M37.959 39.3574C36.7546 39.3574 35.5501 39.3574 34.3457 39.3574C34.2488 40.1207 34.2162 40.902 34.248 41.7012C35.4854 41.6849 36.7225 41.7012 37.959 41.75C38.2115 41.9936 38.2115 42.2377 37.959 42.4824C36.7546 42.4824 35.5501 42.4824 34.3457 42.4824C34.2488 43.2457 34.2162 44.027 34.248 44.8262C35.4854 44.8099 36.7225 44.8262 37.959 44.875C38.2115 45.1186 38.2115 45.3627 37.959 45.6074C36.5264 45.6238 35.094 45.6074 33.6621 45.5586C33.609 45.4886 33.5438 45.4398 33.4668 45.4121C33.4505 43.1984 33.4668 40.9848 33.5156 38.7715C33.5645 38.7227 33.6133 38.6739 33.6621 38.625C35.0944 38.5599 36.5267 38.5599 37.959 38.625C38.2115 38.8686 38.2115 39.1127 37.959 39.3574Z" fill="#EFEDED"/>
<path fill-rule="evenodd" clip-rule="evenodd" d="M43.5254 41.0176C43.2871 41.7443 42.7988 42.2 42.0605 42.3848C42.1104 42.6311 42.2081 42.8589 42.3535 43.0684C42.7771 43.7047 43.1841 44.3558 43.5742 45.0215C43.6473 45.25 43.5984 45.4453 43.4277 45.6074C43.2107 45.6389 43.0316 45.5738 42.8906 45.4121C42.3251 44.4272 41.7229 43.4669 41.084 42.5313C40.662 42.4825 40.2389 42.4662 39.8145 42.4824C39.7472 43.482 39.6821 44.491 39.6191 45.5098C39.3669 45.6502 39.139 45.6176 38.9355 45.4121C38.9192 43.1984 38.9355 40.9848 38.9844 38.7715C39.0332 38.7227 39.082 38.6739 39.1309 38.625C40.1074 38.5599 41.084 38.5599 42.0605 38.625C43.2376 39.011 43.7259 39.8085 43.5254 41.0176Z" fill="#EEEBEC"/>
<path fill-rule="evenodd" clip-rule="evenodd" d="M20.9668 41.213C20.2284 39.9825 19.3007 39.8197 18.1836 40.7247C17.9747 41.2031 17.8933 41.138 17.9395 40.5294C18.2623 39.6074 18.9134 39.2331 19.8926 39.4063C20.6897 39.7476 21.0479 40.3497 20.9668 41.213Z" fill="#325831"/>
<path fill-rule="evenodd" clip-rule="evenodd" d="M23.4082 39.3574C24.6126 39.3574 25.8171 39.3574 27.0215 39.3574C27.274 39.6021 27.274 39.8463 27.0215 40.0898C25.8175 40.1387 24.6131 40.155 23.4082 40.1387C23.4082 39.8782 23.4082 39.6179 23.4082 39.3574Z" fill="#325831"/>
<path fill-rule="evenodd" clip-rule="evenodd" d="M28.877 39.3574C30.0813 39.3574 31.2858 39.3574 32.4902 39.3574C32.7428 39.6021 32.7428 39.8463 32.4902 40.0898C31.2862 40.1387 30.0818 40.155 28.877 40.1387C28.877 39.8782 28.877 39.6179 28.877 39.3574Z" fill="#325831"/>
<path fill-rule="evenodd" clip-rule="evenodd" d="M34.3457 39.3574C35.5501 39.3574 36.7546 39.3574 37.959 39.3574C38.2115 39.6021 38.2115 39.8463 37.959 40.0898C36.755 40.1387 35.5506 40.155 34.3457 40.1387C34.3457 39.8782 34.3457 39.6179 34.3457 39.3574Z" fill="#325831"/>
<path fill-rule="evenodd" clip-rule="evenodd" d="M39.8145 39.3574C40.5639 39.3412 41.3126 39.3574 42.0605 39.4062C42.6622 39.6813 42.9227 40.1533 42.8418 40.8222C42.6191 40.5188 42.3262 40.3073 41.9629 40.1875C41.2475 40.1386 40.5313 40.1224 39.8145 40.1386C39.8145 39.8782 39.8145 39.6178 39.8145 39.3574Z" fill="#325831"/>
<path fill-rule="evenodd" clip-rule="evenodd" d="M39.8145 39.3574C39.8145 39.6179 39.8145 39.8782 39.8145 40.1387C40.5313 40.1225 41.2475 40.1387 41.9629 40.1875C42.3262 40.3073 42.6191 40.5188 42.8418 40.8223C42.7336 41.2398 42.4731 41.5165 42.0605 41.6523C41.28 41.7012 40.4987 41.7174 39.7168 41.7012C39.685 40.902 39.7176 40.1207 39.8145 39.3574Z" fill="#3BAE49"/>
<path fill-rule="evenodd" clip-rule="evenodd" d="M20.9668 41.213C20.983 42.0274 20.9668 42.8412 20.918 43.6544C20.5778 44.5978 19.9105 44.9721 18.916 44.7774C18.3629 44.5497 18.0211 44.1427 17.8906 43.5567C17.8101 42.5305 17.8263 41.5214 17.9395 40.5294C17.8933 41.138 17.9747 41.2031 18.1836 40.7247C19.3007 39.8197 20.2284 39.9825 20.9668 41.213Z" fill="#3BAE49"/>
<path fill-rule="evenodd" clip-rule="evenodd" d="M43.5254 41.0176C43.6718 41.9933 43.2812 42.6769 42.3535 43.0684C42.2081 42.8589 42.1104 42.6311 42.0605 42.3848C42.7988 42.2 43.2871 41.7442 43.5254 41.0176Z" fill="#325831"/>
<path fill-rule="evenodd" clip-rule="evenodd" d="M23.4082 42.4824C24.6126 42.4824 25.8171 42.4824 27.0215 42.4824C27.274 42.7271 27.274 42.9713 27.0215 43.2148C25.8175 43.2637 24.6131 43.28 23.4082 43.2637C23.4082 43.0032 23.4082 42.7429 23.4082 42.4824Z" fill="#325831"/>
<path fill-rule="evenodd" clip-rule="evenodd" d="M28.877 42.4824C30.0813 42.4824 31.2858 42.4824 32.4902 42.4824C32.7428 42.7271 32.7428 42.9713 32.4902 43.2148C31.2862 43.2637 30.0818 43.28 28.877 43.2637C28.877 43.0032 28.877 42.7429 28.877 42.4824Z" fill="#325831"/>
<path fill-rule="evenodd" clip-rule="evenodd" d="M34.3457 42.4824C35.5501 42.4824 36.7546 42.4824 37.959 42.4824C38.2115 42.7271 38.2115 42.9713 37.959 43.2148C36.755 43.2637 35.5506 43.28 34.3457 43.2637C34.3457 43.0032 34.3457 42.7429 34.3457 42.4824Z" fill="#325831"/>
<path fill-rule="evenodd" clip-rule="evenodd" d="M39.8145 42.4824C40.2389 42.4662 40.662 42.4825 41.084 42.5312C41.7229 43.4669 42.3251 44.4271 42.8906 45.4121C43.0316 45.5737 43.2107 45.6388 43.4277 45.6074C43.7636 46.1045 43.6334 46.3486 43.0371 46.3398C42.386 45.3307 41.7351 44.3215 41.084 43.3125C40.662 43.2637 40.2389 43.2474 39.8145 43.2636C39.8145 43.0032 39.8145 42.7428 39.8145 42.4824Z" fill="#325831"/>
<path fill-rule="evenodd" clip-rule="evenodd" d="M17.1582 43.8496C17.4269 44.688 17.9803 45.2577 18.8184 45.5586C20.2104 45.7748 21.1544 45.2377 21.6504 43.9473C21.7063 45.4555 20.9575 46.2692 19.4043 46.3887C17.8726 46.1936 17.1238 45.3473 17.1582 43.8496Z" fill="#325831"/>
<path fill-rule="evenodd" clip-rule="evenodd" d="M22.5293 45.4121C22.7327 45.6176 22.9606 45.6502 23.2129 45.5098C23.3231 45.7176 23.3395 45.9454 23.2617 46.1934C23.0339 46.4538 22.806 46.4538 22.5781 46.1934C22.5296 45.935 22.5133 45.6745 22.5293 45.4121Z" fill="#325831"/>
<path fill-rule="evenodd" clip-rule="evenodd" d="M27.998 45.4121C28.2015 45.6176 28.4294 45.6502 28.6816 45.5098C28.7919 45.7176 28.8082 45.9454 28.7305 46.1934C28.5026 46.4538 28.2747 46.4538 28.0469 46.1934C27.9983 45.935 27.982 45.6745 27.998 45.4121Z" fill="#325831"/>
<path fill-rule="evenodd" clip-rule="evenodd" d="M38.9355 45.4121C39.139 45.6176 39.3669 45.6502 39.6191 45.5098C39.7294 45.7176 39.7457 45.9454 39.668 46.1934C39.4401 46.4538 39.2122 46.4538 38.9844 46.1934C38.9358 45.935 38.9195 45.6745 38.9355 45.4121Z" fill="#325831"/>
<path fill-rule="evenodd" clip-rule="evenodd" d="M33.4668 45.4121C33.5438 45.4397 33.609 45.4886 33.6621 45.5586C35.094 45.6074 36.5264 45.6237 37.959 45.6074C38.2115 45.8521 38.2115 46.0963 37.959 46.3398C36.5267 46.405 35.0944 46.405 33.6621 46.3398C33.4824 46.0639 33.4174 45.7546 33.4668 45.4121Z" fill="#325831"/>
<path opacity="0.961" fill-rule="evenodd" clip-rule="evenodd" d="M25.3613 49.9044C26.2084 49.8561 26.5502 50.2468 26.3867 51.0762C25.9831 51.5776 25.5437 52.0497 25.0684 52.4923C24.0832 52.8412 23.6438 52.4994 23.75 51.4669C24.2123 50.8579 24.7494 50.3371 25.3613 49.9044Z" fill="#FAB400"/>
<path opacity="0.943" fill-rule="evenodd" clip-rule="evenodd" d="M34.0527 49.9044C34.3233 49.8966 34.5837 49.9455 34.834 50.0508C35.2409 50.4578 35.6478 50.8646 36.0547 51.2715C36.3758 51.6891 36.3596 52.0961 36.0059 52.4922C35.6932 52.6371 35.3676 52.6697 35.0293 52.5899C34.3469 52.1197 33.8261 51.5174 33.4668 50.7833C33.5117 50.3819 33.707 50.0889 34.0527 49.9044Z" fill="#01A0C8"/>
<path opacity="0.966" fill-rule="evenodd" clip-rule="evenodd" d="M29.5605 51.0761C29.9843 51.0122 30.3587 51.1099 30.6836 51.369C30.8789 52.2154 30.8789 53.0617 30.6836 53.9081C30.1605 54.3268 29.6722 54.2941 29.2188 53.8104C29.1536 53.0292 29.1536 52.2479 29.2188 51.4667C29.3531 51.349 29.467 51.2188 29.5605 51.0761Z" fill="#2F8B3A"/>
</svg>
