<svg width="16" height="15" viewBox="0 0 16 15" fill="none" xmlns="http://www.w3.org/2000/svg">
<path d="M15 8C15.5523 8 16.0064 7.55056 15.9376 7.00258C15.805 5.94776 15.4631 4.92647 14.9282 4C14.2261 2.78385 13.2162 1.77394 12 1.0718C10.7838 0.36965 9.40429 -6.13836e-08 8 0C6.59571 6.13836e-08 5.21615 0.36965 4 1.0718C2.78385 1.77394 1.77394 2.78385 1.0718 4C0.36965 5.21615 -1.22767e-07 6.59571 0 8C1.22767e-07 9.40429 0.36965 10.7838 1.0718 12C1.60669 12.9265 2.32019 13.7332 3.16742 14.3754C3.60755 14.7091 4.22386 14.5405 4.5 14.0622L6.3 10.9445C6.57614 10.4662 6.38709 9.86106 6.06148 9.41497C6.01117 9.34605 5.96444 9.27431 5.92154 9.2C5.7109 8.83515 5.6 8.42129 5.6 8C5.6 7.57871 5.7109 7.16485 5.92154 6.8C6.13218 6.43515 6.43515 6.13218 6.8 5.92154C7.16485 5.71089 7.57871 5.6 8 5.6C8.42129 5.6 8.83515 5.71089 9.2 5.92154C9.56485 6.13218 9.86782 6.43515 10.0785 6.8C10.1214 6.87431 10.1601 6.95065 10.1947 7.02868C10.4182 7.53371 10.8477 8 11.4 8H15Z" fill="#616161"/>
</svg>
