<svg width="12" height="13" viewBox="0 0 12 13" fill="none" xmlns="http://www.w3.org/2000/svg">
<path opacity="0.995" fill-rule="evenodd" clip-rule="evenodd" d="M5.49627 1.14445C7.34567 1.03253 8.88083 1.66534 10.1017 3.04289C11.2635 4.51572 11.6073 6.16415 11.133 7.9882C10.5431 9.82804 9.3283 11.0429 7.48845 11.6327C5.66453 12.107 4.0161 11.7633 2.54314 10.6015C1.01746 9.22793 0.411992 7.52088 0.726736 5.48039C1.11989 3.66569 2.15505 2.36491 3.8322 1.57804C4.36981 1.35578 4.92451 1.21125 5.49627 1.14445Z" fill="#FED92B"/>
<path fill-rule="evenodd" clip-rule="evenodd" d="M5.73055 2.36326C7.42452 2.3369 8.70969 3.04002 9.58602 4.47264C10.2879 5.81565 10.2879 7.1594 9.58602 8.50389C8.64158 10.025 7.27049 10.7164 5.47274 10.5781C3.63732 10.2584 2.46936 9.19982 1.96883 7.40233C1.65403 5.69315 2.16575 4.29081 3.50399 3.19529C4.16853 2.70663 4.91071 2.42929 5.73055 2.36326Z" fill="#FCAA17"/>
<path fill-rule="evenodd" clip-rule="evenodd" d="M5.96484 3.34757C5.98537 3.3445 6.00101 3.35231 6.01172 3.37101C6.31978 3.9832 6.62447 4.59649 6.92578 5.21086C7.62089 5.31799 8.31621 5.42735 9.01172 5.53898C8.51562 6.01945 8.01954 6.49992 7.52344 6.98039C7.63282 7.68356 7.7422 8.38668 7.85156 9.08976C7.23232 8.75866 6.61123 8.43054 5.98828 8.10539C5.36534 8.43054 4.74424 8.75866 4.125 9.08976C4.23438 8.38661 4.34377 7.68349 4.45312 6.98039C3.95283 6.49961 3.45675 6.01525 2.96484 5.52726C3.65946 5.41853 4.35476 5.31307 5.05078 5.21086C5.35873 4.59105 5.66341 3.96996 5.96484 3.34757Z" fill="#FDD92B"/>
</svg>
