<svg width="33" height="26" viewBox="0 0 33 26" fill="none" xmlns="http://www.w3.org/2000/svg">
<g clip-path="url(#clip0_769_30457)">
<path opacity="0.993" fill-rule="evenodd" clip-rule="evenodd" d="M20.9766 4.36719C20.9766 5.55469 20.9766 6.7422 20.9766 7.92969C20.6495 7.96817 20.3526 8.08536 20.0859 8.28125C19.7395 8.65869 19.3958 9.03369 19.0547 9.40625C18.4948 9.35061 17.9323 9.33495 17.3672 9.35938C16.9862 9.4558 16.6893 9.66674 16.4766 9.99219C14.3717 8.21277 12.2936 6.40025 10.2422 4.55469C10.4125 4.45906 10.6 4.40437 10.8047 4.39063C14.1953 4.36719 17.5859 4.35937 20.9766 4.36719Z" fill="#06CA86"/>
<path opacity="0.993" fill-rule="evenodd" clip-rule="evenodd" d="M20.9766 4.36719C24.3672 4.35937 27.7578 4.36719 31.1484 4.39063C31.3532 4.40437 31.5407 4.45906 31.7109 4.55469C29.6435 6.37778 27.5654 8.19027 25.4766 9.99219C25.2638 9.66674 24.9669 9.4558 24.5859 9.35938C24.0074 9.34508 23.4293 9.34508 22.8516 9.35938C22.5406 8.9577 22.1969 8.5827 21.8203 8.23438C21.627 8.08297 21.4082 7.99705 21.1641 7.97656C21.114 7.93278 21.0515 7.91713 20.9766 7.92969C20.9766 6.7422 20.9766 5.55469 20.9766 4.36719Z" fill="#06CA86"/>
<path opacity="0.998" fill-rule="evenodd" clip-rule="evenodd" d="M31.7109 4.55469C32.177 4.7551 32.5207 5.08323 32.7422 5.53906C30.3516 7.63283 27.9609 9.72655 25.5703 11.8203C25.6078 11.3363 25.6156 10.8519 25.5938 10.3672C25.5496 10.2428 25.5106 10.1178 25.4766 9.99219C27.5654 8.19027 29.6435 6.37778 31.7109 4.55469Z" fill="#263238"/>
<path opacity="0.999" fill-rule="evenodd" clip-rule="evenodd" d="M10.2422 4.55469C12.2936 6.40025 14.3717 8.21277 16.4766 9.99219C16.3225 10.5134 16.2912 11.0447 16.3828 11.5859C16.3903 11.6656 16.3825 11.7437 16.3594 11.8203C13.9826 9.7168 11.5998 7.62303 9.21094 5.53906C9.43241 5.08323 9.77616 4.7551 10.2422 4.55469Z" fill="#263238"/>
<path fill-rule="evenodd" clip-rule="evenodd" d="M9.21094 5.53906C11.5998 7.62303 13.9826 9.7168 16.3594 11.8203C16.3825 11.7437 16.3903 11.6656 16.3828 11.5859C16.4475 11.7705 16.4397 11.958 16.3594 12.1484C15.9862 12.4435 15.6268 12.7559 15.2812 13.0859C14.9133 13.6131 14.8821 14.16 15.1875 14.7266C15.425 15.0345 15.6984 15.3001 16.0078 15.5234C15.5431 15.9176 15.0978 16.3395 14.6719 16.7891C12.8749 18.7032 11.0545 20.5939 9.21094 22.4609C9.11352 22.2771 9.0354 22.0896 8.97656 21.8984C8.97656 16.6172 8.97656 11.336 8.97656 6.05469C9.02732 5.87152 9.10544 5.69965 9.21094 5.53906Z" fill="#06CA86"/>
<path fill-rule="evenodd" clip-rule="evenodd" d="M32.7421 5.53906C32.8476 5.69965 32.9257 5.87152 32.9764 6.05469C32.9764 11.336 32.9764 16.6172 32.9764 21.8984C32.9176 22.0896 32.8395 22.2771 32.7421 22.4609C30.4919 20.1483 28.2575 17.8202 26.0389 15.4766C26.3187 15.2358 26.5765 14.9702 26.8124 14.6797C27.1131 14.1439 27.0818 13.6282 26.7186 13.1328C26.3703 12.7563 25.9953 12.4125 25.5936 12.1016C25.5704 12.0091 25.5626 11.9153 25.5702 11.8203C27.9608 9.72655 30.3514 7.63283 32.7421 5.53906Z" fill="#06CA86"/>
<path fill-rule="evenodd" clip-rule="evenodd" d="M20.9763 7.92973C21.0513 7.91717 21.1138 7.93283 21.1638 7.97661C21.1014 7.97661 21.0388 7.97661 20.9763 7.97661C20.9763 9.78912 20.9763 11.6016 20.9763 13.4141C20.9763 13.4297 20.9763 13.4454 20.9763 13.461C20.8215 13.5856 20.6653 13.7106 20.5076 13.836C20.3916 13.6653 20.2666 13.5012 20.1326 13.3438C19.7166 13.1324 19.3651 13.2027 19.0779 13.5547C18.987 13.7878 18.987 14.0222 19.0779 14.2579C19.354 14.6928 19.6587 15.1068 19.992 15.5C20.3691 15.6429 20.6973 15.5726 20.9763 15.2891C20.9763 16.8516 20.9763 18.4141 20.9763 19.9766C21.0232 19.9766 21.0701 19.9766 21.117 19.9766C21.0837 20.019 21.0369 20.0346 20.9763 20.0235C20.6493 19.985 20.3524 19.8678 20.0857 19.6719C19.7393 19.2945 19.3956 18.9195 19.0545 18.5469C18.6564 18.5576 18.258 18.581 17.8592 18.6172C16.8638 18.6141 16.356 18.1141 16.3357 17.1172C16.3393 16.708 16.3628 16.3017 16.406 15.8985C16.289 15.7577 16.1562 15.6327 16.0076 15.5235C15.6982 15.3001 15.4248 15.0345 15.1873 14.7266C14.8819 14.16 14.9131 13.6131 15.281 13.086C15.6265 12.756 15.9859 12.4435 16.3592 12.1485C16.4395 11.958 16.4473 11.7705 16.3826 11.586C16.291 11.0448 16.3223 10.5135 16.4763 9.99223C16.6891 9.66678 16.986 9.45584 17.367 9.35942C17.9321 9.335 18.4946 9.35065 19.0545 9.4063C19.3956 9.03373 19.7393 8.65873 20.0857 8.2813C20.3524 8.0854 20.6493 7.96822 20.9763 7.92973Z" fill="#8EE16B"/>
<path fill-rule="evenodd" clip-rule="evenodd" d="M21.1641 7.97656C21.4082 7.99705 21.627 8.08297 21.8203 8.23438C22.1969 8.5827 22.5406 8.9577 22.8516 9.35938C23.4293 9.34508 24.0074 9.34508 24.5859 9.35938C24.9669 9.4558 25.2638 9.66673 25.4766 9.99219C25.5106 10.1178 25.5496 10.2428 25.5938 10.3672C25.6156 10.8519 25.6078 11.3363 25.5703 11.8203C25.5627 11.9153 25.5705 12.0091 25.5938 12.1016C25.9954 12.4125 26.3704 12.7563 26.7188 13.1328C27.0819 13.6282 27.1132 14.1439 26.8125 14.6797C26.5767 14.9702 26.3189 15.2358 26.0391 15.4766C25.8698 15.5754 25.7213 15.7004 25.5938 15.8516C25.5763 16.1956 25.5841 16.5394 25.6172 16.8828C25.7439 17.7462 25.4002 18.3165 24.5859 18.5938C24.0074 18.608 23.4293 18.608 22.8516 18.5938C22.541 18.9935 22.1973 19.3685 21.8203 19.7188C21.6075 19.8652 21.3731 19.9511 21.1172 19.9766C21.0703 19.9766 21.0234 19.9766 20.9766 19.9766C20.9766 18.4141 20.9766 16.8515 20.9766 15.2891C21.6292 14.7695 22.262 14.2227 22.875 13.6484C23.0536 12.827 22.7333 12.5068 21.9141 12.6875C21.6065 12.9409 21.294 13.1831 20.9766 13.4141C20.9766 11.6015 20.9766 9.78908 20.9766 7.97656C21.039 7.97656 21.1016 7.97656 21.1641 7.97656Z" fill="#8EE16B"/>
<path fill-rule="evenodd" clip-rule="evenodd" d="M20.9766 15.2891C20.9766 14.6798 20.9766 14.0704 20.9766 13.461C20.9766 13.4454 20.9766 13.4297 20.9766 13.4141C21.294 13.1831 21.6065 12.941 21.9141 12.6876C22.7333 12.5068 23.0536 12.8271 22.875 13.6485C22.262 14.2227 21.6292 14.7696 20.9766 15.2891Z" fill="#DFE5EF"/>
<path fill-rule="evenodd" clip-rule="evenodd" d="M20.9764 13.461C20.9764 14.0704 20.9764 14.6798 20.9764 15.2891C20.6973 15.5726 20.3692 15.643 19.992 15.5001C19.6587 15.1069 19.354 14.6928 19.0779 14.2579C18.987 14.0223 18.987 13.7879 19.0779 13.5548C19.3651 13.2027 19.7167 13.1324 20.1326 13.3438C20.2666 13.5012 20.3916 13.6653 20.5076 13.836C20.6653 13.7106 20.8215 13.5856 20.9764 13.461Z" fill="#F2F4F7"/>
<path opacity="0.998" fill-rule="evenodd" clip-rule="evenodd" d="M16.0078 15.5234C16.1565 15.6327 16.2892 15.7577 16.4062 15.8984C16.363 16.3017 16.3395 16.7079 16.3359 17.1172C14.3217 19.2252 12.2905 21.3189 10.2422 23.3984C9.79517 23.2015 9.45142 22.889 9.21094 22.4609C11.0545 20.5939 12.8749 18.7032 14.6719 16.7891C15.0978 16.3395 15.5431 15.9176 16.0078 15.5234Z" fill="#263238"/>
<path opacity="0.998" fill-rule="evenodd" clip-rule="evenodd" d="M26.0393 15.4766C28.2579 17.8202 30.4923 20.1483 32.7424 22.4609C32.502 22.889 32.1582 23.2015 31.7112 23.3984C29.6971 21.3453 27.6893 19.2828 25.6877 17.2109C25.679 17.0921 25.6556 16.9827 25.6174 16.8828C25.5844 16.5394 25.5766 16.1956 25.594 15.8516C25.7216 15.7004 25.87 15.5754 26.0393 15.4766Z" fill="#263238"/>
<path opacity="0.994" fill-rule="evenodd" clip-rule="evenodd" d="M16.3359 17.1172C16.3562 18.114 16.864 18.614 17.8594 18.6172C18.2582 18.581 18.6566 18.5576 19.0547 18.5469C19.3958 18.9194 19.7395 19.2944 20.0859 19.6719C20.3526 19.8678 20.6495 19.985 20.9766 20.0234C20.9766 21.2109 20.9766 22.3985 20.9766 23.5859C17.5859 23.5938 14.1953 23.5859 10.8047 23.5625C10.6 23.5488 10.4125 23.4941 10.2422 23.3984C12.2905 21.3189 14.3217 19.2252 16.3359 17.1172Z" fill="#06CA86"/>
<path opacity="0.994" fill-rule="evenodd" clip-rule="evenodd" d="M25.6172 16.8828C25.6553 16.9827 25.6788 17.0921 25.6875 17.2109C27.6891 19.2828 29.6969 21.3453 31.7109 23.3984C31.5373 23.4811 31.3498 23.5358 31.1484 23.5625C27.7578 23.5859 24.3672 23.5938 20.9766 23.5859C20.9766 22.3985 20.9766 21.2109 20.9766 20.0234C21.0371 20.0345 21.084 20.0189 21.1172 19.9766C21.3731 19.9511 21.6075 19.8652 21.8203 19.7188C22.1973 19.3685 22.541 18.9935 22.8516 18.5938C23.4293 18.608 24.0074 18.608 24.5859 18.5938C25.4002 18.3165 25.7439 17.7462 25.6172 16.8828Z" fill="#06CA86"/>
</g>
<circle cx="4" cy="4" r="4" fill="#E64646"/>
<defs>
<clipPath id="clip0_769_30457">
<rect width="24" height="24" fill="white" transform="translate(9 2)"/>
</clipPath>
</defs>
</svg>
